%TF.GenerationSoftware,KiCad,Pcbnew,9.0.3*%
%TF.CreationDate,2025-07-13T21:34:20+02:00*%
%TF.ProjectId,PCB_Ruler,5043425f-5275-46c6-9572-2e6b69636164,rev?*%
%TF.SameCoordinates,Original*%
%TF.FileFunction,Copper,L1,Top*%
%TF.FilePolarity,Positive*%
%FSLAX46Y46*%
G04 Gerber Fmt 4.6, Leading zero omitted, Abs format (unit mm)*
G04 Created by KiCad (PCBNEW 9.0.3) date 2025-07-13 21:34:20*
%MOMM*%
%LPD*%
G01*
G04 APERTURE LIST*
G04 Aperture macros list*
%AMRoundRect*
0 Rectangle with rounded corners*
0 $1 Rounding radius*
0 $2 $3 $4 $5 $6 $7 $8 $9 X,Y pos of 4 corners*
0 Add a 4 corners polygon primitive as box body*
4,1,4,$2,$3,$4,$5,$6,$7,$8,$9,$2,$3,0*
0 Add four circle primitives for the rounded corners*
1,1,$1+$1,$2,$3*
1,1,$1+$1,$4,$5*
1,1,$1+$1,$6,$7*
1,1,$1+$1,$8,$9*
0 Add four rect primitives between the rounded corners*
20,1,$1+$1,$2,$3,$4,$5,0*
20,1,$1+$1,$4,$5,$6,$7,0*
20,1,$1+$1,$6,$7,$8,$9,0*
20,1,$1+$1,$8,$9,$2,$3,0*%
%AMOutline4P*
0 Free polygon, 4 corners , with rotation*
0 The origin of the aperture is its center*
0 number of corners: always 4*
0 $1 to $8 corner X, Y*
0 $9 Rotation angle, in degrees counterclockwise*
0 create outline with 4 corners*
4,1,4,$1,$2,$3,$4,$5,$6,$7,$8,$1,$2,$9*%
%AMFreePoly0*
4,1,21,-0.125000,1.200000,0.125000,1.200000,0.125000,1.700000,0.375000,1.700000,0.375000,1.200000,0.825000,1.200000,0.825000,-1.200000,0.375000,-1.200000,0.375000,-1.700000,0.125000,-1.700000,0.125000,-1.200000,-0.125000,-1.200000,-0.125000,-1.700000,-0.375000,-1.700000,-0.375000,-1.200000,-0.825000,-1.200000,-0.825000,1.200000,-0.375000,1.200000,-0.375000,1.700000,-0.125000,1.700000,
-0.125000,1.200000,-0.125000,1.200000,$1*%
%AMFreePoly1*
4,1,12,0.210000,0.147000,0.247000,0.110000,0.260000,0.060000,0.260000,-0.060000,0.247000,-0.110000,0.210000,-0.147000,0.160000,-0.160000,-0.071000,-0.160000,-0.260000,0.029000,-0.260000,0.160000,0.160000,0.160000,0.210000,0.147000,0.210000,0.147000,$1*%
%AMFreePoly2*
4,1,12,0.210000,0.147000,0.247000,0.110000,0.260000,0.060000,0.260000,-0.060000,0.247000,-0.110000,0.210000,-0.147000,0.160000,-0.160000,-0.260000,-0.160000,-0.260000,-0.029000,-0.071000,0.160000,0.160000,0.160000,0.210000,0.147000,0.210000,0.147000,$1*%
%AMFreePoly3*
4,1,12,0.260000,-0.029000,0.260000,-0.160000,-0.160000,-0.160000,-0.210000,-0.147000,-0.247000,-0.110000,-0.260000,-0.060000,-0.260000,0.060000,-0.247000,0.110000,-0.210000,0.147000,-0.160000,0.160000,0.071000,0.160000,0.260000,-0.029000,0.260000,-0.029000,$1*%
%AMFreePoly4*
4,1,12,0.260000,0.029000,0.071000,-0.160000,-0.160000,-0.160000,-0.210000,-0.147000,-0.247000,-0.110000,-0.260000,-0.060000,-0.260000,0.060000,-0.247000,0.110000,-0.210000,0.147000,-0.160000,0.160000,0.260000,0.160000,0.260000,0.029000,0.260000,0.029000,$1*%
%AMFreePoly5*
4,1,6,1.000000,0.000000,0.500000,-0.750000,-0.500000,-0.750000,-0.500000,0.750000,0.500000,0.750000,1.000000,0.000000,1.000000,0.000000,$1*%
%AMFreePoly6*
4,1,6,0.500000,-0.750000,-0.650000,-0.750000,-0.150000,0.000000,-0.650000,0.750000,0.500000,0.750000,0.500000,-0.750000,0.500000,-0.750000,$1*%
G04 Aperture macros list end*
%TA.AperFunction,EtchedComponent*%
%ADD10C,0.000000*%
%TD*%
%TA.AperFunction,HeatsinkPad*%
%ADD11R,0.400000X1.200000*%
%TD*%
%TA.AperFunction,SMDPad,CuDef*%
%ADD12RoundRect,0.050000X0.275000X0.050000X-0.275000X0.050000X-0.275000X-0.050000X0.275000X-0.050000X0*%
%TD*%
%TA.AperFunction,HeatsinkPad*%
%ADD13R,0.400000X2.000000*%
%TD*%
%TA.AperFunction,SMDPad,CuDef*%
%ADD14RoundRect,0.070000X-0.355000X0.070000X-0.355000X-0.070000X0.355000X-0.070000X0.355000X0.070000X0*%
%TD*%
%TA.AperFunction,SMDPad,CuDef*%
%ADD15RoundRect,0.070000X-0.305000X0.070000X-0.305000X-0.070000X0.305000X-0.070000X0.305000X0.070000X0*%
%TD*%
%TA.AperFunction,SMDPad,CuDef*%
%ADD16RoundRect,0.062500X-0.187500X-0.062500X0.187500X-0.062500X0.187500X0.062500X-0.187500X0.062500X0*%
%TD*%
%TA.AperFunction,SMDPad,CuDef*%
%ADD17R,0.900000X1.600000*%
%TD*%
%TA.AperFunction,HeatsinkPad*%
%ADD18R,0.840000X2.400000*%
%TD*%
%TA.AperFunction,SMDPad,CuDef*%
%ADD19RoundRect,0.062500X-0.312500X-0.062500X0.312500X-0.062500X0.312500X0.062500X-0.312500X0.062500X0*%
%TD*%
%TA.AperFunction,SMDPad,CuDef*%
%ADD20R,1.000000X2.650000*%
%TD*%
%TA.AperFunction,SMDPad,CuDef*%
%ADD21RoundRect,0.100000X0.100000X0.050000X-0.100000X0.050000X-0.100000X-0.050000X0.100000X-0.050000X0*%
%TD*%
%TA.AperFunction,SMDPad,CuDef*%
%ADD22RoundRect,0.100000X0.125000X0.050000X-0.125000X0.050000X-0.125000X-0.050000X0.125000X-0.050000X0*%
%TD*%
%TA.AperFunction,SMDPad,CuDef*%
%ADD23RoundRect,0.075000X-0.350000X-0.075000X0.350000X-0.075000X0.350000X0.075000X-0.350000X0.075000X0*%
%TD*%
%TA.AperFunction,HeatsinkPad*%
%ADD24R,1.600000X4.200000*%
%TD*%
%TA.AperFunction,SMDPad,CuDef*%
%ADD25RoundRect,0.060000X-0.240000X-0.060000X0.240000X-0.060000X0.240000X0.060000X-0.240000X0.060000X0*%
%TD*%
%TA.AperFunction,SMDPad,CuDef*%
%ADD26FreePoly0,0.000000*%
%TD*%
%TA.AperFunction,SMDPad,CuDef*%
%ADD27RoundRect,0.087500X-0.337500X-0.087500X0.337500X-0.087500X0.337500X0.087500X-0.337500X0.087500X0*%
%TD*%
%TA.AperFunction,HeatsinkPad*%
%ADD28R,1.650000X2.400000*%
%TD*%
%TA.AperFunction,SMDPad,CuDef*%
%ADD29RoundRect,0.075000X0.075000X0.175000X-0.075000X0.175000X-0.075000X-0.175000X0.075000X-0.175000X0*%
%TD*%
%TA.AperFunction,SMDPad,CuDef*%
%ADD30RoundRect,0.062500X-0.062500X-0.212500X0.062500X-0.212500X0.062500X0.212500X-0.062500X0.212500X0*%
%TD*%
%TA.AperFunction,HeatsinkPad*%
%ADD31R,0.800000X0.600000*%
%TD*%
%TA.AperFunction,SMDPad,CuDef*%
%ADD32RoundRect,0.050000X-0.175000X0.050000X-0.175000X-0.050000X0.175000X-0.050000X0.175000X0.050000X0*%
%TD*%
%TA.AperFunction,SMDPad,CuDef*%
%ADD33FreePoly1,0.000000*%
%TD*%
%TA.AperFunction,SMDPad,CuDef*%
%ADD34FreePoly2,0.000000*%
%TD*%
%TA.AperFunction,SMDPad,CuDef*%
%ADD35FreePoly3,0.000000*%
%TD*%
%TA.AperFunction,SMDPad,CuDef*%
%ADD36FreePoly4,0.000000*%
%TD*%
%TA.AperFunction,SMDPad,CuDef*%
%ADD37RoundRect,0.250000X0.300000X-2.050000X0.300000X2.050000X-0.300000X2.050000X-0.300000X-2.050000X0*%
%TD*%
%TA.AperFunction,SMDPad,CuDef*%
%ADD38C,1.200000*%
%TD*%
%TA.AperFunction,SMDPad,CuDef*%
%ADD39O,1.600000X1.200000*%
%TD*%
%TA.AperFunction,SMDPad,CuDef*%
%ADD40R,2.000000X2.000000*%
%TD*%
%TA.AperFunction,SMDPad,CuDef*%
%ADD41C,1.000000*%
%TD*%
%TA.AperFunction,SMDPad,CuDef*%
%ADD42R,1.000000X1.000000*%
%TD*%
%TA.AperFunction,SMDPad,CuDef*%
%ADD43FreePoly5,0.000000*%
%TD*%
%TA.AperFunction,SMDPad,CuDef*%
%ADD44FreePoly6,0.000000*%
%TD*%
%TA.AperFunction,SMDPad,CuDef*%
%ADD45R,0.600000X0.450000*%
%TD*%
%TA.AperFunction,SMDPad,CuDef*%
%ADD46R,0.900000X1.200000*%
%TD*%
%TA.AperFunction,SMDPad,CuDef*%
%ADD47R,3.200000X1.000000*%
%TD*%
%TA.AperFunction,SMDPad,CuDef*%
%ADD48R,0.900000X0.600000*%
%TD*%
%TA.AperFunction,SMDPad,CuDef*%
%ADD49R,0.600000X0.900000*%
%TD*%
%TA.AperFunction,SMDPad,CuDef*%
%ADD50R,0.700000X1.150000*%
%TD*%
%TA.AperFunction,SMDPad,CuDef*%
%ADD51R,4.200000X3.300000*%
%TD*%
%TA.AperFunction,SMDPad,CuDef*%
%ADD52R,4.700000X1.550000*%
%TD*%
%TA.AperFunction,ComponentPad*%
%ADD53C,2.688200*%
%TD*%
%TA.AperFunction,SMDPad,CuDef*%
%ADD54R,0.500000X0.380000*%
%TD*%
%TA.AperFunction,SMDPad,CuDef*%
%ADD55R,0.650000X0.300000*%
%TD*%
%TA.AperFunction,SMDPad,CuDef*%
%ADD56R,1.070000X0.300000*%
%TD*%
%TA.AperFunction,SMDPad,CuDef*%
%ADD57R,2.300000X0.300000*%
%TD*%
%TA.AperFunction,SMDPad,CuDef*%
%ADD58R,0.200000X0.200000*%
%TD*%
%TA.AperFunction,SMDPad,CuDef*%
%ADD59R,0.330000X0.270000*%
%TD*%
%TA.AperFunction,SMDPad,CuDef*%
%ADD60Outline4P,-1.100000X-0.500000X1.100000X-0.500000X0.400000X0.500000X-0.400000X0.500000X180.000000*%
%TD*%
%TA.AperFunction,SMDPad,CuDef*%
%ADD61R,2.200000X1.840000*%
%TD*%
%TA.AperFunction,SMDPad,CuDef*%
%ADD62R,1.000000X1.500000*%
%TD*%
%TA.AperFunction,SMDPad,CuDef*%
%ADD63R,1.000000X1.800000*%
%TD*%
%TA.AperFunction,SMDPad,CuDef*%
%ADD64Outline4P,-1.100000X-0.425000X1.100000X-0.425000X0.500000X0.425000X-0.500000X0.425000X0.000000*%
%TD*%
%TA.AperFunction,SMDPad,CuDef*%
%ADD65R,1.500000X2.000000*%
%TD*%
%TA.AperFunction,SMDPad,CuDef*%
%ADD66R,3.800000X2.000000*%
%TD*%
%TA.AperFunction,SMDPad,CuDef*%
%ADD67R,2.750000X3.050000*%
%TD*%
%TA.AperFunction,SMDPad,CuDef*%
%ADD68R,5.800000X6.400000*%
%TD*%
%TA.AperFunction,SMDPad,CuDef*%
%ADD69R,1.200000X2.200000*%
%TD*%
%TA.AperFunction,SMDPad,CuDef*%
%ADD70R,0.450000X0.300000*%
%TD*%
%TA.AperFunction,SMDPad,CuDef*%
%ADD71R,0.650000X0.400000*%
%TD*%
%TA.AperFunction,SMDPad,CuDef*%
%ADD72R,0.700000X0.450000*%
%TD*%
%TA.AperFunction,SMDPad,CuDef*%
%ADD73R,1.060000X0.650000*%
%TD*%
%TA.AperFunction,SMDPad,CuDef*%
%ADD74R,0.900000X0.800000*%
%TD*%
%TA.AperFunction,SMDPad,CuDef*%
%ADD75R,2.500000X3.300000*%
%TD*%
%TA.AperFunction,SMDPad,CuDef*%
%ADD76R,1.700000X1.300000*%
%TD*%
%TA.AperFunction,SMDPad,CuDef*%
%ADD77R,2.500000X2.300000*%
%TD*%
%TA.AperFunction,SMDPad,CuDef*%
%ADD78R,2.500000X1.800000*%
%TD*%
%TA.AperFunction,SMDPad,CuDef*%
%ADD79R,0.600000X0.700000*%
%TD*%
%TA.AperFunction,SMDPad,CuDef*%
%ADD80R,0.350000X0.350000*%
%TD*%
%TA.AperFunction,SMDPad,CuDef*%
%ADD81R,2.500000X0.900000*%
%TD*%
%TA.AperFunction,SMDPad,CuDef*%
%ADD82R,1.700000X0.900000*%
%TD*%
%TA.AperFunction,SMDPad,CuDef*%
%ADD83R,1.300000X0.700000*%
%TD*%
%TA.AperFunction,SMDPad,CuDef*%
%ADD84R,0.900000X0.500000*%
%TD*%
%TA.AperFunction,SMDPad,CuDef*%
%ADD85R,0.430000X0.280000*%
%TD*%
%TA.AperFunction,SMDPad,CuDef*%
%ADD86R,0.600000X0.400000*%
%TD*%
%TA.AperFunction,ComponentPad*%
%ADD87R,0.850000X0.850000*%
%TD*%
%TA.AperFunction,ComponentPad*%
%ADD88R,1.000000X1.000000*%
%TD*%
%TA.AperFunction,ComponentPad*%
%ADD89R,1.350000X1.350000*%
%TD*%
%TA.AperFunction,ComponentPad*%
%ADD90R,1.700000X1.700000*%
%TD*%
%TA.AperFunction,ComponentPad*%
%ADD91C,2.152500*%
%TD*%
%TA.AperFunction,ComponentPad*%
%ADD92C,1.727700*%
%TD*%
%TA.AperFunction,ComponentPad*%
%ADD93C,1.390800*%
%TD*%
%TA.AperFunction,ComponentPad*%
%ADD94C,1.053700*%
%TD*%
%TA.AperFunction,ComponentPad*%
%ADD95C,0.861800*%
%TD*%
%TA.AperFunction,ComponentPad*%
%ADD96C,0.693800*%
%TD*%
%TA.AperFunction,ComponentPad*%
%ADD97C,0.525600*%
%TD*%
%TA.AperFunction,ComponentPad*%
%ADD98C,0.414900*%
%TD*%
%TA.AperFunction,ComponentPad*%
%ADD99C,0.331100*%
%TD*%
%TA.AperFunction,ComponentPad*%
%ADD100C,3.363600*%
%TD*%
%TA.AperFunction,SMDPad,CuDef*%
%ADD101R,1.600000X2.600000*%
%TD*%
%TA.AperFunction,SMDPad,CuDef*%
%ADD102R,1.600000X3.500000*%
%TD*%
%TA.AperFunction,SMDPad,CuDef*%
%ADD103R,2.500000X1.950000*%
%TD*%
%TA.AperFunction,SMDPad,CuDef*%
%ADD104R,1.500000X1.950000*%
%TD*%
%TA.AperFunction,SMDPad,CuDef*%
%ADD105R,2.500000X2.550000*%
%TD*%
%TA.AperFunction,SMDPad,CuDef*%
%ADD106R,2.700000X2.550000*%
%TD*%
%TA.AperFunction,ViaPad*%
%ADD107C,0.800000*%
%TD*%
%TA.AperFunction,ViaPad*%
%ADD108C,0.600000*%
%TD*%
%TA.AperFunction,ViaPad*%
%ADD109C,1.000000*%
%TD*%
%TA.AperFunction,Conductor*%
%ADD110C,0.150000*%
%TD*%
%TA.AperFunction,Conductor*%
%ADD111C,0.200000*%
%TD*%
%TA.AperFunction,Conductor*%
%ADD112C,0.250000*%
%TD*%
%TA.AperFunction,Conductor*%
%ADD113C,0.500000*%
%TD*%
%TA.AperFunction,Conductor*%
%ADD114C,0.750000*%
%TD*%
G04 APERTURE END LIST*
D10*
%TA.AperFunction,EtchedComponent*%
G36*
X136463000Y-94500000D02*
G01*
X136163000Y-94500000D01*
X136163000Y-93000000D01*
X136463000Y-93000000D01*
X136463000Y-94500000D01*
G37*
%TD.AperFunction*%
%TA.AperFunction,EtchedComponent*%
G36*
X138980000Y-94500000D02*
G01*
X138680000Y-94500000D01*
X138680000Y-93000000D01*
X138980000Y-93000000D01*
X138980000Y-94500000D01*
G37*
%TD.AperFunction*%
%TA.AperFunction,EtchedComponent*%
G36*
X141543000Y-94500000D02*
G01*
X141243000Y-94500000D01*
X141243000Y-93000000D01*
X141543000Y-93000000D01*
X141543000Y-94500000D01*
G37*
%TD.AperFunction*%
%TA.AperFunction,EtchedComponent*%
G36*
X144060000Y-94500000D02*
G01*
X143760000Y-94500000D01*
X143760000Y-93000000D01*
X144060000Y-93000000D01*
X144060000Y-94500000D01*
G37*
%TD.AperFunction*%
%TA.AperFunction,EtchedComponent*%
G36*
X133900000Y-95500000D02*
G01*
X133600000Y-95500000D01*
X133600000Y-93000000D01*
X133900000Y-93000000D01*
X133900000Y-95500000D01*
G37*
%TD.AperFunction*%
%TA.AperFunction,EtchedComponent*%
G36*
X126280000Y-94500000D02*
G01*
X125980000Y-94500000D01*
X125980000Y-93000000D01*
X126280000Y-93000000D01*
X126280000Y-94500000D01*
G37*
%TD.AperFunction*%
%TA.AperFunction,EtchedComponent*%
G36*
X123763000Y-94500000D02*
G01*
X123463000Y-94500000D01*
X123463000Y-93000000D01*
X123763000Y-93000000D01*
X123763000Y-94500000D01*
G37*
%TD.AperFunction*%
%TA.AperFunction,EtchedComponent*%
G36*
X121200000Y-96500000D02*
G01*
X120900000Y-96500000D01*
X120900000Y-93000000D01*
X121200000Y-93000000D01*
X121200000Y-96500000D01*
G37*
%TD.AperFunction*%
%TA.AperFunction,EtchedComponent*%
G36*
X128843000Y-94500000D02*
G01*
X128543000Y-94500000D01*
X128543000Y-93000000D01*
X128843000Y-93000000D01*
X128843000Y-94500000D01*
G37*
%TD.AperFunction*%
%TA.AperFunction,EtchedComponent*%
G36*
X131360000Y-94500000D02*
G01*
X131060000Y-94500000D01*
X131060000Y-93000000D01*
X131360000Y-93000000D01*
X131360000Y-94500000D01*
G37*
%TD.AperFunction*%
%TA.AperFunction,EtchedComponent*%
G36*
X105960000Y-94500000D02*
G01*
X105660000Y-94500000D01*
X105660000Y-93000000D01*
X105960000Y-93000000D01*
X105960000Y-94500000D01*
G37*
%TD.AperFunction*%
%TA.AperFunction,EtchedComponent*%
G36*
X103443000Y-94500000D02*
G01*
X103143000Y-94500000D01*
X103143000Y-93000000D01*
X103443000Y-93000000D01*
X103443000Y-94500000D01*
G37*
%TD.AperFunction*%
%TA.AperFunction,EtchedComponent*%
G36*
X95800000Y-96500000D02*
G01*
X95500000Y-96500000D01*
X95500000Y-93000000D01*
X95800000Y-93000000D01*
X95800000Y-96500000D01*
G37*
%TD.AperFunction*%
%TA.AperFunction,EtchedComponent*%
G36*
X98363000Y-94500000D02*
G01*
X98063000Y-94500000D01*
X98063000Y-93000000D01*
X98363000Y-93000000D01*
X98363000Y-94500000D01*
G37*
%TD.AperFunction*%
%TA.AperFunction,EtchedComponent*%
G36*
X100880000Y-94500000D02*
G01*
X100580000Y-94500000D01*
X100580000Y-93000000D01*
X100880000Y-93000000D01*
X100880000Y-94500000D01*
G37*
%TD.AperFunction*%
%TA.AperFunction,EtchedComponent*%
G36*
X108500000Y-95500000D02*
G01*
X108200000Y-95500000D01*
X108200000Y-93000000D01*
X108500000Y-93000000D01*
X108500000Y-95500000D01*
G37*
%TD.AperFunction*%
%TA.AperFunction,EtchedComponent*%
G36*
X118660000Y-94500000D02*
G01*
X118360000Y-94500000D01*
X118360000Y-93000000D01*
X118660000Y-93000000D01*
X118660000Y-94500000D01*
G37*
%TD.AperFunction*%
%TA.AperFunction,EtchedComponent*%
G36*
X116143000Y-94500000D02*
G01*
X115843000Y-94500000D01*
X115843000Y-93000000D01*
X116143000Y-93000000D01*
X116143000Y-94500000D01*
G37*
%TD.AperFunction*%
%TA.AperFunction,EtchedComponent*%
G36*
X113580000Y-94500000D02*
G01*
X113280000Y-94500000D01*
X113280000Y-93000000D01*
X113580000Y-93000000D01*
X113580000Y-94500000D01*
G37*
%TD.AperFunction*%
%TA.AperFunction,EtchedComponent*%
G36*
X111063000Y-94500000D02*
G01*
X110763000Y-94500000D01*
X110763000Y-93000000D01*
X111063000Y-93000000D01*
X111063000Y-94500000D01*
G37*
%TD.AperFunction*%
%TA.AperFunction,EtchedComponent*%
G36*
X85663000Y-94500000D02*
G01*
X85363000Y-94500000D01*
X85363000Y-93000000D01*
X85663000Y-93000000D01*
X85663000Y-94500000D01*
G37*
%TD.AperFunction*%
%TA.AperFunction,EtchedComponent*%
G36*
X88180000Y-94500000D02*
G01*
X87880000Y-94500000D01*
X87880000Y-93000000D01*
X88180000Y-93000000D01*
X88180000Y-94500000D01*
G37*
%TD.AperFunction*%
%TA.AperFunction,EtchedComponent*%
G36*
X90743000Y-94500000D02*
G01*
X90443000Y-94500000D01*
X90443000Y-93000000D01*
X90743000Y-93000000D01*
X90743000Y-94500000D01*
G37*
%TD.AperFunction*%
%TA.AperFunction,EtchedComponent*%
G36*
X93260000Y-94500000D02*
G01*
X92960000Y-94500000D01*
X92960000Y-93000000D01*
X93260000Y-93000000D01*
X93260000Y-94500000D01*
G37*
%TD.AperFunction*%
%TA.AperFunction,EtchedComponent*%
G36*
X83100000Y-95500000D02*
G01*
X82800000Y-95500000D01*
X82800000Y-93000000D01*
X83100000Y-93000000D01*
X83100000Y-95500000D01*
G37*
%TD.AperFunction*%
%TA.AperFunction,EtchedComponent*%
G36*
X75480000Y-94500000D02*
G01*
X75180000Y-94500000D01*
X75180000Y-93000000D01*
X75480000Y-93000000D01*
X75480000Y-94500000D01*
G37*
%TD.AperFunction*%
%TA.AperFunction,EtchedComponent*%
G36*
X72963000Y-94500000D02*
G01*
X72663000Y-94500000D01*
X72663000Y-93000000D01*
X72963000Y-93000000D01*
X72963000Y-94500000D01*
G37*
%TD.AperFunction*%
%TA.AperFunction,EtchedComponent*%
G36*
X70400000Y-96500000D02*
G01*
X70100000Y-96500000D01*
X70100000Y-93000000D01*
X70400000Y-93000000D01*
X70400000Y-96500000D01*
G37*
%TD.AperFunction*%
%TA.AperFunction,EtchedComponent*%
G36*
X78043000Y-94500000D02*
G01*
X77743000Y-94500000D01*
X77743000Y-93000000D01*
X78043000Y-93000000D01*
X78043000Y-94500000D01*
G37*
%TD.AperFunction*%
%TA.AperFunction,EtchedComponent*%
G36*
X80560000Y-94500000D02*
G01*
X80260000Y-94500000D01*
X80260000Y-93000000D01*
X80560000Y-93000000D01*
X80560000Y-94500000D01*
G37*
%TD.AperFunction*%
%TA.AperFunction,EtchedComponent*%
G36*
X160400000Y-120000000D02*
G01*
X160100000Y-120000000D01*
X160100000Y-117000000D01*
X160400000Y-117000000D01*
X160400000Y-120000000D01*
G37*
%TD.AperFunction*%
%TA.AperFunction,EtchedComponent*%
G36*
X161350000Y-120000000D02*
G01*
X161150000Y-120000000D01*
X161150000Y-119000000D01*
X161350000Y-119000000D01*
X161350000Y-120000000D01*
G37*
%TD.AperFunction*%
%TA.AperFunction,EtchedComponent*%
G36*
X162350000Y-120000000D02*
G01*
X162150000Y-120000000D01*
X162150000Y-119000000D01*
X162350000Y-119000000D01*
X162350000Y-120000000D01*
G37*
%TD.AperFunction*%
%TA.AperFunction,EtchedComponent*%
G36*
X163350000Y-120000000D02*
G01*
X163150000Y-120000000D01*
X163150000Y-119000000D01*
X163350000Y-119000000D01*
X163350000Y-120000000D01*
G37*
%TD.AperFunction*%
%TA.AperFunction,EtchedComponent*%
G36*
X165350000Y-120000000D02*
G01*
X165150000Y-120000000D01*
X165150000Y-118000000D01*
X165350000Y-118000000D01*
X165350000Y-120000000D01*
G37*
%TD.AperFunction*%
%TA.AperFunction,EtchedComponent*%
G36*
X164350000Y-120000000D02*
G01*
X164150000Y-120000000D01*
X164150000Y-119000000D01*
X164350000Y-119000000D01*
X164350000Y-120000000D01*
G37*
%TD.AperFunction*%
%TA.AperFunction,EtchedComponent*%
G36*
X166350000Y-120000000D02*
G01*
X166150000Y-120000000D01*
X166150000Y-119000000D01*
X166350000Y-119000000D01*
X166350000Y-120000000D01*
G37*
%TD.AperFunction*%
%TA.AperFunction,EtchedComponent*%
G36*
X167350000Y-120000000D02*
G01*
X167150000Y-120000000D01*
X167150000Y-119000000D01*
X167350000Y-119000000D01*
X167350000Y-120000000D01*
G37*
%TD.AperFunction*%
%TA.AperFunction,EtchedComponent*%
G36*
X168350000Y-120000000D02*
G01*
X168150000Y-120000000D01*
X168150000Y-119000000D01*
X168350000Y-119000000D01*
X168350000Y-120000000D01*
G37*
%TD.AperFunction*%
%TA.AperFunction,EtchedComponent*%
G36*
X169350000Y-120000000D02*
G01*
X169150000Y-120000000D01*
X169150000Y-119000000D01*
X169350000Y-119000000D01*
X169350000Y-120000000D01*
G37*
%TD.AperFunction*%
%TA.AperFunction,EtchedComponent*%
G36*
X170400000Y-120000000D02*
G01*
X170100000Y-120000000D01*
X170100000Y-117000000D01*
X170400000Y-117000000D01*
X170400000Y-120000000D01*
G37*
%TD.AperFunction*%
%TA.AperFunction,EtchedComponent*%
G36*
X160400000Y-120000000D02*
G01*
X160100000Y-120000000D01*
X160100000Y-117000000D01*
X160400000Y-117000000D01*
X160400000Y-120000000D01*
G37*
%TD.AperFunction*%
%TA.AperFunction,EtchedComponent*%
G36*
X159350000Y-120000000D02*
G01*
X159150000Y-120000000D01*
X159150000Y-119000000D01*
X159350000Y-119000000D01*
X159350000Y-120000000D01*
G37*
%TD.AperFunction*%
%TA.AperFunction,EtchedComponent*%
G36*
X158350000Y-120000000D02*
G01*
X158150000Y-120000000D01*
X158150000Y-119000000D01*
X158350000Y-119000000D01*
X158350000Y-120000000D01*
G37*
%TD.AperFunction*%
%TA.AperFunction,EtchedComponent*%
G36*
X157350000Y-120000000D02*
G01*
X157150000Y-120000000D01*
X157150000Y-119000000D01*
X157350000Y-119000000D01*
X157350000Y-120000000D01*
G37*
%TD.AperFunction*%
%TA.AperFunction,EtchedComponent*%
G36*
X156350000Y-120000000D02*
G01*
X156150000Y-120000000D01*
X156150000Y-119000000D01*
X156350000Y-119000000D01*
X156350000Y-120000000D01*
G37*
%TD.AperFunction*%
%TA.AperFunction,EtchedComponent*%
G36*
X154350000Y-120000000D02*
G01*
X154150000Y-120000000D01*
X154150000Y-119000000D01*
X154350000Y-119000000D01*
X154350000Y-120000000D01*
G37*
%TD.AperFunction*%
%TA.AperFunction,EtchedComponent*%
G36*
X155350000Y-120000000D02*
G01*
X155150000Y-120000000D01*
X155150000Y-118000000D01*
X155350000Y-118000000D01*
X155350000Y-120000000D01*
G37*
%TD.AperFunction*%
%TA.AperFunction,EtchedComponent*%
G36*
X153350000Y-120000000D02*
G01*
X153150000Y-120000000D01*
X153150000Y-119000000D01*
X153350000Y-119000000D01*
X153350000Y-120000000D01*
G37*
%TD.AperFunction*%
%TA.AperFunction,EtchedComponent*%
G36*
X152350000Y-120000000D02*
G01*
X152150000Y-120000000D01*
X152150000Y-119000000D01*
X152350000Y-119000000D01*
X152350000Y-120000000D01*
G37*
%TD.AperFunction*%
%TA.AperFunction,EtchedComponent*%
G36*
X151350000Y-120000000D02*
G01*
X151150000Y-120000000D01*
X151150000Y-119000000D01*
X151350000Y-119000000D01*
X151350000Y-120000000D01*
G37*
%TD.AperFunction*%
%TA.AperFunction,EtchedComponent*%
G36*
X150400000Y-120000000D02*
G01*
X150100000Y-120000000D01*
X150100000Y-117000000D01*
X150400000Y-117000000D01*
X150400000Y-120000000D01*
G37*
%TD.AperFunction*%
%TA.AperFunction,EtchedComponent*%
G36*
X140400000Y-120000000D02*
G01*
X140100000Y-120000000D01*
X140100000Y-117000000D01*
X140400000Y-117000000D01*
X140400000Y-120000000D01*
G37*
%TD.AperFunction*%
%TA.AperFunction,EtchedComponent*%
G36*
X141350000Y-120000000D02*
G01*
X141150000Y-120000000D01*
X141150000Y-119000000D01*
X141350000Y-119000000D01*
X141350000Y-120000000D01*
G37*
%TD.AperFunction*%
%TA.AperFunction,EtchedComponent*%
G36*
X142350000Y-120000000D02*
G01*
X142150000Y-120000000D01*
X142150000Y-119000000D01*
X142350000Y-119000000D01*
X142350000Y-120000000D01*
G37*
%TD.AperFunction*%
%TA.AperFunction,EtchedComponent*%
G36*
X143350000Y-120000000D02*
G01*
X143150000Y-120000000D01*
X143150000Y-119000000D01*
X143350000Y-119000000D01*
X143350000Y-120000000D01*
G37*
%TD.AperFunction*%
%TA.AperFunction,EtchedComponent*%
G36*
X145350000Y-120000000D02*
G01*
X145150000Y-120000000D01*
X145150000Y-118000000D01*
X145350000Y-118000000D01*
X145350000Y-120000000D01*
G37*
%TD.AperFunction*%
%TA.AperFunction,EtchedComponent*%
G36*
X144350000Y-120000000D02*
G01*
X144150000Y-120000000D01*
X144150000Y-119000000D01*
X144350000Y-119000000D01*
X144350000Y-120000000D01*
G37*
%TD.AperFunction*%
%TA.AperFunction,EtchedComponent*%
G36*
X146350000Y-120000000D02*
G01*
X146150000Y-120000000D01*
X146150000Y-119000000D01*
X146350000Y-119000000D01*
X146350000Y-120000000D01*
G37*
%TD.AperFunction*%
%TA.AperFunction,EtchedComponent*%
G36*
X147350000Y-120000000D02*
G01*
X147150000Y-120000000D01*
X147150000Y-119000000D01*
X147350000Y-119000000D01*
X147350000Y-120000000D01*
G37*
%TD.AperFunction*%
%TA.AperFunction,EtchedComponent*%
G36*
X148350000Y-120000000D02*
G01*
X148150000Y-120000000D01*
X148150000Y-119000000D01*
X148350000Y-119000000D01*
X148350000Y-120000000D01*
G37*
%TD.AperFunction*%
%TA.AperFunction,EtchedComponent*%
G36*
X149350000Y-120000000D02*
G01*
X149150000Y-120000000D01*
X149150000Y-119000000D01*
X149350000Y-119000000D01*
X149350000Y-120000000D01*
G37*
%TD.AperFunction*%
%TA.AperFunction,EtchedComponent*%
G36*
X150400000Y-120000000D02*
G01*
X150100000Y-120000000D01*
X150100000Y-117000000D01*
X150400000Y-117000000D01*
X150400000Y-120000000D01*
G37*
%TD.AperFunction*%
%TA.AperFunction,EtchedComponent*%
G36*
X130400000Y-120000000D02*
G01*
X130100000Y-120000000D01*
X130100000Y-117000000D01*
X130400000Y-117000000D01*
X130400000Y-120000000D01*
G37*
%TD.AperFunction*%
%TA.AperFunction,EtchedComponent*%
G36*
X131350000Y-120000000D02*
G01*
X131150000Y-120000000D01*
X131150000Y-119000000D01*
X131350000Y-119000000D01*
X131350000Y-120000000D01*
G37*
%TD.AperFunction*%
%TA.AperFunction,EtchedComponent*%
G36*
X132350000Y-120000000D02*
G01*
X132150000Y-120000000D01*
X132150000Y-119000000D01*
X132350000Y-119000000D01*
X132350000Y-120000000D01*
G37*
%TD.AperFunction*%
%TA.AperFunction,EtchedComponent*%
G36*
X133350000Y-120000000D02*
G01*
X133150000Y-120000000D01*
X133150000Y-119000000D01*
X133350000Y-119000000D01*
X133350000Y-120000000D01*
G37*
%TD.AperFunction*%
%TA.AperFunction,EtchedComponent*%
G36*
X135350000Y-120000000D02*
G01*
X135150000Y-120000000D01*
X135150000Y-118000000D01*
X135350000Y-118000000D01*
X135350000Y-120000000D01*
G37*
%TD.AperFunction*%
%TA.AperFunction,EtchedComponent*%
G36*
X134350000Y-120000000D02*
G01*
X134150000Y-120000000D01*
X134150000Y-119000000D01*
X134350000Y-119000000D01*
X134350000Y-120000000D01*
G37*
%TD.AperFunction*%
%TA.AperFunction,EtchedComponent*%
G36*
X136350000Y-120000000D02*
G01*
X136150000Y-120000000D01*
X136150000Y-119000000D01*
X136350000Y-119000000D01*
X136350000Y-120000000D01*
G37*
%TD.AperFunction*%
%TA.AperFunction,EtchedComponent*%
G36*
X137350000Y-120000000D02*
G01*
X137150000Y-120000000D01*
X137150000Y-119000000D01*
X137350000Y-119000000D01*
X137350000Y-120000000D01*
G37*
%TD.AperFunction*%
%TA.AperFunction,EtchedComponent*%
G36*
X138350000Y-120000000D02*
G01*
X138150000Y-120000000D01*
X138150000Y-119000000D01*
X138350000Y-119000000D01*
X138350000Y-120000000D01*
G37*
%TD.AperFunction*%
%TA.AperFunction,EtchedComponent*%
G36*
X139350000Y-120000000D02*
G01*
X139150000Y-120000000D01*
X139150000Y-119000000D01*
X139350000Y-119000000D01*
X139350000Y-120000000D01*
G37*
%TD.AperFunction*%
%TA.AperFunction,EtchedComponent*%
G36*
X140400000Y-120000000D02*
G01*
X140100000Y-120000000D01*
X140100000Y-117000000D01*
X140400000Y-117000000D01*
X140400000Y-120000000D01*
G37*
%TD.AperFunction*%
%TA.AperFunction,EtchedComponent*%
G36*
X130400000Y-120000000D02*
G01*
X130100000Y-120000000D01*
X130100000Y-117000000D01*
X130400000Y-117000000D01*
X130400000Y-120000000D01*
G37*
%TD.AperFunction*%
%TA.AperFunction,EtchedComponent*%
G36*
X129350000Y-120000000D02*
G01*
X129150000Y-120000000D01*
X129150000Y-119000000D01*
X129350000Y-119000000D01*
X129350000Y-120000000D01*
G37*
%TD.AperFunction*%
%TA.AperFunction,EtchedComponent*%
G36*
X128350000Y-120000000D02*
G01*
X128150000Y-120000000D01*
X128150000Y-119000000D01*
X128350000Y-119000000D01*
X128350000Y-120000000D01*
G37*
%TD.AperFunction*%
%TA.AperFunction,EtchedComponent*%
G36*
X127350000Y-120000000D02*
G01*
X127150000Y-120000000D01*
X127150000Y-119000000D01*
X127350000Y-119000000D01*
X127350000Y-120000000D01*
G37*
%TD.AperFunction*%
%TA.AperFunction,EtchedComponent*%
G36*
X126350000Y-120000000D02*
G01*
X126150000Y-120000000D01*
X126150000Y-119000000D01*
X126350000Y-119000000D01*
X126350000Y-120000000D01*
G37*
%TD.AperFunction*%
%TA.AperFunction,EtchedComponent*%
G36*
X124350000Y-120000000D02*
G01*
X124150000Y-120000000D01*
X124150000Y-119000000D01*
X124350000Y-119000000D01*
X124350000Y-120000000D01*
G37*
%TD.AperFunction*%
%TA.AperFunction,EtchedComponent*%
G36*
X125350000Y-120000000D02*
G01*
X125150000Y-120000000D01*
X125150000Y-118000000D01*
X125350000Y-118000000D01*
X125350000Y-120000000D01*
G37*
%TD.AperFunction*%
%TA.AperFunction,EtchedComponent*%
G36*
X123350000Y-120000000D02*
G01*
X123150000Y-120000000D01*
X123150000Y-119000000D01*
X123350000Y-119000000D01*
X123350000Y-120000000D01*
G37*
%TD.AperFunction*%
%TA.AperFunction,EtchedComponent*%
G36*
X122350000Y-120000000D02*
G01*
X122150000Y-120000000D01*
X122150000Y-119000000D01*
X122350000Y-119000000D01*
X122350000Y-120000000D01*
G37*
%TD.AperFunction*%
%TA.AperFunction,EtchedComponent*%
G36*
X121350000Y-120000000D02*
G01*
X121150000Y-120000000D01*
X121150000Y-119000000D01*
X121350000Y-119000000D01*
X121350000Y-120000000D01*
G37*
%TD.AperFunction*%
%TA.AperFunction,EtchedComponent*%
G36*
X120400000Y-120000000D02*
G01*
X120100000Y-120000000D01*
X120100000Y-117000000D01*
X120400000Y-117000000D01*
X120400000Y-120000000D01*
G37*
%TD.AperFunction*%
%TA.AperFunction,EtchedComponent*%
G36*
X120400000Y-120000000D02*
G01*
X120100000Y-120000000D01*
X120100000Y-117000000D01*
X120400000Y-117000000D01*
X120400000Y-120000000D01*
G37*
%TD.AperFunction*%
%TA.AperFunction,EtchedComponent*%
G36*
X119350000Y-120000000D02*
G01*
X119150000Y-120000000D01*
X119150000Y-119000000D01*
X119350000Y-119000000D01*
X119350000Y-120000000D01*
G37*
%TD.AperFunction*%
%TA.AperFunction,EtchedComponent*%
G36*
X118350000Y-120000000D02*
G01*
X118150000Y-120000000D01*
X118150000Y-119000000D01*
X118350000Y-119000000D01*
X118350000Y-120000000D01*
G37*
%TD.AperFunction*%
%TA.AperFunction,EtchedComponent*%
G36*
X117350000Y-120000000D02*
G01*
X117150000Y-120000000D01*
X117150000Y-119000000D01*
X117350000Y-119000000D01*
X117350000Y-120000000D01*
G37*
%TD.AperFunction*%
%TA.AperFunction,EtchedComponent*%
G36*
X116350000Y-120000000D02*
G01*
X116150000Y-120000000D01*
X116150000Y-119000000D01*
X116350000Y-119000000D01*
X116350000Y-120000000D01*
G37*
%TD.AperFunction*%
%TA.AperFunction,EtchedComponent*%
G36*
X114350000Y-120000000D02*
G01*
X114150000Y-120000000D01*
X114150000Y-119000000D01*
X114350000Y-119000000D01*
X114350000Y-120000000D01*
G37*
%TD.AperFunction*%
%TA.AperFunction,EtchedComponent*%
G36*
X115350000Y-120000000D02*
G01*
X115150000Y-120000000D01*
X115150000Y-118000000D01*
X115350000Y-118000000D01*
X115350000Y-120000000D01*
G37*
%TD.AperFunction*%
%TA.AperFunction,EtchedComponent*%
G36*
X113350000Y-120000000D02*
G01*
X113150000Y-120000000D01*
X113150000Y-119000000D01*
X113350000Y-119000000D01*
X113350000Y-120000000D01*
G37*
%TD.AperFunction*%
%TA.AperFunction,EtchedComponent*%
G36*
X112350000Y-120000000D02*
G01*
X112150000Y-120000000D01*
X112150000Y-119000000D01*
X112350000Y-119000000D01*
X112350000Y-120000000D01*
G37*
%TD.AperFunction*%
%TA.AperFunction,EtchedComponent*%
G36*
X111350000Y-120000000D02*
G01*
X111150000Y-120000000D01*
X111150000Y-119000000D01*
X111350000Y-119000000D01*
X111350000Y-120000000D01*
G37*
%TD.AperFunction*%
%TA.AperFunction,EtchedComponent*%
G36*
X110400000Y-120000000D02*
G01*
X110100000Y-120000000D01*
X110100000Y-117000000D01*
X110400000Y-117000000D01*
X110400000Y-120000000D01*
G37*
%TD.AperFunction*%
%TA.AperFunction,EtchedComponent*%
G36*
X100400000Y-120000000D02*
G01*
X100100000Y-120000000D01*
X100100000Y-117000000D01*
X100400000Y-117000000D01*
X100400000Y-120000000D01*
G37*
%TD.AperFunction*%
%TA.AperFunction,EtchedComponent*%
G36*
X101350000Y-120000000D02*
G01*
X101150000Y-120000000D01*
X101150000Y-119000000D01*
X101350000Y-119000000D01*
X101350000Y-120000000D01*
G37*
%TD.AperFunction*%
%TA.AperFunction,EtchedComponent*%
G36*
X102350000Y-120000000D02*
G01*
X102150000Y-120000000D01*
X102150000Y-119000000D01*
X102350000Y-119000000D01*
X102350000Y-120000000D01*
G37*
%TD.AperFunction*%
%TA.AperFunction,EtchedComponent*%
G36*
X103350000Y-120000000D02*
G01*
X103150000Y-120000000D01*
X103150000Y-119000000D01*
X103350000Y-119000000D01*
X103350000Y-120000000D01*
G37*
%TD.AperFunction*%
%TA.AperFunction,EtchedComponent*%
G36*
X105350000Y-120000000D02*
G01*
X105150000Y-120000000D01*
X105150000Y-118000000D01*
X105350000Y-118000000D01*
X105350000Y-120000000D01*
G37*
%TD.AperFunction*%
%TA.AperFunction,EtchedComponent*%
G36*
X104350000Y-120000000D02*
G01*
X104150000Y-120000000D01*
X104150000Y-119000000D01*
X104350000Y-119000000D01*
X104350000Y-120000000D01*
G37*
%TD.AperFunction*%
%TA.AperFunction,EtchedComponent*%
G36*
X106350000Y-120000000D02*
G01*
X106150000Y-120000000D01*
X106150000Y-119000000D01*
X106350000Y-119000000D01*
X106350000Y-120000000D01*
G37*
%TD.AperFunction*%
%TA.AperFunction,EtchedComponent*%
G36*
X107350000Y-120000000D02*
G01*
X107150000Y-120000000D01*
X107150000Y-119000000D01*
X107350000Y-119000000D01*
X107350000Y-120000000D01*
G37*
%TD.AperFunction*%
%TA.AperFunction,EtchedComponent*%
G36*
X108350000Y-120000000D02*
G01*
X108150000Y-120000000D01*
X108150000Y-119000000D01*
X108350000Y-119000000D01*
X108350000Y-120000000D01*
G37*
%TD.AperFunction*%
%TA.AperFunction,EtchedComponent*%
G36*
X109350000Y-120000000D02*
G01*
X109150000Y-120000000D01*
X109150000Y-119000000D01*
X109350000Y-119000000D01*
X109350000Y-120000000D01*
G37*
%TD.AperFunction*%
%TA.AperFunction,EtchedComponent*%
G36*
X110400000Y-120000000D02*
G01*
X110100000Y-120000000D01*
X110100000Y-117000000D01*
X110400000Y-117000000D01*
X110400000Y-120000000D01*
G37*
%TD.AperFunction*%
%TA.AperFunction,EtchedComponent*%
G36*
X90400000Y-120000000D02*
G01*
X90100000Y-120000000D01*
X90100000Y-117000000D01*
X90400000Y-117000000D01*
X90400000Y-120000000D01*
G37*
%TD.AperFunction*%
%TA.AperFunction,EtchedComponent*%
G36*
X91350000Y-120000000D02*
G01*
X91150000Y-120000000D01*
X91150000Y-119000000D01*
X91350000Y-119000000D01*
X91350000Y-120000000D01*
G37*
%TD.AperFunction*%
%TA.AperFunction,EtchedComponent*%
G36*
X92350000Y-120000000D02*
G01*
X92150000Y-120000000D01*
X92150000Y-119000000D01*
X92350000Y-119000000D01*
X92350000Y-120000000D01*
G37*
%TD.AperFunction*%
%TA.AperFunction,EtchedComponent*%
G36*
X93350000Y-120000000D02*
G01*
X93150000Y-120000000D01*
X93150000Y-119000000D01*
X93350000Y-119000000D01*
X93350000Y-120000000D01*
G37*
%TD.AperFunction*%
%TA.AperFunction,EtchedComponent*%
G36*
X95350000Y-120000000D02*
G01*
X95150000Y-120000000D01*
X95150000Y-118000000D01*
X95350000Y-118000000D01*
X95350000Y-120000000D01*
G37*
%TD.AperFunction*%
%TA.AperFunction,EtchedComponent*%
G36*
X94350000Y-120000000D02*
G01*
X94150000Y-120000000D01*
X94150000Y-119000000D01*
X94350000Y-119000000D01*
X94350000Y-120000000D01*
G37*
%TD.AperFunction*%
%TA.AperFunction,EtchedComponent*%
G36*
X96350000Y-120000000D02*
G01*
X96150000Y-120000000D01*
X96150000Y-119000000D01*
X96350000Y-119000000D01*
X96350000Y-120000000D01*
G37*
%TD.AperFunction*%
%TA.AperFunction,EtchedComponent*%
G36*
X97350000Y-120000000D02*
G01*
X97150000Y-120000000D01*
X97150000Y-119000000D01*
X97350000Y-119000000D01*
X97350000Y-120000000D01*
G37*
%TD.AperFunction*%
%TA.AperFunction,EtchedComponent*%
G36*
X98350000Y-120000000D02*
G01*
X98150000Y-120000000D01*
X98150000Y-119000000D01*
X98350000Y-119000000D01*
X98350000Y-120000000D01*
G37*
%TD.AperFunction*%
%TA.AperFunction,EtchedComponent*%
G36*
X99350000Y-120000000D02*
G01*
X99150000Y-120000000D01*
X99150000Y-119000000D01*
X99350000Y-119000000D01*
X99350000Y-120000000D01*
G37*
%TD.AperFunction*%
%TA.AperFunction,EtchedComponent*%
G36*
X100400000Y-120000000D02*
G01*
X100100000Y-120000000D01*
X100100000Y-117000000D01*
X100400000Y-117000000D01*
X100400000Y-120000000D01*
G37*
%TD.AperFunction*%
%TA.AperFunction,EtchedComponent*%
G36*
X90400000Y-120000000D02*
G01*
X90100000Y-120000000D01*
X90100000Y-117000000D01*
X90400000Y-117000000D01*
X90400000Y-120000000D01*
G37*
%TD.AperFunction*%
%TA.AperFunction,EtchedComponent*%
G36*
X89350000Y-120000000D02*
G01*
X89150000Y-120000000D01*
X89150000Y-119000000D01*
X89350000Y-119000000D01*
X89350000Y-120000000D01*
G37*
%TD.AperFunction*%
%TA.AperFunction,EtchedComponent*%
G36*
X88350000Y-120000000D02*
G01*
X88150000Y-120000000D01*
X88150000Y-119000000D01*
X88350000Y-119000000D01*
X88350000Y-120000000D01*
G37*
%TD.AperFunction*%
%TA.AperFunction,EtchedComponent*%
G36*
X87350000Y-120000000D02*
G01*
X87150000Y-120000000D01*
X87150000Y-119000000D01*
X87350000Y-119000000D01*
X87350000Y-120000000D01*
G37*
%TD.AperFunction*%
%TA.AperFunction,EtchedComponent*%
G36*
X86350000Y-120000000D02*
G01*
X86150000Y-120000000D01*
X86150000Y-119000000D01*
X86350000Y-119000000D01*
X86350000Y-120000000D01*
G37*
%TD.AperFunction*%
%TA.AperFunction,EtchedComponent*%
G36*
X84350000Y-120000000D02*
G01*
X84150000Y-120000000D01*
X84150000Y-119000000D01*
X84350000Y-119000000D01*
X84350000Y-120000000D01*
G37*
%TD.AperFunction*%
%TA.AperFunction,EtchedComponent*%
G36*
X85350000Y-120000000D02*
G01*
X85150000Y-120000000D01*
X85150000Y-118000000D01*
X85350000Y-118000000D01*
X85350000Y-120000000D01*
G37*
%TD.AperFunction*%
%TA.AperFunction,EtchedComponent*%
G36*
X83350000Y-120000000D02*
G01*
X83150000Y-120000000D01*
X83150000Y-119000000D01*
X83350000Y-119000000D01*
X83350000Y-120000000D01*
G37*
%TD.AperFunction*%
%TA.AperFunction,EtchedComponent*%
G36*
X82350000Y-120000000D02*
G01*
X82150000Y-120000000D01*
X82150000Y-119000000D01*
X82350000Y-119000000D01*
X82350000Y-120000000D01*
G37*
%TD.AperFunction*%
%TA.AperFunction,EtchedComponent*%
G36*
X81350000Y-120000000D02*
G01*
X81150000Y-120000000D01*
X81150000Y-119000000D01*
X81350000Y-119000000D01*
X81350000Y-120000000D01*
G37*
%TD.AperFunction*%
%TA.AperFunction,EtchedComponent*%
G36*
X80400000Y-120000000D02*
G01*
X80100000Y-120000000D01*
X80100000Y-117000000D01*
X80400000Y-117000000D01*
X80400000Y-120000000D01*
G37*
%TD.AperFunction*%
%TA.AperFunction,EtchedComponent*%
G36*
X80400000Y-120000000D02*
G01*
X80100000Y-120000000D01*
X80100000Y-117000000D01*
X80400000Y-117000000D01*
X80400000Y-120000000D01*
G37*
%TD.AperFunction*%
%TA.AperFunction,EtchedComponent*%
G36*
X79350000Y-120000000D02*
G01*
X79150000Y-120000000D01*
X79150000Y-119000000D01*
X79350000Y-119000000D01*
X79350000Y-120000000D01*
G37*
%TD.AperFunction*%
%TA.AperFunction,EtchedComponent*%
G36*
X78350000Y-120000000D02*
G01*
X78150000Y-120000000D01*
X78150000Y-119000000D01*
X78350000Y-119000000D01*
X78350000Y-120000000D01*
G37*
%TD.AperFunction*%
%TA.AperFunction,EtchedComponent*%
G36*
X77350000Y-120000000D02*
G01*
X77150000Y-120000000D01*
X77150000Y-119000000D01*
X77350000Y-119000000D01*
X77350000Y-120000000D01*
G37*
%TD.AperFunction*%
%TA.AperFunction,EtchedComponent*%
G36*
X76350000Y-120000000D02*
G01*
X76150000Y-120000000D01*
X76150000Y-119000000D01*
X76350000Y-119000000D01*
X76350000Y-120000000D01*
G37*
%TD.AperFunction*%
%TA.AperFunction,EtchedComponent*%
G36*
X74350000Y-120000000D02*
G01*
X74150000Y-120000000D01*
X74150000Y-119000000D01*
X74350000Y-119000000D01*
X74350000Y-120000000D01*
G37*
%TD.AperFunction*%
%TA.AperFunction,EtchedComponent*%
G36*
X75350000Y-120000000D02*
G01*
X75150000Y-120000000D01*
X75150000Y-118000000D01*
X75350000Y-118000000D01*
X75350000Y-120000000D01*
G37*
%TD.AperFunction*%
%TA.AperFunction,EtchedComponent*%
G36*
X73350000Y-120000000D02*
G01*
X73150000Y-120000000D01*
X73150000Y-119000000D01*
X73350000Y-119000000D01*
X73350000Y-120000000D01*
G37*
%TD.AperFunction*%
%TA.AperFunction,EtchedComponent*%
G36*
X72350000Y-120000000D02*
G01*
X72150000Y-120000000D01*
X72150000Y-119000000D01*
X72350000Y-119000000D01*
X72350000Y-120000000D01*
G37*
%TD.AperFunction*%
%TA.AperFunction,EtchedComponent*%
G36*
X71350000Y-120000000D02*
G01*
X71150000Y-120000000D01*
X71150000Y-119000000D01*
X71350000Y-119000000D01*
X71350000Y-120000000D01*
G37*
%TD.AperFunction*%
%TA.AperFunction,EtchedComponent*%
G36*
X70400000Y-120000000D02*
G01*
X70100000Y-120000000D01*
X70100000Y-117000000D01*
X70400000Y-117000000D01*
X70400000Y-120000000D01*
G37*
%TD.AperFunction*%
%TA.AperFunction,EtchedComponent*%
G36*
X156760000Y-94500000D02*
G01*
X156460000Y-94500000D01*
X156460000Y-93000000D01*
X156760000Y-93000000D01*
X156760000Y-94500000D01*
G37*
%TD.AperFunction*%
%TA.AperFunction,EtchedComponent*%
G36*
X154243000Y-94500000D02*
G01*
X153943000Y-94500000D01*
X153943000Y-93000000D01*
X154243000Y-93000000D01*
X154243000Y-94500000D01*
G37*
%TD.AperFunction*%
%TA.AperFunction,EtchedComponent*%
G36*
X146600000Y-96500000D02*
G01*
X146300000Y-96500000D01*
X146300000Y-93000000D01*
X146600000Y-93000000D01*
X146600000Y-96500000D01*
G37*
%TD.AperFunction*%
%TA.AperFunction,EtchedComponent*%
G36*
X149163000Y-94500000D02*
G01*
X148863000Y-94500000D01*
X148863000Y-93000000D01*
X149163000Y-93000000D01*
X149163000Y-94500000D01*
G37*
%TD.AperFunction*%
%TA.AperFunction,EtchedComponent*%
G36*
X151680000Y-94500000D02*
G01*
X151380000Y-94500000D01*
X151380000Y-93000000D01*
X151680000Y-93000000D01*
X151680000Y-94500000D01*
G37*
%TD.AperFunction*%
%TA.AperFunction,EtchedComponent*%
G36*
X159300000Y-95500000D02*
G01*
X159000000Y-95500000D01*
X159000000Y-93000000D01*
X159300000Y-93000000D01*
X159300000Y-95500000D01*
G37*
%TD.AperFunction*%
%TA.AperFunction,EtchedComponent*%
G36*
X169460000Y-94500000D02*
G01*
X169160000Y-94500000D01*
X169160000Y-93000000D01*
X169460000Y-93000000D01*
X169460000Y-94500000D01*
G37*
%TD.AperFunction*%
%TA.AperFunction,EtchedComponent*%
G36*
X166943000Y-94500000D02*
G01*
X166643000Y-94500000D01*
X166643000Y-93000000D01*
X166943000Y-93000000D01*
X166943000Y-94500000D01*
G37*
%TD.AperFunction*%
%TA.AperFunction,EtchedComponent*%
G36*
X164380000Y-94500000D02*
G01*
X164080000Y-94500000D01*
X164080000Y-93000000D01*
X164380000Y-93000000D01*
X164380000Y-94500000D01*
G37*
%TD.AperFunction*%
%TA.AperFunction,EtchedComponent*%
G36*
X161863000Y-94500000D02*
G01*
X161563000Y-94500000D01*
X161563000Y-93000000D01*
X161863000Y-93000000D01*
X161863000Y-94500000D01*
G37*
%TD.AperFunction*%
D11*
X156628334Y-102900000D03*
D12*
X155903334Y-103500000D03*
X155903334Y-103100000D03*
X155903334Y-102700000D03*
X155903334Y-102300000D03*
X157353334Y-102300000D03*
X157353334Y-102700000D03*
X157353334Y-103100000D03*
X157353334Y-103500000D03*
D13*
X153675000Y-103300000D03*
D12*
X152950000Y-104300000D03*
X152950000Y-103900000D03*
X152950000Y-103500000D03*
X152950000Y-103100000D03*
X152950000Y-102700000D03*
X152950000Y-102300000D03*
X154400000Y-102300000D03*
X154400000Y-102700000D03*
X154400000Y-103100000D03*
X154400000Y-103500000D03*
X154400000Y-103900000D03*
X154400000Y-104300000D03*
D14*
X158702500Y-115057500D03*
D15*
X158652500Y-115557500D03*
X158652500Y-116057500D03*
X159802500Y-116057500D03*
X159802500Y-115557500D03*
X159802500Y-115057500D03*
D16*
X161102500Y-114557500D03*
X161102500Y-115057500D03*
X161102500Y-115557500D03*
X161102500Y-116057500D03*
X163002500Y-116057500D03*
X163002500Y-115557500D03*
X163002500Y-115057500D03*
X163002500Y-114557500D03*
D17*
X162052500Y-115307500D03*
D18*
X165345000Y-115057500D03*
D19*
X166345000Y-114057500D03*
X166345000Y-114557500D03*
X166345000Y-115057500D03*
X166345000Y-115557500D03*
X166345000Y-116057500D03*
X164345000Y-116057500D03*
X164345000Y-115557500D03*
X164345000Y-115057500D03*
X164345000Y-114557500D03*
X164345000Y-114057500D03*
D16*
X167650000Y-113557500D03*
X167650000Y-114057500D03*
X167650000Y-114557500D03*
X167650000Y-115057500D03*
X167650000Y-115557500D03*
X167650000Y-116057500D03*
X169550000Y-116057500D03*
X169550000Y-115557500D03*
X169550000Y-115057500D03*
X169550000Y-114557500D03*
X169550000Y-114057500D03*
X169550000Y-113557500D03*
D20*
X168600000Y-114807500D03*
D21*
X158731667Y-103300000D03*
X158731667Y-102800000D03*
X158731667Y-102300000D03*
X159331667Y-102300000D03*
X159331667Y-102800000D03*
D22*
X159306667Y-103300000D03*
D23*
X161050000Y-105750000D03*
X161050000Y-106400000D03*
X161050000Y-107050000D03*
X161050000Y-107700000D03*
X161050000Y-108350000D03*
X161050000Y-109000000D03*
X161050000Y-109650000D03*
X163950000Y-109650000D03*
X163950000Y-109000000D03*
X163950000Y-108350000D03*
X163950000Y-107700000D03*
X163950000Y-107050000D03*
X163950000Y-106400000D03*
X163950000Y-105750000D03*
D24*
X162500000Y-107700000D03*
D25*
X157000000Y-107400000D03*
X157000000Y-107900000D03*
X157000000Y-108400000D03*
X157000000Y-108900000D03*
X157000000Y-109400000D03*
X159800000Y-109400000D03*
X159800000Y-108900000D03*
X159800000Y-108400000D03*
X159800000Y-107900000D03*
X159800000Y-107400000D03*
D26*
X158400000Y-108400000D03*
D27*
X152850000Y-107425000D03*
X152850000Y-108075000D03*
X152850000Y-108725000D03*
X152850000Y-109375000D03*
X155750000Y-109375000D03*
X155750000Y-108725000D03*
X155750000Y-108075000D03*
X155750000Y-107425000D03*
D28*
X154300000Y-108400000D03*
D29*
X156650000Y-112500000D03*
X155950000Y-112500000D03*
D30*
X160650000Y-101825000D03*
X160650000Y-103375000D03*
X161150000Y-103375000D03*
X161150000Y-101825000D03*
D31*
X160900000Y-102600000D03*
D32*
X164525000Y-102575000D03*
X165275000Y-102575000D03*
X165275000Y-102925000D03*
X165275000Y-103275000D03*
X165275000Y-103625000D03*
X164525000Y-103625000D03*
X164525000Y-103275000D03*
X164525000Y-102925000D03*
D33*
X163300000Y-102600000D03*
D34*
X163300000Y-103080000D03*
D35*
X162520000Y-103080000D03*
D36*
X162520000Y-102600000D03*
D37*
X143060000Y-113750000D03*
X148140000Y-113750000D03*
D38*
X143237670Y-107391333D03*
X144697670Y-108452085D03*
X146502330Y-108452085D03*
X147962330Y-107391333D03*
X148520000Y-105675000D03*
X147962330Y-103958667D03*
X146502330Y-102897915D03*
X144697670Y-102897915D03*
X143237670Y-103958667D03*
D39*
X142680000Y-105675000D03*
D40*
X140630000Y-95980000D03*
D41*
X140310000Y-98300000D03*
D42*
X138220000Y-95880000D03*
D43*
X134920000Y-95710000D03*
D44*
X136370000Y-95710000D03*
D45*
X111400000Y-98650000D03*
X113500000Y-98650000D03*
D46*
X111540000Y-100810000D03*
X114840000Y-100810000D03*
D47*
X97770000Y-117730000D03*
X97770000Y-111530000D03*
D48*
X129730000Y-99390000D03*
D49*
X130330000Y-96690000D03*
D50*
X131640000Y-102410000D03*
D51*
X129730000Y-99140000D03*
D52*
X129730000Y-96940000D03*
D50*
X130370000Y-102410000D03*
X127820000Y-102410000D03*
X129090000Y-102410000D03*
D49*
X129130000Y-96690000D03*
X131610000Y-96690000D03*
X127850000Y-96690000D03*
D48*
X129730000Y-100240000D03*
X129730000Y-98540000D03*
X130880000Y-98540000D03*
X130880000Y-100240000D03*
X130880000Y-99390000D03*
X128580000Y-98540000D03*
X128580000Y-100240000D03*
X128580000Y-99390000D03*
D53*
X157520000Y-98176000D03*
D54*
X130060000Y-114170000D03*
X130060000Y-115250000D03*
D55*
X128280000Y-114710000D03*
D54*
X128360000Y-115250000D03*
X128360000Y-114170000D03*
D56*
X156415000Y-114140000D03*
X156415000Y-114640000D03*
X156415000Y-115640000D03*
X156415000Y-116140000D03*
X155185000Y-116140000D03*
X155185000Y-115640000D03*
D57*
X155800000Y-115140000D03*
D56*
X155185000Y-114640000D03*
X155185000Y-114140000D03*
D58*
X153350000Y-114250000D03*
X153350000Y-114600000D03*
X153350000Y-114950000D03*
X152450000Y-114950000D03*
X152450000Y-114600000D03*
X152450000Y-114250000D03*
D59*
X153040000Y-111300000D03*
X153040000Y-111800000D03*
X153040000Y-112300000D03*
X152360000Y-112300000D03*
X152360000Y-111800000D03*
X152360000Y-111300000D03*
D60*
X129960000Y-106876200D03*
D61*
X129960000Y-105466500D03*
D62*
X131460000Y-108280000D03*
D63*
X129960000Y-108133500D03*
D62*
X128460000Y-108280000D03*
D64*
X129960000Y-104133000D03*
D65*
X133980000Y-116390000D03*
X138580000Y-116390000D03*
X136280000Y-116390000D03*
D66*
X136280000Y-110090000D03*
D67*
X137485000Y-102335000D03*
X134435000Y-98985000D03*
X134435000Y-102335000D03*
X137485000Y-98985000D03*
D68*
X135960000Y-100660000D03*
D69*
X138240000Y-106960000D03*
X133680000Y-106960000D03*
D70*
X131120000Y-111960000D03*
X129720000Y-111460000D03*
X131120000Y-110960000D03*
X129720000Y-111960000D03*
X129720000Y-110960000D03*
D71*
X126290000Y-110480000D03*
X126290000Y-111780000D03*
X124390000Y-111130000D03*
X124390000Y-111780000D03*
X124390000Y-110480000D03*
D72*
X126410000Y-106830000D03*
X124410000Y-107480000D03*
X124410000Y-106180000D03*
D73*
X125970000Y-101160000D03*
X125970000Y-103060000D03*
X123770000Y-103060000D03*
X123770000Y-102110000D03*
X123770000Y-101160000D03*
D74*
X126070000Y-97060000D03*
X124070000Y-98010000D03*
X124070000Y-96110000D03*
D75*
X113580000Y-113610000D03*
X120380000Y-113610000D03*
D76*
X119450000Y-105760000D03*
X119450000Y-109260000D03*
D77*
X112340000Y-107830000D03*
X116640000Y-107830000D03*
D78*
X112340000Y-103770000D03*
X116340000Y-103770000D03*
D79*
X112800000Y-96940000D03*
X111400000Y-96940000D03*
D80*
X120080000Y-97715000D03*
X120080000Y-96265000D03*
D81*
X94280000Y-110520000D03*
X94280000Y-113420000D03*
D82*
X91520000Y-110650000D03*
X91520000Y-113550000D03*
D83*
X89408000Y-109991800D03*
X89408000Y-111891800D03*
D84*
X87630000Y-109883800D03*
X87630000Y-111383800D03*
X87620000Y-112440000D03*
X87620000Y-113940000D03*
D85*
X84734400Y-113124400D03*
X84734400Y-113644400D03*
X84709000Y-111454000D03*
X84709000Y-111974000D03*
X84709000Y-109828400D03*
X84709000Y-110348400D03*
D86*
X86106000Y-109848800D03*
X86106000Y-110748800D03*
X86106000Y-112719000D03*
X86106000Y-113619000D03*
D87*
X169654400Y-101260000D03*
D88*
X169578200Y-99888400D03*
D89*
X169400400Y-98288200D03*
D90*
X169222600Y-96332400D03*
D91*
X154550000Y-98176000D03*
D92*
X152090000Y-98176000D03*
D93*
X150020000Y-98180000D03*
D94*
X148280000Y-98176000D03*
D95*
X146820000Y-98210000D03*
D96*
X145570000Y-98176000D03*
D97*
X144460000Y-98176000D03*
D98*
X143470000Y-98176000D03*
D99*
X142600000Y-98176000D03*
D100*
X161130000Y-98176000D03*
D101*
X102110000Y-114900000D03*
X102110000Y-111300000D03*
D102*
X107980000Y-115950000D03*
X107980000Y-110550000D03*
D103*
X100220000Y-104065000D03*
X100220000Y-107115000D03*
D104*
X97220000Y-104115000D03*
X97220000Y-106865000D03*
D105*
X103880000Y-101760000D03*
X103880000Y-106810000D03*
D106*
X108280000Y-100445000D03*
X108280000Y-106795000D03*
D74*
X125740000Y-115550000D03*
X123340000Y-116500000D03*
X123340000Y-114600000D03*
D107*
X165810000Y-97180000D03*
D108*
X164610000Y-97180000D03*
D109*
X167020000Y-97180000D03*
D110*
X160700000Y-100800000D02*
X152200000Y-100800000D01*
X160650000Y-100850000D02*
X160700000Y-100800000D01*
X160650000Y-101825000D02*
X160650000Y-100850000D01*
X159200000Y-105200000D02*
X160800000Y-105200000D01*
X159306667Y-103300000D02*
X159306667Y-105093333D01*
X159306667Y-105093333D02*
X159200000Y-105200000D01*
X157353334Y-105146666D02*
X157300000Y-105200000D01*
X157000000Y-105200000D02*
X157300000Y-105200000D01*
X157353334Y-103500000D02*
X157353334Y-105146666D01*
X154400000Y-104300000D02*
X154400000Y-105200000D01*
X154400000Y-105200000D02*
X157000000Y-105200000D01*
X152800000Y-107375000D02*
X152850000Y-107425000D01*
X152800000Y-105200000D02*
X152800000Y-107375000D01*
X152800000Y-105200000D02*
X154400000Y-105200000D01*
X157000000Y-105200000D02*
X157000000Y-107400000D01*
X157300000Y-105200000D02*
X159200000Y-105200000D01*
X161050000Y-105450000D02*
X161050000Y-105750000D01*
X160800000Y-105200000D02*
X161050000Y-105450000D01*
X151300000Y-105200000D02*
X152800000Y-105200000D01*
X151300000Y-105200000D02*
X151300000Y-110100000D01*
X158702500Y-112602500D02*
X158702500Y-115057500D01*
X158600000Y-112500000D02*
X158702500Y-112602500D01*
X158600000Y-112500000D02*
X161100000Y-112500000D01*
X161102500Y-112702500D02*
X161102500Y-114557500D01*
X161100000Y-112500000D02*
X164300000Y-112500000D01*
X161100000Y-112500000D02*
X161100000Y-112700000D01*
X161100000Y-112700000D02*
X161102500Y-112702500D01*
X164300000Y-112500000D02*
X164345000Y-112545000D01*
X164300000Y-112500000D02*
X167100000Y-112500000D01*
X164345000Y-112545000D02*
X164345000Y-114057500D01*
X167650000Y-113050000D02*
X167650000Y-113557500D01*
X167100000Y-112500000D02*
X167650000Y-113050000D01*
X156650000Y-112500000D02*
X158600000Y-112500000D01*
X143100000Y-110100000D02*
X151300000Y-110100000D01*
X151300000Y-110100000D02*
X151300000Y-111200000D01*
X141500000Y-108500000D02*
X141500000Y-106855000D01*
X143100000Y-110100000D02*
X141500000Y-108500000D01*
X141500000Y-106855000D02*
X142680000Y-105675000D01*
X143100000Y-113710000D02*
X143100000Y-110100000D01*
X143060000Y-113750000D02*
X143100000Y-113710000D01*
X156200000Y-111600000D02*
X156650000Y-112050000D01*
X155200000Y-111600000D02*
X156200000Y-111600000D01*
X154700000Y-112100000D02*
X155200000Y-111600000D01*
X156650000Y-112050000D02*
X156650000Y-112500000D01*
X154700000Y-113000000D02*
X154700000Y-112100000D01*
X151300000Y-113000000D02*
X154700000Y-113000000D01*
X155185000Y-113485000D02*
X155185000Y-114140000D01*
X154700000Y-113000000D02*
X155185000Y-113485000D01*
X151724000Y-114224000D02*
X152450000Y-114224000D01*
X151300000Y-113800000D02*
X151724000Y-114224000D01*
X151300000Y-113000000D02*
X151300000Y-113800000D01*
X151400000Y-111300000D02*
X152360000Y-111300000D01*
X151300000Y-111200000D02*
X151400000Y-111300000D01*
X151300000Y-111200000D02*
X151300000Y-113000000D01*
X151300000Y-101700000D02*
X151300000Y-105200000D01*
X152200000Y-100800000D02*
X151300000Y-101700000D01*
X162520000Y-100800000D02*
X160700000Y-100800000D01*
X162520000Y-100800000D02*
X162520000Y-102000000D01*
X165140000Y-101260000D02*
X164680000Y-100800000D01*
X164680000Y-100800000D02*
X162520000Y-100800000D01*
X169654400Y-101260000D02*
X165140000Y-101260000D01*
X163976000Y-102000000D02*
X164525000Y-102549000D01*
X162520000Y-102000000D02*
X163976000Y-102000000D01*
X162520000Y-102000000D02*
X162520000Y-102600000D01*
X133530000Y-114280000D02*
X133530000Y-115940000D01*
X133530000Y-115940000D02*
X133980000Y-116390000D01*
X134600000Y-113750000D02*
X143060000Y-113750000D01*
X134070000Y-114280000D02*
X134600000Y-113750000D01*
X133980000Y-114280000D02*
X134070000Y-114280000D01*
X133020000Y-114280000D02*
X133980000Y-114280000D01*
X132800000Y-114060000D02*
X133020000Y-114280000D01*
X77330000Y-98280000D02*
X70000000Y-98280000D01*
D111*
X77370000Y-99410000D02*
X70000000Y-99410000D01*
D112*
X70200000Y-100400000D02*
X70000000Y-100400000D01*
X70200800Y-100399200D02*
X70200000Y-100400000D01*
X77354600Y-100399200D02*
X70200800Y-100399200D01*
X169222600Y-98110400D02*
X169400400Y-98288200D01*
X169578200Y-98466000D02*
X169400400Y-98288200D01*
D113*
X169578200Y-99888400D02*
X169578200Y-98466000D01*
D112*
X169654400Y-99964600D02*
X169578200Y-99888400D01*
X169654400Y-101260000D02*
X169654400Y-99964600D01*
X169400400Y-96510200D02*
X169222600Y-96332400D01*
D114*
X169400400Y-98288200D02*
X169400400Y-96510200D01*
D110*
X86085600Y-109828400D02*
X86106000Y-109848800D01*
X85656000Y-112719000D02*
X86106000Y-112719000D01*
X84734400Y-112834400D02*
X84849800Y-112719000D01*
X84734400Y-113124400D02*
X84734400Y-112834400D01*
X85344000Y-111724000D02*
X85344000Y-112719000D01*
X85074000Y-111454000D02*
X85344000Y-111724000D01*
X84709000Y-111454000D02*
X85074000Y-111454000D01*
X84849800Y-112719000D02*
X85344000Y-112719000D01*
X85344000Y-112719000D02*
X85656000Y-112719000D01*
X85344000Y-109828400D02*
X86085600Y-109828400D01*
X84709000Y-109828400D02*
X85344000Y-109828400D01*
X84709000Y-111164000D02*
X84709000Y-111454000D01*
X85344000Y-110529000D02*
X85344000Y-110444000D01*
X84709000Y-111164000D02*
X85344000Y-110529000D01*
X85344000Y-109828400D02*
X85344000Y-110444000D01*
X127320000Y-102410000D02*
X127820000Y-102410000D01*
X125700000Y-102410000D02*
X127320000Y-102410000D01*
X123770000Y-101160000D02*
X124450000Y-101160000D01*
X123770000Y-101160000D02*
X123770000Y-100685000D01*
X122240000Y-99155000D02*
X122240000Y-97190000D01*
X123320000Y-96110000D02*
X124070000Y-96110000D01*
X122240000Y-97190000D02*
X123320000Y-96110000D01*
X124450000Y-101160000D02*
X125390000Y-102100000D01*
X125390000Y-102100000D02*
X125700000Y-102410000D01*
X113580000Y-109110000D02*
X112260000Y-107790000D01*
X113580000Y-113610000D02*
X113580000Y-109110000D01*
X108280000Y-110250000D02*
X107980000Y-110550000D01*
X108280000Y-106795000D02*
X108280000Y-110250000D01*
X107230000Y-111300000D02*
X107980000Y-110550000D01*
X102110000Y-111300000D02*
X107230000Y-111300000D01*
X108265000Y-106810000D02*
X108280000Y-106795000D01*
X103880000Y-106810000D02*
X108265000Y-106810000D01*
X103570000Y-107120000D02*
X103880000Y-106810000D01*
X100250000Y-107120000D02*
X103570000Y-107120000D01*
X111265000Y-106795000D02*
X112260000Y-107790000D01*
X94690000Y-111530000D02*
X94280000Y-111120000D01*
X94280000Y-111120000D02*
X94280000Y-110520000D01*
X97770000Y-111530000D02*
X94690000Y-111530000D01*
X94150000Y-110650000D02*
X94280000Y-110520000D01*
X89300000Y-109883800D02*
X89408000Y-109991800D01*
X87630000Y-109883800D02*
X89300000Y-109883800D01*
X87595000Y-109848800D02*
X87630000Y-109883800D01*
X86106000Y-109848800D02*
X87595000Y-109848800D01*
X123770000Y-100685000D02*
X123062500Y-99977500D01*
X123062500Y-99977500D02*
X122240000Y-99155000D01*
X99970000Y-106865000D02*
X100220000Y-107115000D01*
X97220000Y-106865000D02*
X99970000Y-106865000D01*
X97770000Y-111530000D02*
X97770000Y-109780000D01*
X97220000Y-109230000D02*
X97220000Y-106865000D01*
X97770000Y-109780000D02*
X97220000Y-109230000D01*
X111400000Y-98650000D02*
X111400000Y-97800000D01*
X111400000Y-97800000D02*
X111400000Y-96940000D01*
X112340000Y-103770000D02*
X112340000Y-102520000D01*
X111540000Y-101720000D02*
X111540000Y-100810000D01*
X112340000Y-102520000D02*
X111540000Y-101720000D01*
X111540000Y-99165000D02*
X111540000Y-99500000D01*
X111400000Y-99025000D02*
X111540000Y-99165000D01*
X111400000Y-98650000D02*
X111400000Y-99025000D01*
X111540000Y-100810000D02*
X111540000Y-99500000D01*
X119450000Y-105760000D02*
X112380000Y-105760000D01*
X112380000Y-105760000D02*
X112340000Y-105720000D01*
X112340000Y-107830000D02*
X112340000Y-105720000D01*
X112340000Y-105720000D02*
X112340000Y-103770000D01*
X124865000Y-110480000D02*
X124390000Y-110480000D01*
X125595000Y-109750000D02*
X124865000Y-110480000D01*
X129345000Y-110960000D02*
X129335000Y-110970000D01*
X129720000Y-110960000D02*
X129345000Y-110960000D01*
X126890000Y-109750000D02*
X125595000Y-109750000D01*
X127960000Y-114170000D02*
X128360000Y-114170000D01*
X123940000Y-114600000D02*
X124370000Y-114170000D01*
X123340000Y-114600000D02*
X123940000Y-114600000D01*
X128280000Y-110970000D02*
X128280000Y-112080000D01*
X128280000Y-110970000D02*
X128110000Y-110970000D01*
X129335000Y-110970000D02*
X128280000Y-110970000D01*
X128280000Y-112080000D02*
X128080000Y-112280000D01*
X128080000Y-112280000D02*
X128080000Y-113300000D01*
X127630000Y-113750000D02*
X127630000Y-114170000D01*
X124370000Y-114170000D02*
X127630000Y-114170000D01*
X127630000Y-114170000D02*
X127960000Y-114170000D01*
X127540000Y-109450000D02*
X127540000Y-110400000D01*
X128460000Y-108530000D02*
X127540000Y-109450000D01*
X128460000Y-108280000D02*
X128460000Y-108530000D01*
X128110000Y-110970000D02*
X127540000Y-110400000D01*
X127540000Y-110400000D02*
X126890000Y-109750000D01*
X127810000Y-108280000D02*
X127350000Y-107820000D01*
X128460000Y-108280000D02*
X127810000Y-108280000D01*
X127350000Y-107820000D02*
X126080000Y-107820000D01*
X126080000Y-107725000D02*
X125300000Y-106945000D01*
X126080000Y-107820000D02*
X126080000Y-107725000D01*
X125300000Y-106945000D02*
X125300000Y-106520000D01*
X124960000Y-106180000D02*
X124410000Y-106180000D01*
X125300000Y-106520000D02*
X124960000Y-106180000D01*
X127820000Y-107350000D02*
X127350000Y-107820000D01*
X127820000Y-102410000D02*
X127820000Y-103400000D01*
X127820000Y-103400000D02*
X127820000Y-107350000D01*
X128080000Y-113300000D02*
X127810000Y-113570000D01*
X127810000Y-113570000D02*
X127630000Y-113750000D01*
X87341000Y-112719000D02*
X87620000Y-112440000D01*
X86106000Y-112719000D02*
X87341000Y-112719000D01*
X140530000Y-95880000D02*
X140630000Y-95980000D01*
X138220000Y-95880000D02*
X140530000Y-95880000D01*
X140310000Y-96300000D02*
X140630000Y-95980000D01*
X140310000Y-98300000D02*
X140310000Y-96300000D01*
X134920000Y-96560000D02*
X135370000Y-97010000D01*
X134920000Y-95710000D02*
X134920000Y-96560000D01*
X138220000Y-96530000D02*
X138220000Y-95880000D01*
X137740000Y-97010000D02*
X138220000Y-96530000D01*
X135370000Y-97010000D02*
X137740000Y-97010000D01*
X132310000Y-113570000D02*
X131220000Y-113570000D01*
X131320000Y-113570000D02*
X131220000Y-113570000D01*
X131220000Y-113570000D02*
X127810000Y-113570000D01*
X133680000Y-113180000D02*
X132800000Y-114060000D01*
X133680000Y-106960000D02*
X133680000Y-113180000D01*
X132800000Y-114060000D02*
X132310000Y-113570000D01*
X128635000Y-101370000D02*
X127820000Y-102185000D01*
X127820000Y-102185000D02*
X127820000Y-102410000D01*
X131710000Y-101370000D02*
X128635000Y-101370000D01*
X132440000Y-97584998D02*
X132440000Y-100640000D01*
X132440000Y-100640000D02*
X131710000Y-101370000D01*
X134314998Y-95710000D02*
X132440000Y-97584998D01*
X134920000Y-95710000D02*
X134314998Y-95710000D01*
X120080000Y-96265000D02*
X120080000Y-96590000D01*
X120080000Y-96590000D02*
X118870000Y-97800000D01*
X118870000Y-97800000D02*
X111400000Y-97800000D01*
X91650000Y-110520000D02*
X91520000Y-110650000D01*
X94280000Y-110520000D02*
X91650000Y-110520000D01*
X89408000Y-110491800D02*
X89408000Y-109991800D01*
X89566200Y-110650000D02*
X89408000Y-110491800D01*
X91520000Y-110650000D02*
X89566200Y-110650000D01*
X109905000Y-106795000D02*
X108280000Y-106795000D01*
X112340000Y-107830000D02*
X110940000Y-107830000D01*
X110940000Y-107830000D02*
X109905000Y-106795000D01*
X119650000Y-105760000D02*
X122300000Y-103110000D01*
X119450000Y-105760000D02*
X119650000Y-105760000D01*
X123090000Y-101160000D02*
X123770000Y-101160000D01*
X122300000Y-101950000D02*
X123090000Y-101160000D01*
X122300000Y-103110000D02*
X122300000Y-101950000D01*
%TA.AperFunction,NonConductor*%
G36*
X77455248Y-101486002D02*
G01*
X77501741Y-101539658D01*
X77513127Y-101592000D01*
X77513127Y-101644800D01*
X77493125Y-101712921D01*
X77439469Y-101759414D01*
X77387127Y-101770800D01*
X70226500Y-101770800D01*
X70217674Y-101768208D01*
X70208568Y-101769518D01*
X70184142Y-101758362D01*
X70158379Y-101750798D01*
X70152354Y-101743844D01*
X70143988Y-101740024D01*
X70129473Y-101717438D01*
X70111886Y-101697142D01*
X70109561Y-101686455D01*
X70105604Y-101680298D01*
X70100500Y-101644800D01*
X70100500Y-101592000D01*
X70120502Y-101523879D01*
X70174158Y-101477386D01*
X70226500Y-101466000D01*
X77387127Y-101466000D01*
X77455248Y-101486002D01*
G37*
%TD.AperFunction*%
%TA.AperFunction,NonConductor*%
G36*
X77441322Y-102578202D02*
G01*
X77487815Y-102631858D01*
X77499201Y-102684200D01*
X77499201Y-102889400D01*
X77479199Y-102957521D01*
X77425543Y-103004014D01*
X77373201Y-103015400D01*
X70226500Y-103015400D01*
X70217674Y-103012808D01*
X70208568Y-103014118D01*
X70184142Y-103002962D01*
X70158379Y-102995398D01*
X70152354Y-102988444D01*
X70143988Y-102984624D01*
X70129473Y-102962038D01*
X70111886Y-102941742D01*
X70109561Y-102931055D01*
X70105604Y-102924898D01*
X70100500Y-102889400D01*
X70100500Y-102684200D01*
X70120502Y-102616079D01*
X70174158Y-102569586D01*
X70226500Y-102558200D01*
X77373201Y-102558200D01*
X77441322Y-102578202D01*
G37*
%TD.AperFunction*%
%TA.AperFunction,NonConductor*%
G36*
X77424268Y-103721202D02*
G01*
X77470761Y-103774858D01*
X77482147Y-103827200D01*
X77482147Y-104184800D01*
X77462145Y-104252921D01*
X77408489Y-104299414D01*
X77356147Y-104310800D01*
X70226500Y-104310800D01*
X70158379Y-104290798D01*
X70111886Y-104237142D01*
X70100500Y-104184800D01*
X70100500Y-103827200D01*
X70120502Y-103759079D01*
X70174158Y-103712586D01*
X70226500Y-103701200D01*
X77356147Y-103701200D01*
X77424268Y-103721202D01*
G37*
%TD.AperFunction*%
%TA.AperFunction,NonConductor*%
G36*
X77449121Y-104762602D02*
G01*
X77495614Y-104816258D01*
X77507000Y-104868600D01*
X77507000Y-105378600D01*
X77486998Y-105446721D01*
X77433342Y-105493214D01*
X77381000Y-105504600D01*
X70226500Y-105504600D01*
X70158379Y-105484598D01*
X70111886Y-105430942D01*
X70100500Y-105378600D01*
X70100500Y-104868600D01*
X70120502Y-104800479D01*
X70174158Y-104753986D01*
X70226500Y-104742600D01*
X77381000Y-104742600D01*
X77449121Y-104762602D01*
G37*
%TD.AperFunction*%
%TA.AperFunction,NonConductor*%
G36*
X77445783Y-105829402D02*
G01*
X77492276Y-105883058D01*
X77503662Y-105935400D01*
X77503662Y-106699400D01*
X77483660Y-106767521D01*
X77430004Y-106814014D01*
X77377662Y-106825400D01*
X70226500Y-106825400D01*
X70158379Y-106805398D01*
X70111886Y-106751742D01*
X70100500Y-106699400D01*
X70100500Y-105935400D01*
X70120502Y-105867279D01*
X70174158Y-105820786D01*
X70226500Y-105809400D01*
X77377662Y-105809400D01*
X77445783Y-105829402D01*
G37*
%TD.AperFunction*%
%TA.AperFunction,Conductor*%
G36*
X167806300Y-95326842D02*
G01*
X167853005Y-95380312D01*
X167864600Y-95433109D01*
X167864600Y-96078400D01*
X168791897Y-96078400D01*
X168756675Y-96139407D01*
X168722600Y-96266574D01*
X168722600Y-96398226D01*
X168756675Y-96525393D01*
X168791897Y-96586400D01*
X167864600Y-96586400D01*
X167864600Y-97230997D01*
X167871105Y-97291493D01*
X167922155Y-97428364D01*
X167922155Y-97428365D01*
X168009695Y-97545304D01*
X168126636Y-97632845D01*
X168135430Y-97636125D01*
X168192266Y-97678671D01*
X168217079Y-97745190D01*
X168217400Y-97754182D01*
X168217400Y-98034200D01*
X169088714Y-98034200D01*
X169080320Y-98042594D01*
X169027659Y-98133806D01*
X169000400Y-98235539D01*
X169000400Y-98340861D01*
X169027659Y-98442594D01*
X169080320Y-98533806D01*
X169088714Y-98542200D01*
X168217400Y-98542200D01*
X168217400Y-99011797D01*
X168223905Y-99072293D01*
X168274955Y-99209164D01*
X168274955Y-99209165D01*
X168362495Y-99326104D01*
X168479436Y-99413645D01*
X168488230Y-99416925D01*
X168545066Y-99459471D01*
X168569879Y-99525990D01*
X168570200Y-99534982D01*
X168570200Y-99634400D01*
X169324200Y-99634400D01*
X169324200Y-99603200D01*
X169272400Y-99603200D01*
X169204279Y-99583198D01*
X169157786Y-99529542D01*
X169146400Y-99477200D01*
X169146400Y-98599886D01*
X169154794Y-98608280D01*
X169246006Y-98660941D01*
X169347739Y-98688200D01*
X169453061Y-98688200D01*
X169545755Y-98663362D01*
X169549972Y-99563400D01*
X169535413Y-99563400D01*
X169452755Y-99585549D01*
X169378646Y-99628336D01*
X169318136Y-99688846D01*
X169275349Y-99762955D01*
X169253200Y-99845613D01*
X169253200Y-99931187D01*
X169275349Y-100013845D01*
X169318136Y-100087954D01*
X169378646Y-100148464D01*
X169452755Y-100191251D01*
X169535413Y-100213400D01*
X169553017Y-100213400D01*
X169556841Y-101029811D01*
X169512786Y-101048060D01*
X169442460Y-101118386D01*
X169404400Y-101210272D01*
X169404400Y-101309728D01*
X169442460Y-101401614D01*
X169512786Y-101471940D01*
X169559002Y-101491083D01*
X169559079Y-101507326D01*
X169528400Y-101514000D01*
X168721400Y-101514000D01*
X168721400Y-101733597D01*
X168727905Y-101794093D01*
X168778955Y-101930964D01*
X168778955Y-101930965D01*
X168858547Y-102037286D01*
X168883358Y-102103806D01*
X168868267Y-102173180D01*
X168818065Y-102223382D01*
X168757882Y-102238795D01*
X168052472Y-102239931D01*
X167984319Y-102220039D01*
X167976152Y-102214341D01*
X167390001Y-101770000D01*
X167390000Y-101770000D01*
X167384387Y-101770006D01*
X163460817Y-101774844D01*
X163392672Y-101754926D01*
X163346113Y-101701328D01*
X163334662Y-101649185D01*
X163331413Y-100436997D01*
X168570200Y-100436997D01*
X168576705Y-100497493D01*
X168627755Y-100634364D01*
X168627755Y-100634365D01*
X168696268Y-100725886D01*
X168721079Y-100792406D01*
X168721400Y-100801395D01*
X168721400Y-101006000D01*
X169324200Y-101006000D01*
X169324200Y-100142400D01*
X168570200Y-100142400D01*
X168570200Y-100436997D01*
X163331413Y-100436997D01*
X163330000Y-99910000D01*
X162797743Y-99910000D01*
X162729622Y-99889998D01*
X162683129Y-99836342D01*
X162673025Y-99766068D01*
X162702519Y-99701488D01*
X162708648Y-99694905D01*
X162780276Y-99623276D01*
X162780288Y-99623264D01*
X162955076Y-99395477D01*
X163098636Y-99146824D01*
X163208512Y-98881560D01*
X163282824Y-98604223D01*
X163284322Y-98592837D01*
X163300026Y-98473563D01*
X163300026Y-98473562D01*
X163309629Y-98400613D01*
X163320300Y-98319560D01*
X163320300Y-98032440D01*
X163282824Y-97747777D01*
X163208512Y-97470440D01*
X163098636Y-97205176D01*
X163098630Y-97205167D01*
X163098629Y-97205163D01*
X162955078Y-96956526D01*
X162955073Y-96956519D01*
X162780295Y-96728744D01*
X162780276Y-96728723D01*
X162577276Y-96525723D01*
X162577255Y-96525704D01*
X162349480Y-96350926D01*
X162349473Y-96350921D01*
X162100836Y-96207370D01*
X162100828Y-96207366D01*
X162100824Y-96207364D01*
X161835560Y-96097488D01*
X161558223Y-96023176D01*
X161558216Y-96023174D01*
X161273562Y-95985700D01*
X161273560Y-95985700D01*
X160986440Y-95985700D01*
X160986437Y-95985700D01*
X160701783Y-96023174D01*
X160424440Y-96097488D01*
X160292697Y-96152058D01*
X160159174Y-96207365D01*
X160159163Y-96207370D01*
X159910526Y-96350921D01*
X159910519Y-96350926D01*
X159682744Y-96525704D01*
X159682723Y-96525723D01*
X159665095Y-96543352D01*
X159602783Y-96577378D01*
X159531968Y-96572313D01*
X159475132Y-96529766D01*
X159450321Y-96463246D01*
X159450000Y-96454257D01*
X159450000Y-96076588D01*
X159470002Y-96008467D01*
X159507879Y-95970590D01*
X159513316Y-95967096D01*
X159636271Y-95888077D01*
X159731984Y-95777619D01*
X159792700Y-95644670D01*
X159813500Y-95500000D01*
X159813500Y-95464057D01*
X159833502Y-95395936D01*
X159887158Y-95349443D01*
X159938992Y-95338059D01*
X167738102Y-95307110D01*
X167806300Y-95326842D01*
G37*
%TD.AperFunction*%
%TA.AperFunction,Conductor*%
G36*
X169476600Y-96973200D02*
G01*
X169528400Y-96973200D01*
X169537851Y-96975975D01*
X169542236Y-97912094D01*
X169453061Y-97888200D01*
X169347739Y-97888200D01*
X169246006Y-97915459D01*
X169154794Y-97968120D01*
X169146400Y-97976514D01*
X169146400Y-97822400D01*
X169094600Y-97822400D01*
X169026479Y-97802398D01*
X168979986Y-97748742D01*
X168968600Y-97696400D01*
X168968600Y-96763102D01*
X169029607Y-96798325D01*
X169156774Y-96832400D01*
X169288426Y-96832400D01*
X169415593Y-96798325D01*
X169476600Y-96763102D01*
X169476600Y-96973200D01*
G37*
%TD.AperFunction*%
M02*
