%TF.GenerationSoftware,KiCad,Pcbnew,5.1.4+dfsg1-1*%
%TF.CreationDate,2019-10-23T15:13:16-07:00*%
%TF.ProjectId,PCB_Ruler,5043425f-5275-46c6-9572-2e6b69636164,rev?*%
%TF.SameCoordinates,Original*%
%TF.FileFunction,Soldermask,Top*%
%TF.FilePolarity,Negative*%
%FSLAX46Y46*%
G04 Gerber Fmt 4.6, Leading zero omitted, Abs format (unit mm)*
G04 Created by KiCad (PCBNEW 5.1.4+dfsg1-1) date 2019-10-23 15:13:16*
%MOMM*%
%LPD*%
G04 APERTURE LIST*
%ADD10C,0.100000*%
G04 APERTURE END LIST*
D10*
G36*
X141243000Y-94500000D02*
G01*
X141543000Y-94500000D01*
X141543000Y-93000000D01*
X141243000Y-93000000D01*
X141243000Y-94500000D01*
G37*
G36*
X143760000Y-94500000D02*
G01*
X144060000Y-94500000D01*
X144060000Y-93000000D01*
X143760000Y-93000000D01*
X143760000Y-94500000D01*
G37*
G36*
X136163000Y-94500000D02*
G01*
X136463000Y-94500000D01*
X136463000Y-93000000D01*
X136163000Y-93000000D01*
X136163000Y-94500000D01*
G37*
G36*
X138680000Y-94500000D02*
G01*
X138980000Y-94500000D01*
X138980000Y-93000000D01*
X138680000Y-93000000D01*
X138680000Y-94500000D01*
G37*
G36*
X133600000Y-95500000D02*
G01*
X133900000Y-95500000D01*
X133900000Y-93000000D01*
X133600000Y-93000000D01*
X133600000Y-95500000D01*
G37*
G36*
X125980000Y-94500000D02*
G01*
X126280000Y-94500000D01*
X126280000Y-93000000D01*
X125980000Y-93000000D01*
X125980000Y-94500000D01*
G37*
G36*
X123463000Y-94500000D02*
G01*
X123763000Y-94500000D01*
X123763000Y-93000000D01*
X123463000Y-93000000D01*
X123463000Y-94500000D01*
G37*
G36*
X120900000Y-96500000D02*
G01*
X121200000Y-96500000D01*
X121200000Y-93000000D01*
X120900000Y-93000000D01*
X120900000Y-96500000D01*
G37*
G36*
X131060000Y-94500000D02*
G01*
X131360000Y-94500000D01*
X131360000Y-93000000D01*
X131060000Y-93000000D01*
X131060000Y-94500000D01*
G37*
G36*
X128543000Y-94500000D02*
G01*
X128843000Y-94500000D01*
X128843000Y-93000000D01*
X128543000Y-93000000D01*
X128543000Y-94500000D01*
G37*
G36*
X103143000Y-94500000D02*
G01*
X103443000Y-94500000D01*
X103443000Y-93000000D01*
X103143000Y-93000000D01*
X103143000Y-94500000D01*
G37*
G36*
X105660000Y-94500000D02*
G01*
X105960000Y-94500000D01*
X105960000Y-93000000D01*
X105660000Y-93000000D01*
X105660000Y-94500000D01*
G37*
G36*
X95500000Y-96500000D02*
G01*
X95800000Y-96500000D01*
X95800000Y-93000000D01*
X95500000Y-93000000D01*
X95500000Y-96500000D01*
G37*
G36*
X98063000Y-94500000D02*
G01*
X98363000Y-94500000D01*
X98363000Y-93000000D01*
X98063000Y-93000000D01*
X98063000Y-94500000D01*
G37*
G36*
X100580000Y-94500000D02*
G01*
X100880000Y-94500000D01*
X100880000Y-93000000D01*
X100580000Y-93000000D01*
X100580000Y-94500000D01*
G37*
G36*
X108200000Y-95500000D02*
G01*
X108500000Y-95500000D01*
X108500000Y-93000000D01*
X108200000Y-93000000D01*
X108200000Y-95500000D01*
G37*
G36*
X113280000Y-94500000D02*
G01*
X113580000Y-94500000D01*
X113580000Y-93000000D01*
X113280000Y-93000000D01*
X113280000Y-94500000D01*
G37*
G36*
X110763000Y-94500000D02*
G01*
X111063000Y-94500000D01*
X111063000Y-93000000D01*
X110763000Y-93000000D01*
X110763000Y-94500000D01*
G37*
G36*
X118360000Y-94500000D02*
G01*
X118660000Y-94500000D01*
X118660000Y-93000000D01*
X118360000Y-93000000D01*
X118360000Y-94500000D01*
G37*
G36*
X115843000Y-94500000D02*
G01*
X116143000Y-94500000D01*
X116143000Y-93000000D01*
X115843000Y-93000000D01*
X115843000Y-94500000D01*
G37*
G36*
X90443000Y-94500000D02*
G01*
X90743000Y-94500000D01*
X90743000Y-93000000D01*
X90443000Y-93000000D01*
X90443000Y-94500000D01*
G37*
G36*
X92960000Y-94500000D02*
G01*
X93260000Y-94500000D01*
X93260000Y-93000000D01*
X92960000Y-93000000D01*
X92960000Y-94500000D01*
G37*
G36*
X85363000Y-94500000D02*
G01*
X85663000Y-94500000D01*
X85663000Y-93000000D01*
X85363000Y-93000000D01*
X85363000Y-94500000D01*
G37*
G36*
X87880000Y-94500000D02*
G01*
X88180000Y-94500000D01*
X88180000Y-93000000D01*
X87880000Y-93000000D01*
X87880000Y-94500000D01*
G37*
G36*
X82800000Y-95500000D02*
G01*
X83100000Y-95500000D01*
X83100000Y-93000000D01*
X82800000Y-93000000D01*
X82800000Y-95500000D01*
G37*
G36*
X75180000Y-94500000D02*
G01*
X75480000Y-94500000D01*
X75480000Y-93000000D01*
X75180000Y-93000000D01*
X75180000Y-94500000D01*
G37*
G36*
X72663000Y-94500000D02*
G01*
X72963000Y-94500000D01*
X72963000Y-93000000D01*
X72663000Y-93000000D01*
X72663000Y-94500000D01*
G37*
G36*
X70100000Y-96500000D02*
G01*
X70400000Y-96500000D01*
X70400000Y-93000000D01*
X70100000Y-93000000D01*
X70100000Y-96500000D01*
G37*
G36*
X80260000Y-94500000D02*
G01*
X80560000Y-94500000D01*
X80560000Y-93000000D01*
X80260000Y-93000000D01*
X80260000Y-94500000D01*
G37*
G36*
X77743000Y-94500000D02*
G01*
X78043000Y-94500000D01*
X78043000Y-93000000D01*
X77743000Y-93000000D01*
X77743000Y-94500000D01*
G37*
G36*
X160100000Y-120000000D02*
G01*
X160400000Y-120000000D01*
X160400000Y-117000000D01*
X160100000Y-117000000D01*
X160100000Y-120000000D01*
G37*
G36*
X161150000Y-120000000D02*
G01*
X161350000Y-120000000D01*
X161350000Y-119000000D01*
X161150000Y-119000000D01*
X161150000Y-120000000D01*
G37*
G36*
X162150000Y-120000000D02*
G01*
X162350000Y-120000000D01*
X162350000Y-119000000D01*
X162150000Y-119000000D01*
X162150000Y-120000000D01*
G37*
G36*
X163150000Y-120000000D02*
G01*
X163350000Y-120000000D01*
X163350000Y-119000000D01*
X163150000Y-119000000D01*
X163150000Y-120000000D01*
G37*
G36*
X165150000Y-120000000D02*
G01*
X165350000Y-120000000D01*
X165350000Y-118000000D01*
X165150000Y-118000000D01*
X165150000Y-120000000D01*
G37*
G36*
X164150000Y-120000000D02*
G01*
X164350000Y-120000000D01*
X164350000Y-119000000D01*
X164150000Y-119000000D01*
X164150000Y-120000000D01*
G37*
G36*
X166150000Y-120000000D02*
G01*
X166350000Y-120000000D01*
X166350000Y-119000000D01*
X166150000Y-119000000D01*
X166150000Y-120000000D01*
G37*
G36*
X167150000Y-120000000D02*
G01*
X167350000Y-120000000D01*
X167350000Y-119000000D01*
X167150000Y-119000000D01*
X167150000Y-120000000D01*
G37*
G36*
X168150000Y-120000000D02*
G01*
X168350000Y-120000000D01*
X168350000Y-119000000D01*
X168150000Y-119000000D01*
X168150000Y-120000000D01*
G37*
G36*
X169150000Y-120000000D02*
G01*
X169350000Y-120000000D01*
X169350000Y-119000000D01*
X169150000Y-119000000D01*
X169150000Y-120000000D01*
G37*
G36*
X170100000Y-120000000D02*
G01*
X170400000Y-120000000D01*
X170400000Y-117000000D01*
X170100000Y-117000000D01*
X170100000Y-120000000D01*
G37*
G36*
X160100000Y-120000000D02*
G01*
X160400000Y-120000000D01*
X160400000Y-117000000D01*
X160100000Y-117000000D01*
X160100000Y-120000000D01*
G37*
G36*
X159150000Y-120000000D02*
G01*
X159350000Y-120000000D01*
X159350000Y-119000000D01*
X159150000Y-119000000D01*
X159150000Y-120000000D01*
G37*
G36*
X158150000Y-120000000D02*
G01*
X158350000Y-120000000D01*
X158350000Y-119000000D01*
X158150000Y-119000000D01*
X158150000Y-120000000D01*
G37*
G36*
X157150000Y-120000000D02*
G01*
X157350000Y-120000000D01*
X157350000Y-119000000D01*
X157150000Y-119000000D01*
X157150000Y-120000000D01*
G37*
G36*
X156150000Y-120000000D02*
G01*
X156350000Y-120000000D01*
X156350000Y-119000000D01*
X156150000Y-119000000D01*
X156150000Y-120000000D01*
G37*
G36*
X154150000Y-120000000D02*
G01*
X154350000Y-120000000D01*
X154350000Y-119000000D01*
X154150000Y-119000000D01*
X154150000Y-120000000D01*
G37*
G36*
X155150000Y-120000000D02*
G01*
X155350000Y-120000000D01*
X155350000Y-118000000D01*
X155150000Y-118000000D01*
X155150000Y-120000000D01*
G37*
G36*
X153150000Y-120000000D02*
G01*
X153350000Y-120000000D01*
X153350000Y-119000000D01*
X153150000Y-119000000D01*
X153150000Y-120000000D01*
G37*
G36*
X152150000Y-120000000D02*
G01*
X152350000Y-120000000D01*
X152350000Y-119000000D01*
X152150000Y-119000000D01*
X152150000Y-120000000D01*
G37*
G36*
X151150000Y-120000000D02*
G01*
X151350000Y-120000000D01*
X151350000Y-119000000D01*
X151150000Y-119000000D01*
X151150000Y-120000000D01*
G37*
G36*
X150100000Y-120000000D02*
G01*
X150400000Y-120000000D01*
X150400000Y-117000000D01*
X150100000Y-117000000D01*
X150100000Y-120000000D01*
G37*
G36*
X140100000Y-120000000D02*
G01*
X140400000Y-120000000D01*
X140400000Y-117000000D01*
X140100000Y-117000000D01*
X140100000Y-120000000D01*
G37*
G36*
X141150000Y-120000000D02*
G01*
X141350000Y-120000000D01*
X141350000Y-119000000D01*
X141150000Y-119000000D01*
X141150000Y-120000000D01*
G37*
G36*
X142150000Y-120000000D02*
G01*
X142350000Y-120000000D01*
X142350000Y-119000000D01*
X142150000Y-119000000D01*
X142150000Y-120000000D01*
G37*
G36*
X143150000Y-120000000D02*
G01*
X143350000Y-120000000D01*
X143350000Y-119000000D01*
X143150000Y-119000000D01*
X143150000Y-120000000D01*
G37*
G36*
X145150000Y-120000000D02*
G01*
X145350000Y-120000000D01*
X145350000Y-118000000D01*
X145150000Y-118000000D01*
X145150000Y-120000000D01*
G37*
G36*
X144150000Y-120000000D02*
G01*
X144350000Y-120000000D01*
X144350000Y-119000000D01*
X144150000Y-119000000D01*
X144150000Y-120000000D01*
G37*
G36*
X146150000Y-120000000D02*
G01*
X146350000Y-120000000D01*
X146350000Y-119000000D01*
X146150000Y-119000000D01*
X146150000Y-120000000D01*
G37*
G36*
X147150000Y-120000000D02*
G01*
X147350000Y-120000000D01*
X147350000Y-119000000D01*
X147150000Y-119000000D01*
X147150000Y-120000000D01*
G37*
G36*
X148150000Y-120000000D02*
G01*
X148350000Y-120000000D01*
X148350000Y-119000000D01*
X148150000Y-119000000D01*
X148150000Y-120000000D01*
G37*
G36*
X149150000Y-120000000D02*
G01*
X149350000Y-120000000D01*
X149350000Y-119000000D01*
X149150000Y-119000000D01*
X149150000Y-120000000D01*
G37*
G36*
X150100000Y-120000000D02*
G01*
X150400000Y-120000000D01*
X150400000Y-117000000D01*
X150100000Y-117000000D01*
X150100000Y-120000000D01*
G37*
G36*
X130100000Y-120000000D02*
G01*
X130400000Y-120000000D01*
X130400000Y-117000000D01*
X130100000Y-117000000D01*
X130100000Y-120000000D01*
G37*
G36*
X131150000Y-120000000D02*
G01*
X131350000Y-120000000D01*
X131350000Y-119000000D01*
X131150000Y-119000000D01*
X131150000Y-120000000D01*
G37*
G36*
X132150000Y-120000000D02*
G01*
X132350000Y-120000000D01*
X132350000Y-119000000D01*
X132150000Y-119000000D01*
X132150000Y-120000000D01*
G37*
G36*
X133150000Y-120000000D02*
G01*
X133350000Y-120000000D01*
X133350000Y-119000000D01*
X133150000Y-119000000D01*
X133150000Y-120000000D01*
G37*
G36*
X135150000Y-120000000D02*
G01*
X135350000Y-120000000D01*
X135350000Y-118000000D01*
X135150000Y-118000000D01*
X135150000Y-120000000D01*
G37*
G36*
X134150000Y-120000000D02*
G01*
X134350000Y-120000000D01*
X134350000Y-119000000D01*
X134150000Y-119000000D01*
X134150000Y-120000000D01*
G37*
G36*
X136150000Y-120000000D02*
G01*
X136350000Y-120000000D01*
X136350000Y-119000000D01*
X136150000Y-119000000D01*
X136150000Y-120000000D01*
G37*
G36*
X137150000Y-120000000D02*
G01*
X137350000Y-120000000D01*
X137350000Y-119000000D01*
X137150000Y-119000000D01*
X137150000Y-120000000D01*
G37*
G36*
X138150000Y-120000000D02*
G01*
X138350000Y-120000000D01*
X138350000Y-119000000D01*
X138150000Y-119000000D01*
X138150000Y-120000000D01*
G37*
G36*
X139150000Y-120000000D02*
G01*
X139350000Y-120000000D01*
X139350000Y-119000000D01*
X139150000Y-119000000D01*
X139150000Y-120000000D01*
G37*
G36*
X140100000Y-120000000D02*
G01*
X140400000Y-120000000D01*
X140400000Y-117000000D01*
X140100000Y-117000000D01*
X140100000Y-120000000D01*
G37*
G36*
X130100000Y-120000000D02*
G01*
X130400000Y-120000000D01*
X130400000Y-117000000D01*
X130100000Y-117000000D01*
X130100000Y-120000000D01*
G37*
G36*
X129150000Y-120000000D02*
G01*
X129350000Y-120000000D01*
X129350000Y-119000000D01*
X129150000Y-119000000D01*
X129150000Y-120000000D01*
G37*
G36*
X128150000Y-120000000D02*
G01*
X128350000Y-120000000D01*
X128350000Y-119000000D01*
X128150000Y-119000000D01*
X128150000Y-120000000D01*
G37*
G36*
X127150000Y-120000000D02*
G01*
X127350000Y-120000000D01*
X127350000Y-119000000D01*
X127150000Y-119000000D01*
X127150000Y-120000000D01*
G37*
G36*
X126150000Y-120000000D02*
G01*
X126350000Y-120000000D01*
X126350000Y-119000000D01*
X126150000Y-119000000D01*
X126150000Y-120000000D01*
G37*
G36*
X124150000Y-120000000D02*
G01*
X124350000Y-120000000D01*
X124350000Y-119000000D01*
X124150000Y-119000000D01*
X124150000Y-120000000D01*
G37*
G36*
X125150000Y-120000000D02*
G01*
X125350000Y-120000000D01*
X125350000Y-118000000D01*
X125150000Y-118000000D01*
X125150000Y-120000000D01*
G37*
G36*
X123150000Y-120000000D02*
G01*
X123350000Y-120000000D01*
X123350000Y-119000000D01*
X123150000Y-119000000D01*
X123150000Y-120000000D01*
G37*
G36*
X122150000Y-120000000D02*
G01*
X122350000Y-120000000D01*
X122350000Y-119000000D01*
X122150000Y-119000000D01*
X122150000Y-120000000D01*
G37*
G36*
X121150000Y-120000000D02*
G01*
X121350000Y-120000000D01*
X121350000Y-119000000D01*
X121150000Y-119000000D01*
X121150000Y-120000000D01*
G37*
G36*
X120100000Y-120000000D02*
G01*
X120400000Y-120000000D01*
X120400000Y-117000000D01*
X120100000Y-117000000D01*
X120100000Y-120000000D01*
G37*
G36*
X120100000Y-120000000D02*
G01*
X120400000Y-120000000D01*
X120400000Y-117000000D01*
X120100000Y-117000000D01*
X120100000Y-120000000D01*
G37*
G36*
X119150000Y-120000000D02*
G01*
X119350000Y-120000000D01*
X119350000Y-119000000D01*
X119150000Y-119000000D01*
X119150000Y-120000000D01*
G37*
G36*
X118150000Y-120000000D02*
G01*
X118350000Y-120000000D01*
X118350000Y-119000000D01*
X118150000Y-119000000D01*
X118150000Y-120000000D01*
G37*
G36*
X117150000Y-120000000D02*
G01*
X117350000Y-120000000D01*
X117350000Y-119000000D01*
X117150000Y-119000000D01*
X117150000Y-120000000D01*
G37*
G36*
X116150000Y-120000000D02*
G01*
X116350000Y-120000000D01*
X116350000Y-119000000D01*
X116150000Y-119000000D01*
X116150000Y-120000000D01*
G37*
G36*
X114150000Y-120000000D02*
G01*
X114350000Y-120000000D01*
X114350000Y-119000000D01*
X114150000Y-119000000D01*
X114150000Y-120000000D01*
G37*
G36*
X115150000Y-120000000D02*
G01*
X115350000Y-120000000D01*
X115350000Y-118000000D01*
X115150000Y-118000000D01*
X115150000Y-120000000D01*
G37*
G36*
X113150000Y-120000000D02*
G01*
X113350000Y-120000000D01*
X113350000Y-119000000D01*
X113150000Y-119000000D01*
X113150000Y-120000000D01*
G37*
G36*
X112150000Y-120000000D02*
G01*
X112350000Y-120000000D01*
X112350000Y-119000000D01*
X112150000Y-119000000D01*
X112150000Y-120000000D01*
G37*
G36*
X111150000Y-120000000D02*
G01*
X111350000Y-120000000D01*
X111350000Y-119000000D01*
X111150000Y-119000000D01*
X111150000Y-120000000D01*
G37*
G36*
X110100000Y-120000000D02*
G01*
X110400000Y-120000000D01*
X110400000Y-117000000D01*
X110100000Y-117000000D01*
X110100000Y-120000000D01*
G37*
G36*
X100100000Y-120000000D02*
G01*
X100400000Y-120000000D01*
X100400000Y-117000000D01*
X100100000Y-117000000D01*
X100100000Y-120000000D01*
G37*
G36*
X101150000Y-120000000D02*
G01*
X101350000Y-120000000D01*
X101350000Y-119000000D01*
X101150000Y-119000000D01*
X101150000Y-120000000D01*
G37*
G36*
X102150000Y-120000000D02*
G01*
X102350000Y-120000000D01*
X102350000Y-119000000D01*
X102150000Y-119000000D01*
X102150000Y-120000000D01*
G37*
G36*
X103150000Y-120000000D02*
G01*
X103350000Y-120000000D01*
X103350000Y-119000000D01*
X103150000Y-119000000D01*
X103150000Y-120000000D01*
G37*
G36*
X105150000Y-120000000D02*
G01*
X105350000Y-120000000D01*
X105350000Y-118000000D01*
X105150000Y-118000000D01*
X105150000Y-120000000D01*
G37*
G36*
X104150000Y-120000000D02*
G01*
X104350000Y-120000000D01*
X104350000Y-119000000D01*
X104150000Y-119000000D01*
X104150000Y-120000000D01*
G37*
G36*
X106150000Y-120000000D02*
G01*
X106350000Y-120000000D01*
X106350000Y-119000000D01*
X106150000Y-119000000D01*
X106150000Y-120000000D01*
G37*
G36*
X107150000Y-120000000D02*
G01*
X107350000Y-120000000D01*
X107350000Y-119000000D01*
X107150000Y-119000000D01*
X107150000Y-120000000D01*
G37*
G36*
X108150000Y-120000000D02*
G01*
X108350000Y-120000000D01*
X108350000Y-119000000D01*
X108150000Y-119000000D01*
X108150000Y-120000000D01*
G37*
G36*
X109150000Y-120000000D02*
G01*
X109350000Y-120000000D01*
X109350000Y-119000000D01*
X109150000Y-119000000D01*
X109150000Y-120000000D01*
G37*
G36*
X110100000Y-120000000D02*
G01*
X110400000Y-120000000D01*
X110400000Y-117000000D01*
X110100000Y-117000000D01*
X110100000Y-120000000D01*
G37*
G36*
X90100000Y-120000000D02*
G01*
X90400000Y-120000000D01*
X90400000Y-117000000D01*
X90100000Y-117000000D01*
X90100000Y-120000000D01*
G37*
G36*
X91150000Y-120000000D02*
G01*
X91350000Y-120000000D01*
X91350000Y-119000000D01*
X91150000Y-119000000D01*
X91150000Y-120000000D01*
G37*
G36*
X92150000Y-120000000D02*
G01*
X92350000Y-120000000D01*
X92350000Y-119000000D01*
X92150000Y-119000000D01*
X92150000Y-120000000D01*
G37*
G36*
X93150000Y-120000000D02*
G01*
X93350000Y-120000000D01*
X93350000Y-119000000D01*
X93150000Y-119000000D01*
X93150000Y-120000000D01*
G37*
G36*
X95150000Y-120000000D02*
G01*
X95350000Y-120000000D01*
X95350000Y-118000000D01*
X95150000Y-118000000D01*
X95150000Y-120000000D01*
G37*
G36*
X94150000Y-120000000D02*
G01*
X94350000Y-120000000D01*
X94350000Y-119000000D01*
X94150000Y-119000000D01*
X94150000Y-120000000D01*
G37*
G36*
X96150000Y-120000000D02*
G01*
X96350000Y-120000000D01*
X96350000Y-119000000D01*
X96150000Y-119000000D01*
X96150000Y-120000000D01*
G37*
G36*
X97150000Y-120000000D02*
G01*
X97350000Y-120000000D01*
X97350000Y-119000000D01*
X97150000Y-119000000D01*
X97150000Y-120000000D01*
G37*
G36*
X98150000Y-120000000D02*
G01*
X98350000Y-120000000D01*
X98350000Y-119000000D01*
X98150000Y-119000000D01*
X98150000Y-120000000D01*
G37*
G36*
X99150000Y-120000000D02*
G01*
X99350000Y-120000000D01*
X99350000Y-119000000D01*
X99150000Y-119000000D01*
X99150000Y-120000000D01*
G37*
G36*
X100100000Y-120000000D02*
G01*
X100400000Y-120000000D01*
X100400000Y-117000000D01*
X100100000Y-117000000D01*
X100100000Y-120000000D01*
G37*
G36*
X90100000Y-120000000D02*
G01*
X90400000Y-120000000D01*
X90400000Y-117000000D01*
X90100000Y-117000000D01*
X90100000Y-120000000D01*
G37*
G36*
X89150000Y-120000000D02*
G01*
X89350000Y-120000000D01*
X89350000Y-119000000D01*
X89150000Y-119000000D01*
X89150000Y-120000000D01*
G37*
G36*
X88150000Y-120000000D02*
G01*
X88350000Y-120000000D01*
X88350000Y-119000000D01*
X88150000Y-119000000D01*
X88150000Y-120000000D01*
G37*
G36*
X87150000Y-120000000D02*
G01*
X87350000Y-120000000D01*
X87350000Y-119000000D01*
X87150000Y-119000000D01*
X87150000Y-120000000D01*
G37*
G36*
X86150000Y-120000000D02*
G01*
X86350000Y-120000000D01*
X86350000Y-119000000D01*
X86150000Y-119000000D01*
X86150000Y-120000000D01*
G37*
G36*
X84150000Y-120000000D02*
G01*
X84350000Y-120000000D01*
X84350000Y-119000000D01*
X84150000Y-119000000D01*
X84150000Y-120000000D01*
G37*
G36*
X85150000Y-120000000D02*
G01*
X85350000Y-120000000D01*
X85350000Y-118000000D01*
X85150000Y-118000000D01*
X85150000Y-120000000D01*
G37*
G36*
X83150000Y-120000000D02*
G01*
X83350000Y-120000000D01*
X83350000Y-119000000D01*
X83150000Y-119000000D01*
X83150000Y-120000000D01*
G37*
G36*
X82150000Y-120000000D02*
G01*
X82350000Y-120000000D01*
X82350000Y-119000000D01*
X82150000Y-119000000D01*
X82150000Y-120000000D01*
G37*
G36*
X81150000Y-120000000D02*
G01*
X81350000Y-120000000D01*
X81350000Y-119000000D01*
X81150000Y-119000000D01*
X81150000Y-120000000D01*
G37*
G36*
X80100000Y-120000000D02*
G01*
X80400000Y-120000000D01*
X80400000Y-117000000D01*
X80100000Y-117000000D01*
X80100000Y-120000000D01*
G37*
G36*
X80100000Y-120000000D02*
G01*
X80400000Y-120000000D01*
X80400000Y-117000000D01*
X80100000Y-117000000D01*
X80100000Y-120000000D01*
G37*
G36*
X79150000Y-120000000D02*
G01*
X79350000Y-120000000D01*
X79350000Y-119000000D01*
X79150000Y-119000000D01*
X79150000Y-120000000D01*
G37*
G36*
X78150000Y-120000000D02*
G01*
X78350000Y-120000000D01*
X78350000Y-119000000D01*
X78150000Y-119000000D01*
X78150000Y-120000000D01*
G37*
G36*
X77150000Y-120000000D02*
G01*
X77350000Y-120000000D01*
X77350000Y-119000000D01*
X77150000Y-119000000D01*
X77150000Y-120000000D01*
G37*
G36*
X76150000Y-120000000D02*
G01*
X76350000Y-120000000D01*
X76350000Y-119000000D01*
X76150000Y-119000000D01*
X76150000Y-120000000D01*
G37*
G36*
X74150000Y-120000000D02*
G01*
X74350000Y-120000000D01*
X74350000Y-119000000D01*
X74150000Y-119000000D01*
X74150000Y-120000000D01*
G37*
G36*
X75150000Y-120000000D02*
G01*
X75350000Y-120000000D01*
X75350000Y-118000000D01*
X75150000Y-118000000D01*
X75150000Y-120000000D01*
G37*
G36*
X73150000Y-120000000D02*
G01*
X73350000Y-120000000D01*
X73350000Y-119000000D01*
X73150000Y-119000000D01*
X73150000Y-120000000D01*
G37*
G36*
X72150000Y-120000000D02*
G01*
X72350000Y-120000000D01*
X72350000Y-119000000D01*
X72150000Y-119000000D01*
X72150000Y-120000000D01*
G37*
G36*
X71150000Y-120000000D02*
G01*
X71350000Y-120000000D01*
X71350000Y-119000000D01*
X71150000Y-119000000D01*
X71150000Y-120000000D01*
G37*
G36*
X70100000Y-120000000D02*
G01*
X70400000Y-120000000D01*
X70400000Y-117000000D01*
X70100000Y-117000000D01*
X70100000Y-120000000D01*
G37*
G36*
X153943000Y-94500000D02*
G01*
X154243000Y-94500000D01*
X154243000Y-93000000D01*
X153943000Y-93000000D01*
X153943000Y-94500000D01*
G37*
G36*
X156460000Y-94500000D02*
G01*
X156760000Y-94500000D01*
X156760000Y-93000000D01*
X156460000Y-93000000D01*
X156460000Y-94500000D01*
G37*
G36*
X146300000Y-96500000D02*
G01*
X146600000Y-96500000D01*
X146600000Y-93000000D01*
X146300000Y-93000000D01*
X146300000Y-96500000D01*
G37*
G36*
X148863000Y-94500000D02*
G01*
X149163000Y-94500000D01*
X149163000Y-93000000D01*
X148863000Y-93000000D01*
X148863000Y-94500000D01*
G37*
G36*
X151380000Y-94500000D02*
G01*
X151680000Y-94500000D01*
X151680000Y-93000000D01*
X151380000Y-93000000D01*
X151380000Y-94500000D01*
G37*
G36*
X159000000Y-95500000D02*
G01*
X159300000Y-95500000D01*
X159300000Y-93000000D01*
X159000000Y-93000000D01*
X159000000Y-95500000D01*
G37*
G36*
X164080000Y-94500000D02*
G01*
X164380000Y-94500000D01*
X164380000Y-93000000D01*
X164080000Y-93000000D01*
X164080000Y-94500000D01*
G37*
G36*
X161563000Y-94500000D02*
G01*
X161863000Y-94500000D01*
X161863000Y-93000000D01*
X161563000Y-93000000D01*
X161563000Y-94500000D01*
G37*
G36*
X169160000Y-94500000D02*
G01*
X169460000Y-94500000D01*
X169460000Y-93000000D01*
X169160000Y-93000000D01*
X169160000Y-94500000D01*
G37*
G36*
X166643000Y-94500000D02*
G01*
X166943000Y-94500000D01*
X166943000Y-93000000D01*
X166643000Y-93000000D01*
X166643000Y-94500000D01*
G37*
G36*
X99421000Y-118281000D02*
G01*
X96119000Y-118281000D01*
X96119000Y-117179000D01*
X99421000Y-117179000D01*
X99421000Y-118281000D01*
X99421000Y-118281000D01*
G37*
G36*
X108831000Y-117751000D02*
G01*
X107129000Y-117751000D01*
X107129000Y-114149000D01*
X108831000Y-114149000D01*
X108831000Y-117751000D01*
X108831000Y-117751000D01*
G37*
G36*
X139381000Y-117441000D02*
G01*
X137779000Y-117441000D01*
X137779000Y-115339000D01*
X139381000Y-115339000D01*
X139381000Y-117441000D01*
X139381000Y-117441000D01*
G37*
G36*
X134781000Y-117441000D02*
G01*
X133179000Y-117441000D01*
X133179000Y-115339000D01*
X134781000Y-115339000D01*
X134781000Y-117441000D01*
X134781000Y-117441000D01*
G37*
G36*
X137081000Y-117441000D02*
G01*
X135479000Y-117441000D01*
X135479000Y-115339000D01*
X137081000Y-115339000D01*
X137081000Y-117441000D01*
X137081000Y-117441000D01*
G37*
G36*
X123841000Y-116951000D02*
G01*
X122839000Y-116951000D01*
X122839000Y-116049000D01*
X123841000Y-116049000D01*
X123841000Y-116951000D01*
X123841000Y-116951000D01*
G37*
G36*
X148766000Y-116476000D02*
G01*
X147564000Y-116476000D01*
X147564000Y-111774000D01*
X148766000Y-111774000D01*
X148766000Y-116476000D01*
X148766000Y-116476000D01*
G37*
G36*
X143686000Y-116476000D02*
G01*
X142484000Y-116476000D01*
X142484000Y-111774000D01*
X143686000Y-111774000D01*
X143686000Y-116476000D01*
X143686000Y-116476000D01*
G37*
G36*
X157466000Y-116341000D02*
G01*
X155064000Y-116341000D01*
X155064000Y-113939000D01*
X157466000Y-113939000D01*
X157466000Y-116341000D01*
X157466000Y-116341000D01*
G37*
G36*
X102961000Y-116251000D02*
G01*
X101259000Y-116251000D01*
X101259000Y-113549000D01*
X102961000Y-113549000D01*
X102961000Y-116251000D01*
X102961000Y-116251000D01*
G37*
G36*
X126241000Y-116001000D02*
G01*
X125239000Y-116001000D01*
X125239000Y-115099000D01*
X126241000Y-115099000D01*
X126241000Y-116001000D01*
X126241000Y-116001000D01*
G37*
G36*
X130361000Y-115491000D02*
G01*
X129759000Y-115491000D01*
X129759000Y-115009000D01*
X130361000Y-115009000D01*
X130361000Y-115491000D01*
X130361000Y-115491000D01*
G37*
G36*
X128661000Y-114503048D02*
G01*
X128658402Y-114511613D01*
X128656000Y-114535999D01*
X128656000Y-114884001D01*
X128658402Y-114908387D01*
X128661000Y-114916952D01*
X128661000Y-115491000D01*
X128059000Y-115491000D01*
X128059000Y-115035999D01*
X128056598Y-115011613D01*
X128049485Y-114988164D01*
X128037934Y-114966553D01*
X128022389Y-114947611D01*
X128003447Y-114932066D01*
X127981836Y-114920515D01*
X127958387Y-114913402D01*
X127934001Y-114911000D01*
X127904000Y-114911000D01*
X127904000Y-114509000D01*
X127934001Y-114509000D01*
X127958387Y-114506598D01*
X127981836Y-114499485D01*
X128003447Y-114487934D01*
X128022389Y-114472389D01*
X128037934Y-114453447D01*
X128049485Y-114431836D01*
X128056598Y-114408387D01*
X128059000Y-114384001D01*
X128059000Y-113929000D01*
X128661000Y-113929000D01*
X128661000Y-114503048D01*
X128661000Y-114503048D01*
G37*
G36*
X152271000Y-115401000D02*
G01*
X151969000Y-115401000D01*
X151969000Y-114399000D01*
X152271000Y-114399000D01*
X152271000Y-115401000D01*
X152271000Y-115401000D01*
G37*
G36*
X153171000Y-115401000D02*
G01*
X152869000Y-115401000D01*
X152869000Y-114399000D01*
X153171000Y-114399000D01*
X153171000Y-115401000D01*
X153171000Y-115401000D01*
G37*
G36*
X114881000Y-115311000D02*
G01*
X112279000Y-115311000D01*
X112279000Y-111909000D01*
X114881000Y-111909000D01*
X114881000Y-115311000D01*
X114881000Y-115311000D01*
G37*
G36*
X121681000Y-115311000D02*
G01*
X119079000Y-115311000D01*
X119079000Y-111909000D01*
X121681000Y-111909000D01*
X121681000Y-115311000D01*
X121681000Y-115311000D01*
G37*
G36*
X123841000Y-115051000D02*
G01*
X122839000Y-115051000D01*
X122839000Y-114149000D01*
X123841000Y-114149000D01*
X123841000Y-115051000D01*
X123841000Y-115051000D01*
G37*
G36*
X130361000Y-114411000D02*
G01*
X129759000Y-114411000D01*
X129759000Y-113929000D01*
X130361000Y-113929000D01*
X130361000Y-114411000D01*
X130361000Y-114411000D01*
G37*
G36*
X88121000Y-114241000D02*
G01*
X87119000Y-114241000D01*
X87119000Y-113639000D01*
X88121000Y-113639000D01*
X88121000Y-114241000D01*
X88121000Y-114241000D01*
G37*
G36*
X92421000Y-114051000D02*
G01*
X90619000Y-114051000D01*
X90619000Y-113049000D01*
X92421000Y-113049000D01*
X92421000Y-114051000D01*
X92421000Y-114051000D01*
G37*
G36*
X95581000Y-113921000D02*
G01*
X92979000Y-113921000D01*
X92979000Y-112919000D01*
X95581000Y-112919000D01*
X95581000Y-113921000D01*
X95581000Y-113921000D01*
G37*
G36*
X86457000Y-113870000D02*
G01*
X85755000Y-113870000D01*
X85755000Y-113368000D01*
X86457000Y-113368000D01*
X86457000Y-113870000D01*
X86457000Y-113870000D01*
G37*
G36*
X85000400Y-113835400D02*
G01*
X84468400Y-113835400D01*
X84468400Y-112933400D01*
X85000400Y-112933400D01*
X85000400Y-113835400D01*
X85000400Y-113835400D01*
G37*
G36*
X86457000Y-112970000D02*
G01*
X85755000Y-112970000D01*
X85755000Y-112468000D01*
X86457000Y-112468000D01*
X86457000Y-112970000D01*
X86457000Y-112970000D01*
G37*
G36*
X88121000Y-112741000D02*
G01*
X87119000Y-112741000D01*
X87119000Y-112139000D01*
X88121000Y-112139000D01*
X88121000Y-112741000D01*
X88121000Y-112741000D01*
G37*
G36*
X153256000Y-112736000D02*
G01*
X152144000Y-112736000D01*
X152144000Y-111364000D01*
X153256000Y-111364000D01*
X153256000Y-112736000D01*
X153256000Y-112736000D01*
G37*
G36*
X102961000Y-112651000D02*
G01*
X101259000Y-112651000D01*
X101259000Y-109949000D01*
X102961000Y-109949000D01*
X102961000Y-112651000D01*
X102961000Y-112651000D01*
G37*
G36*
X108831000Y-112351000D02*
G01*
X107129000Y-112351000D01*
X107129000Y-108749000D01*
X108831000Y-108749000D01*
X108831000Y-112351000D01*
X108831000Y-112351000D01*
G37*
G36*
X90109000Y-112292800D02*
G01*
X88707000Y-112292800D01*
X88707000Y-111490800D01*
X90109000Y-111490800D01*
X90109000Y-112292800D01*
X90109000Y-112292800D01*
G37*
G36*
X84975000Y-112165000D02*
G01*
X84443000Y-112165000D01*
X84443000Y-111263000D01*
X84975000Y-111263000D01*
X84975000Y-112165000D01*
X84975000Y-112165000D01*
G37*
G36*
X131396000Y-112161000D02*
G01*
X130844000Y-112161000D01*
X130844000Y-111759000D01*
X131396000Y-111759000D01*
X131396000Y-112161000D01*
X131396000Y-112161000D01*
G37*
G36*
X129996000Y-112161000D02*
G01*
X129444000Y-112161000D01*
X129444000Y-110759000D01*
X129996000Y-110759000D01*
X129996000Y-112161000D01*
X129996000Y-112161000D01*
G37*
G36*
X99421000Y-112081000D02*
G01*
X96119000Y-112081000D01*
X96119000Y-110979000D01*
X99421000Y-110979000D01*
X99421000Y-112081000D01*
X99421000Y-112081000D01*
G37*
G36*
X124766000Y-112031000D02*
G01*
X124014000Y-112031000D01*
X124014000Y-110229000D01*
X124766000Y-110229000D01*
X124766000Y-112031000D01*
X124766000Y-112031000D01*
G37*
G36*
X126666000Y-112031000D02*
G01*
X125914000Y-112031000D01*
X125914000Y-111529000D01*
X126666000Y-111529000D01*
X126666000Y-112031000D01*
X126666000Y-112031000D01*
G37*
G36*
X88131000Y-111684800D02*
G01*
X87129000Y-111684800D01*
X87129000Y-111082800D01*
X88131000Y-111082800D01*
X88131000Y-111684800D01*
X88131000Y-111684800D01*
G37*
G36*
X131396000Y-111161000D02*
G01*
X130844000Y-111161000D01*
X130844000Y-110759000D01*
X131396000Y-110759000D01*
X131396000Y-111161000D01*
X131396000Y-111161000D01*
G37*
G36*
X92421000Y-111151000D02*
G01*
X90619000Y-111151000D01*
X90619000Y-110149000D01*
X92421000Y-110149000D01*
X92421000Y-111151000D01*
X92421000Y-111151000D01*
G37*
G36*
X138231000Y-111141000D02*
G01*
X134329000Y-111141000D01*
X134329000Y-109039000D01*
X138231000Y-109039000D01*
X138231000Y-111141000D01*
X138231000Y-111141000D01*
G37*
G36*
X95581000Y-111021000D02*
G01*
X92979000Y-111021000D01*
X92979000Y-110019000D01*
X95581000Y-110019000D01*
X95581000Y-111021000D01*
X95581000Y-111021000D01*
G37*
G36*
X86457000Y-110999800D02*
G01*
X85755000Y-110999800D01*
X85755000Y-110497800D01*
X86457000Y-110497800D01*
X86457000Y-110999800D01*
X86457000Y-110999800D01*
G37*
G36*
X126666000Y-110731000D02*
G01*
X125914000Y-110731000D01*
X125914000Y-110229000D01*
X126666000Y-110229000D01*
X126666000Y-110731000D01*
X126666000Y-110731000D01*
G37*
G36*
X84975000Y-110539400D02*
G01*
X84443000Y-110539400D01*
X84443000Y-109637400D01*
X84975000Y-109637400D01*
X84975000Y-110539400D01*
X84975000Y-110539400D01*
G37*
G36*
X90109000Y-110392800D02*
G01*
X88707000Y-110392800D01*
X88707000Y-109590800D01*
X90109000Y-109590800D01*
X90109000Y-110392800D01*
X90109000Y-110392800D01*
G37*
G36*
X88131000Y-110184800D02*
G01*
X87129000Y-110184800D01*
X87129000Y-109582800D01*
X88131000Y-109582800D01*
X88131000Y-110184800D01*
X88131000Y-110184800D01*
G37*
G36*
X86457000Y-110099800D02*
G01*
X85755000Y-110099800D01*
X85755000Y-109597800D01*
X86457000Y-109597800D01*
X86457000Y-110099800D01*
X86457000Y-110099800D01*
G37*
G36*
X120351000Y-109961000D02*
G01*
X118549000Y-109961000D01*
X118549000Y-108559000D01*
X120351000Y-108559000D01*
X120351000Y-109961000D01*
X120351000Y-109961000D01*
G37*
G36*
X151076000Y-109726000D02*
G01*
X140174000Y-109726000D01*
X140174000Y-100224000D01*
X151076000Y-100224000D01*
X151076000Y-109726000D01*
X151076000Y-109726000D01*
G37*
G36*
X131040958Y-104442586D02*
G01*
X131056983Y-104461123D01*
X131076317Y-104476178D01*
X131098216Y-104487172D01*
X131111000Y-104490695D01*
X131111000Y-104502139D01*
X131113402Y-104526525D01*
X131120515Y-104549974D01*
X131133879Y-104574224D01*
X131171450Y-104627449D01*
X131166553Y-104630066D01*
X131147611Y-104645611D01*
X131132066Y-104664553D01*
X131120515Y-104686164D01*
X131113402Y-104709613D01*
X131111000Y-104733999D01*
X131111000Y-106200201D01*
X131113402Y-106224587D01*
X131120515Y-106248036D01*
X131132066Y-106269647D01*
X131147611Y-106288589D01*
X131166553Y-106304134D01*
X131171026Y-106306525D01*
X131133596Y-106359996D01*
X131121579Y-106381351D01*
X131113959Y-106404640D01*
X131111000Y-106431678D01*
X131111000Y-106442644D01*
X131096590Y-106447015D01*
X131074979Y-106458566D01*
X131056037Y-106474111D01*
X131042022Y-106490817D01*
X130533596Y-107217140D01*
X130521579Y-107238495D01*
X130513959Y-107261784D01*
X130511000Y-107288822D01*
X130511000Y-109084500D01*
X129409000Y-109084500D01*
X129409000Y-107288822D01*
X129406598Y-107264436D01*
X129399485Y-107240987D01*
X129386404Y-107217140D01*
X128877978Y-106490817D01*
X128862026Y-106472216D01*
X128842752Y-106457085D01*
X128820896Y-106446005D01*
X128809000Y-106442676D01*
X128809000Y-106431678D01*
X128806598Y-106407292D01*
X128799485Y-106383843D01*
X128786404Y-106359996D01*
X128748974Y-106306525D01*
X128753447Y-106304134D01*
X128772389Y-106288589D01*
X128787934Y-106269647D01*
X128799485Y-106248036D01*
X128806598Y-106224587D01*
X128809000Y-106200201D01*
X128809000Y-104733999D01*
X128806598Y-104709613D01*
X128799485Y-104686164D01*
X128787934Y-104664553D01*
X128772389Y-104645611D01*
X128753447Y-104630066D01*
X128748550Y-104627449D01*
X128786121Y-104574224D01*
X128798222Y-104552916D01*
X128805933Y-104529657D01*
X128809000Y-104502139D01*
X128809000Y-104490765D01*
X128824757Y-104485985D01*
X128846368Y-104474434D01*
X128865310Y-104458889D01*
X128879042Y-104442586D01*
X129433574Y-103657000D01*
X130486426Y-103657000D01*
X131040958Y-104442586D01*
X131040958Y-104442586D01*
G37*
G36*
X132011000Y-109081000D02*
G01*
X130909000Y-109081000D01*
X130909000Y-107479000D01*
X132011000Y-107479000D01*
X132011000Y-109081000D01*
X132011000Y-109081000D01*
G37*
G36*
X129011000Y-109081000D02*
G01*
X127909000Y-109081000D01*
X127909000Y-107479000D01*
X129011000Y-107479000D01*
X129011000Y-109081000D01*
X129011000Y-109081000D01*
G37*
G36*
X113641000Y-109031000D02*
G01*
X111039000Y-109031000D01*
X111039000Y-106629000D01*
X113641000Y-106629000D01*
X113641000Y-109031000D01*
X113641000Y-109031000D01*
G37*
G36*
X117941000Y-109031000D02*
G01*
X115339000Y-109031000D01*
X115339000Y-106629000D01*
X117941000Y-106629000D01*
X117941000Y-109031000D01*
X117941000Y-109031000D01*
G37*
G36*
X101521000Y-108141000D02*
G01*
X98919000Y-108141000D01*
X98919000Y-106089000D01*
X101521000Y-106089000D01*
X101521000Y-108141000D01*
X101521000Y-108141000D01*
G37*
G36*
X105181000Y-108136000D02*
G01*
X102579000Y-108136000D01*
X102579000Y-105484000D01*
X105181000Y-105484000D01*
X105181000Y-108136000D01*
X105181000Y-108136000D01*
G37*
G36*
X109681000Y-108121000D02*
G01*
X106879000Y-108121000D01*
X106879000Y-105469000D01*
X109681000Y-105469000D01*
X109681000Y-108121000D01*
X109681000Y-108121000D01*
G37*
G36*
X138891000Y-108111000D02*
G01*
X137589000Y-108111000D01*
X137589000Y-105809000D01*
X138891000Y-105809000D01*
X138891000Y-108111000D01*
X138891000Y-108111000D01*
G37*
G36*
X134331000Y-108111000D02*
G01*
X133029000Y-108111000D01*
X133029000Y-105809000D01*
X134331000Y-105809000D01*
X134331000Y-108111000D01*
X134331000Y-108111000D01*
G37*
G36*
X98021000Y-107891000D02*
G01*
X96419000Y-107891000D01*
X96419000Y-105839000D01*
X98021000Y-105839000D01*
X98021000Y-107891000D01*
X98021000Y-107891000D01*
G37*
G36*
X124811000Y-107756000D02*
G01*
X124009000Y-107756000D01*
X124009000Y-107204000D01*
X124811000Y-107204000D01*
X124811000Y-107756000D01*
X124811000Y-107756000D01*
G37*
G36*
X126811000Y-107106000D02*
G01*
X126009000Y-107106000D01*
X126009000Y-106554000D01*
X126811000Y-106554000D01*
X126811000Y-107106000D01*
X126811000Y-107106000D01*
G37*
G36*
X120351000Y-106461000D02*
G01*
X118549000Y-106461000D01*
X118549000Y-105059000D01*
X120351000Y-105059000D01*
X120351000Y-106461000D01*
X120351000Y-106461000D01*
G37*
G36*
X124811000Y-106456000D02*
G01*
X124009000Y-106456000D01*
X124009000Y-105904000D01*
X124811000Y-105904000D01*
X124811000Y-106456000D01*
X124811000Y-106456000D01*
G37*
G36*
X98021000Y-105141000D02*
G01*
X96419000Y-105141000D01*
X96419000Y-103089000D01*
X98021000Y-103089000D01*
X98021000Y-105141000D01*
X98021000Y-105141000D01*
G37*
G36*
X101521000Y-105091000D02*
G01*
X98919000Y-105091000D01*
X98919000Y-103039000D01*
X101521000Y-103039000D01*
X101521000Y-105091000D01*
X101521000Y-105091000D01*
G37*
G36*
X113641000Y-104721000D02*
G01*
X111039000Y-104721000D01*
X111039000Y-102819000D01*
X113641000Y-102819000D01*
X113641000Y-104721000D01*
X113641000Y-104721000D01*
G37*
G36*
X117641000Y-104721000D02*
G01*
X115039000Y-104721000D01*
X115039000Y-102819000D01*
X117641000Y-102819000D01*
X117641000Y-104721000D01*
X117641000Y-104721000D01*
G37*
G36*
X138911000Y-103911000D02*
G01*
X133009000Y-103911000D01*
X133009000Y-97409000D01*
X138911000Y-97409000D01*
X138911000Y-103911000D01*
X138911000Y-103911000D01*
G37*
G36*
X124351000Y-103436000D02*
G01*
X123189000Y-103436000D01*
X123189000Y-100784000D01*
X124351000Y-100784000D01*
X124351000Y-103436000D01*
X124351000Y-103436000D01*
G37*
G36*
X126551000Y-103436000D02*
G01*
X125389000Y-103436000D01*
X125389000Y-102684000D01*
X126551000Y-102684000D01*
X126551000Y-103436000D01*
X126551000Y-103436000D01*
G37*
G36*
X105181000Y-103086000D02*
G01*
X102579000Y-103086000D01*
X102579000Y-100434000D01*
X105181000Y-100434000D01*
X105181000Y-103086000D01*
X105181000Y-103086000D01*
G37*
G36*
X132060000Y-103055000D02*
G01*
X131220000Y-103055000D01*
X131220000Y-101765000D01*
X132060000Y-101765000D01*
X132060000Y-103055000D01*
X132060000Y-103055000D01*
G37*
G36*
X130790000Y-103055000D02*
G01*
X129950000Y-103055000D01*
X129950000Y-101765000D01*
X130790000Y-101765000D01*
X130790000Y-103055000D01*
X130790000Y-103055000D01*
G37*
G36*
X129510000Y-103055000D02*
G01*
X128670000Y-103055000D01*
X128670000Y-101765000D01*
X129510000Y-101765000D01*
X129510000Y-103055000D01*
X129510000Y-103055000D01*
G37*
G36*
X128240000Y-103055000D02*
G01*
X127400000Y-103055000D01*
X127400000Y-101765000D01*
X128240000Y-101765000D01*
X128240000Y-103055000D01*
X128240000Y-103055000D01*
G37*
G36*
X109681000Y-101771000D02*
G01*
X106879000Y-101771000D01*
X106879000Y-99119000D01*
X109681000Y-99119000D01*
X109681000Y-101771000D01*
X109681000Y-101771000D01*
G37*
G36*
X170130400Y-101736000D02*
G01*
X169178400Y-101736000D01*
X169178400Y-100784000D01*
X170130400Y-100784000D01*
X170130400Y-101736000D01*
X170130400Y-101736000D01*
G37*
G36*
X126551000Y-101536000D02*
G01*
X125389000Y-101536000D01*
X125389000Y-100784000D01*
X126551000Y-100784000D01*
X126551000Y-101536000D01*
X126551000Y-101536000D01*
G37*
G36*
X112041000Y-101461000D02*
G01*
X111039000Y-101461000D01*
X111039000Y-100159000D01*
X112041000Y-100159000D01*
X112041000Y-101461000D01*
X112041000Y-101461000D01*
G37*
G36*
X115341000Y-101461000D02*
G01*
X114339000Y-101461000D01*
X114339000Y-100159000D01*
X115341000Y-100159000D01*
X115341000Y-101461000D01*
X115341000Y-101461000D01*
G37*
G36*
X132150000Y-97785000D02*
G01*
X132024999Y-97785000D01*
X132000613Y-97787402D01*
X131977164Y-97794515D01*
X131955553Y-97806066D01*
X131936611Y-97821611D01*
X131921066Y-97840553D01*
X131909515Y-97862164D01*
X131902402Y-97885613D01*
X131900000Y-97909999D01*
X131900000Y-100860000D01*
X127560000Y-100860000D01*
X127560000Y-97909999D01*
X127557598Y-97885613D01*
X127550485Y-97862164D01*
X127538934Y-97840553D01*
X127523389Y-97821611D01*
X127504447Y-97806066D01*
X127482836Y-97794515D01*
X127459387Y-97787402D01*
X127435001Y-97785000D01*
X127310000Y-97785000D01*
X127310000Y-96095000D01*
X132150000Y-96095000D01*
X132150000Y-97785000D01*
X132150000Y-97785000D01*
G37*
G36*
X170129200Y-100439400D02*
G01*
X169027200Y-100439400D01*
X169027200Y-99337400D01*
X170129200Y-99337400D01*
X170129200Y-100439400D01*
X170129200Y-100439400D01*
G37*
G36*
X161635438Y-96509790D02*
G01*
X161950787Y-96640412D01*
X162234595Y-96830046D01*
X162475954Y-97071405D01*
X162665588Y-97355213D01*
X162796210Y-97670562D01*
X162862800Y-98005333D01*
X162862800Y-98346667D01*
X162796210Y-98681438D01*
X162665588Y-98996787D01*
X162475954Y-99280595D01*
X162234595Y-99521954D01*
X161950787Y-99711588D01*
X161635438Y-99842210D01*
X161300667Y-99908800D01*
X160959333Y-99908800D01*
X160624562Y-99842210D01*
X160309213Y-99711588D01*
X160025405Y-99521954D01*
X159784046Y-99280595D01*
X159594412Y-98996787D01*
X159463790Y-98681438D01*
X159397200Y-98346667D01*
X159397200Y-98005333D01*
X159463790Y-97670562D01*
X159594412Y-97355213D01*
X159784046Y-97071405D01*
X160025405Y-96830046D01*
X160309213Y-96640412D01*
X160624562Y-96509790D01*
X160959333Y-96443200D01*
X161300667Y-96443200D01*
X161635438Y-96509790D01*
X161635438Y-96509790D01*
G37*
G36*
X157792171Y-96807707D02*
G01*
X157926936Y-96834513D01*
X158075662Y-96896117D01*
X158180827Y-96939678D01*
X158409324Y-97092355D01*
X158603645Y-97286676D01*
X158756322Y-97515173D01*
X158775801Y-97562200D01*
X158861487Y-97769064D01*
X158884670Y-97885613D01*
X158915100Y-98038593D01*
X158915100Y-98313407D01*
X158892998Y-98424518D01*
X158861487Y-98582936D01*
X158801403Y-98727990D01*
X158756322Y-98836827D01*
X158603645Y-99065324D01*
X158409324Y-99259645D01*
X158180827Y-99412322D01*
X158075662Y-99455883D01*
X157926936Y-99517487D01*
X157792171Y-99544293D01*
X157657407Y-99571100D01*
X157382593Y-99571100D01*
X157247829Y-99544293D01*
X157113064Y-99517487D01*
X156964338Y-99455883D01*
X156859173Y-99412322D01*
X156630676Y-99259645D01*
X156436355Y-99065324D01*
X156283678Y-98836827D01*
X156238597Y-98727990D01*
X156178513Y-98582936D01*
X156147002Y-98424518D01*
X156124900Y-98313407D01*
X156124900Y-98038593D01*
X156155330Y-97885613D01*
X156178513Y-97769064D01*
X156264199Y-97562200D01*
X156283678Y-97515173D01*
X156436355Y-97286676D01*
X156630676Y-97092355D01*
X156859173Y-96939678D01*
X156964338Y-96896117D01*
X157113064Y-96834513D01*
X157247829Y-96807707D01*
X157382593Y-96780900D01*
X157657407Y-96780900D01*
X157792171Y-96807707D01*
X157792171Y-96807707D01*
G37*
G36*
X154878806Y-97092069D02*
G01*
X155083951Y-97177043D01*
X155083953Y-97177044D01*
X155268580Y-97300408D01*
X155425592Y-97457420D01*
X155548956Y-97642047D01*
X155548957Y-97642049D01*
X155633931Y-97847194D01*
X155677250Y-98064974D01*
X155677250Y-98287026D01*
X155633931Y-98504806D01*
X155558014Y-98688085D01*
X155548956Y-98709953D01*
X155425592Y-98894580D01*
X155268580Y-99051592D01*
X155083953Y-99174956D01*
X155083952Y-99174957D01*
X155083951Y-99174957D01*
X154878806Y-99259931D01*
X154661026Y-99303250D01*
X154438974Y-99303250D01*
X154221194Y-99259931D01*
X154016049Y-99174957D01*
X154016048Y-99174957D01*
X154016047Y-99174956D01*
X153831420Y-99051592D01*
X153674408Y-98894580D01*
X153551044Y-98709953D01*
X153541986Y-98688085D01*
X153466069Y-98504806D01*
X153422750Y-98287026D01*
X153422750Y-98064974D01*
X153466069Y-97847194D01*
X153551043Y-97642049D01*
X153551044Y-97642047D01*
X153674408Y-97457420D01*
X153831420Y-97300408D01*
X154016047Y-97177044D01*
X154016049Y-97177043D01*
X154221194Y-97092069D01*
X154438974Y-97048750D01*
X154661026Y-97048750D01*
X154878806Y-97092069D01*
X154878806Y-97092069D01*
G37*
G36*
X152268478Y-97278728D02*
G01*
X152356852Y-97296307D01*
X152523344Y-97365270D01*
X152673183Y-97465389D01*
X152800611Y-97592817D01*
X152900730Y-97742656D01*
X152966850Y-97902285D01*
X152969693Y-97909149D01*
X153004850Y-98085894D01*
X153004850Y-98266106D01*
X152988825Y-98346667D01*
X152969693Y-98442852D01*
X152900730Y-98609344D01*
X152800611Y-98759183D01*
X152673183Y-98886611D01*
X152523344Y-98986730D01*
X152356852Y-99055693D01*
X152308433Y-99065324D01*
X152180106Y-99090850D01*
X151999894Y-99090850D01*
X151871567Y-99065324D01*
X151823148Y-99055693D01*
X151656656Y-98986730D01*
X151506817Y-98886611D01*
X151379389Y-98759183D01*
X151279270Y-98609344D01*
X151210307Y-98442852D01*
X151191175Y-98346667D01*
X151175150Y-98266106D01*
X151175150Y-98085894D01*
X151210307Y-97909149D01*
X151213150Y-97902285D01*
X151279270Y-97742656D01*
X151379389Y-97592817D01*
X151506817Y-97465389D01*
X151656656Y-97365270D01*
X151823148Y-97296307D01*
X151911522Y-97278728D01*
X151999894Y-97261150D01*
X152180106Y-97261150D01*
X152268478Y-97278728D01*
X152268478Y-97278728D01*
G37*
G36*
X170126400Y-99014200D02*
G01*
X168674400Y-99014200D01*
X168674400Y-97562200D01*
X170126400Y-97562200D01*
X170126400Y-99014200D01*
X170126400Y-99014200D01*
G37*
G36*
X150237717Y-97462283D02*
G01*
X150373553Y-97518548D01*
X150495803Y-97600233D01*
X150599767Y-97704197D01*
X150681452Y-97826447D01*
X150737717Y-97962283D01*
X150766400Y-98106486D01*
X150766400Y-98253514D01*
X150737717Y-98397717D01*
X150681452Y-98533553D01*
X150599767Y-98655803D01*
X150495803Y-98759767D01*
X150373553Y-98841452D01*
X150237717Y-98897717D01*
X150093514Y-98926400D01*
X149946486Y-98926400D01*
X149802283Y-98897717D01*
X149666447Y-98841452D01*
X149544197Y-98759767D01*
X149440233Y-98655803D01*
X149358548Y-98533553D01*
X149302283Y-98397717D01*
X149273600Y-98253514D01*
X149273600Y-98106486D01*
X149302283Y-97962283D01*
X149358548Y-97826447D01*
X149440233Y-97704197D01*
X149544197Y-97600233D01*
X149666447Y-97518548D01*
X149802283Y-97462283D01*
X149946486Y-97433600D01*
X150093514Y-97433600D01*
X150237717Y-97462283D01*
X150237717Y-97462283D01*
G37*
G36*
X113851000Y-98926000D02*
G01*
X113149000Y-98926000D01*
X113149000Y-98374000D01*
X113851000Y-98374000D01*
X113851000Y-98926000D01*
X113851000Y-98926000D01*
G37*
G36*
X111751000Y-98926000D02*
G01*
X111049000Y-98926000D01*
X111049000Y-98374000D01*
X111751000Y-98374000D01*
X111751000Y-98926000D01*
X111751000Y-98926000D01*
G37*
G36*
X140470721Y-97770174D02*
G01*
X140570995Y-97811709D01*
X140606876Y-97835684D01*
X140661242Y-97872010D01*
X140737990Y-97948758D01*
X140755690Y-97975248D01*
X140798291Y-98039005D01*
X140839826Y-98139279D01*
X140861000Y-98245730D01*
X140861000Y-98354270D01*
X140839826Y-98460721D01*
X140798291Y-98560995D01*
X140798290Y-98560996D01*
X140737990Y-98651242D01*
X140661242Y-98727990D01*
X140655773Y-98731644D01*
X140570995Y-98788291D01*
X140470721Y-98829826D01*
X140364270Y-98851000D01*
X140255730Y-98851000D01*
X140149279Y-98829826D01*
X140049005Y-98788291D01*
X139964227Y-98731644D01*
X139958758Y-98727990D01*
X139882010Y-98651242D01*
X139821710Y-98560996D01*
X139821709Y-98560995D01*
X139780174Y-98460721D01*
X139759000Y-98354270D01*
X139759000Y-98245730D01*
X139780174Y-98139279D01*
X139821709Y-98039005D01*
X139864310Y-97975248D01*
X139882010Y-97948758D01*
X139958758Y-97872010D01*
X140013124Y-97835684D01*
X140049005Y-97811709D01*
X140149279Y-97770174D01*
X140255730Y-97749000D01*
X140364270Y-97749000D01*
X140470721Y-97770174D01*
X140470721Y-97770174D01*
G37*
G36*
X148411340Y-97612954D02*
G01*
X148448553Y-97620356D01*
X148553715Y-97663916D01*
X148648358Y-97727155D01*
X148728845Y-97807642D01*
X148792084Y-97902285D01*
X148835644Y-98007447D01*
X148835713Y-98007794D01*
X148857850Y-98119085D01*
X148857850Y-98232915D01*
X148848767Y-98278578D01*
X148835644Y-98344553D01*
X148792084Y-98449715D01*
X148773357Y-98477741D01*
X148728846Y-98544357D01*
X148648357Y-98624846D01*
X148601358Y-98656250D01*
X148553715Y-98688084D01*
X148553714Y-98688085D01*
X148553713Y-98688085D01*
X148522913Y-98700843D01*
X148448553Y-98731644D01*
X148411340Y-98739046D01*
X148336915Y-98753850D01*
X148223085Y-98753850D01*
X148148660Y-98739046D01*
X148111447Y-98731644D01*
X148037087Y-98700843D01*
X148006287Y-98688085D01*
X148006286Y-98688085D01*
X148006285Y-98688084D01*
X147958642Y-98656250D01*
X147911643Y-98624846D01*
X147831154Y-98544357D01*
X147786643Y-98477741D01*
X147767916Y-98449715D01*
X147724356Y-98344553D01*
X147711233Y-98278578D01*
X147702150Y-98232915D01*
X147702150Y-98119085D01*
X147724287Y-98007794D01*
X147724356Y-98007447D01*
X147767916Y-97902285D01*
X147831155Y-97807642D01*
X147911642Y-97727155D01*
X148006285Y-97663916D01*
X148111447Y-97620356D01*
X148148660Y-97612954D01*
X148223085Y-97598150D01*
X148336915Y-97598150D01*
X148411340Y-97612954D01*
X148411340Y-97612954D01*
G37*
G36*
X146960562Y-97746617D02*
G01*
X147048269Y-97782947D01*
X147127191Y-97835681D01*
X147194319Y-97902809D01*
X147247053Y-97981731D01*
X147283383Y-98069438D01*
X147301900Y-98162535D01*
X147301900Y-98257465D01*
X147283383Y-98350562D01*
X147247053Y-98438269D01*
X147194319Y-98517191D01*
X147127191Y-98584319D01*
X147048269Y-98637053D01*
X146960562Y-98673383D01*
X146867465Y-98691900D01*
X146772535Y-98691900D01*
X146679438Y-98673383D01*
X146591731Y-98637053D01*
X146512809Y-98584319D01*
X146445681Y-98517191D01*
X146392947Y-98438269D01*
X146356617Y-98350562D01*
X146338100Y-98257465D01*
X146338100Y-98162535D01*
X146356617Y-98069438D01*
X146392947Y-97981731D01*
X146445681Y-97902809D01*
X146512809Y-97835681D01*
X146591731Y-97782947D01*
X146679438Y-97746617D01*
X146772535Y-97728100D01*
X146867465Y-97728100D01*
X146960562Y-97746617D01*
X146960562Y-97746617D01*
G37*
G36*
X145643879Y-97785000D02*
G01*
X145686063Y-97793391D01*
X145716057Y-97805815D01*
X145758475Y-97823385D01*
X145823646Y-97866931D01*
X145879069Y-97922354D01*
X145922615Y-97987525D01*
X145932441Y-98011247D01*
X145952609Y-98059937D01*
X145967900Y-98136810D01*
X145967900Y-98215190D01*
X145952609Y-98292063D01*
X145949975Y-98298422D01*
X145922615Y-98364475D01*
X145879069Y-98429646D01*
X145823646Y-98485069D01*
X145758475Y-98528615D01*
X145720470Y-98544357D01*
X145686063Y-98558609D01*
X145647626Y-98566255D01*
X145609191Y-98573900D01*
X145530809Y-98573900D01*
X145492374Y-98566255D01*
X145453937Y-98558609D01*
X145419530Y-98544357D01*
X145381525Y-98528615D01*
X145316354Y-98485069D01*
X145260931Y-98429646D01*
X145217385Y-98364475D01*
X145190025Y-98298422D01*
X145187391Y-98292063D01*
X145172100Y-98215190D01*
X145172100Y-98136810D01*
X145187391Y-98059937D01*
X145207559Y-98011247D01*
X145217385Y-97987525D01*
X145260931Y-97922354D01*
X145316354Y-97866931D01*
X145381525Y-97823385D01*
X145423943Y-97805815D01*
X145453937Y-97793391D01*
X145496121Y-97785000D01*
X145530809Y-97778100D01*
X145609191Y-97778100D01*
X145643879Y-97785000D01*
X145643879Y-97785000D01*
G37*
G36*
X144551529Y-97874258D02*
G01*
X144551531Y-97874259D01*
X144551532Y-97874259D01*
X144608640Y-97897914D01*
X144660036Y-97932256D01*
X144703744Y-97975964D01*
X144738086Y-98027360D01*
X144761741Y-98084468D01*
X144761742Y-98084471D01*
X144773800Y-98145092D01*
X144773800Y-98206908D01*
X144763744Y-98257465D01*
X144761741Y-98267532D01*
X144738086Y-98324640D01*
X144703744Y-98376036D01*
X144660036Y-98419744D01*
X144608640Y-98454086D01*
X144551532Y-98477741D01*
X144551531Y-98477741D01*
X144551529Y-98477742D01*
X144490908Y-98489800D01*
X144429092Y-98489800D01*
X144368471Y-98477742D01*
X144368469Y-98477741D01*
X144368468Y-98477741D01*
X144311360Y-98454086D01*
X144259964Y-98419744D01*
X144216256Y-98376036D01*
X144181914Y-98324640D01*
X144158259Y-98267532D01*
X144156257Y-98257465D01*
X144146200Y-98206908D01*
X144146200Y-98145092D01*
X144158258Y-98084471D01*
X144158259Y-98084468D01*
X144181914Y-98027360D01*
X144216256Y-97975964D01*
X144259964Y-97932256D01*
X144311360Y-97897914D01*
X144368468Y-97874259D01*
X144368469Y-97874259D01*
X144368471Y-97874258D01*
X144429092Y-97862200D01*
X144490908Y-97862200D01*
X144551529Y-97874258D01*
X144551529Y-97874258D01*
G37*
G36*
X124571000Y-98461000D02*
G01*
X123569000Y-98461000D01*
X123569000Y-97559000D01*
X124571000Y-97559000D01*
X124571000Y-98461000D01*
X124571000Y-98461000D01*
G37*
G36*
X143519607Y-97922354D02*
G01*
X143545387Y-97927482D01*
X143592422Y-97946964D01*
X143634753Y-97975248D01*
X143670752Y-98011247D01*
X143699036Y-98053578D01*
X143718518Y-98100613D01*
X143728450Y-98150545D01*
X143728450Y-98201455D01*
X143718518Y-98251387D01*
X143699036Y-98298422D01*
X143670752Y-98340753D01*
X143634753Y-98376752D01*
X143592422Y-98405036D01*
X143545387Y-98424518D01*
X143520421Y-98429484D01*
X143495456Y-98434450D01*
X143444544Y-98434450D01*
X143419579Y-98429484D01*
X143394613Y-98424518D01*
X143347578Y-98405036D01*
X143305247Y-98376752D01*
X143269248Y-98340753D01*
X143240964Y-98298422D01*
X143221482Y-98251387D01*
X143211550Y-98201455D01*
X143211550Y-98150545D01*
X143221482Y-98100613D01*
X143240964Y-98053578D01*
X143269248Y-98011247D01*
X143305247Y-97975248D01*
X143347578Y-97946964D01*
X143394613Y-97927482D01*
X143420393Y-97922354D01*
X143444544Y-97917550D01*
X143495456Y-97917550D01*
X143519607Y-97922354D01*
X143519607Y-97922354D01*
G37*
G36*
X142663162Y-97967770D02*
G01*
X142702578Y-97984097D01*
X142734360Y-98005333D01*
X142738043Y-98007794D01*
X142768206Y-98037957D01*
X142768208Y-98037960D01*
X142791903Y-98073422D01*
X142808230Y-98112838D01*
X142816550Y-98154669D01*
X142816550Y-98197331D01*
X142808230Y-98239162D01*
X142791903Y-98278578D01*
X142768632Y-98313405D01*
X142768206Y-98314043D01*
X142738043Y-98344206D01*
X142738040Y-98344208D01*
X142702578Y-98367903D01*
X142663162Y-98384230D01*
X142621331Y-98392550D01*
X142578669Y-98392550D01*
X142536838Y-98384230D01*
X142497422Y-98367903D01*
X142461960Y-98344208D01*
X142461957Y-98344206D01*
X142431794Y-98314043D01*
X142431368Y-98313405D01*
X142408097Y-98278578D01*
X142391770Y-98239162D01*
X142383450Y-98197331D01*
X142383450Y-98154669D01*
X142391770Y-98112838D01*
X142408097Y-98073422D01*
X142431792Y-98037960D01*
X142431794Y-98037957D01*
X142461957Y-98007794D01*
X142465640Y-98005333D01*
X142497422Y-97984097D01*
X142536838Y-97967770D01*
X142578669Y-97959450D01*
X142621331Y-97959450D01*
X142663162Y-97967770D01*
X142663162Y-97967770D01*
G37*
G36*
X120306000Y-97941000D02*
G01*
X119854000Y-97941000D01*
X119854000Y-97489000D01*
X120306000Y-97489000D01*
X120306000Y-97941000D01*
X120306000Y-97941000D01*
G37*
G36*
X126571000Y-97511000D02*
G01*
X125569000Y-97511000D01*
X125569000Y-96609000D01*
X126571000Y-96609000D01*
X126571000Y-97511000D01*
X126571000Y-97511000D01*
G37*
G36*
X113151000Y-97341000D02*
G01*
X112449000Y-97341000D01*
X112449000Y-96539000D01*
X113151000Y-96539000D01*
X113151000Y-97341000D01*
X113151000Y-97341000D01*
G37*
G36*
X111751000Y-97341000D02*
G01*
X111049000Y-97341000D01*
X111049000Y-96539000D01*
X111751000Y-96539000D01*
X111751000Y-97341000D01*
X111751000Y-97341000D01*
G37*
G36*
X170123600Y-97233400D02*
G01*
X168321600Y-97233400D01*
X168321600Y-95431400D01*
X170123600Y-95431400D01*
X170123600Y-97233400D01*
X170123600Y-97233400D01*
G37*
G36*
X141681000Y-97031000D02*
G01*
X139579000Y-97031000D01*
X139579000Y-94929000D01*
X141681000Y-94929000D01*
X141681000Y-97031000D01*
X141681000Y-97031000D01*
G37*
G36*
X124571000Y-96561000D02*
G01*
X123569000Y-96561000D01*
X123569000Y-95659000D01*
X124571000Y-95659000D01*
X124571000Y-96561000D01*
X124571000Y-96561000D01*
G37*
G36*
X135429999Y-94909737D02*
G01*
X135439608Y-94912652D01*
X135448472Y-94917390D01*
X135456212Y-94923742D01*
X135456213Y-94923743D01*
X135456237Y-94923763D01*
X135462640Y-94931573D01*
X135462677Y-94931628D01*
X135470480Y-94941147D01*
X135470511Y-94941122D01*
X135481853Y-94954972D01*
X135500779Y-94970537D01*
X135522377Y-94982111D01*
X135545819Y-94989249D01*
X135570202Y-94991676D01*
X135594591Y-94989300D01*
X135618047Y-94982211D01*
X135639670Y-94970682D01*
X135658628Y-94955157D01*
X135674193Y-94936231D01*
X135676029Y-94933175D01*
X135677418Y-94931486D01*
X135677419Y-94931484D01*
X135683801Y-94923725D01*
X135691573Y-94917360D01*
X135691575Y-94917358D01*
X135700399Y-94912654D01*
X135700438Y-94912633D01*
X135710055Y-94909727D01*
X135710085Y-94909718D01*
X135726113Y-94908148D01*
X136863860Y-94908148D01*
X136879999Y-94909737D01*
X136889608Y-94912652D01*
X136898472Y-94917390D01*
X136906237Y-94923763D01*
X136912610Y-94931528D01*
X136917348Y-94940392D01*
X136920263Y-94950001D01*
X136921852Y-94966140D01*
X136921852Y-96453860D01*
X136920263Y-96469999D01*
X136917348Y-96479608D01*
X136912610Y-96488472D01*
X136906237Y-96496237D01*
X136898472Y-96502610D01*
X136889608Y-96507348D01*
X136879999Y-96510263D01*
X136863860Y-96511852D01*
X135726140Y-96511852D01*
X135710001Y-96510263D01*
X135700392Y-96507348D01*
X135691528Y-96502610D01*
X135683763Y-96496237D01*
X135673116Y-96483263D01*
X135666947Y-96474032D01*
X135649619Y-96456706D01*
X135629244Y-96443093D01*
X135606605Y-96433717D01*
X135582572Y-96428937D01*
X135558068Y-96428938D01*
X135534035Y-96433720D01*
X135511396Y-96443098D01*
X135491022Y-96456713D01*
X135473696Y-96474041D01*
X135466825Y-96483317D01*
X135462640Y-96488427D01*
X135456275Y-96496199D01*
X135448516Y-96502581D01*
X135439661Y-96507326D01*
X135436623Y-96508251D01*
X135430085Y-96510242D01*
X135430082Y-96510242D01*
X135430050Y-96510252D01*
X135420000Y-96511247D01*
X135419935Y-96511247D01*
X135413825Y-96511852D01*
X134426140Y-96511852D01*
X134410001Y-96510263D01*
X134400392Y-96507348D01*
X134391528Y-96502610D01*
X134383763Y-96496237D01*
X134377390Y-96488472D01*
X134372652Y-96479608D01*
X134369737Y-96469999D01*
X134368148Y-96453860D01*
X134368148Y-94966140D01*
X134369737Y-94950001D01*
X134372652Y-94940392D01*
X134377390Y-94931528D01*
X134383763Y-94923763D01*
X134391528Y-94917390D01*
X134400392Y-94912652D01*
X134410001Y-94909737D01*
X134426140Y-94908148D01*
X135413860Y-94908148D01*
X135429999Y-94909737D01*
X135429999Y-94909737D01*
G37*
G36*
X120306000Y-96491000D02*
G01*
X119854000Y-96491000D01*
X119854000Y-96039000D01*
X120306000Y-96039000D01*
X120306000Y-96491000D01*
X120306000Y-96491000D01*
G37*
G36*
X138771000Y-96431000D02*
G01*
X137669000Y-96431000D01*
X137669000Y-95329000D01*
X138771000Y-95329000D01*
X138771000Y-96431000D01*
X138771000Y-96431000D01*
G37*
M02*
