%TF.GenerationSoftware,KiCad,Pcbnew,5.1.4+dfsg1-1*%
%TF.CreationDate,2019-10-23T15:13:16-07:00*%
%TF.ProjectId,PCB_Ruler,5043425f-5275-46c6-9572-2e6b69636164,rev?*%
%TF.SameCoordinates,Original*%
%TF.FileFunction,Copper,L2,Bot*%
%TF.FilePolarity,Positive*%
%FSLAX46Y46*%
G04 Gerber Fmt 4.6, Leading zero omitted, Abs format (unit mm)*
G04 Created by KiCad (PCBNEW 5.1.4+dfsg1-1) date 2019-10-23 15:13:16*
%MOMM*%
%LPD*%
G04 APERTURE LIST*
%ADD10C,0.100000*%
%ADD11R,1.800000X1.000000*%
%ADD12R,1.600000X1.300000*%
%ADD13R,1.400000X1.200000*%
%ADD14R,0.900000X0.800000*%
%ADD15R,0.600000X1.100000*%
%ADD16R,0.600000X1.200000*%
%ADD17R,1.150000X1.000000*%
%ADD18R,4.500000X2.000000*%
%ADD19R,0.850000X0.850000*%
%ADD20R,1.000000X1.000000*%
%ADD21R,1.350000X1.350000*%
%ADD22R,1.700000X1.700000*%
%ADD23R,0.300000X1.500000*%
%ADD24R,1.500000X0.300000*%
%ADD25R,0.280000X1.200000*%
%ADD26R,1.200000X0.280000*%
%ADD27R,1.200000X0.600000*%
%ADD28R,0.200000X1.500000*%
%ADD29R,1.500000X0.200000*%
%ADD30R,0.875000X0.800000*%
%ADD31R,0.200000X0.550000*%
%ADD32R,0.550000X0.200000*%
%ADD33R,1.750000X0.550000*%
%ADD34R,0.450000X1.500000*%
%ADD35R,1.550000X0.600000*%
%ADD36R,1.100000X0.400000*%
%ADD37R,1.000000X0.285000*%
%ADD38C,0.400000*%
%ADD39C,0.500000*%
%ADD40C,0.250000*%
%ADD41R,1.250000X1.250000*%
%ADD42R,0.300000X0.730000*%
%ADD43R,0.730000X0.300000*%
%ADD44R,1.150000X1.150000*%
%ADD45R,0.300000X0.500000*%
%ADD46R,0.500000X0.300000*%
%ADD47R,1.287500X1.287500*%
%ADD48R,0.250000X0.700000*%
%ADD49R,0.700000X0.250000*%
%ADD50R,1.837500X1.837500*%
%ADD51R,0.300000X0.850000*%
%ADD52R,0.850000X0.300000*%
%ADD53R,0.250000X1.300000*%
%ADD54R,1.300000X0.250000*%
%ADD55R,0.250000X1.000000*%
%ADD56R,1.000000X0.250000*%
%ADD57C,0.225000*%
%ADD58C,0.420000*%
%ADD59C,0.750000*%
%ADD60C,0.300000*%
%ADD61R,1.725000X1.725000*%
%ADD62R,0.825000X0.825000*%
%ADD63C,0.800000*%
%ADD64C,0.600000*%
%ADD65C,1.000000*%
%ADD66C,0.150000*%
%ADD67C,0.254000*%
G04 APERTURE END LIST*
D10*
G36*
X146600000Y-96500000D02*
G01*
X146300000Y-96500000D01*
X146300000Y-93000000D01*
X146600000Y-93000000D01*
X146600000Y-96500000D01*
G37*
G36*
X148187500Y-93635000D02*
G01*
X147887500Y-93635000D01*
X147887500Y-93000000D01*
X148187500Y-93000000D01*
X148187500Y-93635000D01*
G37*
G36*
X149775000Y-94500000D02*
G01*
X149475000Y-94500000D01*
X149475000Y-93000000D01*
X149775000Y-93000000D01*
X149775000Y-94500000D01*
G37*
G36*
X152950000Y-94500000D02*
G01*
X152650000Y-94500000D01*
X152650000Y-93000000D01*
X152950000Y-93000000D01*
X152950000Y-94500000D01*
G37*
G36*
X156125000Y-94500000D02*
G01*
X155825000Y-94500000D01*
X155825000Y-93000000D01*
X156125000Y-93000000D01*
X156125000Y-94500000D01*
G37*
G36*
X159300000Y-95500000D02*
G01*
X159000000Y-95500000D01*
X159000000Y-93000000D01*
X159300000Y-93000000D01*
X159300000Y-95500000D01*
G37*
G36*
X162475000Y-94500000D02*
G01*
X162175000Y-94500000D01*
X162175000Y-93000000D01*
X162475000Y-93000000D01*
X162475000Y-94500000D01*
G37*
G36*
X165650000Y-94500000D02*
G01*
X165350000Y-94500000D01*
X165350000Y-93000000D01*
X165650000Y-93000000D01*
X165650000Y-94500000D01*
G37*
G36*
X168825000Y-94500000D02*
G01*
X168525000Y-94500000D01*
X168525000Y-93000000D01*
X168825000Y-93000000D01*
X168825000Y-94500000D01*
G37*
G36*
X170412500Y-93635000D02*
G01*
X170112500Y-93635000D01*
X170112500Y-93000000D01*
X170412500Y-93000000D01*
X170412500Y-93635000D01*
G37*
G36*
X167237500Y-93635000D02*
G01*
X166937500Y-93635000D01*
X166937500Y-93000000D01*
X167237500Y-93000000D01*
X167237500Y-93635000D01*
G37*
G36*
X164062500Y-93635000D02*
G01*
X163762500Y-93635000D01*
X163762500Y-93000000D01*
X164062500Y-93000000D01*
X164062500Y-93635000D01*
G37*
G36*
X160887500Y-93635000D02*
G01*
X160587500Y-93635000D01*
X160587500Y-93000000D01*
X160887500Y-93000000D01*
X160887500Y-93635000D01*
G37*
G36*
X157712500Y-93635000D02*
G01*
X157412500Y-93635000D01*
X157412500Y-93000000D01*
X157712500Y-93000000D01*
X157712500Y-93635000D01*
G37*
G36*
X154537500Y-93635000D02*
G01*
X154237500Y-93635000D01*
X154237500Y-93000000D01*
X154537500Y-93000000D01*
X154537500Y-93635000D01*
G37*
G36*
X151362500Y-93635000D02*
G01*
X151062500Y-93635000D01*
X151062500Y-93000000D01*
X151362500Y-93000000D01*
X151362500Y-93635000D01*
G37*
G36*
X121200000Y-96500000D02*
G01*
X120900000Y-96500000D01*
X120900000Y-93000000D01*
X121200000Y-93000000D01*
X121200000Y-96500000D01*
G37*
G36*
X122787500Y-93635000D02*
G01*
X122487500Y-93635000D01*
X122487500Y-93000000D01*
X122787500Y-93000000D01*
X122787500Y-93635000D01*
G37*
G36*
X124375000Y-94500000D02*
G01*
X124075000Y-94500000D01*
X124075000Y-93000000D01*
X124375000Y-93000000D01*
X124375000Y-94500000D01*
G37*
G36*
X127550000Y-94500000D02*
G01*
X127250000Y-94500000D01*
X127250000Y-93000000D01*
X127550000Y-93000000D01*
X127550000Y-94500000D01*
G37*
G36*
X130725000Y-94500000D02*
G01*
X130425000Y-94500000D01*
X130425000Y-93000000D01*
X130725000Y-93000000D01*
X130725000Y-94500000D01*
G37*
G36*
X133900000Y-95500000D02*
G01*
X133600000Y-95500000D01*
X133600000Y-93000000D01*
X133900000Y-93000000D01*
X133900000Y-95500000D01*
G37*
G36*
X137075000Y-94500000D02*
G01*
X136775000Y-94500000D01*
X136775000Y-93000000D01*
X137075000Y-93000000D01*
X137075000Y-94500000D01*
G37*
G36*
X140250000Y-94500000D02*
G01*
X139950000Y-94500000D01*
X139950000Y-93000000D01*
X140250000Y-93000000D01*
X140250000Y-94500000D01*
G37*
G36*
X143425000Y-94500000D02*
G01*
X143125000Y-94500000D01*
X143125000Y-93000000D01*
X143425000Y-93000000D01*
X143425000Y-94500000D01*
G37*
G36*
X145012500Y-93635000D02*
G01*
X144712500Y-93635000D01*
X144712500Y-93000000D01*
X145012500Y-93000000D01*
X145012500Y-93635000D01*
G37*
G36*
X141837500Y-93635000D02*
G01*
X141537500Y-93635000D01*
X141537500Y-93000000D01*
X141837500Y-93000000D01*
X141837500Y-93635000D01*
G37*
G36*
X138662500Y-93635000D02*
G01*
X138362500Y-93635000D01*
X138362500Y-93000000D01*
X138662500Y-93000000D01*
X138662500Y-93635000D01*
G37*
G36*
X135487500Y-93635000D02*
G01*
X135187500Y-93635000D01*
X135187500Y-93000000D01*
X135487500Y-93000000D01*
X135487500Y-93635000D01*
G37*
G36*
X132312500Y-93635000D02*
G01*
X132012500Y-93635000D01*
X132012500Y-93000000D01*
X132312500Y-93000000D01*
X132312500Y-93635000D01*
G37*
G36*
X129137500Y-93635000D02*
G01*
X128837500Y-93635000D01*
X128837500Y-93000000D01*
X129137500Y-93000000D01*
X129137500Y-93635000D01*
G37*
G36*
X125962500Y-93635000D02*
G01*
X125662500Y-93635000D01*
X125662500Y-93000000D01*
X125962500Y-93000000D01*
X125962500Y-93635000D01*
G37*
G36*
X95800000Y-96500000D02*
G01*
X95500000Y-96500000D01*
X95500000Y-93000000D01*
X95800000Y-93000000D01*
X95800000Y-96500000D01*
G37*
G36*
X97387500Y-93635000D02*
G01*
X97087500Y-93635000D01*
X97087500Y-93000000D01*
X97387500Y-93000000D01*
X97387500Y-93635000D01*
G37*
G36*
X98975000Y-94500000D02*
G01*
X98675000Y-94500000D01*
X98675000Y-93000000D01*
X98975000Y-93000000D01*
X98975000Y-94500000D01*
G37*
G36*
X102150000Y-94500000D02*
G01*
X101850000Y-94500000D01*
X101850000Y-93000000D01*
X102150000Y-93000000D01*
X102150000Y-94500000D01*
G37*
G36*
X105325000Y-94500000D02*
G01*
X105025000Y-94500000D01*
X105025000Y-93000000D01*
X105325000Y-93000000D01*
X105325000Y-94500000D01*
G37*
G36*
X108500000Y-95500000D02*
G01*
X108200000Y-95500000D01*
X108200000Y-93000000D01*
X108500000Y-93000000D01*
X108500000Y-95500000D01*
G37*
G36*
X111675000Y-94500000D02*
G01*
X111375000Y-94500000D01*
X111375000Y-93000000D01*
X111675000Y-93000000D01*
X111675000Y-94500000D01*
G37*
G36*
X114850000Y-94500000D02*
G01*
X114550000Y-94500000D01*
X114550000Y-93000000D01*
X114850000Y-93000000D01*
X114850000Y-94500000D01*
G37*
G36*
X118025000Y-94500000D02*
G01*
X117725000Y-94500000D01*
X117725000Y-93000000D01*
X118025000Y-93000000D01*
X118025000Y-94500000D01*
G37*
G36*
X119612500Y-93635000D02*
G01*
X119312500Y-93635000D01*
X119312500Y-93000000D01*
X119612500Y-93000000D01*
X119612500Y-93635000D01*
G37*
G36*
X116437500Y-93635000D02*
G01*
X116137500Y-93635000D01*
X116137500Y-93000000D01*
X116437500Y-93000000D01*
X116437500Y-93635000D01*
G37*
G36*
X113262500Y-93635000D02*
G01*
X112962500Y-93635000D01*
X112962500Y-93000000D01*
X113262500Y-93000000D01*
X113262500Y-93635000D01*
G37*
G36*
X110087500Y-93635000D02*
G01*
X109787500Y-93635000D01*
X109787500Y-93000000D01*
X110087500Y-93000000D01*
X110087500Y-93635000D01*
G37*
G36*
X106912500Y-93635000D02*
G01*
X106612500Y-93635000D01*
X106612500Y-93000000D01*
X106912500Y-93000000D01*
X106912500Y-93635000D01*
G37*
G36*
X103737500Y-93635000D02*
G01*
X103437500Y-93635000D01*
X103437500Y-93000000D01*
X103737500Y-93000000D01*
X103737500Y-93635000D01*
G37*
G36*
X100562500Y-93635000D02*
G01*
X100262500Y-93635000D01*
X100262500Y-93000000D01*
X100562500Y-93000000D01*
X100562500Y-93635000D01*
G37*
G36*
X70400000Y-96500000D02*
G01*
X70100000Y-96500000D01*
X70100000Y-93000000D01*
X70400000Y-93000000D01*
X70400000Y-96500000D01*
G37*
G36*
X71987500Y-93635000D02*
G01*
X71687500Y-93635000D01*
X71687500Y-93000000D01*
X71987500Y-93000000D01*
X71987500Y-93635000D01*
G37*
G36*
X73575000Y-94500000D02*
G01*
X73275000Y-94500000D01*
X73275000Y-93000000D01*
X73575000Y-93000000D01*
X73575000Y-94500000D01*
G37*
G36*
X76750000Y-94500000D02*
G01*
X76450000Y-94500000D01*
X76450000Y-93000000D01*
X76750000Y-93000000D01*
X76750000Y-94500000D01*
G37*
G36*
X79925000Y-94500000D02*
G01*
X79625000Y-94500000D01*
X79625000Y-93000000D01*
X79925000Y-93000000D01*
X79925000Y-94500000D01*
G37*
G36*
X83100000Y-95500000D02*
G01*
X82800000Y-95500000D01*
X82800000Y-93000000D01*
X83100000Y-93000000D01*
X83100000Y-95500000D01*
G37*
G36*
X86275000Y-94500000D02*
G01*
X85975000Y-94500000D01*
X85975000Y-93000000D01*
X86275000Y-93000000D01*
X86275000Y-94500000D01*
G37*
G36*
X89450000Y-94500000D02*
G01*
X89150000Y-94500000D01*
X89150000Y-93000000D01*
X89450000Y-93000000D01*
X89450000Y-94500000D01*
G37*
G36*
X92625000Y-94500000D02*
G01*
X92325000Y-94500000D01*
X92325000Y-93000000D01*
X92625000Y-93000000D01*
X92625000Y-94500000D01*
G37*
G36*
X94212500Y-93635000D02*
G01*
X93912500Y-93635000D01*
X93912500Y-93000000D01*
X94212500Y-93000000D01*
X94212500Y-93635000D01*
G37*
G36*
X91037500Y-93635000D02*
G01*
X90737500Y-93635000D01*
X90737500Y-93000000D01*
X91037500Y-93000000D01*
X91037500Y-93635000D01*
G37*
G36*
X87862500Y-93635000D02*
G01*
X87562500Y-93635000D01*
X87562500Y-93000000D01*
X87862500Y-93000000D01*
X87862500Y-93635000D01*
G37*
G36*
X84687500Y-93635000D02*
G01*
X84387500Y-93635000D01*
X84387500Y-93000000D01*
X84687500Y-93000000D01*
X84687500Y-93635000D01*
G37*
G36*
X81512500Y-93635000D02*
G01*
X81212500Y-93635000D01*
X81212500Y-93000000D01*
X81512500Y-93000000D01*
X81512500Y-93635000D01*
G37*
G36*
X78337500Y-93635000D02*
G01*
X78037500Y-93635000D01*
X78037500Y-93000000D01*
X78337500Y-93000000D01*
X78337500Y-93635000D01*
G37*
G36*
X75162500Y-93635000D02*
G01*
X74862500Y-93635000D01*
X74862500Y-93000000D01*
X75162500Y-93000000D01*
X75162500Y-93635000D01*
G37*
D11*
X81650000Y-109220000D03*
X81650000Y-106720000D03*
D12*
X74770000Y-107740000D03*
X71470000Y-107740000D03*
X71470000Y-109740000D03*
X74770000Y-109740000D03*
D13*
X79440000Y-107460000D03*
X77240000Y-107460000D03*
X77240000Y-109160000D03*
X79440000Y-109160000D03*
D14*
X76220000Y-103540000D03*
X74820000Y-103540000D03*
X74820000Y-104640000D03*
X76220000Y-104640000D03*
D15*
X81950000Y-105125000D03*
X83350000Y-105125000D03*
D16*
X82200000Y-103350000D03*
X83400000Y-103350000D03*
D17*
X73095000Y-103340000D03*
X71345000Y-103340000D03*
X71345000Y-104740000D03*
X73095000Y-104740000D03*
D18*
X73025000Y-99775000D03*
X81525000Y-99775000D03*
D19*
X169654400Y-101260000D03*
D20*
X169578200Y-99888400D03*
D21*
X169400400Y-98288200D03*
D22*
X169222600Y-96332400D03*
D23*
X134259000Y-96710000D03*
X133759000Y-96710000D03*
X133259000Y-96710000D03*
X132759000Y-96710000D03*
X132259000Y-96710000D03*
X131759000Y-96710000D03*
X131259000Y-96710000D03*
X130759000Y-96710000D03*
X130259000Y-96710000D03*
X129759000Y-96710000D03*
X129259000Y-96710000D03*
X128759000Y-96710000D03*
X128259000Y-96710000D03*
X127759000Y-96710000D03*
X127259000Y-96710000D03*
X126759000Y-96710000D03*
X126259000Y-96710000D03*
X125759000Y-96710000D03*
X125259000Y-96710000D03*
X124759000Y-96710000D03*
X124259000Y-96710000D03*
X123759000Y-96710000D03*
X123259000Y-96710000D03*
X122759000Y-96710000D03*
X122259000Y-96710000D03*
D24*
X120559000Y-98410000D03*
X120559000Y-98910000D03*
X120559000Y-99410000D03*
X120559000Y-99910000D03*
X120559000Y-100410000D03*
X120559000Y-100910000D03*
X120559000Y-101410000D03*
X120559000Y-101910000D03*
X120559000Y-102410000D03*
X120559000Y-102910000D03*
X120559000Y-103410000D03*
X120559000Y-103910000D03*
X120559000Y-104410000D03*
X120559000Y-104910000D03*
X120559000Y-105410000D03*
X120559000Y-105910000D03*
X120559000Y-106410000D03*
X120559000Y-106910000D03*
X120559000Y-107410000D03*
X120559000Y-107910000D03*
X120559000Y-108410000D03*
X120559000Y-108910000D03*
X120559000Y-109410000D03*
X120559000Y-109910000D03*
X120559000Y-110410000D03*
D23*
X122259000Y-112110000D03*
X122759000Y-112110000D03*
X123259000Y-112110000D03*
X123759000Y-112110000D03*
X124259000Y-112110000D03*
X124759000Y-112110000D03*
X125259000Y-112110000D03*
X125759000Y-112110000D03*
X126259000Y-112110000D03*
X126759000Y-112110000D03*
X127259000Y-112110000D03*
X127759000Y-112110000D03*
X128259000Y-112110000D03*
X128759000Y-112110000D03*
X129259000Y-112110000D03*
X129759000Y-112110000D03*
X130259000Y-112110000D03*
X130759000Y-112110000D03*
X131259000Y-112110000D03*
X131759000Y-112110000D03*
X132259000Y-112110000D03*
X132759000Y-112110000D03*
X133259000Y-112110000D03*
X133759000Y-112110000D03*
X134259000Y-112110000D03*
D24*
X135959000Y-110410000D03*
X135959000Y-109910000D03*
X135959000Y-109410000D03*
X135959000Y-108910000D03*
X135959000Y-108410000D03*
X135959000Y-107910000D03*
X135959000Y-107410000D03*
X135959000Y-106910000D03*
X135959000Y-106410000D03*
X135959000Y-105910000D03*
X135959000Y-105410000D03*
X135959000Y-104910000D03*
X135959000Y-104410000D03*
X135959000Y-103910000D03*
X135959000Y-103410000D03*
X135959000Y-102910000D03*
X135959000Y-102410000D03*
X135959000Y-101910000D03*
X135959000Y-101410000D03*
X135959000Y-100910000D03*
X135959000Y-100410000D03*
X135959000Y-99910000D03*
X135959000Y-99410000D03*
X135959000Y-98910000D03*
X135959000Y-98410000D03*
D25*
X129875000Y-100450000D03*
X129375000Y-100450000D03*
X128875000Y-100450000D03*
X128375000Y-100450000D03*
X127875000Y-100450000D03*
X127375000Y-100450000D03*
X126875000Y-100450000D03*
X126375000Y-100450000D03*
D26*
X124875000Y-101950000D03*
X124875000Y-102450000D03*
X124875000Y-102950000D03*
X124875000Y-103450000D03*
X124875000Y-103950000D03*
X124875000Y-104450000D03*
X124875000Y-104950000D03*
X124875000Y-105450000D03*
D25*
X126375000Y-106950000D03*
X126875000Y-106950000D03*
X127375000Y-106950000D03*
X127875000Y-106950000D03*
X128375000Y-106950000D03*
X128875000Y-106950000D03*
X129375000Y-106950000D03*
X129875000Y-106950000D03*
D26*
X131375000Y-105450000D03*
X131375000Y-104950000D03*
X131375000Y-104450000D03*
X131375000Y-103950000D03*
X131375000Y-103450000D03*
X131375000Y-102950000D03*
X131375000Y-102450000D03*
X131375000Y-101950000D03*
D16*
X101425000Y-97425000D03*
X100625000Y-97425000D03*
X99825000Y-97425000D03*
X99025000Y-97425000D03*
X98225000Y-97425000D03*
X97425000Y-97425000D03*
X96625000Y-97425000D03*
X95825000Y-97425000D03*
D27*
X94375000Y-98875000D03*
X94375000Y-99675000D03*
X94375000Y-100475000D03*
X94375000Y-101275000D03*
X94375000Y-102075000D03*
X94375000Y-102875000D03*
X94375000Y-103675000D03*
X94375000Y-104475000D03*
D16*
X95825000Y-105925000D03*
X96625000Y-105925000D03*
X97425000Y-105925000D03*
X98225000Y-105925000D03*
X99025000Y-105925000D03*
X99825000Y-105925000D03*
X100625000Y-105925000D03*
X101425000Y-105925000D03*
D27*
X102875000Y-104475000D03*
X102875000Y-103675000D03*
X102875000Y-102875000D03*
X102875000Y-102075000D03*
X102875000Y-101275000D03*
X102875000Y-100475000D03*
X102875000Y-99675000D03*
X102875000Y-98875000D03*
D28*
X116475000Y-96725000D03*
X116075000Y-96725000D03*
X115675000Y-96725000D03*
X115275000Y-96725000D03*
X114875000Y-96725000D03*
X114475000Y-96725000D03*
X114075000Y-96725000D03*
X113675000Y-96725000D03*
X113275000Y-96725000D03*
X112875000Y-96725000D03*
X112475000Y-96725000D03*
X112075000Y-96725000D03*
X111675000Y-96725000D03*
X111275000Y-96725000D03*
X110875000Y-96725000D03*
X110475000Y-96725000D03*
X110075000Y-96725000D03*
X109675000Y-96725000D03*
X109275000Y-96725000D03*
X108875000Y-96725000D03*
X108475000Y-96725000D03*
X108075000Y-96725000D03*
X107675000Y-96725000D03*
X107275000Y-96725000D03*
X106875000Y-96725000D03*
D29*
X104975000Y-98625000D03*
X104975000Y-99025000D03*
X104975000Y-99425000D03*
X104975000Y-99825000D03*
X104975000Y-100225000D03*
X104975000Y-100625000D03*
X104975000Y-101025000D03*
X104975000Y-101425000D03*
X104975000Y-101825000D03*
X104975000Y-102225000D03*
X104975000Y-102625000D03*
X104975000Y-103025000D03*
X104975000Y-103425000D03*
X104975000Y-103825000D03*
X104975000Y-104225000D03*
X104975000Y-104625000D03*
X104975000Y-105025000D03*
X104975000Y-105425000D03*
X104975000Y-105825000D03*
X104975000Y-106225000D03*
X104975000Y-106625000D03*
X104975000Y-107025000D03*
X104975000Y-107425000D03*
X104975000Y-107825000D03*
X104975000Y-108225000D03*
D28*
X106875000Y-110125000D03*
X107275000Y-110125000D03*
X107675000Y-110125000D03*
X108075000Y-110125000D03*
X108475000Y-110125000D03*
X108875000Y-110125000D03*
X109275000Y-110125000D03*
X109675000Y-110125000D03*
X110075000Y-110125000D03*
X110475000Y-110125000D03*
X110875000Y-110125000D03*
X111275000Y-110125000D03*
X111675000Y-110125000D03*
X112075000Y-110125000D03*
X112475000Y-110125000D03*
X112875000Y-110125000D03*
X113275000Y-110125000D03*
X113675000Y-110125000D03*
X114075000Y-110125000D03*
X114475000Y-110125000D03*
X114875000Y-110125000D03*
X115275000Y-110125000D03*
X115675000Y-110125000D03*
X116075000Y-110125000D03*
X116475000Y-110125000D03*
D29*
X118375000Y-108225000D03*
X118375000Y-107825000D03*
X118375000Y-107425000D03*
X118375000Y-107025000D03*
X118375000Y-106625000D03*
X118375000Y-106225000D03*
X118375000Y-105825000D03*
X118375000Y-105425000D03*
X118375000Y-105025000D03*
X118375000Y-104625000D03*
X118375000Y-104225000D03*
X118375000Y-103825000D03*
X118375000Y-103425000D03*
X118375000Y-103025000D03*
X118375000Y-102625000D03*
X118375000Y-102225000D03*
X118375000Y-101825000D03*
X118375000Y-101425000D03*
X118375000Y-101025000D03*
X118375000Y-100625000D03*
X118375000Y-100225000D03*
X118375000Y-99825000D03*
X118375000Y-99425000D03*
X118375000Y-99025000D03*
X118375000Y-98625000D03*
D30*
X99335000Y-100150000D03*
X99335000Y-100950000D03*
X98465000Y-100150000D03*
X98465000Y-100950000D03*
D31*
X99900000Y-99050000D03*
X99500000Y-99050000D03*
X99100000Y-99050000D03*
X98700000Y-99050000D03*
X98300000Y-99050000D03*
X97900000Y-99050000D03*
D32*
X97400000Y-99550000D03*
X97400000Y-99950000D03*
X97400000Y-100350000D03*
X97400000Y-100750000D03*
X97400000Y-101150000D03*
X97400000Y-101550000D03*
D31*
X97900000Y-102050000D03*
X98300000Y-102050000D03*
X98700000Y-102050000D03*
X99100000Y-102050000D03*
X99500000Y-102050000D03*
X99900000Y-102050000D03*
D32*
X100400000Y-101550000D03*
X100400000Y-101150000D03*
X100400000Y-100750000D03*
X100400000Y-100350000D03*
X100400000Y-99950000D03*
X100400000Y-99550000D03*
D33*
X84285000Y-110540000D03*
X84285000Y-111810000D03*
X84285000Y-113080000D03*
X84285000Y-114350000D03*
X91685000Y-114350000D03*
X91685000Y-113080000D03*
X91685000Y-111810000D03*
X91685000Y-110540000D03*
D34*
X86650000Y-105580000D03*
X87300000Y-105580000D03*
X87950000Y-105580000D03*
X88600000Y-105580000D03*
X89250000Y-105580000D03*
X89900000Y-105580000D03*
X90550000Y-105580000D03*
X91200000Y-105580000D03*
X91200000Y-99680000D03*
X90550000Y-99680000D03*
X89900000Y-99680000D03*
X89250000Y-99680000D03*
X88600000Y-99680000D03*
X87950000Y-99680000D03*
X87300000Y-99680000D03*
X86650000Y-99680000D03*
D35*
X75080000Y-112495000D03*
X75080000Y-113765000D03*
X75080000Y-115035000D03*
X75080000Y-116305000D03*
X80480000Y-116305000D03*
X80480000Y-115035000D03*
X80480000Y-113765000D03*
X80480000Y-112495000D03*
D36*
X86535000Y-95885000D03*
X86535000Y-96535000D03*
X86535000Y-97185000D03*
X86535000Y-97835000D03*
X90835000Y-97835000D03*
X90835000Y-97185000D03*
X90835000Y-96535000D03*
X90835000Y-95885000D03*
D37*
X84985000Y-95560000D03*
X84985000Y-96060000D03*
X84985000Y-96560000D03*
X84985000Y-97060000D03*
X84985000Y-97560000D03*
X84985000Y-98060000D03*
X84985000Y-98560000D03*
X84985000Y-99060000D03*
X84985000Y-99560000D03*
X84985000Y-100060000D03*
X84985000Y-100560000D03*
X84985000Y-101060000D03*
X84985000Y-101560000D03*
X84985000Y-102060000D03*
X84985000Y-102560000D03*
X84985000Y-103060000D03*
X84985000Y-103560000D03*
X84985000Y-104060000D03*
X84985000Y-104560000D03*
X84985000Y-105060000D03*
X84985000Y-105560000D03*
X84985000Y-106060000D03*
X84985000Y-106560000D03*
X84985000Y-107060000D03*
X92485000Y-107060000D03*
X92485000Y-106560000D03*
X92485000Y-106060000D03*
X92485000Y-105560000D03*
X92485000Y-105060000D03*
X92485000Y-104560000D03*
X92485000Y-104060000D03*
X92485000Y-103560000D03*
X92485000Y-103060000D03*
X92485000Y-102560000D03*
X92485000Y-102060000D03*
X92485000Y-101560000D03*
X92485000Y-101060000D03*
X92485000Y-100560000D03*
X92485000Y-100060000D03*
X92485000Y-99560000D03*
X92485000Y-99060000D03*
X92485000Y-98560000D03*
X92485000Y-98060000D03*
X92485000Y-97560000D03*
X92485000Y-97060000D03*
X92485000Y-96560000D03*
X92485000Y-96060000D03*
X92485000Y-95560000D03*
D38*
X157175000Y-112700000D03*
X157975000Y-112700000D03*
X158775000Y-112700000D03*
X161975000Y-112700000D03*
X162775000Y-112700000D03*
X163575000Y-112700000D03*
X157175000Y-111900000D03*
X157975000Y-111900000D03*
X158775000Y-111900000D03*
X161975000Y-111900000D03*
X162775000Y-111900000D03*
X163575000Y-111900000D03*
X157175000Y-111100000D03*
X157975000Y-111100000D03*
X158775000Y-111100000D03*
X161975000Y-111100000D03*
X162775000Y-111100000D03*
X163575000Y-111100000D03*
X157175000Y-110300000D03*
X157975000Y-110300000D03*
X158775000Y-110300000D03*
X161975000Y-110300000D03*
X162775000Y-110300000D03*
X163575000Y-110300000D03*
X157175000Y-109500000D03*
X157975000Y-109500000D03*
X158775000Y-109500000D03*
X161975000Y-109500000D03*
X162775000Y-109500000D03*
X163575000Y-109500000D03*
X157175000Y-108700000D03*
X157975000Y-108700000D03*
X158775000Y-108700000D03*
X161975000Y-108700000D03*
X162775000Y-108700000D03*
X163575000Y-108700000D03*
X157175000Y-107900000D03*
X157975000Y-107900000D03*
X158775000Y-107900000D03*
X161975000Y-107900000D03*
X162775000Y-107900000D03*
X163575000Y-107900000D03*
X157175000Y-107100000D03*
X157975000Y-107100000D03*
X158775000Y-107100000D03*
X161975000Y-107100000D03*
X162775000Y-107100000D03*
X163575000Y-107100000D03*
X157175000Y-106300000D03*
X157975000Y-106300000D03*
X158775000Y-106300000D03*
X161975000Y-106300000D03*
X162775000Y-106300000D03*
X163575000Y-106300000D03*
X157175000Y-105500000D03*
X157975000Y-105500000D03*
X158775000Y-105500000D03*
X161975000Y-105500000D03*
X162775000Y-105500000D03*
X163575000Y-105500000D03*
X157175000Y-104700000D03*
X157975000Y-104700000D03*
X158775000Y-104700000D03*
X161975000Y-104700000D03*
X162775000Y-104700000D03*
X163575000Y-104700000D03*
X157175000Y-103900000D03*
X157975000Y-103900000D03*
X158775000Y-103900000D03*
X161975000Y-103900000D03*
X162775000Y-103900000D03*
X163575000Y-103900000D03*
X157175000Y-103100000D03*
X157975000Y-103100000D03*
X158775000Y-103100000D03*
X161975000Y-103100000D03*
X162775000Y-103100000D03*
X163575000Y-103100000D03*
X157175000Y-102300000D03*
X157975000Y-102300000D03*
X158775000Y-102300000D03*
X161975000Y-102300000D03*
X162775000Y-102300000D03*
X163575000Y-102300000D03*
X157175000Y-101500000D03*
X157975000Y-101500000D03*
X158775000Y-101500000D03*
X161975000Y-101500000D03*
X162775000Y-101500000D03*
X163575000Y-101500000D03*
X157175000Y-100700000D03*
X157975000Y-100700000D03*
X158775000Y-100700000D03*
X161975000Y-100700000D03*
X162775000Y-100700000D03*
X163575000Y-100700000D03*
D39*
X146275000Y-100100000D03*
X146275000Y-100900000D03*
X146275000Y-101700000D03*
X146275000Y-102500000D03*
X146275000Y-103300000D03*
X146275000Y-104100000D03*
X146275000Y-104900000D03*
X146275000Y-105700000D03*
X146275000Y-106500000D03*
X146275000Y-107300000D03*
X145475000Y-100100000D03*
X145475000Y-100900000D03*
X145475000Y-101700000D03*
X145475000Y-102500000D03*
X145475000Y-103300000D03*
X145475000Y-104100000D03*
X145475000Y-104900000D03*
X145475000Y-105700000D03*
X145475000Y-106500000D03*
X145475000Y-107300000D03*
X144675000Y-100100000D03*
X144675000Y-100900000D03*
X144675000Y-101700000D03*
X144675000Y-102500000D03*
X144675000Y-103300000D03*
X144675000Y-104100000D03*
X144675000Y-104900000D03*
X144675000Y-105700000D03*
X144675000Y-106500000D03*
X144675000Y-107300000D03*
X143875000Y-100100000D03*
X143875000Y-100900000D03*
X143875000Y-101700000D03*
X143875000Y-102500000D03*
X143875000Y-103300000D03*
X143875000Y-104100000D03*
X143875000Y-104900000D03*
X143875000Y-105700000D03*
X143875000Y-106500000D03*
X143875000Y-107300000D03*
X143075000Y-100100000D03*
X143075000Y-100900000D03*
X143075000Y-101700000D03*
X143075000Y-102500000D03*
X143075000Y-103300000D03*
X143075000Y-104100000D03*
X143075000Y-104900000D03*
X143075000Y-105700000D03*
X143075000Y-106500000D03*
X143075000Y-107300000D03*
X142275000Y-100100000D03*
X142275000Y-100900000D03*
X142275000Y-101700000D03*
X142275000Y-102500000D03*
X142275000Y-103300000D03*
X142275000Y-104100000D03*
X142275000Y-104900000D03*
X142275000Y-105700000D03*
X142275000Y-106500000D03*
X142275000Y-107300000D03*
X141475000Y-100100000D03*
X141475000Y-100900000D03*
X141475000Y-101700000D03*
X141475000Y-102500000D03*
X141475000Y-103300000D03*
X141475000Y-104100000D03*
X141475000Y-104900000D03*
X141475000Y-105700000D03*
X141475000Y-106500000D03*
X141475000Y-107300000D03*
X140675000Y-100100000D03*
X140675000Y-100900000D03*
X140675000Y-101700000D03*
X140675000Y-102500000D03*
X140675000Y-103300000D03*
X140675000Y-104100000D03*
X140675000Y-104900000D03*
X140675000Y-105700000D03*
X140675000Y-106500000D03*
X140675000Y-107300000D03*
X139875000Y-100100000D03*
X139875000Y-100900000D03*
X139875000Y-101700000D03*
X139875000Y-102500000D03*
X139875000Y-103300000D03*
X139875000Y-104100000D03*
X139875000Y-104900000D03*
X139875000Y-105700000D03*
X139875000Y-106500000D03*
X139875000Y-107300000D03*
X139075000Y-100100000D03*
X139075000Y-100900000D03*
X139075000Y-101700000D03*
X139075000Y-102500000D03*
X139075000Y-103300000D03*
X139075000Y-104100000D03*
X139075000Y-104900000D03*
X139075000Y-105700000D03*
X139075000Y-106500000D03*
X139075000Y-107300000D03*
D40*
X167975000Y-99125000D03*
X167975000Y-99625000D03*
X167975000Y-100125000D03*
X167975000Y-100625000D03*
X167475000Y-99125000D03*
X167475000Y-99625000D03*
X167475000Y-100125000D03*
X167475000Y-100625000D03*
X166975000Y-99125000D03*
X166975000Y-99625000D03*
X166975000Y-100125000D03*
X166975000Y-100625000D03*
X166475000Y-99125000D03*
X166475000Y-99625000D03*
X166475000Y-100125000D03*
X166475000Y-100625000D03*
D41*
X134250000Y-115325000D03*
X134250000Y-116575000D03*
X133000000Y-115325000D03*
X133000000Y-116575000D03*
D42*
X134625000Y-113985000D03*
X134125000Y-113985000D03*
X133625000Y-113985000D03*
X133125000Y-113985000D03*
X132625000Y-113985000D03*
D43*
X131660000Y-114950000D03*
X131660000Y-115450000D03*
X131660000Y-115950000D03*
X131660000Y-116450000D03*
X131660000Y-116950000D03*
D42*
X132625000Y-117915000D03*
X133125000Y-117915000D03*
X133625000Y-117915000D03*
X134125000Y-117915000D03*
X134625000Y-117915000D03*
D43*
X135590000Y-116950000D03*
X135590000Y-116450000D03*
X135590000Y-115950000D03*
X135590000Y-115450000D03*
X135590000Y-114950000D03*
D44*
X109350000Y-113125000D03*
X109350000Y-114275000D03*
X109350000Y-115425000D03*
X109350000Y-116575000D03*
X108200000Y-113125000D03*
X108200000Y-114275000D03*
X108200000Y-115425000D03*
X108200000Y-116575000D03*
X107050000Y-113125000D03*
X107050000Y-114275000D03*
X107050000Y-115425000D03*
X107050000Y-116575000D03*
X105900000Y-113125000D03*
X105900000Y-114275000D03*
X105900000Y-115425000D03*
X105900000Y-116575000D03*
D45*
X109875000Y-111850000D03*
X109375000Y-111850000D03*
X108875000Y-111850000D03*
X108375000Y-111850000D03*
X107875000Y-111850000D03*
X107375000Y-111850000D03*
X106875000Y-111850000D03*
X106375000Y-111850000D03*
X105875000Y-111850000D03*
X105375000Y-111850000D03*
D46*
X104625000Y-112600000D03*
X104625000Y-113100000D03*
X104625000Y-113600000D03*
X104625000Y-114100000D03*
X104625000Y-114600000D03*
X104625000Y-115100000D03*
X104625000Y-115600000D03*
X104625000Y-116100000D03*
X104625000Y-116600000D03*
X104625000Y-117100000D03*
D45*
X105375000Y-117850000D03*
X105875000Y-117850000D03*
X106375000Y-117850000D03*
X106875000Y-117850000D03*
X107375000Y-117850000D03*
X107875000Y-117850000D03*
X108375000Y-117850000D03*
X108875000Y-117850000D03*
X109375000Y-117850000D03*
X109875000Y-117850000D03*
D46*
X110625000Y-117100000D03*
X110625000Y-116600000D03*
X110625000Y-116100000D03*
X110625000Y-115600000D03*
X110625000Y-115100000D03*
X110625000Y-114600000D03*
X110625000Y-114100000D03*
X110625000Y-113600000D03*
X110625000Y-113100000D03*
X110625000Y-112600000D03*
D47*
X118500000Y-113412500D03*
X118500000Y-114700000D03*
X118500000Y-115987500D03*
X118500000Y-117275000D03*
X117212500Y-113412500D03*
X117212500Y-114700000D03*
X117212500Y-115987500D03*
X117212500Y-117275000D03*
X115925000Y-113412500D03*
X115925000Y-114700000D03*
X115925000Y-115987500D03*
X115925000Y-117275000D03*
X114637500Y-113412500D03*
X114637500Y-114700000D03*
X114637500Y-115987500D03*
X114637500Y-117275000D03*
D48*
X119318750Y-111943750D03*
X118818750Y-111943750D03*
X118318750Y-111943750D03*
X117818750Y-111943750D03*
X117318750Y-111943750D03*
X116818750Y-111943750D03*
X116318750Y-111943750D03*
X115818750Y-111943750D03*
X115318750Y-111943750D03*
X114818750Y-111943750D03*
X114318750Y-111943750D03*
X113818750Y-111943750D03*
D49*
X113168750Y-112593750D03*
X113168750Y-113093750D03*
X113168750Y-113593750D03*
X113168750Y-114093750D03*
X113168750Y-114593750D03*
X113168750Y-115093750D03*
X113168750Y-115593750D03*
X113168750Y-116093750D03*
X113168750Y-116593750D03*
X113168750Y-117093750D03*
X113168750Y-117593750D03*
X113168750Y-118093750D03*
D48*
X113818750Y-118743750D03*
X114318750Y-118743750D03*
X114818750Y-118743750D03*
X115318750Y-118743750D03*
X115818750Y-118743750D03*
X116318750Y-118743750D03*
X116818750Y-118743750D03*
X117318750Y-118743750D03*
X117818750Y-118743750D03*
X118318750Y-118743750D03*
X118818750Y-118743750D03*
X119318750Y-118743750D03*
D49*
X119968750Y-118093750D03*
X119968750Y-117593750D03*
X119968750Y-117093750D03*
X119968750Y-116593750D03*
X119968750Y-116093750D03*
X119968750Y-115593750D03*
X119968750Y-115093750D03*
X119968750Y-114593750D03*
X119968750Y-114093750D03*
X119968750Y-113593750D03*
X119968750Y-113093750D03*
X119968750Y-112593750D03*
D50*
X101000000Y-110525000D03*
X101000000Y-112362500D03*
X101000000Y-114200000D03*
X101000000Y-116037500D03*
X99162500Y-110525000D03*
X99162500Y-112362500D03*
X99162500Y-114200000D03*
X99162500Y-116037500D03*
X97325000Y-110525000D03*
X97325000Y-112362500D03*
X97325000Y-114200000D03*
X97325000Y-116037500D03*
X95487500Y-110525000D03*
X95487500Y-112362500D03*
X95487500Y-114200000D03*
X95487500Y-116037500D03*
D51*
X101993750Y-108831250D03*
X101493750Y-108831250D03*
X100993750Y-108831250D03*
X100493750Y-108831250D03*
X99993750Y-108831250D03*
X99493750Y-108831250D03*
X98993750Y-108831250D03*
X98493750Y-108831250D03*
X97993750Y-108831250D03*
X97493750Y-108831250D03*
X96993750Y-108831250D03*
X96493750Y-108831250D03*
X95993750Y-108831250D03*
X95493750Y-108831250D03*
X94993750Y-108831250D03*
X94493750Y-108831250D03*
D52*
X93793750Y-109531250D03*
X93793750Y-110031250D03*
X93793750Y-110531250D03*
X93793750Y-111031250D03*
X93793750Y-111531250D03*
X93793750Y-112031250D03*
X93793750Y-112531250D03*
X93793750Y-113031250D03*
X93793750Y-113531250D03*
X93793750Y-114031250D03*
X93793750Y-114531250D03*
X93793750Y-115031250D03*
X93793750Y-115531250D03*
X93793750Y-116031250D03*
X93793750Y-116531250D03*
X93793750Y-117031250D03*
D51*
X94493750Y-117731250D03*
X94993750Y-117731250D03*
X95493750Y-117731250D03*
X95993750Y-117731250D03*
X96493750Y-117731250D03*
X96993750Y-117731250D03*
X97493750Y-117731250D03*
X97993750Y-117731250D03*
X98493750Y-117731250D03*
X98993750Y-117731250D03*
X99493750Y-117731250D03*
X99993750Y-117731250D03*
X100493750Y-117731250D03*
X100993750Y-117731250D03*
X101493750Y-117731250D03*
X101993750Y-117731250D03*
D52*
X102693750Y-117031250D03*
X102693750Y-116531250D03*
X102693750Y-116031250D03*
X102693750Y-115531250D03*
X102693750Y-115031250D03*
X102693750Y-114531250D03*
X102693750Y-114031250D03*
X102693750Y-113531250D03*
X102693750Y-113031250D03*
X102693750Y-112531250D03*
X102693750Y-112031250D03*
X102693750Y-111531250D03*
X102693750Y-111031250D03*
X102693750Y-110531250D03*
X102693750Y-110031250D03*
X102693750Y-109531250D03*
D53*
X114425000Y-98550000D03*
X113925000Y-98550000D03*
X113425000Y-98550000D03*
X112925000Y-98550000D03*
X112425000Y-98550000D03*
X111925000Y-98550000D03*
X111425000Y-98550000D03*
X110925000Y-98550000D03*
X110425000Y-98550000D03*
X109925000Y-98550000D03*
X109425000Y-98550000D03*
X108925000Y-98550000D03*
D54*
X107325000Y-100150000D03*
X107325000Y-100650000D03*
X107325000Y-101150000D03*
X107325000Y-101650000D03*
X107325000Y-102150000D03*
X107325000Y-102650000D03*
X107325000Y-103150000D03*
X107325000Y-103650000D03*
X107325000Y-104150000D03*
X107325000Y-104650000D03*
X107325000Y-105150000D03*
X107325000Y-105650000D03*
D53*
X108925000Y-107250000D03*
X109425000Y-107250000D03*
X109925000Y-107250000D03*
X110425000Y-107250000D03*
X110925000Y-107250000D03*
X111425000Y-107250000D03*
X111925000Y-107250000D03*
X112425000Y-107250000D03*
X112925000Y-107250000D03*
X113425000Y-107250000D03*
X113925000Y-107250000D03*
X114425000Y-107250000D03*
D54*
X116025000Y-105650000D03*
X116025000Y-105150000D03*
X116025000Y-104650000D03*
X116025000Y-104150000D03*
X116025000Y-103650000D03*
X116025000Y-103150000D03*
X116025000Y-102650000D03*
X116025000Y-102150000D03*
X116025000Y-101650000D03*
X116025000Y-101150000D03*
X116025000Y-100650000D03*
X116025000Y-100150000D03*
D55*
X132125000Y-98400000D03*
X131625000Y-98400000D03*
X131125000Y-98400000D03*
X130625000Y-98400000D03*
X130125000Y-98400000D03*
X129625000Y-98400000D03*
X129125000Y-98400000D03*
X128625000Y-98400000D03*
X128125000Y-98400000D03*
X127625000Y-98400000D03*
X127125000Y-98400000D03*
X126625000Y-98400000D03*
X126125000Y-98400000D03*
X125625000Y-98400000D03*
X125125000Y-98400000D03*
X124625000Y-98400000D03*
D56*
X122675000Y-100350000D03*
X122675000Y-100850000D03*
X122675000Y-101350000D03*
X122675000Y-101850000D03*
X122675000Y-102350000D03*
X122675000Y-102850000D03*
X122675000Y-103350000D03*
X122675000Y-103850000D03*
X122675000Y-104350000D03*
X122675000Y-104850000D03*
X122675000Y-105350000D03*
X122675000Y-105850000D03*
X122675000Y-106350000D03*
X122675000Y-106850000D03*
X122675000Y-107350000D03*
X122675000Y-107850000D03*
D55*
X124625000Y-109800000D03*
X125125000Y-109800000D03*
X125625000Y-109800000D03*
X126125000Y-109800000D03*
X126625000Y-109800000D03*
X127125000Y-109800000D03*
X127625000Y-109800000D03*
X128125000Y-109800000D03*
X128625000Y-109800000D03*
X129125000Y-109800000D03*
X129625000Y-109800000D03*
X130125000Y-109800000D03*
X130625000Y-109800000D03*
X131125000Y-109800000D03*
X131625000Y-109800000D03*
X132125000Y-109800000D03*
D56*
X134075000Y-107850000D03*
X134075000Y-107350000D03*
X134075000Y-106850000D03*
X134075000Y-106350000D03*
X134075000Y-105850000D03*
X134075000Y-105350000D03*
X134075000Y-104850000D03*
X134075000Y-104350000D03*
X134075000Y-103850000D03*
X134075000Y-103350000D03*
X134075000Y-102850000D03*
X134075000Y-102350000D03*
X134075000Y-101850000D03*
X134075000Y-101350000D03*
X134075000Y-100850000D03*
X134075000Y-100350000D03*
D57*
X169375000Y-111971500D03*
X168975000Y-111971500D03*
X168975000Y-111278500D03*
X169375000Y-111278500D03*
X169175000Y-111625000D03*
D58*
X154800000Y-100325000D03*
X154000000Y-100325000D03*
X153200000Y-100325000D03*
X150000000Y-100325000D03*
X149200000Y-100325000D03*
X148400000Y-100325000D03*
X154800000Y-101125000D03*
X154000000Y-101125000D03*
X153200000Y-101125000D03*
X150000000Y-101125000D03*
X149200000Y-101125000D03*
X148400000Y-101125000D03*
X154800000Y-101925000D03*
X154000000Y-101925000D03*
X150000000Y-101925000D03*
X149200000Y-101925000D03*
X148400000Y-101925000D03*
X154800000Y-102725000D03*
X154000000Y-102725000D03*
X150000000Y-102725000D03*
X149200000Y-102725000D03*
X148400000Y-102725000D03*
X154800000Y-103525000D03*
X154000000Y-103525000D03*
X153200000Y-103525000D03*
X150000000Y-103525000D03*
X149200000Y-103525000D03*
X148400000Y-103525000D03*
X154800000Y-104325000D03*
X154000000Y-104325000D03*
X153200000Y-104325000D03*
X150000000Y-104325000D03*
X149200000Y-104325000D03*
X148400000Y-104325000D03*
X154800000Y-105125000D03*
X154000000Y-105125000D03*
X153200000Y-105125000D03*
X150000000Y-105125000D03*
X149200000Y-105125000D03*
X148400000Y-105125000D03*
X154800000Y-105925000D03*
X154000000Y-105925000D03*
X153200000Y-105925000D03*
X150000000Y-105925000D03*
X149200000Y-105925000D03*
X148400000Y-105925000D03*
X154800000Y-106725000D03*
X154000000Y-106725000D03*
X153200000Y-106725000D03*
X150000000Y-106725000D03*
X149200000Y-106725000D03*
X148400000Y-106725000D03*
X154800000Y-107525000D03*
X154000000Y-107525000D03*
X153200000Y-107525000D03*
X150000000Y-107525000D03*
X149200000Y-107525000D03*
X148400000Y-107525000D03*
X154800000Y-108325000D03*
X154000000Y-108325000D03*
X153200000Y-108325000D03*
X150000000Y-108325000D03*
X149200000Y-108325000D03*
X148400000Y-108325000D03*
X154800000Y-109125000D03*
X154000000Y-109125000D03*
X153200000Y-109125000D03*
X150000000Y-109125000D03*
X149200000Y-109125000D03*
X148400000Y-109125000D03*
X154800000Y-109925000D03*
X154000000Y-109925000D03*
X153200000Y-109925000D03*
X150000000Y-109925000D03*
X149200000Y-109925000D03*
X148400000Y-109925000D03*
X153200000Y-101925000D03*
X153200000Y-102725000D03*
D40*
X166775000Y-108725000D03*
X166375000Y-108725000D03*
X166775000Y-109125000D03*
X166375000Y-109125000D03*
X158370000Y-114580000D03*
X158370000Y-115080000D03*
X158370000Y-115580000D03*
X158370000Y-116080000D03*
X158370000Y-116580000D03*
X158370000Y-117080000D03*
X157870000Y-114580000D03*
X157870000Y-115080000D03*
X157870000Y-115580000D03*
X157870000Y-116080000D03*
X157870000Y-116580000D03*
X157870000Y-117080000D03*
X157370000Y-114580000D03*
X157370000Y-115080000D03*
X157370000Y-116580000D03*
X157370000Y-117080000D03*
X156870000Y-114580000D03*
X156870000Y-115080000D03*
X156870000Y-116580000D03*
X156870000Y-117080000D03*
X156370000Y-114580000D03*
X156370000Y-115080000D03*
X156370000Y-115580000D03*
X156370000Y-116080000D03*
X156370000Y-116580000D03*
X156370000Y-117080000D03*
X155870000Y-114580000D03*
X155870000Y-115080000D03*
X155870000Y-115580000D03*
X155870000Y-116080000D03*
X155870000Y-116580000D03*
X155870000Y-117080000D03*
D59*
X148785000Y-118065000D03*
X148785000Y-116795000D03*
X148785000Y-115525000D03*
X148785000Y-114255000D03*
X148785000Y-112985000D03*
X150055000Y-118065000D03*
X150055000Y-116795000D03*
X150055000Y-115525000D03*
X150055000Y-114255000D03*
X150055000Y-112985000D03*
X151325000Y-118065000D03*
X151325000Y-116795000D03*
X151325000Y-115525000D03*
X151325000Y-114255000D03*
X151325000Y-112985000D03*
X152595000Y-118065000D03*
X152595000Y-116795000D03*
X152595000Y-115525000D03*
X152595000Y-114255000D03*
X152595000Y-112985000D03*
X153865000Y-118065000D03*
X153865000Y-116795000D03*
X153865000Y-115525000D03*
X153865000Y-114255000D03*
X153865000Y-112985000D03*
D60*
X146800000Y-109150000D03*
X146150000Y-109150000D03*
X145500000Y-109150000D03*
X144850000Y-109150000D03*
X144200000Y-109150000D03*
X143550000Y-109150000D03*
X142900000Y-109150000D03*
X142250000Y-109150000D03*
X141600000Y-109150000D03*
X140950000Y-109150000D03*
X140300000Y-109150000D03*
X139650000Y-109150000D03*
X139000000Y-109150000D03*
X138350000Y-109150000D03*
X137700000Y-109150000D03*
X146800000Y-109800000D03*
X146150000Y-109800000D03*
X145500000Y-109800000D03*
X144850000Y-109800000D03*
X144200000Y-109800000D03*
X143550000Y-109800000D03*
X142900000Y-109800000D03*
X142250000Y-109800000D03*
X141600000Y-109800000D03*
X140950000Y-109800000D03*
X140300000Y-109800000D03*
X139650000Y-109800000D03*
X139000000Y-109800000D03*
X138350000Y-109800000D03*
X137700000Y-109800000D03*
X146800000Y-110450000D03*
X146150000Y-110450000D03*
X145500000Y-110450000D03*
X144850000Y-110450000D03*
X144200000Y-110450000D03*
X143550000Y-110450000D03*
X142900000Y-110450000D03*
X142250000Y-110450000D03*
X141600000Y-110450000D03*
X140950000Y-110450000D03*
X140300000Y-110450000D03*
X139650000Y-110450000D03*
X139000000Y-110450000D03*
X138350000Y-110450000D03*
X137700000Y-110450000D03*
X146800000Y-111100000D03*
X146150000Y-111100000D03*
X145500000Y-111100000D03*
X144850000Y-111100000D03*
X144200000Y-111100000D03*
X143550000Y-111100000D03*
X142900000Y-111100000D03*
X142250000Y-111100000D03*
X141600000Y-111100000D03*
X140950000Y-111100000D03*
X140300000Y-111100000D03*
X139650000Y-111100000D03*
X139000000Y-111100000D03*
X138350000Y-111100000D03*
X137700000Y-111100000D03*
X146800000Y-111750000D03*
X146150000Y-111750000D03*
X145500000Y-111750000D03*
X144850000Y-111750000D03*
X139650000Y-111750000D03*
X139000000Y-111750000D03*
X138350000Y-111750000D03*
X137700000Y-111750000D03*
X146800000Y-112400000D03*
X146150000Y-112400000D03*
X145500000Y-112400000D03*
X144850000Y-112400000D03*
X143550000Y-112400000D03*
X142900000Y-112400000D03*
X142250000Y-112400000D03*
X141600000Y-112400000D03*
X140950000Y-112400000D03*
X139650000Y-112400000D03*
X139000000Y-112400000D03*
X138350000Y-112400000D03*
X137700000Y-112400000D03*
X146800000Y-113050000D03*
X146150000Y-113050000D03*
X145500000Y-113050000D03*
X144850000Y-113050000D03*
X143550000Y-113050000D03*
X142900000Y-113050000D03*
X142250000Y-113050000D03*
X141600000Y-113050000D03*
X140950000Y-113050000D03*
X139650000Y-113050000D03*
X139000000Y-113050000D03*
X138350000Y-113050000D03*
X137700000Y-113050000D03*
X146800000Y-113700000D03*
X146150000Y-113700000D03*
X145500000Y-113700000D03*
X144850000Y-113700000D03*
X143550000Y-113700000D03*
X142900000Y-113700000D03*
X142250000Y-113700000D03*
X141600000Y-113700000D03*
X140950000Y-113700000D03*
X139650000Y-113700000D03*
X139000000Y-113700000D03*
X138350000Y-113700000D03*
X137700000Y-113700000D03*
X146800000Y-114350000D03*
X146150000Y-114350000D03*
X145500000Y-114350000D03*
X144850000Y-114350000D03*
X143550000Y-114350000D03*
X142900000Y-114350000D03*
X142250000Y-114350000D03*
X141600000Y-114350000D03*
X140950000Y-114350000D03*
X139650000Y-114350000D03*
X139000000Y-114350000D03*
X138350000Y-114350000D03*
X137700000Y-114350000D03*
X146800000Y-115000000D03*
X146150000Y-115000000D03*
X145500000Y-115000000D03*
X144850000Y-115000000D03*
X143550000Y-115000000D03*
X142900000Y-115000000D03*
X142250000Y-115000000D03*
X141600000Y-115000000D03*
X140950000Y-115000000D03*
X139650000Y-115000000D03*
X139000000Y-115000000D03*
X138350000Y-115000000D03*
X137700000Y-115000000D03*
X146800000Y-115650000D03*
X146150000Y-115650000D03*
X145500000Y-115650000D03*
X144850000Y-115650000D03*
X139650000Y-115650000D03*
X139000000Y-115650000D03*
X138350000Y-115650000D03*
X137700000Y-115650000D03*
X146800000Y-116300000D03*
X146150000Y-116300000D03*
X145500000Y-116300000D03*
X144850000Y-116300000D03*
X144200000Y-116300000D03*
X143550000Y-116300000D03*
X142900000Y-116300000D03*
X142250000Y-116300000D03*
X141600000Y-116300000D03*
X140950000Y-116300000D03*
X140300000Y-116300000D03*
X139650000Y-116300000D03*
X139000000Y-116300000D03*
X138350000Y-116300000D03*
X137700000Y-116300000D03*
X146800000Y-116950000D03*
X146150000Y-116950000D03*
X145500000Y-116950000D03*
X144850000Y-116950000D03*
X144200000Y-116950000D03*
X143550000Y-116950000D03*
X142900000Y-116950000D03*
X142250000Y-116950000D03*
X141600000Y-116950000D03*
X140950000Y-116950000D03*
X140300000Y-116950000D03*
X139650000Y-116950000D03*
X139000000Y-116950000D03*
X138350000Y-116950000D03*
X137700000Y-116950000D03*
X146800000Y-117600000D03*
X146150000Y-117600000D03*
X145500000Y-117600000D03*
X144850000Y-117600000D03*
X144200000Y-117600000D03*
X143550000Y-117600000D03*
X142900000Y-117600000D03*
X142250000Y-117600000D03*
X141600000Y-117600000D03*
X140950000Y-117600000D03*
X140300000Y-117600000D03*
X139650000Y-117600000D03*
X139000000Y-117600000D03*
X138350000Y-117600000D03*
X137700000Y-117600000D03*
X146800000Y-118250000D03*
X146150000Y-118250000D03*
X145500000Y-118250000D03*
X144850000Y-118250000D03*
X144200000Y-118250000D03*
X143550000Y-118250000D03*
X142900000Y-118250000D03*
X142250000Y-118250000D03*
X141600000Y-118250000D03*
X140950000Y-118250000D03*
X140300000Y-118250000D03*
X139650000Y-118250000D03*
X139000000Y-118250000D03*
X138350000Y-118250000D03*
X137700000Y-118250000D03*
D61*
X128640000Y-115520000D03*
X128640000Y-117245000D03*
X126915000Y-115520000D03*
X126915000Y-117245000D03*
D48*
X129527500Y-113982500D03*
X129027500Y-113982500D03*
X128527500Y-113982500D03*
X128027500Y-113982500D03*
X127527500Y-113982500D03*
X127027500Y-113982500D03*
X126527500Y-113982500D03*
X126027500Y-113982500D03*
D49*
X125377500Y-114632500D03*
X125377500Y-115132500D03*
X125377500Y-115632500D03*
X125377500Y-116132500D03*
X125377500Y-116632500D03*
X125377500Y-117132500D03*
X125377500Y-117632500D03*
X125377500Y-118132500D03*
D48*
X126027500Y-118782500D03*
X126527500Y-118782500D03*
X127027500Y-118782500D03*
X127527500Y-118782500D03*
X128027500Y-118782500D03*
X128527500Y-118782500D03*
X129027500Y-118782500D03*
X129527500Y-118782500D03*
D49*
X130177500Y-118132500D03*
X130177500Y-117632500D03*
X130177500Y-117132500D03*
X130177500Y-116632500D03*
X130177500Y-116132500D03*
X130177500Y-115632500D03*
X130177500Y-115132500D03*
X130177500Y-114632500D03*
D62*
X122987500Y-114887500D03*
X122987500Y-115712500D03*
X122162500Y-114887500D03*
X122162500Y-115712500D03*
D48*
X123075000Y-113900000D03*
X122575000Y-113900000D03*
X122075000Y-113900000D03*
D49*
X121175000Y-114800000D03*
X121175000Y-115300000D03*
X121175000Y-115800000D03*
D48*
X122075000Y-116700000D03*
X122575000Y-116700000D03*
X123075000Y-116700000D03*
D49*
X123975000Y-115800000D03*
X123975000Y-115300000D03*
X123975000Y-114800000D03*
D63*
X165810000Y-97180000D03*
D64*
X164610000Y-97180000D03*
D65*
X167020000Y-97180000D03*
D66*
X169654400Y-101260000D02*
X169079400Y-101260000D01*
X168151776Y-99125000D02*
X167975000Y-99125000D01*
X168550000Y-99523224D02*
X168151776Y-99125000D01*
X168550000Y-100730600D02*
X168550000Y-99523224D01*
X163857842Y-100700000D02*
X164253142Y-101095300D01*
X163575000Y-100700000D02*
X163857842Y-100700000D01*
X169079400Y-101260000D02*
X168914700Y-101095300D01*
X168914700Y-101095300D02*
X168550000Y-100730600D01*
X166775000Y-107580680D02*
X164880000Y-105685680D01*
X164880000Y-101130000D02*
X164845300Y-101095300D01*
X164880000Y-105685680D02*
X164880000Y-101130000D01*
X164845300Y-101095300D02*
X168914700Y-101095300D01*
X169375000Y-111278500D02*
X169375000Y-111119401D01*
X166775000Y-108725000D02*
X166775000Y-108635000D01*
X166775000Y-108345000D02*
X166895000Y-108345000D01*
X166775000Y-108345000D02*
X166775000Y-107580680D01*
X166775000Y-108635000D02*
X166775000Y-108345000D01*
X166895000Y-108345000D02*
X167232800Y-108682800D01*
X167232800Y-108682800D02*
X167232800Y-108977200D01*
X169375000Y-111119401D02*
X167232800Y-108977200D01*
X154239999Y-113359999D02*
X153865000Y-112985000D01*
X158370000Y-114403224D02*
X157326775Y-113359999D01*
X158370000Y-114580000D02*
X158370000Y-114403224D01*
X164253142Y-101095300D02*
X164574700Y-101095300D01*
X164574700Y-101095300D02*
X164845300Y-101095300D01*
X164574700Y-100394700D02*
X164574700Y-101095300D01*
X164312801Y-100132801D02*
X164574700Y-100394700D01*
X155096984Y-100325000D02*
X155289183Y-100132801D01*
X154800000Y-100325000D02*
X155096984Y-100325000D01*
X157326775Y-113359999D02*
X155759999Y-113359999D01*
X155759999Y-113359999D02*
X154239999Y-113359999D01*
X155777199Y-100132801D02*
X164312801Y-100132801D01*
X155759999Y-101790001D02*
X155759999Y-100135601D01*
X155759999Y-113359999D02*
X155759999Y-101790001D01*
X155759999Y-101790001D02*
X155759999Y-101609999D01*
X155759999Y-100135601D02*
X155757199Y-100132801D01*
X155757199Y-100132801D02*
X155777199Y-100132801D01*
X146275000Y-100100000D02*
X146535001Y-99839999D01*
X147630001Y-99839999D02*
X147900000Y-99570000D01*
X147900000Y-99570000D02*
X155360000Y-99570000D01*
X155289183Y-100132801D02*
X155632801Y-100132801D01*
X155632801Y-99842801D02*
X155632801Y-100132801D01*
X155360000Y-99570000D02*
X155632801Y-99842801D01*
X155632801Y-100132801D02*
X155757199Y-100132801D01*
X146800000Y-109150000D02*
X146800000Y-108620000D01*
X147300001Y-108119999D02*
X147300001Y-99839999D01*
X146800000Y-108620000D02*
X147300001Y-108119999D01*
X146535001Y-99839999D02*
X147300001Y-99839999D01*
X147300001Y-99839999D02*
X147630001Y-99839999D01*
X125225001Y-113274999D02*
X130164999Y-113274999D01*
X123975000Y-114525000D02*
X125225001Y-113274999D01*
X123975000Y-114800000D02*
X123975000Y-114525000D01*
X134860000Y-113260000D02*
X134860000Y-110980000D01*
X134860000Y-110980000D02*
X132700000Y-108820000D01*
X132700000Y-102525000D02*
X132125000Y-101950000D01*
X132125000Y-101950000D02*
X131375000Y-101950000D01*
X132700000Y-108820000D02*
X132700000Y-102525000D01*
X133425000Y-100350000D02*
X134075000Y-100350000D01*
X132685000Y-100350000D02*
X133425000Y-100350000D01*
X131375000Y-101950000D02*
X131375000Y-101660000D01*
X135059000Y-98410000D02*
X134075000Y-99394000D01*
X134075000Y-99394000D02*
X134075000Y-100350000D01*
X135959000Y-98410000D02*
X135059000Y-98410000D01*
X135959000Y-98410000D02*
X137300000Y-98410000D01*
X138040401Y-99150401D02*
X146790401Y-99150401D01*
X137300000Y-98410000D02*
X138040401Y-99150401D01*
X147300001Y-99660001D02*
X147300001Y-99839999D01*
X146790401Y-99150401D02*
X147300001Y-99660001D01*
X119968750Y-112593750D02*
X119968750Y-111623748D01*
X115225000Y-100150000D02*
X116025000Y-100150000D01*
X114720000Y-106374998D02*
X114720000Y-100655000D01*
X118459999Y-111150001D02*
X118977501Y-110632499D01*
X118977501Y-110632499D02*
X114720000Y-106374998D01*
X112174999Y-111150001D02*
X118459999Y-111150001D01*
X110625000Y-112600000D02*
X110725000Y-112600000D01*
X119968750Y-111623748D02*
X118977501Y-110632499D01*
X110954999Y-111324999D02*
X111477500Y-111847500D01*
X105062499Y-111324999D02*
X110954999Y-111324999D01*
X103268750Y-109531250D02*
X105062499Y-111324999D01*
X102693750Y-109531250D02*
X103268750Y-109531250D01*
X110725000Y-112600000D02*
X111477500Y-111847500D01*
X111477500Y-111847500D02*
X112174999Y-111150001D01*
X117475000Y-98625000D02*
X118375000Y-98625000D01*
X117275000Y-98625000D02*
X117475000Y-98625000D01*
X116025000Y-99875000D02*
X117275000Y-98625000D01*
X116025000Y-100150000D02*
X116025000Y-99875000D01*
X122674997Y-97984999D02*
X124119998Y-99430000D01*
X118765001Y-97984999D02*
X122674997Y-97984999D01*
X118375000Y-98625000D02*
X118375000Y-98375000D01*
X118375000Y-98375000D02*
X118765001Y-97984999D01*
X130470000Y-99430000D02*
X132037500Y-100997500D01*
X124119998Y-99430000D02*
X130470000Y-99430000D01*
X131375000Y-101660000D02*
X132037500Y-100997500D01*
X132037500Y-100997500D02*
X132685000Y-100350000D01*
X102125000Y-98875000D02*
X102875000Y-98875000D01*
X101500000Y-98875000D02*
X102125000Y-98875000D01*
X100400000Y-99550000D02*
X100825000Y-99550000D01*
X102875000Y-98425000D02*
X103300000Y-98000000D01*
X102875000Y-98875000D02*
X102875000Y-98425000D01*
X103300000Y-98000000D02*
X106820000Y-98000000D01*
X108970000Y-100150000D02*
X114330000Y-100150000D01*
X106820000Y-98000000D02*
X108970000Y-100150000D01*
X114330000Y-100150000D02*
X114777500Y-100597500D01*
X114720000Y-100655000D02*
X114777500Y-100597500D01*
X114777500Y-100597500D02*
X115225000Y-100150000D01*
X100825000Y-99550000D02*
X101177500Y-99197500D01*
X101177500Y-99197500D02*
X101500000Y-98875000D01*
X130177500Y-113287500D02*
X130177500Y-114632500D01*
X130164999Y-113274999D02*
X130177500Y-113287500D01*
X130905001Y-113274999D02*
X131025001Y-113274999D01*
X130905001Y-113274999D02*
X134864999Y-113274999D01*
X130164999Y-113274999D02*
X130905001Y-113274999D01*
X135590000Y-114000000D02*
X135590000Y-114200000D01*
X134864999Y-113274999D02*
X135590000Y-114000000D01*
X135590000Y-114200000D02*
X135590000Y-114950000D01*
X83400000Y-105075000D02*
X83350000Y-105125000D01*
X79440000Y-109910000D02*
X79440000Y-109160000D01*
X79314999Y-110035001D02*
X79440000Y-109910000D01*
X76015001Y-110035001D02*
X79314999Y-110035001D01*
X75720000Y-109740000D02*
X76015001Y-110035001D01*
X74770000Y-109740000D02*
X75720000Y-109740000D01*
X73820000Y-104740000D02*
X73095000Y-104740000D01*
X73935001Y-104855001D02*
X73820000Y-104740000D01*
X73935001Y-105100003D02*
X73935001Y-104855001D01*
X76094999Y-105315001D02*
X74149999Y-105315001D01*
X76220000Y-105190000D02*
X76094999Y-105315001D01*
X74149999Y-105315001D02*
X73935001Y-105100003D01*
X76220000Y-104640000D02*
X76220000Y-105190000D01*
X83350000Y-103400000D02*
X83400000Y-103350000D01*
X83350000Y-105125000D02*
X83350000Y-103400000D01*
X81525000Y-101175000D02*
X81525000Y-99775000D01*
X83400000Y-103350000D02*
X83400000Y-103050000D01*
X83400000Y-103050000D02*
X81525000Y-101175000D01*
X91685000Y-110115000D02*
X90760000Y-109190000D01*
X91685000Y-110540000D02*
X91685000Y-110115000D01*
X76820000Y-104640000D02*
X78200000Y-106020000D01*
X76220000Y-104640000D02*
X76820000Y-104640000D01*
X80600000Y-106720000D02*
X81650000Y-106720000D01*
X79900000Y-106020000D02*
X80600000Y-106720000D01*
X78200000Y-106020000D02*
X79900000Y-106020000D01*
X81650000Y-107370000D02*
X81650000Y-106720000D01*
X79860000Y-109160000D02*
X81650000Y-107370000D01*
X79440000Y-109160000D02*
X79860000Y-109160000D01*
X80480000Y-112045000D02*
X81575000Y-110950000D01*
X80480000Y-112495000D02*
X80480000Y-112045000D01*
X81575000Y-110950000D02*
X82310000Y-110950000D01*
X82310000Y-110950000D02*
X84070000Y-109190000D01*
X86140000Y-109190000D02*
X90760000Y-109190000D01*
X86140000Y-109190000D02*
X86140000Y-107090000D01*
X84070000Y-109190000D02*
X86140000Y-109190000D01*
X86140000Y-107090000D02*
X85910000Y-106860000D01*
X86650000Y-100580000D02*
X86650000Y-99680000D01*
X85910000Y-101320000D02*
X86650000Y-100580000D01*
X85910000Y-106860000D02*
X85910000Y-101320000D01*
X91860000Y-95560000D02*
X92485000Y-95560000D01*
X91535000Y-95885000D02*
X91860000Y-95560000D01*
X90835000Y-95885000D02*
X91535000Y-95885000D01*
X86650000Y-98965002D02*
X87490000Y-98125002D01*
X86650000Y-99680000D02*
X86650000Y-98965002D01*
X87490000Y-98125002D02*
X87490000Y-96060000D01*
X88330000Y-95220000D02*
X90530000Y-95220000D01*
X90835000Y-95525000D02*
X90835000Y-95885000D01*
X90530000Y-95220000D02*
X90835000Y-95525000D01*
X86150000Y-95220000D02*
X85770000Y-94840000D01*
X81525000Y-98625000D02*
X81525000Y-99775000D01*
X84567498Y-94840000D02*
X81525000Y-97882498D01*
X81525000Y-97882498D02*
X81525000Y-98625000D01*
X85770000Y-94840000D02*
X84567498Y-94840000D01*
X87910000Y-95640000D02*
X87815000Y-95735000D01*
X87910000Y-95220000D02*
X87910000Y-95640000D01*
X88330000Y-95220000D02*
X87910000Y-95220000D01*
X87910000Y-95220000D02*
X86150000Y-95220000D01*
X87490000Y-96060000D02*
X87815000Y-95735000D01*
X83350000Y-105420000D02*
X83350000Y-105125000D01*
X82050000Y-106720000D02*
X83350000Y-105420000D01*
X81650000Y-106720000D02*
X82050000Y-106720000D01*
X100400000Y-98679998D02*
X100160002Y-98440000D01*
X100400000Y-99550000D02*
X100400000Y-98679998D01*
X93260001Y-96364999D02*
X93260001Y-95685001D01*
X93260001Y-95685001D02*
X93135000Y-95560000D01*
X95335002Y-98440000D02*
X93260001Y-96364999D01*
X93135000Y-95560000D02*
X92485000Y-95560000D01*
X100160002Y-98440000D02*
X95335002Y-98440000D01*
D67*
G36*
X164853027Y-94890557D02*
G01*
X164858883Y-94897737D01*
X164896310Y-94944286D01*
X164898015Y-94945717D01*
X164899423Y-94947443D01*
X164945473Y-94985539D01*
X164991246Y-95023947D01*
X164993198Y-95025020D01*
X164994913Y-95026439D01*
X165047461Y-95054851D01*
X165099847Y-95083651D01*
X165101971Y-95084325D01*
X165103928Y-95085383D01*
X165160950Y-95103034D01*
X165217976Y-95121124D01*
X165220192Y-95121373D01*
X165222316Y-95122030D01*
X165281743Y-95128276D01*
X165341134Y-95134938D01*
X165345404Y-95134968D01*
X165345567Y-95134985D01*
X165345730Y-95134970D01*
X165350000Y-95135000D01*
X165650000Y-95135000D01*
X165709505Y-95129166D01*
X165768987Y-95123752D01*
X165771118Y-95123125D01*
X165773339Y-95122907D01*
X165830621Y-95105612D01*
X165887875Y-95088762D01*
X165889847Y-95087731D01*
X165891980Y-95087087D01*
X165944781Y-95059012D01*
X165997703Y-95031345D01*
X165999437Y-95029951D01*
X166001404Y-95028905D01*
X166047737Y-94991117D01*
X166094286Y-94953690D01*
X166095717Y-94951985D01*
X166097443Y-94950577D01*
X166135539Y-94904527D01*
X166144662Y-94893655D01*
X167412376Y-94896695D01*
X167395328Y-98365959D01*
X167253316Y-98394207D01*
X167225000Y-98405936D01*
X167196684Y-98394207D01*
X167049853Y-98365000D01*
X166900147Y-98365000D01*
X166753316Y-98394207D01*
X166725000Y-98405936D01*
X166696684Y-98394207D01*
X166549853Y-98365000D01*
X166400147Y-98365000D01*
X166253316Y-98394207D01*
X166115005Y-98451497D01*
X165990528Y-98534670D01*
X165884670Y-98640528D01*
X165834889Y-98715030D01*
X163497000Y-98717847D01*
X163497000Y-94887305D01*
X164853027Y-94890557D01*
X164853027Y-94890557D01*
G37*
X164853027Y-94890557D02*
X164858883Y-94897737D01*
X164896310Y-94944286D01*
X164898015Y-94945717D01*
X164899423Y-94947443D01*
X164945473Y-94985539D01*
X164991246Y-95023947D01*
X164993198Y-95025020D01*
X164994913Y-95026439D01*
X165047461Y-95054851D01*
X165099847Y-95083651D01*
X165101971Y-95084325D01*
X165103928Y-95085383D01*
X165160950Y-95103034D01*
X165217976Y-95121124D01*
X165220192Y-95121373D01*
X165222316Y-95122030D01*
X165281743Y-95128276D01*
X165341134Y-95134938D01*
X165345404Y-95134968D01*
X165345567Y-95134985D01*
X165345730Y-95134970D01*
X165350000Y-95135000D01*
X165650000Y-95135000D01*
X165709505Y-95129166D01*
X165768987Y-95123752D01*
X165771118Y-95123125D01*
X165773339Y-95122907D01*
X165830621Y-95105612D01*
X165887875Y-95088762D01*
X165889847Y-95087731D01*
X165891980Y-95087087D01*
X165944781Y-95059012D01*
X165997703Y-95031345D01*
X165999437Y-95029951D01*
X166001404Y-95028905D01*
X166047737Y-94991117D01*
X166094286Y-94953690D01*
X166095717Y-94951985D01*
X166097443Y-94950577D01*
X166135539Y-94904527D01*
X166144662Y-94893655D01*
X167412376Y-94896695D01*
X167395328Y-98365959D01*
X167253316Y-98394207D01*
X167225000Y-98405936D01*
X167196684Y-98394207D01*
X167049853Y-98365000D01*
X166900147Y-98365000D01*
X166753316Y-98394207D01*
X166725000Y-98405936D01*
X166696684Y-98394207D01*
X166549853Y-98365000D01*
X166400147Y-98365000D01*
X166253316Y-98394207D01*
X166115005Y-98451497D01*
X165990528Y-98534670D01*
X165884670Y-98640528D01*
X165834889Y-98715030D01*
X163497000Y-98717847D01*
X163497000Y-94887305D01*
X164853027Y-94890557D01*
M02*
