%TF.GenerationSoftware,KiCad,Pcbnew,5.0.2+dfsg1-1*%
%TF.CreationDate,2019-09-16T18:41:00-07:00*%
%TF.ProjectId,Adafruit PCB Reference Ruler,41646166-7275-4697-9420-504342205265,rev?*%
%TF.SameCoordinates,Original*%
%TF.FileFunction,Legend,Bot*%
%TF.FilePolarity,Positive*%
%FSLAX46Y46*%
G04 Gerber Fmt 4.6, Leading zero omitted, Abs format (unit mm)*
G04 Created by KiCad (PCBNEW 5.0.2+dfsg1-1) date Mon 16 Sep 2019 06:41:00 PM PDT*
%MOMM*%
%LPD*%
G01*
G04 APERTURE LIST*
%ADD10C,0.150000*%
%ADD11C,0.101600*%
%ADD12C,0.190500*%
%ADD13C,0.152400*%
%ADD14C,0.182880*%
%ADD15C,0.100000*%
%ADD16C,0.200000*%
%ADD17C,0.120000*%
%ADD18C,0.170000*%
%ADD19C,0.160000*%
G04 APERTURE END LIST*
D10*
X81724038Y-116401904D02*
X81724038Y-116973333D01*
X81762133Y-117087619D01*
X81838323Y-117163809D01*
X81952609Y-117201904D01*
X82028800Y-117201904D01*
X80962133Y-117201904D02*
X81343085Y-117201904D01*
X81343085Y-116401904D01*
X80238323Y-117125714D02*
X80276419Y-117163809D01*
X80390704Y-117201904D01*
X80466895Y-117201904D01*
X80581180Y-117163809D01*
X80657371Y-117087619D01*
X80695466Y-117011428D01*
X80733561Y-116859047D01*
X80733561Y-116744761D01*
X80695466Y-116592380D01*
X80657371Y-116516190D01*
X80581180Y-116440000D01*
X80466895Y-116401904D01*
X80390704Y-116401904D01*
X80276419Y-116440000D01*
X80238323Y-116478095D01*
X79666895Y-116401904D02*
X79666895Y-116973333D01*
X79704990Y-117087619D01*
X79781180Y-117163809D01*
X79895466Y-117201904D01*
X79971657Y-117201904D01*
X78904990Y-117201904D02*
X79285942Y-117201904D01*
X79285942Y-116401904D01*
X78181180Y-117125714D02*
X78219276Y-117163809D01*
X78333561Y-117201904D01*
X78409752Y-117201904D01*
X78524038Y-117163809D01*
X78600228Y-117087619D01*
X78638323Y-117011428D01*
X78676419Y-116859047D01*
X78676419Y-116744761D01*
X78638323Y-116592380D01*
X78600228Y-116516190D01*
X78524038Y-116440000D01*
X78409752Y-116401904D01*
X78333561Y-116401904D01*
X78219276Y-116440000D01*
X78181180Y-116478095D01*
X77609752Y-116401904D02*
X77609752Y-116973333D01*
X77647847Y-117087619D01*
X77724038Y-117163809D01*
X77838323Y-117201904D01*
X77914514Y-117201904D01*
X76847847Y-117201904D02*
X77228800Y-117201904D01*
X77228800Y-116401904D01*
X76124038Y-117125714D02*
X76162133Y-117163809D01*
X76276419Y-117201904D01*
X76352609Y-117201904D01*
X76466895Y-117163809D01*
X76543085Y-117087619D01*
X76581180Y-117011428D01*
X76619276Y-116859047D01*
X76619276Y-116744761D01*
X76581180Y-116592380D01*
X76543085Y-116516190D01*
X76466895Y-116440000D01*
X76352609Y-116401904D01*
X76276419Y-116401904D01*
X76162133Y-116440000D01*
X76124038Y-116478095D01*
X75552609Y-116401904D02*
X75552609Y-116973333D01*
X75590704Y-117087619D01*
X75666895Y-117163809D01*
X75781180Y-117201904D01*
X75857371Y-117201904D01*
X74790704Y-117201904D02*
X75171657Y-117201904D01*
X75171657Y-116401904D01*
X74066895Y-117125714D02*
X74104990Y-117163809D01*
X74219276Y-117201904D01*
X74295466Y-117201904D01*
X74409752Y-117163809D01*
X74485942Y-117087619D01*
X74524038Y-117011428D01*
X74562133Y-116859047D01*
X74562133Y-116744761D01*
X74524038Y-116592380D01*
X74485942Y-116516190D01*
X74409752Y-116440000D01*
X74295466Y-116401904D01*
X74219276Y-116401904D01*
X74104990Y-116440000D01*
X74066895Y-116478095D01*
D11*
X163494961Y-96023369D02*
X163494961Y-96574912D01*
X163494961Y-96299140D02*
X164460161Y-96299140D01*
X164322276Y-96391064D01*
X164230352Y-96482988D01*
X164184390Y-96574912D01*
X164138428Y-95196055D02*
X163494961Y-95196055D01*
X164506123Y-95425864D02*
X163816695Y-95655674D01*
X163816695Y-95058169D01*
X163494961Y-98766569D02*
X163494961Y-99318112D01*
X163494961Y-99042340D02*
X164460161Y-99042340D01*
X164322276Y-99134264D01*
X164230352Y-99226188D01*
X164184390Y-99318112D01*
X164368238Y-98398874D02*
X164414200Y-98352912D01*
X164460161Y-98260988D01*
X164460161Y-98031179D01*
X164414200Y-97939255D01*
X164368238Y-97893293D01*
X164276314Y-97847331D01*
X164184390Y-97847331D01*
X164046504Y-97893293D01*
X163494961Y-98444836D01*
X163494961Y-97847331D01*
X163342561Y-101585969D02*
X163342561Y-102137512D01*
X163342561Y-101861740D02*
X164307761Y-101861740D01*
X164169876Y-101953664D01*
X164077952Y-102045588D01*
X164031990Y-102137512D01*
X163342561Y-100666731D02*
X163342561Y-101218274D01*
X163342561Y-100942502D02*
X164307761Y-100942502D01*
X164169876Y-101034426D01*
X164077952Y-101126350D01*
X164031990Y-101218274D01*
X162910761Y-104938769D02*
X162910761Y-105490312D01*
X162910761Y-105214540D02*
X163875961Y-105214540D01*
X163738076Y-105306464D01*
X163646152Y-105398388D01*
X163600190Y-105490312D01*
X163875961Y-104341264D02*
X163875961Y-104249340D01*
X163830000Y-104157417D01*
X163784038Y-104111455D01*
X163692114Y-104065493D01*
X163508266Y-104019531D01*
X163278457Y-104019531D01*
X163094609Y-104065493D01*
X163002685Y-104111455D01*
X162956723Y-104157417D01*
X162910761Y-104249340D01*
X162910761Y-104341264D01*
X162956723Y-104433188D01*
X163002685Y-104479150D01*
X163094609Y-104525112D01*
X163278457Y-104571074D01*
X163508266Y-104571074D01*
X163692114Y-104525112D01*
X163784038Y-104479150D01*
X163830000Y-104433188D01*
X163875961Y-104341264D01*
X165291104Y-111580264D02*
X165337066Y-111672188D01*
X165383028Y-111718150D01*
X165474952Y-111764112D01*
X165520914Y-111764112D01*
X165612838Y-111718150D01*
X165658800Y-111672188D01*
X165704761Y-111580264D01*
X165704761Y-111396417D01*
X165658800Y-111304493D01*
X165612838Y-111258531D01*
X165520914Y-111212569D01*
X165474952Y-111212569D01*
X165383028Y-111258531D01*
X165337066Y-111304493D01*
X165291104Y-111396417D01*
X165291104Y-111580264D01*
X165245142Y-111672188D01*
X165199180Y-111718150D01*
X165107257Y-111764112D01*
X164923409Y-111764112D01*
X164831485Y-111718150D01*
X164785523Y-111672188D01*
X164739561Y-111580264D01*
X164739561Y-111396417D01*
X164785523Y-111304493D01*
X164831485Y-111258531D01*
X164923409Y-111212569D01*
X165107257Y-111212569D01*
X165199180Y-111258531D01*
X165245142Y-111304493D01*
X165291104Y-111396417D01*
X170775569Y-109021638D02*
X171327112Y-109021638D01*
X171051340Y-109021638D02*
X171051340Y-108056438D01*
X171143264Y-108194323D01*
X171235188Y-108286247D01*
X171327112Y-108332209D01*
X170453836Y-108056438D02*
X169810369Y-108056438D01*
X170224026Y-109021638D01*
X170724769Y-107192838D02*
X171276312Y-107192838D01*
X171000540Y-107192838D02*
X171000540Y-106227638D01*
X171092464Y-106365523D01*
X171184388Y-106457447D01*
X171276312Y-106503409D01*
X170173226Y-106641295D02*
X170265150Y-106595333D01*
X170311112Y-106549371D01*
X170357074Y-106457447D01*
X170357074Y-106411485D01*
X170311112Y-106319561D01*
X170265150Y-106273600D01*
X170173226Y-106227638D01*
X169989379Y-106227638D01*
X169897455Y-106273600D01*
X169851493Y-106319561D01*
X169805531Y-106411485D01*
X169805531Y-106457447D01*
X169851493Y-106549371D01*
X169897455Y-106595333D01*
X169989379Y-106641295D01*
X170173226Y-106641295D01*
X170265150Y-106687257D01*
X170311112Y-106733219D01*
X170357074Y-106825142D01*
X170357074Y-107008990D01*
X170311112Y-107100914D01*
X170265150Y-107146876D01*
X170173226Y-107192838D01*
X169989379Y-107192838D01*
X169897455Y-107146876D01*
X169851493Y-107100914D01*
X169805531Y-107008990D01*
X169805531Y-106825142D01*
X169851493Y-106733219D01*
X169897455Y-106687257D01*
X169989379Y-106641295D01*
X170775569Y-105338638D02*
X171327112Y-105338638D01*
X171051340Y-105338638D02*
X171051340Y-104373438D01*
X171143264Y-104511323D01*
X171235188Y-104603247D01*
X171327112Y-104649209D01*
X170315950Y-105338638D02*
X170132102Y-105338638D01*
X170040179Y-105292676D01*
X169994217Y-105246714D01*
X169902293Y-105108828D01*
X169856331Y-104924980D01*
X169856331Y-104557285D01*
X169902293Y-104465361D01*
X169948255Y-104419400D01*
X170040179Y-104373438D01*
X170224026Y-104373438D01*
X170315950Y-104419400D01*
X170361912Y-104465361D01*
X170407874Y-104557285D01*
X170407874Y-104787095D01*
X170361912Y-104879019D01*
X170315950Y-104924980D01*
X170224026Y-104970942D01*
X170040179Y-104970942D01*
X169948255Y-104924980D01*
X169902293Y-104879019D01*
X169856331Y-104787095D01*
X171301712Y-102839761D02*
X171255750Y-102793800D01*
X171163826Y-102747838D01*
X170934017Y-102747838D01*
X170842093Y-102793800D01*
X170796131Y-102839761D01*
X170750169Y-102931685D01*
X170750169Y-103023609D01*
X170796131Y-103161495D01*
X171347674Y-103713038D01*
X170750169Y-103713038D01*
X170152664Y-102747838D02*
X170060740Y-102747838D01*
X169968817Y-102793800D01*
X169922855Y-102839761D01*
X169876893Y-102931685D01*
X169830931Y-103115533D01*
X169830931Y-103345342D01*
X169876893Y-103529190D01*
X169922855Y-103621114D01*
X169968817Y-103667076D01*
X170060740Y-103713038D01*
X170152664Y-103713038D01*
X170244588Y-103667076D01*
X170290550Y-103621114D01*
X170336512Y-103529190D01*
X170382474Y-103345342D01*
X170382474Y-103115533D01*
X170336512Y-102931685D01*
X170290550Y-102839761D01*
X170244588Y-102793800D01*
X170152664Y-102747838D01*
X171225512Y-101239561D02*
X171179550Y-101193600D01*
X171087626Y-101147638D01*
X170857817Y-101147638D01*
X170765893Y-101193600D01*
X170719931Y-101239561D01*
X170673969Y-101331485D01*
X170673969Y-101423409D01*
X170719931Y-101561295D01*
X171271474Y-102112838D01*
X170673969Y-102112838D01*
X169754731Y-102112838D02*
X170306274Y-102112838D01*
X170030502Y-102112838D02*
X170030502Y-101147638D01*
X170122426Y-101285523D01*
X170214350Y-101377447D01*
X170306274Y-101423409D01*
X171403312Y-99588561D02*
X171357350Y-99542600D01*
X171265426Y-99496638D01*
X171035617Y-99496638D01*
X170943693Y-99542600D01*
X170897731Y-99588561D01*
X170851769Y-99680485D01*
X170851769Y-99772409D01*
X170897731Y-99910295D01*
X171449274Y-100461838D01*
X170851769Y-100461838D01*
X170484074Y-99588561D02*
X170438112Y-99542600D01*
X170346188Y-99496638D01*
X170116379Y-99496638D01*
X170024455Y-99542600D01*
X169978493Y-99588561D01*
X169932531Y-99680485D01*
X169932531Y-99772409D01*
X169978493Y-99910295D01*
X170530036Y-100461838D01*
X169932531Y-100461838D01*
X171327112Y-98216961D02*
X171281150Y-98171000D01*
X171189226Y-98125038D01*
X170959417Y-98125038D01*
X170867493Y-98171000D01*
X170821531Y-98216961D01*
X170775569Y-98308885D01*
X170775569Y-98400809D01*
X170821531Y-98538695D01*
X171373074Y-99090238D01*
X170775569Y-99090238D01*
X169948255Y-98446771D02*
X169948255Y-99090238D01*
X170178064Y-98079076D02*
X170407874Y-98768504D01*
X169810369Y-98768504D01*
X171276312Y-96946961D02*
X171230350Y-96901000D01*
X171138426Y-96855038D01*
X170908617Y-96855038D01*
X170816693Y-96901000D01*
X170770731Y-96946961D01*
X170724769Y-97038885D01*
X170724769Y-97130809D01*
X170770731Y-97268695D01*
X171322274Y-97820238D01*
X170724769Y-97820238D01*
X169851493Y-96855038D02*
X170311112Y-96855038D01*
X170357074Y-97314657D01*
X170311112Y-97268695D01*
X170219188Y-97222733D01*
X169989379Y-97222733D01*
X169897455Y-97268695D01*
X169851493Y-97314657D01*
X169805531Y-97406580D01*
X169805531Y-97636390D01*
X169851493Y-97728314D01*
X169897455Y-97774276D01*
X169989379Y-97820238D01*
X170219188Y-97820238D01*
X170311112Y-97774276D01*
X170357074Y-97728314D01*
X171225512Y-95626161D02*
X171179550Y-95580200D01*
X171087626Y-95534238D01*
X170857817Y-95534238D01*
X170765893Y-95580200D01*
X170719931Y-95626161D01*
X170673969Y-95718085D01*
X170673969Y-95810009D01*
X170719931Y-95947895D01*
X171271474Y-96499438D01*
X170673969Y-96499438D01*
X169846655Y-95534238D02*
X170030502Y-95534238D01*
X170122426Y-95580200D01*
X170168388Y-95626161D01*
X170260312Y-95764047D01*
X170306274Y-95947895D01*
X170306274Y-96315590D01*
X170260312Y-96407514D01*
X170214350Y-96453476D01*
X170122426Y-96499438D01*
X169938579Y-96499438D01*
X169846655Y-96453476D01*
X169800693Y-96407514D01*
X169754731Y-96315590D01*
X169754731Y-96085780D01*
X169800693Y-95993857D01*
X169846655Y-95947895D01*
X169938579Y-95901933D01*
X170122426Y-95901933D01*
X170214350Y-95947895D01*
X170260312Y-95993857D01*
X170306274Y-96085780D01*
X171200112Y-94152961D02*
X171154150Y-94107000D01*
X171062226Y-94061038D01*
X170832417Y-94061038D01*
X170740493Y-94107000D01*
X170694531Y-94152961D01*
X170648569Y-94244885D01*
X170648569Y-94336809D01*
X170694531Y-94474695D01*
X171246074Y-95026238D01*
X170648569Y-95026238D01*
X170097026Y-94474695D02*
X170188950Y-94428733D01*
X170234912Y-94382771D01*
X170280874Y-94290847D01*
X170280874Y-94244885D01*
X170234912Y-94152961D01*
X170188950Y-94107000D01*
X170097026Y-94061038D01*
X169913179Y-94061038D01*
X169821255Y-94107000D01*
X169775293Y-94152961D01*
X169729331Y-94244885D01*
X169729331Y-94290847D01*
X169775293Y-94382771D01*
X169821255Y-94428733D01*
X169913179Y-94474695D01*
X170097026Y-94474695D01*
X170188950Y-94520657D01*
X170234912Y-94566619D01*
X170280874Y-94658542D01*
X170280874Y-94842390D01*
X170234912Y-94934314D01*
X170188950Y-94980276D01*
X170097026Y-95026238D01*
X169913179Y-95026238D01*
X169821255Y-94980276D01*
X169775293Y-94934314D01*
X169729331Y-94842390D01*
X169729331Y-94658542D01*
X169775293Y-94566619D01*
X169821255Y-94520657D01*
X169913179Y-94474695D01*
X170826369Y-111028238D02*
X171377912Y-111028238D01*
X171102140Y-111028238D02*
X171102140Y-110063038D01*
X171194064Y-110200923D01*
X171285988Y-110292847D01*
X171377912Y-110338809D01*
X169999055Y-110063038D02*
X170182902Y-110063038D01*
X170274826Y-110109000D01*
X170320788Y-110154961D01*
X170412712Y-110292847D01*
X170458674Y-110476695D01*
X170458674Y-110844390D01*
X170412712Y-110936314D01*
X170366750Y-110982276D01*
X170274826Y-111028238D01*
X170090979Y-111028238D01*
X169999055Y-110982276D01*
X169953093Y-110936314D01*
X169907131Y-110844390D01*
X169907131Y-110614580D01*
X169953093Y-110522657D01*
X169999055Y-110476695D01*
X170090979Y-110430733D01*
X170274826Y-110430733D01*
X170366750Y-110476695D01*
X170412712Y-110522657D01*
X170458674Y-110614580D01*
X170775569Y-113111038D02*
X171327112Y-113111038D01*
X171051340Y-113111038D02*
X171051340Y-112145838D01*
X171143264Y-112283723D01*
X171235188Y-112375647D01*
X171327112Y-112421609D01*
X169902293Y-112145838D02*
X170361912Y-112145838D01*
X170407874Y-112605457D01*
X170361912Y-112559495D01*
X170269988Y-112513533D01*
X170040179Y-112513533D01*
X169948255Y-112559495D01*
X169902293Y-112605457D01*
X169856331Y-112697380D01*
X169856331Y-112927190D01*
X169902293Y-113019114D01*
X169948255Y-113065076D01*
X170040179Y-113111038D01*
X170269988Y-113111038D01*
X170361912Y-113065076D01*
X170407874Y-113019114D01*
D10*
X170603223Y-114480304D02*
X170603223Y-113680304D01*
X170336557Y-114251733D01*
X170069890Y-113680304D01*
X170069890Y-114480304D01*
X169574652Y-114480304D02*
X169650842Y-114442209D01*
X169688938Y-114404114D01*
X169727033Y-114327923D01*
X169727033Y-114099352D01*
X169688938Y-114023161D01*
X169650842Y-113985066D01*
X169574652Y-113946971D01*
X169460366Y-113946971D01*
X169384176Y-113985066D01*
X169346080Y-114023161D01*
X169307985Y-114099352D01*
X169307985Y-114327923D01*
X169346080Y-114404114D01*
X169384176Y-114442209D01*
X169460366Y-114480304D01*
X169574652Y-114480304D01*
X168622271Y-114480304D02*
X168622271Y-113680304D01*
X168622271Y-114442209D02*
X168698461Y-114480304D01*
X168850842Y-114480304D01*
X168927033Y-114442209D01*
X168965128Y-114404114D01*
X169003223Y-114327923D01*
X169003223Y-114099352D01*
X168965128Y-114023161D01*
X168927033Y-113985066D01*
X168850842Y-113946971D01*
X168698461Y-113946971D01*
X168622271Y-113985066D01*
X168241319Y-114480304D02*
X168241319Y-113946971D01*
X168241319Y-113680304D02*
X168279414Y-113718400D01*
X168241319Y-113756495D01*
X168203223Y-113718400D01*
X168241319Y-113680304D01*
X168241319Y-113756495D01*
X167974652Y-113946971D02*
X167669890Y-113946971D01*
X167860366Y-114480304D02*
X167860366Y-113794590D01*
X167822271Y-113718400D01*
X167746080Y-113680304D01*
X167669890Y-113680304D01*
X167403223Y-114480304D02*
X167403223Y-113946971D01*
X167403223Y-113680304D02*
X167441319Y-113718400D01*
X167403223Y-113756495D01*
X167365128Y-113718400D01*
X167403223Y-113680304D01*
X167403223Y-113756495D01*
X166717509Y-114442209D02*
X166793700Y-114480304D01*
X166946080Y-114480304D01*
X167022271Y-114442209D01*
X167060366Y-114366019D01*
X167060366Y-114061257D01*
X167022271Y-113985066D01*
X166946080Y-113946971D01*
X166793700Y-113946971D01*
X166717509Y-113985066D01*
X166679414Y-114061257D01*
X166679414Y-114137447D01*
X167060366Y-114213638D01*
X165993700Y-114480304D02*
X165993700Y-113680304D01*
X165993700Y-114442209D02*
X166069890Y-114480304D01*
X166222271Y-114480304D01*
X166298461Y-114442209D01*
X166336557Y-114404114D01*
X166374652Y-114327923D01*
X166374652Y-114099352D01*
X166336557Y-114023161D01*
X166298461Y-113985066D01*
X166222271Y-113946971D01*
X166069890Y-113946971D01*
X165993700Y-113985066D01*
X165041319Y-114251733D02*
X164660366Y-114251733D01*
X165117509Y-114480304D02*
X164850842Y-113680304D01*
X164584176Y-114480304D01*
X163974652Y-114480304D02*
X163974652Y-113680304D01*
X163974652Y-114442209D02*
X164050842Y-114480304D01*
X164203223Y-114480304D01*
X164279414Y-114442209D01*
X164317509Y-114404114D01*
X164355604Y-114327923D01*
X164355604Y-114099352D01*
X164317509Y-114023161D01*
X164279414Y-113985066D01*
X164203223Y-113946971D01*
X164050842Y-113946971D01*
X163974652Y-113985066D01*
X163250842Y-114480304D02*
X163250842Y-114061257D01*
X163288938Y-113985066D01*
X163365128Y-113946971D01*
X163517509Y-113946971D01*
X163593700Y-113985066D01*
X163250842Y-114442209D02*
X163327033Y-114480304D01*
X163517509Y-114480304D01*
X163593700Y-114442209D01*
X163631795Y-114366019D01*
X163631795Y-114289828D01*
X163593700Y-114213638D01*
X163517509Y-114175542D01*
X163327033Y-114175542D01*
X163250842Y-114137447D01*
X162984176Y-113946971D02*
X162679414Y-113946971D01*
X162869890Y-114480304D02*
X162869890Y-113794590D01*
X162831795Y-113718400D01*
X162755604Y-113680304D01*
X162679414Y-113680304D01*
X162412747Y-114480304D02*
X162412747Y-113946971D01*
X162412747Y-114099352D02*
X162374652Y-114023161D01*
X162336557Y-113985066D01*
X162260366Y-113946971D01*
X162184176Y-113946971D01*
X161574652Y-113946971D02*
X161574652Y-114480304D01*
X161917509Y-113946971D02*
X161917509Y-114366019D01*
X161879414Y-114442209D01*
X161803223Y-114480304D01*
X161688938Y-114480304D01*
X161612747Y-114442209D01*
X161574652Y-114404114D01*
X161193700Y-114480304D02*
X161193700Y-113946971D01*
X161193700Y-113680304D02*
X161231795Y-113718400D01*
X161193700Y-113756495D01*
X161155604Y-113718400D01*
X161193700Y-113680304D01*
X161193700Y-113756495D01*
X160927033Y-113946971D02*
X160622271Y-113946971D01*
X160812747Y-113680304D02*
X160812747Y-114366019D01*
X160774652Y-114442209D01*
X160698461Y-114480304D01*
X160622271Y-114480304D01*
X170603223Y-115830304D02*
X170603223Y-115030304D01*
X170298461Y-115030304D01*
X170222271Y-115068400D01*
X170184176Y-115106495D01*
X170146080Y-115182685D01*
X170146080Y-115296971D01*
X170184176Y-115373161D01*
X170222271Y-115411257D01*
X170298461Y-115449352D01*
X170603223Y-115449352D01*
X169346080Y-115754114D02*
X169384176Y-115792209D01*
X169498461Y-115830304D01*
X169574652Y-115830304D01*
X169688938Y-115792209D01*
X169765128Y-115716019D01*
X169803223Y-115639828D01*
X169841319Y-115487447D01*
X169841319Y-115373161D01*
X169803223Y-115220780D01*
X169765128Y-115144590D01*
X169688938Y-115068400D01*
X169574652Y-115030304D01*
X169498461Y-115030304D01*
X169384176Y-115068400D01*
X169346080Y-115106495D01*
X168736557Y-115411257D02*
X168622271Y-115449352D01*
X168584176Y-115487447D01*
X168546080Y-115563638D01*
X168546080Y-115677923D01*
X168584176Y-115754114D01*
X168622271Y-115792209D01*
X168698461Y-115830304D01*
X169003223Y-115830304D01*
X169003223Y-115030304D01*
X168736557Y-115030304D01*
X168660366Y-115068400D01*
X168622271Y-115106495D01*
X168584176Y-115182685D01*
X168584176Y-115258876D01*
X168622271Y-115335066D01*
X168660366Y-115373161D01*
X168736557Y-115411257D01*
X169003223Y-115411257D01*
X167136557Y-115830304D02*
X167403223Y-115449352D01*
X167593700Y-115830304D02*
X167593700Y-115030304D01*
X167288938Y-115030304D01*
X167212747Y-115068400D01*
X167174652Y-115106495D01*
X167136557Y-115182685D01*
X167136557Y-115296971D01*
X167174652Y-115373161D01*
X167212747Y-115411257D01*
X167288938Y-115449352D01*
X167593700Y-115449352D01*
X166450842Y-115296971D02*
X166450842Y-115830304D01*
X166793700Y-115296971D02*
X166793700Y-115716019D01*
X166755604Y-115792209D01*
X166679414Y-115830304D01*
X166565128Y-115830304D01*
X166488938Y-115792209D01*
X166450842Y-115754114D01*
X165955604Y-115830304D02*
X166031795Y-115792209D01*
X166069890Y-115716019D01*
X166069890Y-115030304D01*
X165346080Y-115792209D02*
X165422271Y-115830304D01*
X165574652Y-115830304D01*
X165650842Y-115792209D01*
X165688938Y-115716019D01*
X165688938Y-115411257D01*
X165650842Y-115335066D01*
X165574652Y-115296971D01*
X165422271Y-115296971D01*
X165346080Y-115335066D01*
X165307985Y-115411257D01*
X165307985Y-115487447D01*
X165688938Y-115563638D01*
X164965128Y-115830304D02*
X164965128Y-115296971D01*
X164965128Y-115449352D02*
X164927033Y-115373161D01*
X164888938Y-115335066D01*
X164812747Y-115296971D01*
X164736557Y-115296971D01*
X163936557Y-115296971D02*
X163746080Y-115830304D01*
X163555604Y-115296971D01*
X162831795Y-115830304D02*
X163288938Y-115830304D01*
X163060366Y-115830304D02*
X163060366Y-115030304D01*
X163136557Y-115144590D01*
X163212747Y-115220780D01*
X163288938Y-115258876D01*
X170603223Y-117180304D02*
X170603223Y-116380304D01*
X170336557Y-116951733D01*
X170069890Y-116380304D01*
X170069890Y-117180304D01*
X168927033Y-116799352D02*
X168927033Y-117180304D01*
X169193700Y-116380304D02*
X168927033Y-116799352D01*
X168660366Y-116380304D01*
X168279414Y-117180304D02*
X168355604Y-117142209D01*
X168393700Y-117104114D01*
X168431795Y-117027923D01*
X168431795Y-116799352D01*
X168393700Y-116723161D01*
X168355604Y-116685066D01*
X168279414Y-116646971D01*
X168165128Y-116646971D01*
X168088938Y-116685066D01*
X168050842Y-116723161D01*
X168012747Y-116799352D01*
X168012747Y-117027923D01*
X168050842Y-117104114D01*
X168088938Y-117142209D01*
X168165128Y-117180304D01*
X168279414Y-117180304D01*
X167327033Y-116646971D02*
X167327033Y-117180304D01*
X167669890Y-116646971D02*
X167669890Y-117066019D01*
X167631795Y-117142209D01*
X167555604Y-117180304D01*
X167441319Y-117180304D01*
X167365128Y-117142209D01*
X167327033Y-117104114D01*
X166946080Y-116646971D02*
X166946080Y-117180304D01*
X166946080Y-116723161D02*
X166907985Y-116685066D01*
X166831795Y-116646971D01*
X166717509Y-116646971D01*
X166641319Y-116685066D01*
X166603223Y-116761257D01*
X166603223Y-117180304D01*
X165879414Y-116646971D02*
X165879414Y-117294590D01*
X165917509Y-117370780D01*
X165955604Y-117408876D01*
X166031795Y-117446971D01*
X166146080Y-117446971D01*
X166222271Y-117408876D01*
X165879414Y-117142209D02*
X165955604Y-117180304D01*
X166107985Y-117180304D01*
X166184176Y-117142209D01*
X166222271Y-117104114D01*
X166260366Y-117027923D01*
X166260366Y-116799352D01*
X166222271Y-116723161D01*
X166184176Y-116685066D01*
X166107985Y-116646971D01*
X165955604Y-116646971D01*
X165879414Y-116685066D01*
D11*
X88649023Y-115303350D02*
X88603061Y-115165464D01*
X88603061Y-114935655D01*
X88649023Y-114843731D01*
X88694985Y-114797769D01*
X88786909Y-114751807D01*
X88878833Y-114751807D01*
X88970757Y-114797769D01*
X89016719Y-114843731D01*
X89062680Y-114935655D01*
X89108642Y-115119502D01*
X89154604Y-115211426D01*
X89200566Y-115257388D01*
X89292490Y-115303350D01*
X89384414Y-115303350D01*
X89476338Y-115257388D01*
X89522300Y-115211426D01*
X89568261Y-115119502D01*
X89568261Y-114889693D01*
X89522300Y-114751807D01*
X88649023Y-114384112D02*
X88603061Y-114246226D01*
X88603061Y-114016417D01*
X88649023Y-113924493D01*
X88694985Y-113878531D01*
X88786909Y-113832569D01*
X88878833Y-113832569D01*
X88970757Y-113878531D01*
X89016719Y-113924493D01*
X89062680Y-114016417D01*
X89108642Y-114200264D01*
X89154604Y-114292188D01*
X89200566Y-114338150D01*
X89292490Y-114384112D01*
X89384414Y-114384112D01*
X89476338Y-114338150D01*
X89522300Y-114292188D01*
X89568261Y-114200264D01*
X89568261Y-113970455D01*
X89522300Y-113832569D01*
X89568261Y-113235064D02*
X89568261Y-113051217D01*
X89522300Y-112959293D01*
X89430376Y-112867369D01*
X89246528Y-112821407D01*
X88924795Y-112821407D01*
X88740947Y-112867369D01*
X88649023Y-112959293D01*
X88603061Y-113051217D01*
X88603061Y-113235064D01*
X88649023Y-113326988D01*
X88740947Y-113418912D01*
X88924795Y-113464874D01*
X89246528Y-113464874D01*
X89430376Y-113418912D01*
X89522300Y-113326988D01*
X89568261Y-113235064D01*
X88603061Y-112407750D02*
X89568261Y-112407750D01*
X89568261Y-112040055D01*
X89522300Y-111948131D01*
X89476338Y-111902169D01*
X89384414Y-111856207D01*
X89246528Y-111856207D01*
X89154604Y-111902169D01*
X89108642Y-111948131D01*
X89062680Y-112040055D01*
X89062680Y-112407750D01*
X106556023Y-116217750D02*
X106510061Y-116079864D01*
X106510061Y-115850055D01*
X106556023Y-115758131D01*
X106601985Y-115712169D01*
X106693909Y-115666207D01*
X106785833Y-115666207D01*
X106877757Y-115712169D01*
X106923719Y-115758131D01*
X106969680Y-115850055D01*
X107015642Y-116033902D01*
X107061604Y-116125826D01*
X107107566Y-116171788D01*
X107199490Y-116217750D01*
X107291414Y-116217750D01*
X107383338Y-116171788D01*
X107429300Y-116125826D01*
X107475261Y-116033902D01*
X107475261Y-115804093D01*
X107429300Y-115666207D01*
X107475261Y-115068702D02*
X107475261Y-114884855D01*
X107429300Y-114792931D01*
X107337376Y-114701007D01*
X107153528Y-114655045D01*
X106831795Y-114655045D01*
X106647947Y-114701007D01*
X106556023Y-114792931D01*
X106510061Y-114884855D01*
X106510061Y-115068702D01*
X106556023Y-115160626D01*
X106647947Y-115252550D01*
X106831795Y-115298512D01*
X107153528Y-115298512D01*
X107337376Y-115252550D01*
X107429300Y-115160626D01*
X107475261Y-115068702D01*
X106510061Y-114241388D02*
X107475261Y-114241388D01*
X106601985Y-113230226D02*
X106556023Y-113276188D01*
X106510061Y-113414074D01*
X106510061Y-113505998D01*
X106556023Y-113643883D01*
X106647947Y-113735807D01*
X106739871Y-113781769D01*
X106923719Y-113827731D01*
X107061604Y-113827731D01*
X107245452Y-113781769D01*
X107337376Y-113735807D01*
X107429300Y-113643883D01*
X107475261Y-113505998D01*
X107475261Y-113414074D01*
X107429300Y-113276188D01*
X107383338Y-113230226D01*
X138557483Y-100121961D02*
X138649407Y-100076000D01*
X138741331Y-99984076D01*
X138879217Y-99846190D01*
X138971140Y-99800228D01*
X139063064Y-99800228D01*
X139017102Y-100030038D02*
X139109026Y-99984076D01*
X139200950Y-99892152D01*
X139246912Y-99708304D01*
X139246912Y-99386571D01*
X139200950Y-99202723D01*
X139109026Y-99110800D01*
X139017102Y-99064838D01*
X138833255Y-99064838D01*
X138741331Y-99110800D01*
X138649407Y-99202723D01*
X138603445Y-99386571D01*
X138603445Y-99708304D01*
X138649407Y-99892152D01*
X138741331Y-99984076D01*
X138833255Y-100030038D01*
X139017102Y-100030038D01*
X137868055Y-99524457D02*
X138189788Y-99524457D01*
X138189788Y-100030038D02*
X138189788Y-99064838D01*
X137730169Y-99064838D01*
X137362474Y-100030038D02*
X137362474Y-99064838D01*
X136994779Y-99064838D01*
X136902855Y-99110800D01*
X136856893Y-99156761D01*
X136810931Y-99248685D01*
X136810931Y-99386571D01*
X136856893Y-99478495D01*
X136902855Y-99524457D01*
X136994779Y-99570419D01*
X137362474Y-99570419D01*
X154030438Y-99644683D02*
X154076400Y-99736607D01*
X154168323Y-99828531D01*
X154306209Y-99966417D01*
X154352171Y-100058340D01*
X154352171Y-100150264D01*
X154122361Y-100104302D02*
X154168323Y-100196226D01*
X154260247Y-100288150D01*
X154444095Y-100334112D01*
X154765828Y-100334112D01*
X154949676Y-100288150D01*
X155041600Y-100196226D01*
X155087561Y-100104302D01*
X155087561Y-99920455D01*
X155041600Y-99828531D01*
X154949676Y-99736607D01*
X154765828Y-99690645D01*
X154444095Y-99690645D01*
X154260247Y-99736607D01*
X154168323Y-99828531D01*
X154122361Y-99920455D01*
X154122361Y-100104302D01*
X154627942Y-98955255D02*
X154627942Y-99276988D01*
X154122361Y-99276988D02*
X155087561Y-99276988D01*
X155087561Y-98817369D01*
X154122361Y-98449674D02*
X155087561Y-98449674D01*
X154122361Y-97898131D01*
X155087561Y-97898131D01*
D12*
X105612746Y-93493771D02*
X105440389Y-93551223D01*
X105382936Y-93608676D01*
X105325484Y-93723580D01*
X105325484Y-93895938D01*
X105382936Y-94010842D01*
X105440389Y-94068295D01*
X105555294Y-94125747D01*
X106014913Y-94125747D01*
X106014913Y-92919247D01*
X105612746Y-92919247D01*
X105497841Y-92976700D01*
X105440389Y-93034152D01*
X105382936Y-93149057D01*
X105382936Y-93263961D01*
X105440389Y-93378866D01*
X105497841Y-93436319D01*
X105612746Y-93493771D01*
X106014913Y-93493771D01*
X104176436Y-92976700D02*
X104291341Y-92919247D01*
X104463698Y-92919247D01*
X104636055Y-92976700D01*
X104750960Y-93091604D01*
X104808413Y-93206509D01*
X104865865Y-93436319D01*
X104865865Y-93608676D01*
X104808413Y-93838485D01*
X104750960Y-93953390D01*
X104636055Y-94068295D01*
X104463698Y-94125747D01*
X104348794Y-94125747D01*
X104176436Y-94068295D01*
X104118984Y-94010842D01*
X104118984Y-93608676D01*
X104348794Y-93608676D01*
X103659365Y-93781033D02*
X103084841Y-93781033D01*
X103774270Y-94125747D02*
X103372103Y-92919247D01*
X102969936Y-94125747D01*
X101705984Y-93034152D02*
X101648532Y-92976700D01*
X101533627Y-92919247D01*
X101246365Y-92919247D01*
X101131460Y-92976700D01*
X101074008Y-93034152D01*
X101016555Y-93149057D01*
X101016555Y-93263961D01*
X101074008Y-93436319D01*
X101763436Y-94125747D01*
X101016555Y-94125747D01*
X100269675Y-92919247D02*
X100154770Y-92919247D01*
X100039865Y-92976700D01*
X99982413Y-93034152D01*
X99924960Y-93149057D01*
X99867508Y-93378866D01*
X99867508Y-93666128D01*
X99924960Y-93895938D01*
X99982413Y-94010842D01*
X100039865Y-94068295D01*
X100154770Y-94125747D01*
X100269675Y-94125747D01*
X100384579Y-94068295D01*
X100442032Y-94010842D01*
X100499484Y-93895938D01*
X100556936Y-93666128D01*
X100556936Y-93378866D01*
X100499484Y-93149057D01*
X100442032Y-93034152D01*
X100384579Y-92976700D01*
X100269675Y-92919247D01*
X99465341Y-92919247D02*
X98661008Y-94125747D01*
X98661008Y-92919247D02*
X99465341Y-94125747D01*
X98258841Y-93034152D02*
X98201389Y-92976700D01*
X98086484Y-92919247D01*
X97799222Y-92919247D01*
X97684317Y-92976700D01*
X97626865Y-93034152D01*
X97569413Y-93149057D01*
X97569413Y-93263961D01*
X97626865Y-93436319D01*
X98316294Y-94125747D01*
X97569413Y-94125747D01*
X96822532Y-92919247D02*
X96707627Y-92919247D01*
X96592722Y-92976700D01*
X96535270Y-93034152D01*
X96477817Y-93149057D01*
X96420365Y-93378866D01*
X96420365Y-93666128D01*
X96477817Y-93895938D01*
X96535270Y-94010842D01*
X96592722Y-94068295D01*
X96707627Y-94125747D01*
X96822532Y-94125747D01*
X96937436Y-94068295D01*
X96994889Y-94010842D01*
X97052341Y-93895938D01*
X97109794Y-93666128D01*
X97109794Y-93378866D01*
X97052341Y-93149057D01*
X96994889Y-93034152D01*
X96937436Y-92976700D01*
X96822532Y-92919247D01*
X101823005Y-112185147D02*
X101708101Y-112185147D01*
X101593196Y-112242600D01*
X101535744Y-112300052D01*
X101478291Y-112414957D01*
X101420839Y-112644766D01*
X101420839Y-112932028D01*
X101478291Y-113161838D01*
X101535744Y-113276742D01*
X101593196Y-113334195D01*
X101708101Y-113391647D01*
X101823005Y-113391647D01*
X101937910Y-113334195D01*
X101995363Y-113276742D01*
X102052815Y-113161838D01*
X102110267Y-112932028D01*
X102110267Y-112644766D01*
X102052815Y-112414957D01*
X101995363Y-112300052D01*
X101937910Y-112242600D01*
X101823005Y-112185147D01*
X100903767Y-113276742D02*
X100846315Y-113334195D01*
X100903767Y-113391647D01*
X100961220Y-113334195D01*
X100903767Y-113276742D01*
X100903767Y-113391647D01*
X100156886Y-112702219D02*
X100271791Y-112644766D01*
X100329244Y-112587314D01*
X100386696Y-112472409D01*
X100386696Y-112414957D01*
X100329244Y-112300052D01*
X100271791Y-112242600D01*
X100156886Y-112185147D01*
X99927077Y-112185147D01*
X99812172Y-112242600D01*
X99754720Y-112300052D01*
X99697267Y-112414957D01*
X99697267Y-112472409D01*
X99754720Y-112587314D01*
X99812172Y-112644766D01*
X99927077Y-112702219D01*
X100156886Y-112702219D01*
X100271791Y-112759671D01*
X100329244Y-112817123D01*
X100386696Y-112932028D01*
X100386696Y-113161838D01*
X100329244Y-113276742D01*
X100271791Y-113334195D01*
X100156886Y-113391647D01*
X99927077Y-113391647D01*
X99812172Y-113334195D01*
X99754720Y-113276742D01*
X99697267Y-113161838D01*
X99697267Y-112932028D01*
X99754720Y-112817123D01*
X99812172Y-112759671D01*
X99927077Y-112702219D01*
X99180196Y-113391647D02*
X99180196Y-112587314D01*
X99180196Y-112702219D02*
X99122744Y-112644766D01*
X99007839Y-112587314D01*
X98835482Y-112587314D01*
X98720577Y-112644766D01*
X98663125Y-112759671D01*
X98663125Y-113391647D01*
X98663125Y-112759671D02*
X98605672Y-112644766D01*
X98490767Y-112587314D01*
X98318410Y-112587314D01*
X98203505Y-112644766D01*
X98146053Y-112759671D01*
X98146053Y-113391647D01*
X97571529Y-113391647D02*
X97571529Y-112587314D01*
X97571529Y-112702219D02*
X97514077Y-112644766D01*
X97399172Y-112587314D01*
X97226815Y-112587314D01*
X97111910Y-112644766D01*
X97054458Y-112759671D01*
X97054458Y-113391647D01*
X97054458Y-112759671D02*
X96997005Y-112644766D01*
X96882101Y-112587314D01*
X96709744Y-112587314D01*
X96594839Y-112644766D01*
X96537386Y-112759671D01*
X96537386Y-113391647D01*
X100559053Y-115391897D02*
X100559053Y-114185397D01*
X100099434Y-114185397D01*
X99984529Y-114242850D01*
X99927077Y-114300302D01*
X99869625Y-114415207D01*
X99869625Y-114587564D01*
X99927077Y-114702469D01*
X99984529Y-114759921D01*
X100099434Y-114817373D01*
X100559053Y-114817373D01*
X99352553Y-115391897D02*
X99352553Y-114587564D01*
X99352553Y-114185397D02*
X99410005Y-114242850D01*
X99352553Y-114300302D01*
X99295101Y-114242850D01*
X99352553Y-114185397D01*
X99352553Y-114300302D01*
X98950386Y-114587564D02*
X98490767Y-114587564D01*
X98778029Y-114185397D02*
X98778029Y-115219540D01*
X98720577Y-115334445D01*
X98605672Y-115391897D01*
X98490767Y-115391897D01*
X97571529Y-115334445D02*
X97686434Y-115391897D01*
X97916244Y-115391897D01*
X98031148Y-115334445D01*
X98088601Y-115276992D01*
X98146053Y-115162088D01*
X98146053Y-114817373D01*
X98088601Y-114702469D01*
X98031148Y-114645016D01*
X97916244Y-114587564D01*
X97686434Y-114587564D01*
X97571529Y-114645016D01*
X97054458Y-115391897D02*
X97054458Y-114185397D01*
X96537386Y-115391897D02*
X96537386Y-114759921D01*
X96594839Y-114645016D01*
X96709744Y-114587564D01*
X96882101Y-114587564D01*
X96997005Y-114645016D01*
X97054458Y-114702469D01*
D13*
X125568044Y-107493102D02*
X125682949Y-107435650D01*
X125797854Y-107320745D01*
X125970211Y-107148388D01*
X126085116Y-107090935D01*
X126200020Y-107090935D01*
X126142568Y-107378197D02*
X126257473Y-107320745D01*
X126372378Y-107205840D01*
X126429830Y-106976030D01*
X126429830Y-106573864D01*
X126372378Y-106344054D01*
X126257473Y-106229150D01*
X126142568Y-106171697D01*
X125912759Y-106171697D01*
X125797854Y-106229150D01*
X125682949Y-106344054D01*
X125625497Y-106573864D01*
X125625497Y-106976030D01*
X125682949Y-107205840D01*
X125797854Y-107320745D01*
X125912759Y-107378197D01*
X126142568Y-107378197D01*
X124706259Y-106746221D02*
X125108425Y-106746221D01*
X125108425Y-107378197D02*
X125108425Y-106171697D01*
X124533901Y-106171697D01*
X124074282Y-107378197D02*
X124074282Y-106171697D01*
X123614663Y-106171697D01*
X123499759Y-106229150D01*
X123442306Y-106286602D01*
X123384854Y-106401507D01*
X123384854Y-106573864D01*
X123442306Y-106688769D01*
X123499759Y-106746221D01*
X123614663Y-106803673D01*
X124074282Y-106803673D01*
X122063449Y-107378197D02*
X121431473Y-106573864D01*
X122063449Y-106573864D02*
X121431473Y-107378197D01*
X120339878Y-107378197D02*
X121029306Y-107378197D01*
X120684592Y-107378197D02*
X120684592Y-106171697D01*
X120799497Y-106344054D01*
X120914401Y-106458959D01*
X121029306Y-106516411D01*
X119592997Y-106171697D02*
X119478092Y-106171697D01*
X119363187Y-106229150D01*
X119305735Y-106286602D01*
X119248282Y-106401507D01*
X119190830Y-106631316D01*
X119190830Y-106918578D01*
X119248282Y-107148388D01*
X119305735Y-107263292D01*
X119363187Y-107320745D01*
X119478092Y-107378197D01*
X119592997Y-107378197D01*
X119707901Y-107320745D01*
X119765354Y-107263292D01*
X119822806Y-107148388D01*
X119880259Y-106918578D01*
X119880259Y-106631316D01*
X119822806Y-106401507D01*
X119765354Y-106286602D01*
X119707901Y-106229150D01*
X119592997Y-106171697D01*
X118443949Y-106171697D02*
X118329044Y-106171697D01*
X118214140Y-106229150D01*
X118156687Y-106286602D01*
X118099235Y-106401507D01*
X118041782Y-106631316D01*
X118041782Y-106918578D01*
X118099235Y-107148388D01*
X118156687Y-107263292D01*
X118214140Y-107320745D01*
X118329044Y-107378197D01*
X118443949Y-107378197D01*
X118558854Y-107320745D01*
X118616306Y-107263292D01*
X118673759Y-107148388D01*
X118731211Y-106918578D01*
X118731211Y-106631316D01*
X118673759Y-106401507D01*
X118616306Y-106286602D01*
X118558854Y-106229150D01*
X118443949Y-106171697D01*
X126142568Y-108133847D02*
X126027663Y-108133847D01*
X125912759Y-108191300D01*
X125855306Y-108248752D01*
X125797854Y-108363657D01*
X125740401Y-108593466D01*
X125740401Y-108880728D01*
X125797854Y-109110538D01*
X125855306Y-109225442D01*
X125912759Y-109282895D01*
X126027663Y-109340347D01*
X126142568Y-109340347D01*
X126257473Y-109282895D01*
X126314925Y-109225442D01*
X126372378Y-109110538D01*
X126429830Y-108880728D01*
X126429830Y-108593466D01*
X126372378Y-108363657D01*
X126314925Y-108248752D01*
X126257473Y-108191300D01*
X126142568Y-108133847D01*
X125223330Y-109225442D02*
X125165878Y-109282895D01*
X125223330Y-109340347D01*
X125280782Y-109282895D01*
X125223330Y-109225442D01*
X125223330Y-109340347D01*
X124074282Y-108133847D02*
X124648806Y-108133847D01*
X124706259Y-108708371D01*
X124648806Y-108650919D01*
X124533901Y-108593466D01*
X124246640Y-108593466D01*
X124131735Y-108650919D01*
X124074282Y-108708371D01*
X124016830Y-108823276D01*
X124016830Y-109110538D01*
X124074282Y-109225442D01*
X124131735Y-109282895D01*
X124246640Y-109340347D01*
X124533901Y-109340347D01*
X124648806Y-109282895D01*
X124706259Y-109225442D01*
X123499759Y-109340347D02*
X123499759Y-108536014D01*
X123499759Y-108650919D02*
X123442306Y-108593466D01*
X123327401Y-108536014D01*
X123155044Y-108536014D01*
X123040140Y-108593466D01*
X122982687Y-108708371D01*
X122982687Y-109340347D01*
X122982687Y-108708371D02*
X122925235Y-108593466D01*
X122810330Y-108536014D01*
X122637973Y-108536014D01*
X122523068Y-108593466D01*
X122465616Y-108708371D01*
X122465616Y-109340347D01*
X121891092Y-109340347D02*
X121891092Y-108536014D01*
X121891092Y-108650919D02*
X121833640Y-108593466D01*
X121718735Y-108536014D01*
X121546378Y-108536014D01*
X121431473Y-108593466D01*
X121374020Y-108708371D01*
X121374020Y-109340347D01*
X121374020Y-108708371D02*
X121316568Y-108593466D01*
X121201663Y-108536014D01*
X121029306Y-108536014D01*
X120914401Y-108593466D01*
X120856949Y-108708371D01*
X120856949Y-109340347D01*
X119363187Y-109340347D02*
X119363187Y-108133847D01*
X118903568Y-108133847D01*
X118788663Y-108191300D01*
X118731211Y-108248752D01*
X118673759Y-108363657D01*
X118673759Y-108536014D01*
X118731211Y-108650919D01*
X118788663Y-108708371D01*
X118903568Y-108765823D01*
X119363187Y-108765823D01*
X118156687Y-109340347D02*
X118156687Y-108536014D01*
X118156687Y-108133847D02*
X118214140Y-108191300D01*
X118156687Y-108248752D01*
X118099235Y-108191300D01*
X118156687Y-108133847D01*
X118156687Y-108248752D01*
X117754520Y-108536014D02*
X117294901Y-108536014D01*
X117582163Y-108133847D02*
X117582163Y-109167990D01*
X117524711Y-109282895D01*
X117409806Y-109340347D01*
X117294901Y-109340347D01*
X116375663Y-109282895D02*
X116490568Y-109340347D01*
X116720378Y-109340347D01*
X116835282Y-109282895D01*
X116892735Y-109225442D01*
X116950187Y-109110538D01*
X116950187Y-108765823D01*
X116892735Y-108650919D01*
X116835282Y-108593466D01*
X116720378Y-108536014D01*
X116490568Y-108536014D01*
X116375663Y-108593466D01*
X115858592Y-109340347D02*
X115858592Y-108133847D01*
X115341520Y-109340347D02*
X115341520Y-108708371D01*
X115398973Y-108593466D01*
X115513878Y-108536014D01*
X115686235Y-108536014D01*
X115801140Y-108593466D01*
X115858592Y-108650919D01*
X140404063Y-110078761D02*
X140495987Y-110032800D01*
X140587911Y-109940876D01*
X140725797Y-109802990D01*
X140817720Y-109757028D01*
X140909644Y-109757028D01*
X140863682Y-109986838D02*
X140955606Y-109940876D01*
X141047530Y-109848952D01*
X141093492Y-109665104D01*
X141093492Y-109343371D01*
X141047530Y-109159523D01*
X140955606Y-109067600D01*
X140863682Y-109021638D01*
X140679835Y-109021638D01*
X140587911Y-109067600D01*
X140495987Y-109159523D01*
X140450025Y-109343371D01*
X140450025Y-109665104D01*
X140495987Y-109848952D01*
X140587911Y-109940876D01*
X140679835Y-109986838D01*
X140863682Y-109986838D01*
X139714635Y-109481257D02*
X140036368Y-109481257D01*
X140036368Y-109986838D02*
X140036368Y-109021638D01*
X139576749Y-109021638D01*
X139209054Y-109986838D02*
X139209054Y-109021638D01*
X138841359Y-109021638D01*
X138749435Y-109067600D01*
X138703473Y-109113561D01*
X138657511Y-109205485D01*
X138657511Y-109343371D01*
X138703473Y-109435295D01*
X138749435Y-109481257D01*
X138841359Y-109527219D01*
X139209054Y-109527219D01*
X137600387Y-109986838D02*
X137094806Y-109343371D01*
X137600387Y-109343371D02*
X137094806Y-109986838D01*
X136221530Y-109986838D02*
X136773073Y-109986838D01*
X136497301Y-109986838D02*
X136497301Y-109021638D01*
X136589225Y-109159523D01*
X136681149Y-109251447D01*
X136773073Y-109297409D01*
X135624025Y-109021638D02*
X135532101Y-109021638D01*
X135440178Y-109067600D01*
X135394216Y-109113561D01*
X135348254Y-109205485D01*
X135302292Y-109389333D01*
X135302292Y-109619142D01*
X135348254Y-109802990D01*
X135394216Y-109894914D01*
X135440178Y-109940876D01*
X135532101Y-109986838D01*
X135624025Y-109986838D01*
X135715949Y-109940876D01*
X135761911Y-109894914D01*
X135807873Y-109802990D01*
X135853835Y-109619142D01*
X135853835Y-109389333D01*
X135807873Y-109205485D01*
X135761911Y-109113561D01*
X135715949Y-109067600D01*
X135624025Y-109021638D01*
X134704787Y-109021638D02*
X134612863Y-109021638D01*
X134520940Y-109067600D01*
X134474978Y-109113561D01*
X134429016Y-109205485D01*
X134383054Y-109389333D01*
X134383054Y-109619142D01*
X134429016Y-109802990D01*
X134474978Y-109894914D01*
X134520940Y-109940876D01*
X134612863Y-109986838D01*
X134704787Y-109986838D01*
X134796711Y-109940876D01*
X134842673Y-109894914D01*
X134888635Y-109802990D01*
X134934597Y-109619142D01*
X134934597Y-109389333D01*
X134888635Y-109205485D01*
X134842673Y-109113561D01*
X134796711Y-109067600D01*
X134704787Y-109021638D01*
X140863682Y-110621838D02*
X140771759Y-110621838D01*
X140679835Y-110667800D01*
X140633873Y-110713761D01*
X140587911Y-110805685D01*
X140541949Y-110989533D01*
X140541949Y-111219342D01*
X140587911Y-111403190D01*
X140633873Y-111495114D01*
X140679835Y-111541076D01*
X140771759Y-111587038D01*
X140863682Y-111587038D01*
X140955606Y-111541076D01*
X141001568Y-111495114D01*
X141047530Y-111403190D01*
X141093492Y-111219342D01*
X141093492Y-110989533D01*
X141047530Y-110805685D01*
X141001568Y-110713761D01*
X140955606Y-110667800D01*
X140863682Y-110621838D01*
X140128292Y-111495114D02*
X140082330Y-111541076D01*
X140128292Y-111587038D01*
X140174254Y-111541076D01*
X140128292Y-111495114D01*
X140128292Y-111587038D01*
X139255016Y-110943571D02*
X139255016Y-111587038D01*
X139484825Y-110575876D02*
X139714635Y-111265304D01*
X139117130Y-111265304D01*
X138749435Y-111587038D02*
X138749435Y-110943571D01*
X138749435Y-111035495D02*
X138703473Y-110989533D01*
X138611549Y-110943571D01*
X138473663Y-110943571D01*
X138381740Y-110989533D01*
X138335778Y-111081457D01*
X138335778Y-111587038D01*
X138335778Y-111081457D02*
X138289816Y-110989533D01*
X138197892Y-110943571D01*
X138060006Y-110943571D01*
X137968082Y-110989533D01*
X137922120Y-111081457D01*
X137922120Y-111587038D01*
X137462501Y-111587038D02*
X137462501Y-110943571D01*
X137462501Y-111035495D02*
X137416540Y-110989533D01*
X137324616Y-110943571D01*
X137186730Y-110943571D01*
X137094806Y-110989533D01*
X137048844Y-111081457D01*
X137048844Y-111587038D01*
X137048844Y-111081457D02*
X137002882Y-110989533D01*
X136910959Y-110943571D01*
X136773073Y-110943571D01*
X136681149Y-110989533D01*
X136635187Y-111081457D01*
X136635187Y-111587038D01*
X135440178Y-111587038D02*
X135440178Y-110621838D01*
X135072482Y-110621838D01*
X134980559Y-110667800D01*
X134934597Y-110713761D01*
X134888635Y-110805685D01*
X134888635Y-110943571D01*
X134934597Y-111035495D01*
X134980559Y-111081457D01*
X135072482Y-111127419D01*
X135440178Y-111127419D01*
X134474978Y-111587038D02*
X134474978Y-110943571D01*
X134474978Y-110621838D02*
X134520940Y-110667800D01*
X134474978Y-110713761D01*
X134429016Y-110667800D01*
X134474978Y-110621838D01*
X134474978Y-110713761D01*
X134153244Y-110943571D02*
X133785549Y-110943571D01*
X134015359Y-110621838D02*
X134015359Y-111449152D01*
X133969397Y-111541076D01*
X133877473Y-111587038D01*
X133785549Y-111587038D01*
X133050159Y-111541076D02*
X133142082Y-111587038D01*
X133325930Y-111587038D01*
X133417854Y-111541076D01*
X133463816Y-111495114D01*
X133509778Y-111403190D01*
X133509778Y-111127419D01*
X133463816Y-111035495D01*
X133417854Y-110989533D01*
X133325930Y-110943571D01*
X133142082Y-110943571D01*
X133050159Y-110989533D01*
X132636501Y-111587038D02*
X132636501Y-110621838D01*
X132222844Y-111587038D02*
X132222844Y-111081457D01*
X132268806Y-110989533D01*
X132360730Y-110943571D01*
X132498616Y-110943571D01*
X132590540Y-110989533D01*
X132636501Y-111035495D01*
X154930444Y-106197702D02*
X155045349Y-106140250D01*
X155160254Y-106025345D01*
X155332611Y-105852988D01*
X155447516Y-105795535D01*
X155562420Y-105795535D01*
X155504968Y-106082797D02*
X155619873Y-106025345D01*
X155734778Y-105910440D01*
X155792230Y-105680630D01*
X155792230Y-105278464D01*
X155734778Y-105048654D01*
X155619873Y-104933750D01*
X155504968Y-104876297D01*
X155275159Y-104876297D01*
X155160254Y-104933750D01*
X155045349Y-105048654D01*
X154987897Y-105278464D01*
X154987897Y-105680630D01*
X155045349Y-105910440D01*
X155160254Y-106025345D01*
X155275159Y-106082797D01*
X155504968Y-106082797D01*
X154068659Y-105450821D02*
X154470825Y-105450821D01*
X154470825Y-106082797D02*
X154470825Y-104876297D01*
X153896301Y-104876297D01*
X153436682Y-106082797D02*
X153436682Y-104876297D01*
X152977063Y-104876297D01*
X152862159Y-104933750D01*
X152804706Y-104991202D01*
X152747254Y-105106107D01*
X152747254Y-105278464D01*
X152804706Y-105393369D01*
X152862159Y-105450821D01*
X152977063Y-105508273D01*
X153436682Y-105508273D01*
X151425849Y-106082797D02*
X150793873Y-105278464D01*
X151425849Y-105278464D02*
X150793873Y-106082797D01*
X150449159Y-104876297D02*
X149702278Y-104876297D01*
X150104444Y-105335916D01*
X149932087Y-105335916D01*
X149817182Y-105393369D01*
X149759730Y-105450821D01*
X149702278Y-105565726D01*
X149702278Y-105852988D01*
X149759730Y-105967892D01*
X149817182Y-106025345D01*
X149932087Y-106082797D01*
X150276801Y-106082797D01*
X150391706Y-106025345D01*
X150449159Y-105967892D01*
X149242659Y-104991202D02*
X149185206Y-104933750D01*
X149070301Y-104876297D01*
X148783040Y-104876297D01*
X148668135Y-104933750D01*
X148610682Y-104991202D01*
X148553230Y-105106107D01*
X148553230Y-105221011D01*
X148610682Y-105393369D01*
X149300111Y-106082797D01*
X148553230Y-106082797D01*
X155504968Y-106838447D02*
X155390063Y-106838447D01*
X155275159Y-106895900D01*
X155217706Y-106953352D01*
X155160254Y-107068257D01*
X155102801Y-107298066D01*
X155102801Y-107585328D01*
X155160254Y-107815138D01*
X155217706Y-107930042D01*
X155275159Y-107987495D01*
X155390063Y-108044947D01*
X155504968Y-108044947D01*
X155619873Y-107987495D01*
X155677325Y-107930042D01*
X155734778Y-107815138D01*
X155792230Y-107585328D01*
X155792230Y-107298066D01*
X155734778Y-107068257D01*
X155677325Y-106953352D01*
X155619873Y-106895900D01*
X155504968Y-106838447D01*
X154585730Y-107930042D02*
X154528278Y-107987495D01*
X154585730Y-108044947D01*
X154643182Y-107987495D01*
X154585730Y-107930042D01*
X154585730Y-108044947D01*
X153838849Y-107355519D02*
X153953754Y-107298066D01*
X154011206Y-107240614D01*
X154068659Y-107125709D01*
X154068659Y-107068257D01*
X154011206Y-106953352D01*
X153953754Y-106895900D01*
X153838849Y-106838447D01*
X153609040Y-106838447D01*
X153494135Y-106895900D01*
X153436682Y-106953352D01*
X153379230Y-107068257D01*
X153379230Y-107125709D01*
X153436682Y-107240614D01*
X153494135Y-107298066D01*
X153609040Y-107355519D01*
X153838849Y-107355519D01*
X153953754Y-107412971D01*
X154011206Y-107470423D01*
X154068659Y-107585328D01*
X154068659Y-107815138D01*
X154011206Y-107930042D01*
X153953754Y-107987495D01*
X153838849Y-108044947D01*
X153609040Y-108044947D01*
X153494135Y-107987495D01*
X153436682Y-107930042D01*
X153379230Y-107815138D01*
X153379230Y-107585328D01*
X153436682Y-107470423D01*
X153494135Y-107412971D01*
X153609040Y-107355519D01*
X152862159Y-108044947D02*
X152862159Y-107240614D01*
X152862159Y-107355519D02*
X152804706Y-107298066D01*
X152689801Y-107240614D01*
X152517444Y-107240614D01*
X152402540Y-107298066D01*
X152345087Y-107412971D01*
X152345087Y-108044947D01*
X152345087Y-107412971D02*
X152287635Y-107298066D01*
X152172730Y-107240614D01*
X152000373Y-107240614D01*
X151885468Y-107298066D01*
X151828016Y-107412971D01*
X151828016Y-108044947D01*
X151253492Y-108044947D02*
X151253492Y-107240614D01*
X151253492Y-107355519D02*
X151196040Y-107298066D01*
X151081135Y-107240614D01*
X150908778Y-107240614D01*
X150793873Y-107298066D01*
X150736420Y-107412971D01*
X150736420Y-108044947D01*
X150736420Y-107412971D02*
X150678968Y-107298066D01*
X150564063Y-107240614D01*
X150391706Y-107240614D01*
X150276801Y-107298066D01*
X150219349Y-107412971D01*
X150219349Y-108044947D01*
X148725587Y-108044947D02*
X148725587Y-106838447D01*
X148265968Y-106838447D01*
X148151063Y-106895900D01*
X148093611Y-106953352D01*
X148036159Y-107068257D01*
X148036159Y-107240614D01*
X148093611Y-107355519D01*
X148151063Y-107412971D01*
X148265968Y-107470423D01*
X148725587Y-107470423D01*
X147519087Y-108044947D02*
X147519087Y-107240614D01*
X147519087Y-106838447D02*
X147576540Y-106895900D01*
X147519087Y-106953352D01*
X147461635Y-106895900D01*
X147519087Y-106838447D01*
X147519087Y-106953352D01*
X147116920Y-107240614D02*
X146657301Y-107240614D01*
X146944563Y-106838447D02*
X146944563Y-107872590D01*
X146887111Y-107987495D01*
X146772206Y-108044947D01*
X146657301Y-108044947D01*
X145738063Y-107987495D02*
X145852968Y-108044947D01*
X146082778Y-108044947D01*
X146197682Y-107987495D01*
X146255135Y-107930042D01*
X146312587Y-107815138D01*
X146312587Y-107470423D01*
X146255135Y-107355519D01*
X146197682Y-107298066D01*
X146082778Y-107240614D01*
X145852968Y-107240614D01*
X145738063Y-107298066D01*
X145220992Y-108044947D02*
X145220992Y-106838447D01*
X144703920Y-108044947D02*
X144703920Y-107412971D01*
X144761373Y-107298066D01*
X144876278Y-107240614D01*
X145048635Y-107240614D01*
X145163540Y-107298066D01*
X145220992Y-107355519D01*
X121135744Y-100762102D02*
X121250649Y-100704650D01*
X121365554Y-100589745D01*
X121537911Y-100417388D01*
X121652816Y-100359935D01*
X121767720Y-100359935D01*
X121710268Y-100647197D02*
X121825173Y-100589745D01*
X121940078Y-100474840D01*
X121997530Y-100245030D01*
X121997530Y-99842864D01*
X121940078Y-99613054D01*
X121825173Y-99498150D01*
X121710268Y-99440697D01*
X121480459Y-99440697D01*
X121365554Y-99498150D01*
X121250649Y-99613054D01*
X121193197Y-99842864D01*
X121193197Y-100245030D01*
X121250649Y-100474840D01*
X121365554Y-100589745D01*
X121480459Y-100647197D01*
X121710268Y-100647197D01*
X120273959Y-100015221D02*
X120676125Y-100015221D01*
X120676125Y-100647197D02*
X120676125Y-99440697D01*
X120101601Y-99440697D01*
X119641982Y-100647197D02*
X119641982Y-99440697D01*
X119182363Y-99440697D01*
X119067459Y-99498150D01*
X119010006Y-99555602D01*
X118952554Y-99670507D01*
X118952554Y-99842864D01*
X119010006Y-99957769D01*
X119067459Y-100015221D01*
X119182363Y-100072673D01*
X119641982Y-100072673D01*
X122054982Y-102609347D02*
X121423006Y-101805014D01*
X122054982Y-101805014D02*
X121423006Y-102609347D01*
X121078292Y-101402847D02*
X120331411Y-101402847D01*
X120733578Y-101862466D01*
X120561220Y-101862466D01*
X120446316Y-101919919D01*
X120388863Y-101977371D01*
X120331411Y-102092276D01*
X120331411Y-102379538D01*
X120388863Y-102494442D01*
X120446316Y-102551895D01*
X120561220Y-102609347D01*
X120905935Y-102609347D01*
X121020840Y-102551895D01*
X121078292Y-102494442D01*
X119871792Y-101517752D02*
X119814340Y-101460300D01*
X119699435Y-101402847D01*
X119412173Y-101402847D01*
X119297268Y-101460300D01*
X119239816Y-101517752D01*
X119182363Y-101632657D01*
X119182363Y-101747561D01*
X119239816Y-101919919D01*
X119929244Y-102609347D01*
X119182363Y-102609347D01*
D14*
X82370022Y-115186242D02*
X82370022Y-114358928D01*
X80922222Y-114772585D02*
X82370022Y-114772585D01*
X80991165Y-113945270D02*
X80922222Y-113738442D01*
X80922222Y-113393728D01*
X80991165Y-113255842D01*
X81060108Y-113186899D01*
X81197994Y-113117956D01*
X81335880Y-113117956D01*
X81473765Y-113186899D01*
X81542708Y-113255842D01*
X81611651Y-113393728D01*
X81680594Y-113669499D01*
X81749537Y-113807385D01*
X81818480Y-113876328D01*
X81956365Y-113945270D01*
X82094251Y-113945270D01*
X82232137Y-113876328D01*
X82301080Y-113807385D01*
X82370022Y-113669499D01*
X82370022Y-113324785D01*
X82301080Y-113117956D01*
X82370022Y-112221699D02*
X82370022Y-111945928D01*
X82301080Y-111808042D01*
X82163194Y-111670156D01*
X81887422Y-111601213D01*
X81404822Y-111601213D01*
X81129051Y-111670156D01*
X80991165Y-111808042D01*
X80922222Y-111945928D01*
X80922222Y-112221699D01*
X80991165Y-112359585D01*
X81129051Y-112497470D01*
X81404822Y-112566413D01*
X81887422Y-112566413D01*
X82163194Y-112497470D01*
X82301080Y-112359585D01*
X82370022Y-112221699D01*
X80922222Y-110980728D02*
X82370022Y-110980728D01*
X82370022Y-110429185D01*
X82301080Y-110291299D01*
X82232137Y-110222356D01*
X82094251Y-110153413D01*
X81887422Y-110153413D01*
X81749537Y-110222356D01*
X81680594Y-110291299D01*
X81611651Y-110429185D01*
X81611651Y-110980728D01*
X81473765Y-109532928D02*
X81473765Y-108429842D01*
X82370022Y-107119928D02*
X82370022Y-107395699D01*
X82301080Y-107533585D01*
X82232137Y-107602528D01*
X82025308Y-107740413D01*
X81749537Y-107809356D01*
X81197994Y-107809356D01*
X81060108Y-107740413D01*
X80991165Y-107671470D01*
X80922222Y-107533585D01*
X80922222Y-107257813D01*
X80991165Y-107119928D01*
X81060108Y-107050985D01*
X81197994Y-106982042D01*
X81542708Y-106982042D01*
X81680594Y-107050985D01*
X81749537Y-107119928D01*
X81818480Y-107257813D01*
X81818480Y-107533585D01*
X81749537Y-107671470D01*
X81680594Y-107740413D01*
X81542708Y-107809356D01*
X82370022Y-105741070D02*
X82370022Y-106016842D01*
X82301080Y-106154728D01*
X82232137Y-106223670D01*
X82025308Y-106361556D01*
X81749537Y-106430499D01*
X81197994Y-106430499D01*
X81060108Y-106361556D01*
X80991165Y-106292613D01*
X80922222Y-106154728D01*
X80922222Y-105878956D01*
X80991165Y-105741070D01*
X81060108Y-105672128D01*
X81197994Y-105603185D01*
X81542708Y-105603185D01*
X81680594Y-105672128D01*
X81749537Y-105741070D01*
X81818480Y-105878956D01*
X81818480Y-106154728D01*
X81749537Y-106292613D01*
X81680594Y-106361556D01*
X81542708Y-106430499D01*
X80015442Y-114703642D02*
X80015442Y-114565756D01*
X79946500Y-114427870D01*
X79877557Y-114358928D01*
X79739671Y-114289985D01*
X79463900Y-114221042D01*
X79119185Y-114221042D01*
X78843414Y-114289985D01*
X78705528Y-114358928D01*
X78636585Y-114427870D01*
X78567642Y-114565756D01*
X78567642Y-114703642D01*
X78636585Y-114841528D01*
X78705528Y-114910470D01*
X78843414Y-114979413D01*
X79119185Y-115048356D01*
X79463900Y-115048356D01*
X79739671Y-114979413D01*
X79877557Y-114910470D01*
X79946500Y-114841528D01*
X80015442Y-114703642D01*
X78705528Y-113600556D02*
X78636585Y-113531613D01*
X78567642Y-113600556D01*
X78636585Y-113669499D01*
X78705528Y-113600556D01*
X78567642Y-113600556D01*
X80015442Y-112290642D02*
X80015442Y-112566413D01*
X79946500Y-112704299D01*
X79877557Y-112773242D01*
X79670728Y-112911128D01*
X79394957Y-112980070D01*
X78843414Y-112980070D01*
X78705528Y-112911128D01*
X78636585Y-112842185D01*
X78567642Y-112704299D01*
X78567642Y-112428528D01*
X78636585Y-112290642D01*
X78705528Y-112221699D01*
X78843414Y-112152756D01*
X79188128Y-112152756D01*
X79326014Y-112221699D01*
X79394957Y-112290642D01*
X79463900Y-112428528D01*
X79463900Y-112704299D01*
X79394957Y-112842185D01*
X79326014Y-112911128D01*
X79188128Y-112980070D01*
X80015442Y-110842842D02*
X80015442Y-111532270D01*
X79326014Y-111601213D01*
X79394957Y-111532270D01*
X79463900Y-111394385D01*
X79463900Y-111049670D01*
X79394957Y-110911785D01*
X79326014Y-110842842D01*
X79188128Y-110773899D01*
X78843414Y-110773899D01*
X78705528Y-110842842D01*
X78636585Y-110911785D01*
X78567642Y-111049670D01*
X78567642Y-111394385D01*
X78636585Y-111532270D01*
X78705528Y-111601213D01*
X78567642Y-110153413D02*
X79532842Y-110153413D01*
X79394957Y-110153413D02*
X79463900Y-110084470D01*
X79532842Y-109946585D01*
X79532842Y-109739756D01*
X79463900Y-109601870D01*
X79326014Y-109532928D01*
X78567642Y-109532928D01*
X79326014Y-109532928D02*
X79463900Y-109463985D01*
X79532842Y-109326099D01*
X79532842Y-109119270D01*
X79463900Y-108981385D01*
X79326014Y-108912442D01*
X78567642Y-108912442D01*
X78567642Y-108223013D02*
X79532842Y-108223013D01*
X79394957Y-108223013D02*
X79463900Y-108154070D01*
X79532842Y-108016185D01*
X79532842Y-107809356D01*
X79463900Y-107671470D01*
X79326014Y-107602528D01*
X78567642Y-107602528D01*
X79326014Y-107602528D02*
X79463900Y-107533585D01*
X79532842Y-107395699D01*
X79532842Y-107188870D01*
X79463900Y-107050985D01*
X79326014Y-106982042D01*
X78567642Y-106982042D01*
X78567642Y-105189528D02*
X80015442Y-105189528D01*
X80015442Y-104637985D01*
X79946500Y-104500099D01*
X79877557Y-104431156D01*
X79739671Y-104362213D01*
X79532842Y-104362213D01*
X79394957Y-104431156D01*
X79326014Y-104500099D01*
X79257071Y-104637985D01*
X79257071Y-105189528D01*
X78567642Y-103741728D02*
X79532842Y-103741728D01*
X80015442Y-103741728D02*
X79946500Y-103810670D01*
X79877557Y-103741728D01*
X79946500Y-103672785D01*
X80015442Y-103741728D01*
X79877557Y-103741728D01*
X79532842Y-103259128D02*
X79532842Y-102707585D01*
X80015442Y-103052299D02*
X78774471Y-103052299D01*
X78636585Y-102983356D01*
X78567642Y-102845470D01*
X78567642Y-102707585D01*
X78636585Y-101604499D02*
X78567642Y-101742385D01*
X78567642Y-102018156D01*
X78636585Y-102156042D01*
X78705528Y-102224985D01*
X78843414Y-102293928D01*
X79257071Y-102293928D01*
X79394957Y-102224985D01*
X79463900Y-102156042D01*
X79532842Y-102018156D01*
X79532842Y-101742385D01*
X79463900Y-101604499D01*
X78567642Y-100984013D02*
X80015442Y-100984013D01*
X78567642Y-100363528D02*
X79326014Y-100363528D01*
X79463900Y-100432470D01*
X79532842Y-100570356D01*
X79532842Y-100777185D01*
X79463900Y-100915070D01*
X79394957Y-100984013D01*
X88245042Y-106572013D02*
X89692842Y-106572013D01*
X89692842Y-106227299D01*
X89623900Y-106020470D01*
X89486014Y-105882585D01*
X89348128Y-105813642D01*
X89072357Y-105744699D01*
X88865528Y-105744699D01*
X88589757Y-105813642D01*
X88451871Y-105882585D01*
X88313985Y-106020470D01*
X88245042Y-106227299D01*
X88245042Y-106572013D01*
X88245042Y-105124213D02*
X89692842Y-105124213D01*
X89692842Y-104779499D01*
X89623900Y-104572670D01*
X89486014Y-104434785D01*
X89348128Y-104365842D01*
X89072357Y-104296899D01*
X88865528Y-104296899D01*
X88589757Y-104365842D01*
X88451871Y-104434785D01*
X88313985Y-104572670D01*
X88245042Y-104779499D01*
X88245042Y-105124213D01*
X88245042Y-102849099D02*
X88934471Y-103331699D01*
X88245042Y-103676413D02*
X89692842Y-103676413D01*
X89692842Y-103124870D01*
X89623900Y-102986985D01*
X89554957Y-102918042D01*
X89417071Y-102849099D01*
X89210242Y-102849099D01*
X89072357Y-102918042D01*
X89003414Y-102986985D01*
X88934471Y-103124870D01*
X88934471Y-103676413D01*
X89692842Y-102366499D02*
X89692842Y-101470242D01*
X89141300Y-101952842D01*
X89141300Y-101746013D01*
X89072357Y-101608128D01*
X89003414Y-101539185D01*
X88865528Y-101470242D01*
X88520814Y-101470242D01*
X88382928Y-101539185D01*
X88313985Y-101608128D01*
X88245042Y-101746013D01*
X88245042Y-102159670D01*
X88313985Y-102297556D01*
X88382928Y-102366499D01*
X88245042Y-98919356D02*
X88934471Y-99401956D01*
X88245042Y-99746670D02*
X89692842Y-99746670D01*
X89692842Y-99195128D01*
X89623900Y-99057242D01*
X89554957Y-98988299D01*
X89417071Y-98919356D01*
X89210242Y-98919356D01*
X89072357Y-98988299D01*
X89003414Y-99057242D01*
X88934471Y-99195128D01*
X88934471Y-99746670D01*
X88658700Y-98367813D02*
X88658700Y-97678385D01*
X88245042Y-98505699D02*
X89692842Y-98023099D01*
X88245042Y-97540499D01*
X88245042Y-97057899D02*
X89692842Y-97057899D01*
X88658700Y-96575299D01*
X89692842Y-96092699D01*
X88245042Y-96092699D01*
D13*
X89635511Y-93595371D02*
X89463154Y-93652823D01*
X89405701Y-93710276D01*
X89348249Y-93825180D01*
X89348249Y-93997538D01*
X89405701Y-94112442D01*
X89463154Y-94169895D01*
X89578059Y-94227347D01*
X90037678Y-94227347D01*
X90037678Y-93020847D01*
X89635511Y-93020847D01*
X89520606Y-93078300D01*
X89463154Y-93135752D01*
X89405701Y-93250657D01*
X89405701Y-93365561D01*
X89463154Y-93480466D01*
X89520606Y-93537919D01*
X89635511Y-93595371D01*
X90037678Y-93595371D01*
X88199201Y-93078300D02*
X88314106Y-93020847D01*
X88486463Y-93020847D01*
X88658820Y-93078300D01*
X88773725Y-93193204D01*
X88831178Y-93308109D01*
X88888630Y-93537919D01*
X88888630Y-93710276D01*
X88831178Y-93940085D01*
X88773725Y-94054990D01*
X88658820Y-94169895D01*
X88486463Y-94227347D01*
X88371559Y-94227347D01*
X88199201Y-94169895D01*
X88141749Y-94112442D01*
X88141749Y-93710276D01*
X88371559Y-93710276D01*
X87682130Y-93882633D02*
X87107606Y-93882633D01*
X87797035Y-94227347D02*
X87394868Y-93020847D01*
X86992701Y-94227347D01*
D15*
X92408500Y-109020066D02*
X92341833Y-109020066D01*
X92275166Y-109053400D01*
X92241833Y-109086733D01*
X92208500Y-109153400D01*
X92175166Y-109286733D01*
X92175166Y-109453400D01*
X92208500Y-109586733D01*
X92241833Y-109653400D01*
X92275166Y-109686733D01*
X92341833Y-109720066D01*
X92408500Y-109720066D01*
X92475166Y-109686733D01*
X92508500Y-109653400D01*
X92541833Y-109586733D01*
X92575166Y-109453400D01*
X92575166Y-109286733D01*
X92541833Y-109153400D01*
X92508500Y-109086733D01*
X92475166Y-109053400D01*
X92408500Y-109020066D01*
X91875166Y-109653400D02*
X91841833Y-109686733D01*
X91875166Y-109720066D01*
X91908500Y-109686733D01*
X91875166Y-109653400D01*
X91875166Y-109720066D01*
X91241833Y-109020066D02*
X91375166Y-109020066D01*
X91441833Y-109053400D01*
X91475166Y-109086733D01*
X91541833Y-109186733D01*
X91575166Y-109320066D01*
X91575166Y-109586733D01*
X91541833Y-109653400D01*
X91508500Y-109686733D01*
X91441833Y-109720066D01*
X91308500Y-109720066D01*
X91241833Y-109686733D01*
X91208500Y-109653400D01*
X91175166Y-109586733D01*
X91175166Y-109420066D01*
X91208500Y-109353400D01*
X91241833Y-109320066D01*
X91308500Y-109286733D01*
X91441833Y-109286733D01*
X91508500Y-109320066D01*
X91541833Y-109353400D01*
X91575166Y-109420066D01*
X90541833Y-109020066D02*
X90875166Y-109020066D01*
X90908500Y-109353400D01*
X90875166Y-109320066D01*
X90808500Y-109286733D01*
X90641833Y-109286733D01*
X90575166Y-109320066D01*
X90541833Y-109353400D01*
X90508500Y-109420066D01*
X90508500Y-109586733D01*
X90541833Y-109653400D01*
X90575166Y-109686733D01*
X90641833Y-109720066D01*
X90808500Y-109720066D01*
X90875166Y-109686733D01*
X90908500Y-109653400D01*
X90208500Y-109720066D02*
X90208500Y-109253400D01*
X90208500Y-109320066D02*
X90175166Y-109286733D01*
X90108500Y-109253400D01*
X90008500Y-109253400D01*
X89941833Y-109286733D01*
X89908500Y-109353400D01*
X89908500Y-109720066D01*
X89908500Y-109353400D02*
X89875166Y-109286733D01*
X89808500Y-109253400D01*
X89708500Y-109253400D01*
X89641833Y-109286733D01*
X89608500Y-109353400D01*
X89608500Y-109720066D01*
X89275166Y-109720066D02*
X89275166Y-109253400D01*
X89275166Y-109320066D02*
X89241833Y-109286733D01*
X89175166Y-109253400D01*
X89075166Y-109253400D01*
X89008500Y-109286733D01*
X88975166Y-109353400D01*
X88975166Y-109720066D01*
X88975166Y-109353400D02*
X88941833Y-109286733D01*
X88875166Y-109253400D01*
X88775166Y-109253400D01*
X88708500Y-109286733D01*
X88675166Y-109353400D01*
X88675166Y-109720066D01*
X87808500Y-109720066D02*
X87808500Y-109020066D01*
X87541833Y-109020066D01*
X87475166Y-109053400D01*
X87441833Y-109086733D01*
X87408500Y-109153400D01*
X87408500Y-109253400D01*
X87441833Y-109320066D01*
X87475166Y-109353400D01*
X87541833Y-109386733D01*
X87808500Y-109386733D01*
X87108500Y-109720066D02*
X87108500Y-109253400D01*
X87108500Y-109020066D02*
X87141833Y-109053400D01*
X87108500Y-109086733D01*
X87075166Y-109053400D01*
X87108500Y-109020066D01*
X87108500Y-109086733D01*
X86875166Y-109253400D02*
X86608500Y-109253400D01*
X86775166Y-109020066D02*
X86775166Y-109620066D01*
X86741833Y-109686733D01*
X86675166Y-109720066D01*
X86608500Y-109720066D01*
X86075166Y-109686733D02*
X86141833Y-109720066D01*
X86275166Y-109720066D01*
X86341833Y-109686733D01*
X86375166Y-109653400D01*
X86408500Y-109586733D01*
X86408500Y-109386733D01*
X86375166Y-109320066D01*
X86341833Y-109286733D01*
X86275166Y-109253400D01*
X86141833Y-109253400D01*
X86075166Y-109286733D01*
X85775166Y-109720066D02*
X85775166Y-109020066D01*
X85475166Y-109720066D02*
X85475166Y-109353400D01*
X85508500Y-109286733D01*
X85575166Y-109253400D01*
X85675166Y-109253400D01*
X85741833Y-109286733D01*
X85775166Y-109320066D01*
D10*
X121751800Y-114455600D02*
X121751800Y-115155600D01*
X121751800Y-115155600D02*
X121751800Y-115855600D01*
X121751800Y-115155600D02*
X122951800Y-114455600D01*
X122951800Y-114455600D02*
X122951800Y-115155600D01*
X122951800Y-115155600D02*
X122951800Y-115855600D01*
X122951800Y-115855600D02*
X121751800Y-115155600D01*
X122951800Y-115155600D02*
X127351800Y-115155600D01*
X121751800Y-115155600D02*
X116851800Y-115155600D01*
X160953200Y-106451400D02*
G75*
G03X160953200Y-106451400I-2000000J0D01*
G01*
X159953200Y-107451400D02*
X162453200Y-107451400D01*
D16*
X159953200Y-107451400D02*
X159953200Y-105451400D01*
X159453200Y-107751400D02*
X159453200Y-107551400D01*
X159453200Y-107551400D02*
X159453200Y-107251400D01*
X159453200Y-106701400D02*
X159453200Y-106451400D01*
X159453200Y-106451400D02*
X159453200Y-106201400D01*
X159453200Y-105651400D02*
X159453200Y-105351400D01*
X159453200Y-105351400D02*
X159453200Y-105151400D01*
X159453200Y-106451400D02*
X159353200Y-106451400D01*
D10*
X159353200Y-106451400D02*
X158553200Y-105951400D01*
X158553200Y-105951400D02*
X158553200Y-106451400D01*
X158553200Y-106451400D02*
X158553200Y-106951400D01*
X158553200Y-106951400D02*
X159353200Y-106451400D01*
X158553200Y-106451400D02*
X157953200Y-106451400D01*
X157953200Y-106451400D02*
X157953200Y-107551400D01*
X157953200Y-107551400D02*
X157953200Y-109951400D01*
X159453200Y-107551400D02*
X157953200Y-107551400D01*
X159453200Y-105351400D02*
X157953200Y-105351400D01*
D15*
G36*
X159353200Y-106451400D02*
X158553200Y-105951400D01*
X158553200Y-106951400D01*
X159353200Y-106451400D01*
G37*
D10*
X157953200Y-102951400D02*
X157953200Y-105351400D01*
D15*
X157403200Y-103901400D02*
X157403200Y-103001400D01*
X157403200Y-103001400D02*
X157053200Y-103001400D01*
X157053200Y-103001400D02*
X156803200Y-103251400D01*
X156803200Y-103251400D02*
X156803200Y-103651400D01*
X156803200Y-103651400D02*
X157053200Y-103901400D01*
X157053200Y-103901400D02*
X157403200Y-103901400D01*
X154535827Y-116123013D02*
X154885827Y-116123013D01*
X154285827Y-115873013D02*
X154535827Y-116123013D01*
X154285827Y-115473013D02*
X154285827Y-115873013D01*
X154535827Y-115223013D02*
X154285827Y-115473013D01*
X154885827Y-115223013D02*
X154535827Y-115223013D01*
X154885827Y-116123013D02*
X154885827Y-115223013D01*
G36*
X156435827Y-112273013D02*
X155635827Y-112673013D01*
X156435827Y-113073013D01*
X156435827Y-112273013D01*
G37*
D10*
X155435827Y-112673013D02*
X155435827Y-111573013D01*
X155635827Y-112673013D02*
X155435827Y-112673013D01*
X156935827Y-112673013D02*
X156435827Y-112673013D01*
X155635827Y-112673013D02*
X156435827Y-112273013D01*
X156435827Y-113073013D02*
X155635827Y-112673013D01*
X156435827Y-112673013D02*
X156435827Y-113073013D01*
X156435827Y-112273013D02*
X156435827Y-112673013D01*
X155435827Y-109173013D02*
X155435827Y-111573013D01*
X156935827Y-111573013D02*
X155435827Y-111573013D01*
X156935827Y-113773013D02*
X155435827Y-113773013D01*
X155435827Y-113773013D02*
X155435827Y-116173013D01*
D16*
X156935827Y-111573013D02*
X156935827Y-111373013D01*
X156935827Y-111873013D02*
X156935827Y-111573013D01*
X156935827Y-112673013D02*
X156935827Y-112423013D01*
X156935827Y-112923013D02*
X156935827Y-112673013D01*
X156935827Y-113773013D02*
X156935827Y-113473013D01*
X156935827Y-113973013D02*
X156935827Y-113773013D01*
X157435827Y-111673013D02*
X157435827Y-113673013D01*
D10*
X157435827Y-111673013D02*
X159935827Y-111673013D01*
X158435827Y-112673013D02*
G75*
G03X158435827Y-112673013I-2000000J0D01*
G01*
D17*
X131590800Y-116144400D02*
X131590800Y-116744400D01*
X131890800Y-116444400D02*
X131290800Y-116444400D01*
D15*
G36*
X130190800Y-111744400D02*
X129090800Y-111744400D01*
X129090800Y-113344400D01*
X129690800Y-113344400D01*
X129690800Y-112244400D01*
X130190800Y-111744400D01*
G37*
G36*
X130690800Y-111944400D02*
X130190800Y-112444400D01*
X130190800Y-113344400D01*
X130690800Y-113344400D01*
X130690800Y-111944400D01*
G37*
D17*
X128390800Y-114484400D02*
X128240800Y-114634400D01*
X128700800Y-114484400D02*
X128390800Y-114484400D01*
X128840800Y-114624400D02*
X128700800Y-114484400D01*
X128840800Y-115244400D02*
X128840800Y-114624400D01*
X128690800Y-115394400D02*
X128840800Y-115244400D01*
X128380800Y-115394400D02*
X128690800Y-115394400D01*
X128220800Y-115234400D02*
X128380800Y-115394400D01*
X131880800Y-115054400D02*
X131280800Y-115054400D01*
X131270800Y-114794400D02*
X131270800Y-115414400D01*
X131570800Y-114494400D02*
X131270800Y-114794400D01*
X131880800Y-114804400D02*
X131570800Y-114494400D01*
X131880800Y-115054400D02*
X131880800Y-114804400D01*
X131880800Y-115414400D02*
X131880800Y-115054400D01*
D10*
X129390800Y-113944400D02*
X129390800Y-115944400D01*
X130690800Y-113944400D02*
X130690800Y-116944400D01*
X128590800Y-111544400D02*
G75*
G02X129890800Y-110244400I1300000J0D01*
G01*
X129890799Y-110244399D02*
G75*
G02X131190800Y-111544400I0J-1300001D01*
G01*
X129090800Y-111744400D02*
X129090800Y-113344400D01*
X130190800Y-111744400D02*
X129090800Y-111744400D01*
X129690800Y-112244400D02*
X129690800Y-113344400D01*
X130190800Y-111744400D02*
X129690800Y-112244400D01*
X130190800Y-112444400D02*
X130190800Y-113344400D01*
X130690800Y-111944400D02*
X130190800Y-112444400D01*
X130690800Y-113344400D02*
X130690800Y-111944400D01*
X128590800Y-111544400D02*
X128590800Y-113344400D01*
X131190800Y-113344400D02*
X131190800Y-111544400D01*
X131690800Y-113344400D02*
X131690800Y-113944400D01*
X131190800Y-113344400D02*
X131690800Y-113344400D01*
X130690800Y-113344400D02*
X131190800Y-113344400D01*
X130190800Y-113344400D02*
X130690800Y-113344400D01*
X129690800Y-113344400D02*
X130190800Y-113344400D01*
X129090800Y-113344400D02*
X129690800Y-113344400D01*
X128590800Y-113344400D02*
X129090800Y-113344400D01*
X128590800Y-113944400D02*
X128590800Y-113344400D01*
X129390800Y-113944400D02*
X128590800Y-113944400D01*
X130690800Y-113944400D02*
X129390800Y-113944400D01*
X131690800Y-113944400D02*
X130690800Y-113944400D01*
X150215600Y-110276000D02*
X150215600Y-109676000D01*
X150515600Y-109976000D02*
X149915600Y-109976000D01*
D18*
X151015600Y-112776000D02*
X153215600Y-112776000D01*
D15*
G36*
X149515600Y-114576000D02*
X150415600Y-114376000D01*
X149815600Y-113676000D01*
X149515600Y-114576000D01*
G37*
D18*
X152215600Y-112776000D02*
G75*
G03X152215600Y-112776000I-2000000J0D01*
G01*
X149515600Y-114576000D02*
X149515600Y-115776000D01*
X151015600Y-113276000D02*
X149515600Y-114576000D01*
X149515600Y-110976000D02*
X149515600Y-109776000D01*
X151015600Y-112276000D02*
X149515600Y-110976000D01*
D15*
G36*
X151115600Y-113976000D02*
X150815600Y-113976000D01*
X150815600Y-111576000D01*
X151115600Y-111576000D01*
X151115600Y-113976000D01*
G37*
D10*
X90781325Y-111475238D02*
G75*
G03X90781325Y-111475238I-316225J0D01*
G01*
X89565100Y-110775238D02*
G75*
G02X88565100Y-110775238I-500000J0D01*
G01*
X86465100Y-116875238D02*
X86465100Y-116675238D01*
X91465100Y-116875238D02*
X86465100Y-116875238D01*
X91465100Y-116675238D02*
X91465100Y-116875238D01*
X91465100Y-110775238D02*
X91465100Y-110975238D01*
X89565100Y-110775238D02*
X91465100Y-110775238D01*
X86465100Y-110775238D02*
X88565100Y-110775238D01*
X86465100Y-110775238D02*
X86465100Y-110975238D01*
D13*
X107369100Y-112327638D02*
X108775100Y-112327638D01*
D10*
X106572100Y-112389638D02*
G75*
G03X106972100Y-112789638I400000J0D01*
G01*
X106972100Y-112789638D02*
G75*
G03X107372100Y-112389638I0J400000D01*
G01*
D19*
X108142700Y-112886238D02*
G75*
G03X108142700Y-112886238I-180000J0D01*
G01*
D13*
X105169100Y-112327638D02*
X106575100Y-112327638D01*
X108775100Y-117051638D02*
X105169100Y-117051638D01*
D18*
X153021300Y-97246438D02*
X153371300Y-97596438D01*
X149371300Y-97246438D02*
X149721300Y-97246438D01*
X149371300Y-97596438D02*
X149371300Y-97246438D01*
X153371300Y-101246438D02*
X153371300Y-100896438D01*
X153021300Y-101246438D02*
X153371300Y-101246438D01*
X149371300Y-100896438D02*
X149371300Y-101246438D01*
X149721300Y-101246438D02*
X149371300Y-101246438D01*
D10*
X140480000Y-98276000D02*
G75*
G03X140480000Y-98276000I-250000J0D01*
G01*
X135930000Y-97576000D02*
X140930000Y-97576000D01*
X135930000Y-102576000D02*
X135930000Y-97576000D01*
X140930000Y-102576000D02*
X135930000Y-102576000D01*
X140930000Y-97576000D02*
X140930000Y-102576000D01*
D15*
G36*
X145231356Y-114046236D02*
X144931356Y-114046236D01*
X144931356Y-111646236D01*
X145231356Y-111646236D01*
X145231356Y-114046236D01*
G37*
D18*
X145131356Y-112446236D02*
X143631356Y-111046236D01*
X143631356Y-111046236D02*
X143631356Y-109846236D01*
X145131356Y-113346236D02*
X143631356Y-114646236D01*
X143631356Y-114646236D02*
X143631356Y-115846236D01*
X146331356Y-112846236D02*
G75*
G03X146331356Y-112846236I-2000000J0D01*
G01*
X145131356Y-112846236D02*
X147331356Y-112846236D01*
D10*
X144631356Y-110046236D02*
X144031356Y-110046236D01*
X144331356Y-110346236D02*
X144331356Y-109746236D01*
D15*
G36*
X145031356Y-112346236D02*
X144531356Y-111346236D01*
X144031356Y-111946236D01*
X145031356Y-112346236D01*
G37*
D10*
X127455600Y-96974800D02*
G75*
G03X127455600Y-96974800I-250000J0D01*
G01*
X114005600Y-96174800D02*
X114005600Y-110174800D01*
X128005600Y-96174800D02*
X114005600Y-96174800D01*
X128005600Y-110174800D02*
X128005600Y-96174800D01*
X114005600Y-110174800D02*
X128005600Y-110174800D01*
X110468300Y-94598600D02*
X110468300Y-111598600D01*
X93468300Y-94598600D02*
X110468300Y-94598600D01*
X93468300Y-111598600D02*
X93468300Y-94598600D01*
X110468300Y-111598600D02*
X93468300Y-111598600D01*
X143365700Y-96342800D02*
G75*
G03X143365700Y-96342800I-250000J0D01*
G01*
X143815700Y-106642800D02*
X132815700Y-106642800D01*
X143815700Y-95642800D02*
X143815700Y-106642800D01*
X132815700Y-95642800D02*
X143815700Y-95642800D01*
X132815700Y-106642800D02*
X132815700Y-95642800D01*
X154955500Y-96386200D02*
G75*
G03X154955500Y-96386200I-250000J0D01*
G01*
X148550500Y-95731200D02*
X148550500Y-102541200D01*
X155360500Y-95731200D02*
X148550500Y-95731200D01*
X155360500Y-102541200D02*
X155360500Y-95731200D01*
X148550500Y-102541200D02*
X155360500Y-102541200D01*
X122954000Y-99165000D02*
G75*
G03X122954000Y-99165000I-250000J0D01*
G01*
X118404000Y-98465000D02*
X123404000Y-98465000D01*
X118404000Y-103465000D02*
X118404000Y-98465000D01*
X123404000Y-103465000D02*
X118404000Y-103465000D01*
X123404000Y-98465000D02*
X123404000Y-103465000D01*
X83070700Y-116139000D02*
X83070700Y-93919000D01*
X83070700Y-93919000D02*
X72910700Y-93919000D01*
X72910700Y-93919000D02*
X72910700Y-116139000D01*
X72910700Y-116139000D02*
X83070700Y-116139000D01*
X73940700Y-115329000D02*
G75*
G03X73940700Y-115329000I-250000J0D01*
G01*
X92938100Y-108701600D02*
X92938100Y-94701600D01*
X84938100Y-108701600D02*
X92938100Y-108701600D01*
X84938100Y-94701600D02*
X84938100Y-108701600D01*
X92938100Y-94701600D02*
X84938100Y-94701600D01*
D11*
X127232712Y-114257666D02*
X126773093Y-114257666D01*
X127324636Y-114533438D02*
X127002902Y-113568238D01*
X126681169Y-114533438D01*
X126359436Y-113889971D02*
X126359436Y-114533438D01*
X126359436Y-113981895D02*
X126313474Y-113935933D01*
X126221550Y-113889971D01*
X126083664Y-113889971D01*
X125991740Y-113935933D01*
X125945779Y-114027857D01*
X125945779Y-114533438D01*
X125348274Y-114533438D02*
X125440198Y-114487476D01*
X125486160Y-114441514D01*
X125532121Y-114349590D01*
X125532121Y-114073819D01*
X125486160Y-113981895D01*
X125440198Y-113935933D01*
X125348274Y-113889971D01*
X125210388Y-113889971D01*
X125118464Y-113935933D01*
X125072502Y-113981895D01*
X125026540Y-114073819D01*
X125026540Y-114349590D01*
X125072502Y-114441514D01*
X125118464Y-114487476D01*
X125210388Y-114533438D01*
X125348274Y-114533438D01*
X124199226Y-114533438D02*
X124199226Y-113568238D01*
X124199226Y-114487476D02*
X124291150Y-114533438D01*
X124474998Y-114533438D01*
X124566921Y-114487476D01*
X124612883Y-114441514D01*
X124658845Y-114349590D01*
X124658845Y-114073819D01*
X124612883Y-113981895D01*
X124566921Y-113935933D01*
X124474998Y-113889971D01*
X124291150Y-113889971D01*
X124199226Y-113935933D01*
X123371912Y-114487476D02*
X123463836Y-114533438D01*
X123647683Y-114533438D01*
X123739607Y-114487476D01*
X123785569Y-114395552D01*
X123785569Y-114027857D01*
X123739607Y-113935933D01*
X123647683Y-113889971D01*
X123463836Y-113889971D01*
X123371912Y-113935933D01*
X123325950Y-114027857D01*
X123325950Y-114119780D01*
X123785569Y-114211704D01*
X120889969Y-114441514D02*
X120935931Y-114487476D01*
X121073817Y-114533438D01*
X121165740Y-114533438D01*
X121303626Y-114487476D01*
X121395550Y-114395552D01*
X121441512Y-114303628D01*
X121487474Y-114119780D01*
X121487474Y-113981895D01*
X121441512Y-113798047D01*
X121395550Y-113706123D01*
X121303626Y-113614200D01*
X121165740Y-113568238D01*
X121073817Y-113568238D01*
X120935931Y-113614200D01*
X120889969Y-113660161D01*
X120062655Y-114533438D02*
X120062655Y-114027857D01*
X120108617Y-113935933D01*
X120200540Y-113889971D01*
X120384388Y-113889971D01*
X120476312Y-113935933D01*
X120062655Y-114487476D02*
X120154579Y-114533438D01*
X120384388Y-114533438D01*
X120476312Y-114487476D01*
X120522274Y-114395552D01*
X120522274Y-114303628D01*
X120476312Y-114211704D01*
X120384388Y-114165742D01*
X120154579Y-114165742D01*
X120062655Y-114119780D01*
X119740921Y-113889971D02*
X119373226Y-113889971D01*
X119603036Y-113568238D02*
X119603036Y-114395552D01*
X119557074Y-114487476D01*
X119465150Y-114533438D01*
X119373226Y-114533438D01*
X119051493Y-114533438D02*
X119051493Y-113568238D01*
X118637836Y-114533438D02*
X118637836Y-114027857D01*
X118683798Y-113935933D01*
X118775721Y-113889971D01*
X118913607Y-113889971D01*
X119005531Y-113935933D01*
X119051493Y-113981895D01*
X118040331Y-114533438D02*
X118132255Y-114487476D01*
X118178217Y-114441514D01*
X118224179Y-114349590D01*
X118224179Y-114073819D01*
X118178217Y-113981895D01*
X118132255Y-113935933D01*
X118040331Y-113889971D01*
X117902445Y-113889971D01*
X117810521Y-113935933D01*
X117764560Y-113981895D01*
X117718598Y-114073819D01*
X117718598Y-114349590D01*
X117764560Y-114441514D01*
X117810521Y-114487476D01*
X117902445Y-114533438D01*
X118040331Y-114533438D01*
X116891283Y-114533438D02*
X116891283Y-113568238D01*
X116891283Y-114487476D02*
X116983207Y-114533438D01*
X117167055Y-114533438D01*
X117258979Y-114487476D01*
X117304940Y-114441514D01*
X117350902Y-114349590D01*
X117350902Y-114073819D01*
X117304940Y-113981895D01*
X117258979Y-113935933D01*
X117167055Y-113889971D01*
X116983207Y-113889971D01*
X116891283Y-113935933D01*
X116063969Y-114487476D02*
X116155893Y-114533438D01*
X116339740Y-114533438D01*
X116431664Y-114487476D01*
X116477626Y-114395552D01*
X116477626Y-114027857D01*
X116431664Y-113935933D01*
X116339740Y-113889971D01*
X116155893Y-113889971D01*
X116063969Y-113935933D01*
X116018007Y-114027857D01*
X116018007Y-114119780D01*
X116477626Y-114211704D01*
X124595950Y-115941942D02*
X123860560Y-115941942D01*
X124228255Y-116309638D02*
X124228255Y-115574247D01*
X120785950Y-115841942D02*
X120050560Y-115841942D01*
X161651769Y-105986200D02*
X161743693Y-105940238D01*
X161881579Y-105940238D01*
X162019464Y-105986200D01*
X162111388Y-106078123D01*
X162157350Y-106170047D01*
X162203312Y-106353895D01*
X162203312Y-106491780D01*
X162157350Y-106675628D01*
X162111388Y-106767552D01*
X162019464Y-106859476D01*
X161881579Y-106905438D01*
X161789655Y-106905438D01*
X161651769Y-106859476D01*
X161605807Y-106813514D01*
X161605807Y-106491780D01*
X161789655Y-106491780D01*
X157203312Y-109859476D02*
X157065426Y-109905438D01*
X156835617Y-109905438D01*
X156743693Y-109859476D01*
X156697731Y-109813514D01*
X156651769Y-109721590D01*
X156651769Y-109629666D01*
X156697731Y-109537742D01*
X156743693Y-109491780D01*
X156835617Y-109445819D01*
X157019464Y-109399857D01*
X157111388Y-109353895D01*
X157157350Y-109307933D01*
X157203312Y-109216009D01*
X157203312Y-109124085D01*
X157157350Y-109032161D01*
X157111388Y-108986200D01*
X157019464Y-108940238D01*
X156789655Y-108940238D01*
X156651769Y-108986200D01*
X158657350Y-103537742D02*
X157921960Y-103537742D01*
X158289655Y-103905438D02*
X158289655Y-103170047D01*
X162334078Y-109870638D02*
X162334078Y-108905438D01*
X161782535Y-109870638D01*
X161782535Y-108905438D01*
X161322916Y-109870638D02*
X161322916Y-108905438D01*
X161001182Y-109594866D01*
X160679449Y-108905438D01*
X160679449Y-109870638D01*
X160035982Y-108905438D02*
X159852135Y-108905438D01*
X159760211Y-108951400D01*
X159668287Y-109043323D01*
X159622325Y-109227171D01*
X159622325Y-109548904D01*
X159668287Y-109732752D01*
X159760211Y-109824676D01*
X159852135Y-109870638D01*
X160035982Y-109870638D01*
X160127906Y-109824676D01*
X160219830Y-109732752D01*
X160265792Y-109548904D01*
X160265792Y-109227171D01*
X160219830Y-109043323D01*
X160127906Y-108951400D01*
X160035982Y-108905438D01*
X159254630Y-109824676D02*
X159116744Y-109870638D01*
X158886935Y-109870638D01*
X158795011Y-109824676D01*
X158749049Y-109778714D01*
X158703087Y-109686790D01*
X158703087Y-109594866D01*
X158749049Y-109502942D01*
X158795011Y-109456980D01*
X158886935Y-109411019D01*
X159070782Y-109365057D01*
X159162706Y-109319095D01*
X159208668Y-109273133D01*
X159254630Y-109181209D01*
X159254630Y-109089285D01*
X159208668Y-108997361D01*
X159162706Y-108951400D01*
X159070782Y-108905438D01*
X158840973Y-108905438D01*
X158703087Y-108951400D01*
X159632477Y-116081451D02*
X159632477Y-115116251D01*
X159264782Y-115116251D01*
X159172858Y-115162213D01*
X159126896Y-115208174D01*
X159080934Y-115300098D01*
X159080934Y-115437984D01*
X159126896Y-115529908D01*
X159172858Y-115575870D01*
X159264782Y-115621832D01*
X159632477Y-115621832D01*
X158667277Y-116081451D02*
X158667277Y-115116251D01*
X158345544Y-115805679D01*
X158023810Y-115116251D01*
X158023810Y-116081451D01*
X157380344Y-115116251D02*
X157196496Y-115116251D01*
X157104572Y-115162213D01*
X157012648Y-115254136D01*
X156966687Y-115437984D01*
X156966687Y-115759717D01*
X157012648Y-115943565D01*
X157104572Y-116035489D01*
X157196496Y-116081451D01*
X157380344Y-116081451D01*
X157472267Y-116035489D01*
X157564191Y-115943565D01*
X157610153Y-115759717D01*
X157610153Y-115437984D01*
X157564191Y-115254136D01*
X157472267Y-115162213D01*
X157380344Y-115116251D01*
X156598991Y-116035489D02*
X156461106Y-116081451D01*
X156231296Y-116081451D01*
X156139372Y-116035489D01*
X156093410Y-115989527D01*
X156047448Y-115897603D01*
X156047448Y-115805679D01*
X156093410Y-115713755D01*
X156139372Y-115667793D01*
X156231296Y-115621832D01*
X156415144Y-115575870D01*
X156507067Y-115529908D01*
X156553029Y-115483946D01*
X156598991Y-115392022D01*
X156598991Y-115300098D01*
X156553029Y-115208174D01*
X156507067Y-115162213D01*
X156415144Y-115116251D01*
X156185334Y-115116251D01*
X156047448Y-115162213D01*
X156139977Y-109759355D02*
X155404587Y-109759355D01*
X155772282Y-110127051D02*
X155772282Y-109391660D01*
X154685939Y-110081089D02*
X154548053Y-110127051D01*
X154318244Y-110127051D01*
X154226320Y-110081089D01*
X154180358Y-110035127D01*
X154134396Y-109943203D01*
X154134396Y-109851279D01*
X154180358Y-109759355D01*
X154226320Y-109713393D01*
X154318244Y-109667432D01*
X154502091Y-109621470D01*
X154594015Y-109575508D01*
X154639977Y-109529546D01*
X154685939Y-109437622D01*
X154685939Y-109345698D01*
X154639977Y-109253774D01*
X154594015Y-109207813D01*
X154502091Y-109161851D01*
X154272282Y-109161851D01*
X154134396Y-109207813D01*
X159134396Y-112207813D02*
X159226320Y-112161851D01*
X159364206Y-112161851D01*
X159502091Y-112207813D01*
X159594015Y-112299736D01*
X159639977Y-112391660D01*
X159685939Y-112575508D01*
X159685939Y-112713393D01*
X159639977Y-112897241D01*
X159594015Y-112989165D01*
X159502091Y-113081089D01*
X159364206Y-113127051D01*
X159272282Y-113127051D01*
X159134396Y-113081089D01*
X159088434Y-113035127D01*
X159088434Y-112713393D01*
X159272282Y-112713393D01*
X153209050Y-116082838D02*
X153209050Y-115117638D01*
X152657507Y-116082838D01*
X152657507Y-115117638D01*
X152197888Y-116082838D02*
X152197888Y-115117638D01*
X151830193Y-115117638D01*
X151738269Y-115163600D01*
X151692307Y-115209561D01*
X151646345Y-115301485D01*
X151646345Y-115439371D01*
X151692307Y-115531295D01*
X151738269Y-115577257D01*
X151830193Y-115623219D01*
X152197888Y-115623219D01*
X151232688Y-116082838D02*
X151232688Y-115117638D01*
X150681145Y-116082838D01*
X150681145Y-115117638D01*
X152598017Y-111924457D02*
X152460131Y-111970419D01*
X152414169Y-112016380D01*
X152368207Y-112108304D01*
X152368207Y-112246190D01*
X152414169Y-112338114D01*
X152460131Y-112384076D01*
X152552055Y-112430038D01*
X152919750Y-112430038D01*
X152919750Y-111464838D01*
X152598017Y-111464838D01*
X152506093Y-111510800D01*
X152460131Y-111556761D01*
X152414169Y-111648685D01*
X152414169Y-111740609D01*
X152460131Y-111832533D01*
X152506093Y-111878495D01*
X152598017Y-111924457D01*
X152919750Y-111924457D01*
X148268207Y-110538114D02*
X148314169Y-110584076D01*
X148452055Y-110630038D01*
X148543979Y-110630038D01*
X148681864Y-110584076D01*
X148773788Y-110492152D01*
X148819750Y-110400228D01*
X148865712Y-110216380D01*
X148865712Y-110078495D01*
X148819750Y-109894647D01*
X148773788Y-109802723D01*
X148681864Y-109710800D01*
X148543979Y-109664838D01*
X148452055Y-109664838D01*
X148314169Y-109710800D01*
X148268207Y-109756761D01*
X148819750Y-115424457D02*
X148498017Y-115424457D01*
X148360131Y-115930038D02*
X148819750Y-115930038D01*
X148819750Y-114964838D01*
X148360131Y-114964838D01*
X142383963Y-115908350D02*
X142429925Y-115954312D01*
X142567811Y-116000274D01*
X142659735Y-116000274D01*
X142797620Y-115954312D01*
X142889544Y-115862388D01*
X142935506Y-115770464D01*
X142981468Y-115586616D01*
X142981468Y-115448731D01*
X142935506Y-115264883D01*
X142889544Y-115172959D01*
X142797620Y-115081036D01*
X142659735Y-115035074D01*
X142567811Y-115035074D01*
X142429925Y-115081036D01*
X142383963Y-115126997D01*
X142935506Y-110194693D02*
X142613773Y-110194693D01*
X142475887Y-110700274D02*
X142935506Y-110700274D01*
X142935506Y-109735074D01*
X142475887Y-109735074D01*
X146713773Y-111994693D02*
X146575887Y-112040655D01*
X146529925Y-112086616D01*
X146483963Y-112178540D01*
X146483963Y-112316426D01*
X146529925Y-112408350D01*
X146575887Y-112454312D01*
X146667811Y-112500274D01*
X147035506Y-112500274D01*
X147035506Y-111535074D01*
X146713773Y-111535074D01*
X146621849Y-111581036D01*
X146575887Y-111626997D01*
X146529925Y-111718921D01*
X146529925Y-111810845D01*
X146575887Y-111902769D01*
X146621849Y-111948731D01*
X146713773Y-111994693D01*
X147035506Y-111994693D01*
X147350206Y-116000674D02*
X147350206Y-115035474D01*
X146982511Y-115035474D01*
X146890587Y-115081436D01*
X146844625Y-115127397D01*
X146798663Y-115219321D01*
X146798663Y-115357207D01*
X146844625Y-115449131D01*
X146890587Y-115495093D01*
X146982511Y-115541055D01*
X147350206Y-115541055D01*
X146385006Y-116000674D02*
X146385006Y-115035474D01*
X145833463Y-116000674D01*
X145833463Y-115035474D01*
X145373844Y-116000674D02*
X145373844Y-115035474D01*
X145006149Y-115035474D01*
X144914225Y-115081436D01*
X144868263Y-115127397D01*
X144822301Y-115219321D01*
X144822301Y-115357207D01*
X144868263Y-115449131D01*
X144914225Y-115495093D01*
X145006149Y-115541055D01*
X145373844Y-115541055D01*
M02*
