%TF.GenerationSoftware,KiCad,Pcbnew,9.0.3*%
%TF.CreationDate,2025-07-15T16:51:32+02:00*%
%TF.ProjectId,PCB_Ruler,5043425f-5275-46c6-9572-2e6b69636164,rev?*%
%TF.SameCoordinates,Original*%
%TF.FileFunction,Copper,L2,Bot*%
%TF.FilePolarity,Positive*%
%FSLAX46Y46*%
G04 Gerber Fmt 4.6, Leading zero omitted, Abs format (unit mm)*
G04 Created by KiCad (PCBNEW 9.0.3) date 2025-07-15 16:51:32*
%MOMM*%
%LPD*%
G01*
G04 APERTURE LIST*
%TA.AperFunction,EtchedComponent*%
%ADD10C,0.000000*%
%TD*%
%TA.AperFunction,ComponentPad*%
%ADD11R,0.850000X0.850000*%
%TD*%
%TA.AperFunction,ComponentPad*%
%ADD12R,1.350000X1.350000*%
%TD*%
%TA.AperFunction,ComponentPad*%
%ADD13R,1.000000X1.000000*%
%TD*%
%TA.AperFunction,ComponentPad*%
%ADD14C,3.363600*%
%TD*%
%TA.AperFunction,ComponentPad*%
%ADD15R,1.700000X1.700000*%
%TD*%
%TA.AperFunction,ComponentPad*%
%ADD16C,2.688200*%
%TD*%
%TA.AperFunction,ComponentPad*%
%ADD17C,2.152500*%
%TD*%
%TA.AperFunction,ComponentPad*%
%ADD18C,1.727700*%
%TD*%
%TA.AperFunction,ComponentPad*%
%ADD19C,1.390800*%
%TD*%
%TA.AperFunction,ComponentPad*%
%ADD20C,1.053700*%
%TD*%
%TA.AperFunction,ComponentPad*%
%ADD21C,0.861800*%
%TD*%
%TA.AperFunction,ComponentPad*%
%ADD22C,0.693800*%
%TD*%
%TA.AperFunction,ComponentPad*%
%ADD23C,0.525600*%
%TD*%
%TA.AperFunction,ComponentPad*%
%ADD24C,0.414900*%
%TD*%
%TA.AperFunction,ComponentPad*%
%ADD25C,0.331100*%
%TD*%
%TA.AperFunction,SMDPad,CuDef*%
%ADD26R,4.500000X2.000000*%
%TD*%
%TA.AperFunction,SMDPad,CuDef*%
%ADD27R,1.150000X1.000000*%
%TD*%
%TA.AperFunction,SMDPad,CuDef*%
%ADD28R,0.600000X1.200000*%
%TD*%
%TA.AperFunction,SMDPad,CuDef*%
%ADD29R,0.900000X0.800000*%
%TD*%
%TA.AperFunction,SMDPad,CuDef*%
%ADD30R,1.600000X1.300000*%
%TD*%
%TA.AperFunction,SMDPad,CuDef*%
%ADD31R,1.800000X1.000000*%
%TD*%
%TA.AperFunction,SMDPad,CuDef*%
%ADD32R,0.600000X1.100000*%
%TD*%
%TA.AperFunction,SMDPad,CuDef*%
%ADD33R,1.100000X0.400000*%
%TD*%
%TA.AperFunction,SMDPad,CuDef*%
%ADD34R,1.000000X0.285000*%
%TD*%
%TA.AperFunction,SMDPad,CuDef*%
%ADD35C,0.400000*%
%TD*%
%TA.AperFunction,SMDPad,CuDef*%
%ADD36C,0.500000*%
%TD*%
%TA.AperFunction,SMDPad,CuDef*%
%ADD37C,0.250000*%
%TD*%
%TA.AperFunction,SMDPad,CuDef*%
%ADD38R,1.550000X0.600000*%
%TD*%
%TA.AperFunction,SMDPad,CuDef*%
%ADD39R,1.750000X0.550000*%
%TD*%
%TA.AperFunction,SMDPad,CuDef*%
%ADD40R,0.450000X1.500000*%
%TD*%
%TA.AperFunction,SMDPad,CuDef*%
%ADD41C,0.225000*%
%TD*%
%TA.AperFunction,SMDPad,CuDef*%
%ADD42C,0.420000*%
%TD*%
%TA.AperFunction,SMDPad,CuDef*%
%ADD43C,0.750000*%
%TD*%
%TA.AperFunction,SMDPad,CuDef*%
%ADD44R,0.550000X0.200000*%
%TD*%
%TA.AperFunction,SMDPad,CuDef*%
%ADD45R,0.200000X0.550000*%
%TD*%
%TA.AperFunction,SMDPad,CuDef*%
%ADD46R,0.875000X0.800000*%
%TD*%
%TA.AperFunction,SMDPad,CuDef*%
%ADD47R,1.200000X0.600000*%
%TD*%
%TA.AperFunction,SMDPad,CuDef*%
%ADD48R,1.200000X0.280000*%
%TD*%
%TA.AperFunction,SMDPad,CuDef*%
%ADD49R,0.280000X1.200000*%
%TD*%
%TA.AperFunction,SMDPad,CuDef*%
%ADD50R,1.300000X0.250000*%
%TD*%
%TA.AperFunction,SMDPad,CuDef*%
%ADD51R,0.250000X1.300000*%
%TD*%
%TA.AperFunction,SMDPad,CuDef*%
%ADD52R,0.700000X0.250000*%
%TD*%
%TA.AperFunction,SMDPad,CuDef*%
%ADD53R,0.250000X0.700000*%
%TD*%
%TA.AperFunction,SMDPad,CuDef*%
%ADD54R,1.287500X1.287500*%
%TD*%
%TA.AperFunction,SMDPad,CuDef*%
%ADD55R,0.730000X0.300000*%
%TD*%
%TA.AperFunction,SMDPad,CuDef*%
%ADD56R,0.300000X0.730000*%
%TD*%
%TA.AperFunction,SMDPad,CuDef*%
%ADD57R,1.250000X1.250000*%
%TD*%
%TA.AperFunction,SMDPad,CuDef*%
%ADD58R,0.500000X0.300000*%
%TD*%
%TA.AperFunction,SMDPad,CuDef*%
%ADD59R,0.300000X0.500000*%
%TD*%
%TA.AperFunction,SMDPad,CuDef*%
%ADD60R,1.150000X1.150000*%
%TD*%
%TA.AperFunction,SMDPad,CuDef*%
%ADD61R,1.500000X0.200000*%
%TD*%
%TA.AperFunction,SMDPad,CuDef*%
%ADD62R,0.200000X1.500000*%
%TD*%
%TA.AperFunction,SMDPad,CuDef*%
%ADD63C,0.300000*%
%TD*%
%TA.AperFunction,SMDPad,CuDef*%
%ADD64R,0.850000X0.300000*%
%TD*%
%TA.AperFunction,SMDPad,CuDef*%
%ADD65R,0.300000X0.850000*%
%TD*%
%TA.AperFunction,SMDPad,CuDef*%
%ADD66R,1.837500X1.837500*%
%TD*%
%TA.AperFunction,SMDPad,CuDef*%
%ADD67R,1.500000X0.300000*%
%TD*%
%TA.AperFunction,SMDPad,CuDef*%
%ADD68R,0.300000X1.500000*%
%TD*%
%TA.AperFunction,SMDPad,CuDef*%
%ADD69R,1.000000X0.250000*%
%TD*%
%TA.AperFunction,SMDPad,CuDef*%
%ADD70R,0.250000X1.000000*%
%TD*%
%TA.AperFunction,SMDPad,CuDef*%
%ADD71R,1.725000X1.725000*%
%TD*%
%TA.AperFunction,SMDPad,CuDef*%
%ADD72R,0.825000X0.825000*%
%TD*%
%TA.AperFunction,SMDPad,CuDef*%
%ADD73R,1.400000X1.200000*%
%TD*%
%TA.AperFunction,SMDPad,CuDef*%
%ADD74C,0.165000*%
%TD*%
%TA.AperFunction,Conductor*%
%ADD75C,0.150000*%
%TD*%
G04 APERTURE END LIST*
D10*
%TA.AperFunction,EtchedComponent*%
%TO.C,U16*%
G36*
X70400000Y-96500000D02*
G01*
X70100000Y-96500000D01*
X70100000Y-93000000D01*
X70400000Y-93000000D01*
X70400000Y-96500000D01*
G37*
%TD.AperFunction*%
%TA.AperFunction,EtchedComponent*%
G36*
X71987500Y-93635000D02*
G01*
X71687500Y-93635000D01*
X71687500Y-93000000D01*
X71987500Y-93000000D01*
X71987500Y-93635000D01*
G37*
%TD.AperFunction*%
%TA.AperFunction,EtchedComponent*%
G36*
X73575000Y-94500000D02*
G01*
X73275000Y-94500000D01*
X73275000Y-93000000D01*
X73575000Y-93000000D01*
X73575000Y-94500000D01*
G37*
%TD.AperFunction*%
%TA.AperFunction,EtchedComponent*%
G36*
X75162500Y-93635000D02*
G01*
X74862500Y-93635000D01*
X74862500Y-93000000D01*
X75162500Y-93000000D01*
X75162500Y-93635000D01*
G37*
%TD.AperFunction*%
%TA.AperFunction,EtchedComponent*%
G36*
X76750000Y-94500000D02*
G01*
X76450000Y-94500000D01*
X76450000Y-93000000D01*
X76750000Y-93000000D01*
X76750000Y-94500000D01*
G37*
%TD.AperFunction*%
%TA.AperFunction,EtchedComponent*%
G36*
X78337500Y-93635000D02*
G01*
X78037500Y-93635000D01*
X78037500Y-93000000D01*
X78337500Y-93000000D01*
X78337500Y-93635000D01*
G37*
%TD.AperFunction*%
%TA.AperFunction,EtchedComponent*%
G36*
X79925000Y-94500000D02*
G01*
X79625000Y-94500000D01*
X79625000Y-93000000D01*
X79925000Y-93000000D01*
X79925000Y-94500000D01*
G37*
%TD.AperFunction*%
%TA.AperFunction,EtchedComponent*%
G36*
X81512500Y-93635000D02*
G01*
X81212500Y-93635000D01*
X81212500Y-93000000D01*
X81512500Y-93000000D01*
X81512500Y-93635000D01*
G37*
%TD.AperFunction*%
%TA.AperFunction,EtchedComponent*%
G36*
X83100000Y-95500000D02*
G01*
X82800000Y-95500000D01*
X82800000Y-93000000D01*
X83100000Y-93000000D01*
X83100000Y-95500000D01*
G37*
%TD.AperFunction*%
%TA.AperFunction,EtchedComponent*%
G36*
X84687500Y-93635000D02*
G01*
X84387500Y-93635000D01*
X84387500Y-93000000D01*
X84687500Y-93000000D01*
X84687500Y-93635000D01*
G37*
%TD.AperFunction*%
%TA.AperFunction,EtchedComponent*%
G36*
X86275000Y-94500000D02*
G01*
X85975000Y-94500000D01*
X85975000Y-93000000D01*
X86275000Y-93000000D01*
X86275000Y-94500000D01*
G37*
%TD.AperFunction*%
%TA.AperFunction,EtchedComponent*%
G36*
X87862500Y-93635000D02*
G01*
X87562500Y-93635000D01*
X87562500Y-93000000D01*
X87862500Y-93000000D01*
X87862500Y-93635000D01*
G37*
%TD.AperFunction*%
%TA.AperFunction,EtchedComponent*%
G36*
X89450000Y-94500000D02*
G01*
X89150000Y-94500000D01*
X89150000Y-93000000D01*
X89450000Y-93000000D01*
X89450000Y-94500000D01*
G37*
%TD.AperFunction*%
%TA.AperFunction,EtchedComponent*%
G36*
X91037500Y-93635000D02*
G01*
X90737500Y-93635000D01*
X90737500Y-93000000D01*
X91037500Y-93000000D01*
X91037500Y-93635000D01*
G37*
%TD.AperFunction*%
%TA.AperFunction,EtchedComponent*%
G36*
X92625000Y-94500000D02*
G01*
X92325000Y-94500000D01*
X92325000Y-93000000D01*
X92625000Y-93000000D01*
X92625000Y-94500000D01*
G37*
%TD.AperFunction*%
%TA.AperFunction,EtchedComponent*%
G36*
X94212500Y-93635000D02*
G01*
X93912500Y-93635000D01*
X93912500Y-93000000D01*
X94212500Y-93000000D01*
X94212500Y-93635000D01*
G37*
%TD.AperFunction*%
%TA.AperFunction,EtchedComponent*%
%TO.C,U19*%
G36*
X146600000Y-96500000D02*
G01*
X146300000Y-96500000D01*
X146300000Y-93000000D01*
X146600000Y-93000000D01*
X146600000Y-96500000D01*
G37*
%TD.AperFunction*%
%TA.AperFunction,EtchedComponent*%
G36*
X148187500Y-93635000D02*
G01*
X147887500Y-93635000D01*
X147887500Y-93000000D01*
X148187500Y-93000000D01*
X148187500Y-93635000D01*
G37*
%TD.AperFunction*%
%TA.AperFunction,EtchedComponent*%
G36*
X149775000Y-94500000D02*
G01*
X149475000Y-94500000D01*
X149475000Y-93000000D01*
X149775000Y-93000000D01*
X149775000Y-94500000D01*
G37*
%TD.AperFunction*%
%TA.AperFunction,EtchedComponent*%
G36*
X151362500Y-93635000D02*
G01*
X151062500Y-93635000D01*
X151062500Y-93000000D01*
X151362500Y-93000000D01*
X151362500Y-93635000D01*
G37*
%TD.AperFunction*%
%TA.AperFunction,EtchedComponent*%
G36*
X152950000Y-94500000D02*
G01*
X152650000Y-94500000D01*
X152650000Y-93000000D01*
X152950000Y-93000000D01*
X152950000Y-94500000D01*
G37*
%TD.AperFunction*%
%TA.AperFunction,EtchedComponent*%
G36*
X154537500Y-93635000D02*
G01*
X154237500Y-93635000D01*
X154237500Y-93000000D01*
X154537500Y-93000000D01*
X154537500Y-93635000D01*
G37*
%TD.AperFunction*%
%TA.AperFunction,EtchedComponent*%
G36*
X156125000Y-94500000D02*
G01*
X155825000Y-94500000D01*
X155825000Y-93000000D01*
X156125000Y-93000000D01*
X156125000Y-94500000D01*
G37*
%TD.AperFunction*%
%TA.AperFunction,EtchedComponent*%
G36*
X157712500Y-93635000D02*
G01*
X157412500Y-93635000D01*
X157412500Y-93000000D01*
X157712500Y-93000000D01*
X157712500Y-93635000D01*
G37*
%TD.AperFunction*%
%TA.AperFunction,EtchedComponent*%
G36*
X159300000Y-95500000D02*
G01*
X159000000Y-95500000D01*
X159000000Y-93000000D01*
X159300000Y-93000000D01*
X159300000Y-95500000D01*
G37*
%TD.AperFunction*%
%TA.AperFunction,EtchedComponent*%
G36*
X160887500Y-93635000D02*
G01*
X160587500Y-93635000D01*
X160587500Y-93000000D01*
X160887500Y-93000000D01*
X160887500Y-93635000D01*
G37*
%TD.AperFunction*%
%TA.AperFunction,EtchedComponent*%
G36*
X162475000Y-94500000D02*
G01*
X162175000Y-94500000D01*
X162175000Y-93000000D01*
X162475000Y-93000000D01*
X162475000Y-94500000D01*
G37*
%TD.AperFunction*%
%TA.AperFunction,EtchedComponent*%
G36*
X164062500Y-93635000D02*
G01*
X163762500Y-93635000D01*
X163762500Y-93000000D01*
X164062500Y-93000000D01*
X164062500Y-93635000D01*
G37*
%TD.AperFunction*%
%TA.AperFunction,EtchedComponent*%
G36*
X165650000Y-94500000D02*
G01*
X165350000Y-94500000D01*
X165350000Y-93000000D01*
X165650000Y-93000000D01*
X165650000Y-94500000D01*
G37*
%TD.AperFunction*%
%TA.AperFunction,EtchedComponent*%
G36*
X167237500Y-93635000D02*
G01*
X166937500Y-93635000D01*
X166937500Y-93000000D01*
X167237500Y-93000000D01*
X167237500Y-93635000D01*
G37*
%TD.AperFunction*%
%TA.AperFunction,EtchedComponent*%
G36*
X168825000Y-94500000D02*
G01*
X168525000Y-94500000D01*
X168525000Y-93000000D01*
X168825000Y-93000000D01*
X168825000Y-94500000D01*
G37*
%TD.AperFunction*%
%TA.AperFunction,EtchedComponent*%
G36*
X170412500Y-93635000D02*
G01*
X170112500Y-93635000D01*
X170112500Y-93000000D01*
X170412500Y-93000000D01*
X170412500Y-93635000D01*
G37*
%TD.AperFunction*%
%TA.AperFunction,EtchedComponent*%
%TO.C,U18*%
G36*
X121200000Y-96500000D02*
G01*
X120900000Y-96500000D01*
X120900000Y-93000000D01*
X121200000Y-93000000D01*
X121200000Y-96500000D01*
G37*
%TD.AperFunction*%
%TA.AperFunction,EtchedComponent*%
G36*
X122787500Y-93635000D02*
G01*
X122487500Y-93635000D01*
X122487500Y-93000000D01*
X122787500Y-93000000D01*
X122787500Y-93635000D01*
G37*
%TD.AperFunction*%
%TA.AperFunction,EtchedComponent*%
G36*
X124375000Y-94500000D02*
G01*
X124075000Y-94500000D01*
X124075000Y-93000000D01*
X124375000Y-93000000D01*
X124375000Y-94500000D01*
G37*
%TD.AperFunction*%
%TA.AperFunction,EtchedComponent*%
G36*
X125962500Y-93635000D02*
G01*
X125662500Y-93635000D01*
X125662500Y-93000000D01*
X125962500Y-93000000D01*
X125962500Y-93635000D01*
G37*
%TD.AperFunction*%
%TA.AperFunction,EtchedComponent*%
G36*
X127550000Y-94500000D02*
G01*
X127250000Y-94500000D01*
X127250000Y-93000000D01*
X127550000Y-93000000D01*
X127550000Y-94500000D01*
G37*
%TD.AperFunction*%
%TA.AperFunction,EtchedComponent*%
G36*
X129137500Y-93635000D02*
G01*
X128837500Y-93635000D01*
X128837500Y-93000000D01*
X129137500Y-93000000D01*
X129137500Y-93635000D01*
G37*
%TD.AperFunction*%
%TA.AperFunction,EtchedComponent*%
G36*
X130725000Y-94500000D02*
G01*
X130425000Y-94500000D01*
X130425000Y-93000000D01*
X130725000Y-93000000D01*
X130725000Y-94500000D01*
G37*
%TD.AperFunction*%
%TA.AperFunction,EtchedComponent*%
G36*
X132312500Y-93635000D02*
G01*
X132012500Y-93635000D01*
X132012500Y-93000000D01*
X132312500Y-93000000D01*
X132312500Y-93635000D01*
G37*
%TD.AperFunction*%
%TA.AperFunction,EtchedComponent*%
G36*
X133900000Y-95500000D02*
G01*
X133600000Y-95500000D01*
X133600000Y-93000000D01*
X133900000Y-93000000D01*
X133900000Y-95500000D01*
G37*
%TD.AperFunction*%
%TA.AperFunction,EtchedComponent*%
G36*
X135487500Y-93635000D02*
G01*
X135187500Y-93635000D01*
X135187500Y-93000000D01*
X135487500Y-93000000D01*
X135487500Y-93635000D01*
G37*
%TD.AperFunction*%
%TA.AperFunction,EtchedComponent*%
G36*
X137075000Y-94500000D02*
G01*
X136775000Y-94500000D01*
X136775000Y-93000000D01*
X137075000Y-93000000D01*
X137075000Y-94500000D01*
G37*
%TD.AperFunction*%
%TA.AperFunction,EtchedComponent*%
G36*
X138662500Y-93635000D02*
G01*
X138362500Y-93635000D01*
X138362500Y-93000000D01*
X138662500Y-93000000D01*
X138662500Y-93635000D01*
G37*
%TD.AperFunction*%
%TA.AperFunction,EtchedComponent*%
G36*
X140250000Y-94500000D02*
G01*
X139950000Y-94500000D01*
X139950000Y-93000000D01*
X140250000Y-93000000D01*
X140250000Y-94500000D01*
G37*
%TD.AperFunction*%
%TA.AperFunction,EtchedComponent*%
G36*
X141837500Y-93635000D02*
G01*
X141537500Y-93635000D01*
X141537500Y-93000000D01*
X141837500Y-93000000D01*
X141837500Y-93635000D01*
G37*
%TD.AperFunction*%
%TA.AperFunction,EtchedComponent*%
G36*
X143425000Y-94500000D02*
G01*
X143125000Y-94500000D01*
X143125000Y-93000000D01*
X143425000Y-93000000D01*
X143425000Y-94500000D01*
G37*
%TD.AperFunction*%
%TA.AperFunction,EtchedComponent*%
G36*
X145012500Y-93635000D02*
G01*
X144712500Y-93635000D01*
X144712500Y-93000000D01*
X145012500Y-93000000D01*
X145012500Y-93635000D01*
G37*
%TD.AperFunction*%
%TA.AperFunction,EtchedComponent*%
%TO.C,U17*%
G36*
X95800000Y-96500000D02*
G01*
X95500000Y-96500000D01*
X95500000Y-93000000D01*
X95800000Y-93000000D01*
X95800000Y-96500000D01*
G37*
%TD.AperFunction*%
%TA.AperFunction,EtchedComponent*%
G36*
X97387500Y-93635000D02*
G01*
X97087500Y-93635000D01*
X97087500Y-93000000D01*
X97387500Y-93000000D01*
X97387500Y-93635000D01*
G37*
%TD.AperFunction*%
%TA.AperFunction,EtchedComponent*%
G36*
X98975000Y-94500000D02*
G01*
X98675000Y-94500000D01*
X98675000Y-93000000D01*
X98975000Y-93000000D01*
X98975000Y-94500000D01*
G37*
%TD.AperFunction*%
%TA.AperFunction,EtchedComponent*%
G36*
X100562500Y-93635000D02*
G01*
X100262500Y-93635000D01*
X100262500Y-93000000D01*
X100562500Y-93000000D01*
X100562500Y-93635000D01*
G37*
%TD.AperFunction*%
%TA.AperFunction,EtchedComponent*%
G36*
X102150000Y-94500000D02*
G01*
X101850000Y-94500000D01*
X101850000Y-93000000D01*
X102150000Y-93000000D01*
X102150000Y-94500000D01*
G37*
%TD.AperFunction*%
%TA.AperFunction,EtchedComponent*%
G36*
X103737500Y-93635000D02*
G01*
X103437500Y-93635000D01*
X103437500Y-93000000D01*
X103737500Y-93000000D01*
X103737500Y-93635000D01*
G37*
%TD.AperFunction*%
%TA.AperFunction,EtchedComponent*%
G36*
X105325000Y-94500000D02*
G01*
X105025000Y-94500000D01*
X105025000Y-93000000D01*
X105325000Y-93000000D01*
X105325000Y-94500000D01*
G37*
%TD.AperFunction*%
%TA.AperFunction,EtchedComponent*%
G36*
X106912500Y-93635000D02*
G01*
X106612500Y-93635000D01*
X106612500Y-93000000D01*
X106912500Y-93000000D01*
X106912500Y-93635000D01*
G37*
%TD.AperFunction*%
%TA.AperFunction,EtchedComponent*%
G36*
X108500000Y-95500000D02*
G01*
X108200000Y-95500000D01*
X108200000Y-93000000D01*
X108500000Y-93000000D01*
X108500000Y-95500000D01*
G37*
%TD.AperFunction*%
%TA.AperFunction,EtchedComponent*%
G36*
X110087500Y-93635000D02*
G01*
X109787500Y-93635000D01*
X109787500Y-93000000D01*
X110087500Y-93000000D01*
X110087500Y-93635000D01*
G37*
%TD.AperFunction*%
%TA.AperFunction,EtchedComponent*%
G36*
X111675000Y-94500000D02*
G01*
X111375000Y-94500000D01*
X111375000Y-93000000D01*
X111675000Y-93000000D01*
X111675000Y-94500000D01*
G37*
%TD.AperFunction*%
%TA.AperFunction,EtchedComponent*%
G36*
X113262500Y-93635000D02*
G01*
X112962500Y-93635000D01*
X112962500Y-93000000D01*
X113262500Y-93000000D01*
X113262500Y-93635000D01*
G37*
%TD.AperFunction*%
%TA.AperFunction,EtchedComponent*%
G36*
X114850000Y-94500000D02*
G01*
X114550000Y-94500000D01*
X114550000Y-93000000D01*
X114850000Y-93000000D01*
X114850000Y-94500000D01*
G37*
%TD.AperFunction*%
%TA.AperFunction,EtchedComponent*%
G36*
X116437500Y-93635000D02*
G01*
X116137500Y-93635000D01*
X116137500Y-93000000D01*
X116437500Y-93000000D01*
X116437500Y-93635000D01*
G37*
%TD.AperFunction*%
%TA.AperFunction,EtchedComponent*%
G36*
X118025000Y-94500000D02*
G01*
X117725000Y-94500000D01*
X117725000Y-93000000D01*
X118025000Y-93000000D01*
X118025000Y-94500000D01*
G37*
%TD.AperFunction*%
%TA.AperFunction,EtchedComponent*%
G36*
X119612500Y-93635000D02*
G01*
X119312500Y-93635000D01*
X119312500Y-93000000D01*
X119612500Y-93000000D01*
X119612500Y-93635000D01*
G37*
%TD.AperFunction*%
%TD*%
D11*
%TO.P,U1,1*%
%TO.N,/Pin1*%
X169654400Y-101260000D03*
%TD*%
D12*
%TO.P,U3,1*%
%TO.N,/Pin1*%
X169400400Y-98288200D03*
%TD*%
D13*
%TO.P,U2,1*%
%TO.N,/Pin1*%
X169578200Y-99888400D03*
%TD*%
D14*
%TO.P,H1,1*%
%TO.N,N/C*%
X161130000Y-98176000D03*
%TD*%
D15*
%TO.P,U4,1*%
%TO.N,/Pin1*%
X169222600Y-96332400D03*
%TD*%
D16*
%TO.P,H2,1*%
%TO.N,N/C*%
X157520000Y-98176000D03*
%TD*%
D17*
%TO.P,H3,1*%
%TO.N,N/C*%
X154550000Y-98176000D03*
%TD*%
D18*
%TO.P,H4,1*%
%TO.N,N/C*%
X152090000Y-98176000D03*
%TD*%
D19*
%TO.P,H5,1*%
%TO.N,N/C*%
X150020000Y-98180000D03*
%TD*%
D20*
%TO.P,H6,1*%
%TO.N,N/C*%
X148280000Y-98176000D03*
%TD*%
D21*
%TO.P,H7,1*%
%TO.N,N/C*%
X146820000Y-98210000D03*
%TD*%
D22*
%TO.P,H8,1*%
%TO.N,N/C*%
X145570000Y-98176000D03*
%TD*%
D23*
%TO.P,H9,1*%
%TO.N,N/C*%
X144460000Y-98176000D03*
%TD*%
D24*
%TO.P,H10,1*%
%TO.N,N/C*%
X143470000Y-98176000D03*
%TD*%
D25*
%TO.P,H11,1*%
%TO.N,N/C*%
X142600000Y-98176000D03*
%TD*%
D26*
%TO.P,XT1,1*%
%TO.N,/Pin1*%
X81525000Y-99775000D03*
%TO.P,XT1,2*%
%TO.N,N/C*%
X73025000Y-99775000D03*
%TD*%
D27*
%TO.P,XT7,1*%
%TO.N,/Pin1*%
X73095000Y-104740000D03*
%TO.P,XT7,2*%
%TO.N,N/C*%
X71345000Y-104740000D03*
%TO.P,XT7,3*%
X71345000Y-103340000D03*
%TO.P,XT7,4*%
X73095000Y-103340000D03*
%TD*%
D28*
%TO.P,XT2,1*%
%TO.N,/Pin1*%
X83400000Y-103350000D03*
%TO.P,XT2,2*%
%TO.N,N/C*%
X82200000Y-103350000D03*
%TD*%
D29*
%TO.P,XT4,1*%
%TO.N,/Pin1*%
X76220000Y-104640000D03*
%TO.P,XT4,2*%
%TO.N,N/C*%
X74820000Y-104640000D03*
%TO.P,XT4,3*%
X74820000Y-103540000D03*
%TO.P,XT4,4*%
X76220000Y-103540000D03*
%TD*%
D30*
%TO.P,XT6,1*%
%TO.N,/Pin1*%
X74770000Y-109740000D03*
%TO.P,XT6,2*%
%TO.N,N/C*%
X71470000Y-109740000D03*
%TO.P,XT6,3*%
X71470000Y-107740000D03*
%TO.P,XT6,4*%
X74770000Y-107740000D03*
%TD*%
D31*
%TO.P,XT8,1*%
%TO.N,/Pin1*%
X81650000Y-106720000D03*
%TO.P,XT8,2*%
%TO.N,N/C*%
X81650000Y-109220000D03*
%TD*%
D32*
%TO.P,XT3,1*%
%TO.N,/Pin1*%
X83350000Y-105125000D03*
%TO.P,XT3,2*%
%TO.N,N/C*%
X81950000Y-105125000D03*
%TD*%
D33*
%TO.P,Q14,1*%
%TO.N,/Pin1*%
X90835000Y-95885000D03*
%TO.P,Q14,2*%
%TO.N,N/C*%
X90835000Y-96535000D03*
%TO.P,Q14,3*%
X90835000Y-97185000D03*
%TO.P,Q14,4*%
X90835000Y-97835000D03*
%TO.P,Q14,5*%
X86535000Y-97835000D03*
%TO.P,Q14,6*%
X86535000Y-97185000D03*
%TO.P,Q14,7*%
X86535000Y-96535000D03*
%TO.P,Q14,8*%
X86535000Y-95885000D03*
%TD*%
D34*
%TO.P,Q24,1*%
%TO.N,/Pin1*%
X92485000Y-95560000D03*
%TO.P,Q24,2*%
%TO.N,N/C*%
X92485000Y-96060000D03*
%TO.P,Q24,3*%
X92485000Y-96560000D03*
%TO.P,Q24,4*%
X92485000Y-97060000D03*
%TO.P,Q24,5*%
X92485000Y-97560000D03*
%TO.P,Q24,6*%
X92485000Y-98060000D03*
%TO.P,Q24,7*%
X92485000Y-98560000D03*
%TO.P,Q24,8*%
X92485000Y-99060000D03*
%TO.P,Q24,9*%
X92485000Y-99560000D03*
%TO.P,Q24,10*%
X92485000Y-100060000D03*
%TO.P,Q24,11*%
X92485000Y-100560000D03*
%TO.P,Q24,12*%
X92485000Y-101060000D03*
%TO.P,Q24,13*%
X92485000Y-101560000D03*
%TO.P,Q24,14*%
X92485000Y-102060000D03*
%TO.P,Q24,15*%
X92485000Y-102560000D03*
%TO.P,Q24,16*%
X92485000Y-103060000D03*
%TO.P,Q24,17*%
X92485000Y-103560000D03*
%TO.P,Q24,18*%
X92485000Y-104060000D03*
%TO.P,Q24,19*%
X92485000Y-104560000D03*
%TO.P,Q24,20*%
X92485000Y-105060000D03*
%TO.P,Q24,21*%
X92485000Y-105560000D03*
%TO.P,Q24,22*%
X92485000Y-106060000D03*
%TO.P,Q24,23*%
X92485000Y-106560000D03*
%TO.P,Q24,24*%
X92485000Y-107060000D03*
%TO.P,Q24,25*%
X84985000Y-107060000D03*
%TO.P,Q24,26*%
X84985000Y-106560000D03*
%TO.P,Q24,27*%
X84985000Y-106060000D03*
%TO.P,Q24,28*%
X84985000Y-105560000D03*
%TO.P,Q24,29*%
X84985000Y-105060000D03*
%TO.P,Q24,30*%
X84985000Y-104560000D03*
%TO.P,Q24,31*%
X84985000Y-104060000D03*
%TO.P,Q24,32*%
X84985000Y-103560000D03*
%TO.P,Q24,33*%
X84985000Y-103060000D03*
%TO.P,Q24,34*%
X84985000Y-102560000D03*
%TO.P,Q24,35*%
X84985000Y-102060000D03*
%TO.P,Q24,36*%
X84985000Y-101560000D03*
%TO.P,Q24,37*%
X84985000Y-101060000D03*
%TO.P,Q24,38*%
X84985000Y-100560000D03*
%TO.P,Q24,39*%
X84985000Y-100060000D03*
%TO.P,Q24,40*%
X84985000Y-99560000D03*
%TO.P,Q24,41*%
X84985000Y-99060000D03*
%TO.P,Q24,42*%
X84985000Y-98560000D03*
%TO.P,Q24,43*%
X84985000Y-98060000D03*
%TO.P,Q24,44*%
X84985000Y-97560000D03*
%TO.P,Q24,45*%
X84985000Y-97060000D03*
%TO.P,Q24,46*%
X84985000Y-96560000D03*
%TO.P,Q24,47*%
X84985000Y-96060000D03*
%TO.P,Q24,48*%
X84985000Y-95560000D03*
%TD*%
D35*
%TO.P,Q25,A1*%
%TO.N,/Pin1*%
X163575000Y-100700000D03*
%TO.P,Q25,A2*%
%TO.N,N/C*%
X162775000Y-100700000D03*
%TO.P,Q25,A3*%
X161975000Y-100700000D03*
%TO.P,Q25,A7*%
X158775000Y-100700000D03*
%TO.P,Q25,A8*%
X157975000Y-100700000D03*
%TO.P,Q25,A9*%
X157175000Y-100700000D03*
%TO.P,Q25,B1*%
X163575000Y-101500000D03*
%TO.P,Q25,B2*%
X162775000Y-101500000D03*
%TO.P,Q25,B3*%
X161975000Y-101500000D03*
%TO.P,Q25,B7*%
X158775000Y-101500000D03*
%TO.P,Q25,B8*%
X157975000Y-101500000D03*
%TO.P,Q25,B9*%
X157175000Y-101500000D03*
%TO.P,Q25,C1*%
X163575000Y-102300000D03*
%TO.P,Q25,C2*%
X162775000Y-102300000D03*
%TO.P,Q25,C3*%
X161975000Y-102300000D03*
%TO.P,Q25,C7*%
X158775000Y-102300000D03*
%TO.P,Q25,C8*%
X157975000Y-102300000D03*
%TO.P,Q25,C9*%
X157175000Y-102300000D03*
%TO.P,Q25,D1*%
X163575000Y-103100000D03*
%TO.P,Q25,D2*%
X162775000Y-103100000D03*
%TO.P,Q25,D3*%
X161975000Y-103100000D03*
%TO.P,Q25,D7*%
X158775000Y-103100000D03*
%TO.P,Q25,D8*%
X157975000Y-103100000D03*
%TO.P,Q25,D9*%
X157175000Y-103100000D03*
%TO.P,Q25,E1*%
X163575000Y-103900000D03*
%TO.P,Q25,E2*%
X162775000Y-103900000D03*
%TO.P,Q25,E3*%
X161975000Y-103900000D03*
%TO.P,Q25,E7*%
X158775000Y-103900000D03*
%TO.P,Q25,E8*%
X157975000Y-103900000D03*
%TO.P,Q25,E9*%
X157175000Y-103900000D03*
%TO.P,Q25,F1*%
X163575000Y-104700000D03*
%TO.P,Q25,F2*%
X162775000Y-104700000D03*
%TO.P,Q25,F3*%
X161975000Y-104700000D03*
%TO.P,Q25,F7*%
X158775000Y-104700000D03*
%TO.P,Q25,F8*%
X157975000Y-104700000D03*
%TO.P,Q25,F9*%
X157175000Y-104700000D03*
%TO.P,Q25,G1*%
X163575000Y-105500000D03*
%TO.P,Q25,G2*%
X162775000Y-105500000D03*
%TO.P,Q25,G3*%
X161975000Y-105500000D03*
%TO.P,Q25,G7*%
X158775000Y-105500000D03*
%TO.P,Q25,G8*%
X157975000Y-105500000D03*
%TO.P,Q25,G9*%
X157175000Y-105500000D03*
%TO.P,Q25,H1*%
X163575000Y-106300000D03*
%TO.P,Q25,H2*%
X162775000Y-106300000D03*
%TO.P,Q25,H3*%
X161975000Y-106300000D03*
%TO.P,Q25,H7*%
X158775000Y-106300000D03*
%TO.P,Q25,H8*%
X157975000Y-106300000D03*
%TO.P,Q25,H9*%
X157175000Y-106300000D03*
%TO.P,Q25,J1*%
X163575000Y-107100000D03*
%TO.P,Q25,J2*%
X162775000Y-107100000D03*
%TO.P,Q25,J3*%
X161975000Y-107100000D03*
%TO.P,Q25,J7*%
X158775000Y-107100000D03*
%TO.P,Q25,J8*%
X157975000Y-107100000D03*
%TO.P,Q25,J9*%
X157175000Y-107100000D03*
%TO.P,Q25,K1*%
X163575000Y-107900000D03*
%TO.P,Q25,K2*%
X162775000Y-107900000D03*
%TO.P,Q25,K3*%
X161975000Y-107900000D03*
%TO.P,Q25,K7*%
X158775000Y-107900000D03*
%TO.P,Q25,K8*%
X157975000Y-107900000D03*
%TO.P,Q25,K9*%
X157175000Y-107900000D03*
%TO.P,Q25,L1*%
X163575000Y-108700000D03*
%TO.P,Q25,L2*%
X162775000Y-108700000D03*
%TO.P,Q25,L3*%
X161975000Y-108700000D03*
%TO.P,Q25,L7*%
X158775000Y-108700000D03*
%TO.P,Q25,L8*%
X157975000Y-108700000D03*
%TO.P,Q25,L9*%
X157175000Y-108700000D03*
%TO.P,Q25,M1*%
X163575000Y-109500000D03*
%TO.P,Q25,M2*%
X162775000Y-109500000D03*
%TO.P,Q25,M3*%
X161975000Y-109500000D03*
%TO.P,Q25,M7*%
X158775000Y-109500000D03*
%TO.P,Q25,M8*%
X157975000Y-109500000D03*
%TO.P,Q25,M9*%
X157175000Y-109500000D03*
%TO.P,Q25,N1*%
X163575000Y-110300000D03*
%TO.P,Q25,N2*%
X162775000Y-110300000D03*
%TO.P,Q25,N3*%
X161975000Y-110300000D03*
%TO.P,Q25,N7*%
X158775000Y-110300000D03*
%TO.P,Q25,N8*%
X157975000Y-110300000D03*
%TO.P,Q25,N9*%
X157175000Y-110300000D03*
%TO.P,Q25,P1*%
X163575000Y-111100000D03*
%TO.P,Q25,P2*%
X162775000Y-111100000D03*
%TO.P,Q25,P3*%
X161975000Y-111100000D03*
%TO.P,Q25,P7*%
X158775000Y-111100000D03*
%TO.P,Q25,P8*%
X157975000Y-111100000D03*
%TO.P,Q25,P9*%
X157175000Y-111100000D03*
%TO.P,Q25,R1*%
X163575000Y-111900000D03*
%TO.P,Q25,R2*%
X162775000Y-111900000D03*
%TO.P,Q25,R3*%
X161975000Y-111900000D03*
%TO.P,Q25,R7*%
X158775000Y-111900000D03*
%TO.P,Q25,R8*%
X157975000Y-111900000D03*
%TO.P,Q25,R9*%
X157175000Y-111900000D03*
%TO.P,Q25,T1*%
X163575000Y-112700000D03*
%TO.P,Q25,T2*%
X162775000Y-112700000D03*
%TO.P,Q25,T3*%
X161975000Y-112700000D03*
%TO.P,Q25,T7*%
X158775000Y-112700000D03*
%TO.P,Q25,T8*%
X157975000Y-112700000D03*
%TO.P,Q25,T9*%
X157175000Y-112700000D03*
%TD*%
D36*
%TO.P,Q26,A1*%
%TO.N,/Pin1*%
X146275000Y-100100000D03*
%TO.P,Q26,A2*%
%TO.N,N/C*%
X145475000Y-100100000D03*
%TO.P,Q26,A3*%
X144675000Y-100100000D03*
%TO.P,Q26,A4*%
X143875000Y-100100000D03*
%TO.P,Q26,A5*%
X143075000Y-100100000D03*
%TO.P,Q26,A6*%
X142275000Y-100100000D03*
%TO.P,Q26,A7*%
X141475000Y-100100000D03*
%TO.P,Q26,A8*%
X140675000Y-100100000D03*
%TO.P,Q26,A9*%
X139875000Y-100100000D03*
%TO.P,Q26,A10*%
X139075000Y-100100000D03*
%TO.P,Q26,B1*%
X146275000Y-100900000D03*
%TO.P,Q26,B2*%
X145475000Y-100900000D03*
%TO.P,Q26,B3*%
X144675000Y-100900000D03*
%TO.P,Q26,B4*%
X143875000Y-100900000D03*
%TO.P,Q26,B5*%
X143075000Y-100900000D03*
%TO.P,Q26,B6*%
X142275000Y-100900000D03*
%TO.P,Q26,B7*%
X141475000Y-100900000D03*
%TO.P,Q26,B8*%
X140675000Y-100900000D03*
%TO.P,Q26,B9*%
X139875000Y-100900000D03*
%TO.P,Q26,B10*%
X139075000Y-100900000D03*
%TO.P,Q26,C1*%
X146275000Y-101700000D03*
%TO.P,Q26,C2*%
X145475000Y-101700000D03*
%TO.P,Q26,C3*%
X144675000Y-101700000D03*
%TO.P,Q26,C4*%
X143875000Y-101700000D03*
%TO.P,Q26,C5*%
X143075000Y-101700000D03*
%TO.P,Q26,C6*%
X142275000Y-101700000D03*
%TO.P,Q26,C7*%
X141475000Y-101700000D03*
%TO.P,Q26,C8*%
X140675000Y-101700000D03*
%TO.P,Q26,C9*%
X139875000Y-101700000D03*
%TO.P,Q26,C10*%
X139075000Y-101700000D03*
%TO.P,Q26,D1*%
X146275000Y-102500000D03*
%TO.P,Q26,D2*%
X145475000Y-102500000D03*
%TO.P,Q26,D3*%
X144675000Y-102500000D03*
%TO.P,Q26,D4*%
X143875000Y-102500000D03*
%TO.P,Q26,D5*%
X143075000Y-102500000D03*
%TO.P,Q26,D6*%
X142275000Y-102500000D03*
%TO.P,Q26,D7*%
X141475000Y-102500000D03*
%TO.P,Q26,D8*%
X140675000Y-102500000D03*
%TO.P,Q26,D9*%
X139875000Y-102500000D03*
%TO.P,Q26,D10*%
X139075000Y-102500000D03*
%TO.P,Q26,E1*%
X146275000Y-103300000D03*
%TO.P,Q26,E2*%
X145475000Y-103300000D03*
%TO.P,Q26,E3*%
X144675000Y-103300000D03*
%TO.P,Q26,E4*%
X143875000Y-103300000D03*
%TO.P,Q26,E5*%
X143075000Y-103300000D03*
%TO.P,Q26,E6*%
X142275000Y-103300000D03*
%TO.P,Q26,E7*%
X141475000Y-103300000D03*
%TO.P,Q26,E8*%
X140675000Y-103300000D03*
%TO.P,Q26,E9*%
X139875000Y-103300000D03*
%TO.P,Q26,E10*%
X139075000Y-103300000D03*
%TO.P,Q26,F1*%
X146275000Y-104100000D03*
%TO.P,Q26,F2*%
X145475000Y-104100000D03*
%TO.P,Q26,F3*%
X144675000Y-104100000D03*
%TO.P,Q26,F4*%
X143875000Y-104100000D03*
%TO.P,Q26,F5*%
X143075000Y-104100000D03*
%TO.P,Q26,F6*%
X142275000Y-104100000D03*
%TO.P,Q26,F7*%
X141475000Y-104100000D03*
%TO.P,Q26,F8*%
X140675000Y-104100000D03*
%TO.P,Q26,F9*%
X139875000Y-104100000D03*
%TO.P,Q26,F10*%
X139075000Y-104100000D03*
%TO.P,Q26,G1*%
X146275000Y-104900000D03*
%TO.P,Q26,G2*%
X145475000Y-104900000D03*
%TO.P,Q26,G3*%
X144675000Y-104900000D03*
%TO.P,Q26,G4*%
X143875000Y-104900000D03*
%TO.P,Q26,G5*%
X143075000Y-104900000D03*
%TO.P,Q26,G6*%
X142275000Y-104900000D03*
%TO.P,Q26,G7*%
X141475000Y-104900000D03*
%TO.P,Q26,G8*%
X140675000Y-104900000D03*
%TO.P,Q26,G9*%
X139875000Y-104900000D03*
%TO.P,Q26,G10*%
X139075000Y-104900000D03*
%TO.P,Q26,H1*%
X146275000Y-105700000D03*
%TO.P,Q26,H2*%
X145475000Y-105700000D03*
%TO.P,Q26,H3*%
X144675000Y-105700000D03*
%TO.P,Q26,H4*%
X143875000Y-105700000D03*
%TO.P,Q26,H5*%
X143075000Y-105700000D03*
%TO.P,Q26,H6*%
X142275000Y-105700000D03*
%TO.P,Q26,H7*%
X141475000Y-105700000D03*
%TO.P,Q26,H8*%
X140675000Y-105700000D03*
%TO.P,Q26,H9*%
X139875000Y-105700000D03*
%TO.P,Q26,H10*%
X139075000Y-105700000D03*
%TO.P,Q26,J1*%
X146275000Y-106500000D03*
%TO.P,Q26,J2*%
X145475000Y-106500000D03*
%TO.P,Q26,J3*%
X144675000Y-106500000D03*
%TO.P,Q26,J4*%
X143875000Y-106500000D03*
%TO.P,Q26,J5*%
X143075000Y-106500000D03*
%TO.P,Q26,J6*%
X142275000Y-106500000D03*
%TO.P,Q26,J7*%
X141475000Y-106500000D03*
%TO.P,Q26,J8*%
X140675000Y-106500000D03*
%TO.P,Q26,J9*%
X139875000Y-106500000D03*
%TO.P,Q26,J10*%
X139075000Y-106500000D03*
%TO.P,Q26,K1*%
X146275000Y-107300000D03*
%TO.P,Q26,K2*%
X145475000Y-107300000D03*
%TO.P,Q26,K3*%
X144675000Y-107300000D03*
%TO.P,Q26,K4*%
X143875000Y-107300000D03*
%TO.P,Q26,K5*%
X143075000Y-107300000D03*
%TO.P,Q26,K6*%
X142275000Y-107300000D03*
%TO.P,Q26,K7*%
X141475000Y-107300000D03*
%TO.P,Q26,K8*%
X140675000Y-107300000D03*
%TO.P,Q26,K9*%
X139875000Y-107300000D03*
%TO.P,Q26,K10*%
X139075000Y-107300000D03*
%TD*%
D37*
%TO.P,Q27,A1*%
%TO.N,/Pin1*%
X167270000Y-101100000D03*
%TO.P,Q27,A2*%
%TO.N,N/C*%
X166770000Y-101100000D03*
%TO.P,Q27,A3*%
X166270000Y-101100000D03*
%TO.P,Q27,A4*%
X165770000Y-101100000D03*
%TO.P,Q27,B1*%
X167270000Y-101600000D03*
%TO.P,Q27,B2*%
X166770000Y-101600000D03*
%TO.P,Q27,B3*%
X166270000Y-101600000D03*
%TO.P,Q27,B4*%
X165770000Y-101600000D03*
%TO.P,Q27,C1*%
X167270000Y-102100000D03*
%TO.P,Q27,C2*%
X166770000Y-102100000D03*
%TO.P,Q27,C3*%
X166270000Y-102100000D03*
%TO.P,Q27,C4*%
X165770000Y-102100000D03*
%TO.P,Q27,D1*%
X167270000Y-102600000D03*
%TO.P,Q27,D2*%
X166770000Y-102600000D03*
%TO.P,Q27,D3*%
X166270000Y-102600000D03*
%TO.P,Q27,D4*%
X165770000Y-102600000D03*
%TD*%
D38*
%TO.P,Q23,1*%
%TO.N,/Pin1*%
X80480000Y-112495000D03*
%TO.P,Q23,2*%
%TO.N,N/C*%
X80480000Y-113765000D03*
%TO.P,Q23,3*%
X80480000Y-115035000D03*
%TO.P,Q23,4*%
X80480000Y-116305000D03*
%TO.P,Q23,5*%
X75080000Y-116305000D03*
%TO.P,Q23,6*%
X75080000Y-115035000D03*
%TO.P,Q23,7*%
X75080000Y-113765000D03*
%TO.P,Q23,8*%
X75080000Y-112495000D03*
%TD*%
D39*
%TO.P,Q17,1*%
%TO.N,/Pin1*%
X91685000Y-110540000D03*
%TO.P,Q17,2*%
%TO.N,N/C*%
X91685000Y-111810000D03*
%TO.P,Q17,3*%
X91685000Y-113080000D03*
%TO.P,Q17,4*%
X91685000Y-114350000D03*
%TO.P,Q17,5*%
X84285000Y-114350000D03*
%TO.P,Q17,6*%
X84285000Y-113080000D03*
%TO.P,Q17,7*%
X84285000Y-111810000D03*
%TO.P,Q17,8*%
X84285000Y-110540000D03*
%TD*%
D40*
%TO.P,Q13,1*%
%TO.N,/Pin1*%
X86650000Y-99680000D03*
%TO.P,Q13,2*%
%TO.N,N/C*%
X87300000Y-99680000D03*
%TO.P,Q13,3*%
X87950000Y-99680000D03*
%TO.P,Q13,4*%
X88600000Y-99680000D03*
%TO.P,Q13,5*%
X89250000Y-99680000D03*
%TO.P,Q13,6*%
X89900000Y-99680000D03*
%TO.P,Q13,7*%
X90550000Y-99680000D03*
%TO.P,Q13,8*%
X91200000Y-99680000D03*
%TO.P,Q13,9*%
X91200000Y-105580000D03*
%TO.P,Q13,10*%
X90550000Y-105580000D03*
%TO.P,Q13,11*%
X89900000Y-105580000D03*
%TO.P,Q13,12*%
X89250000Y-105580000D03*
%TO.P,Q13,13*%
X88600000Y-105580000D03*
%TO.P,Q13,14*%
X87950000Y-105580000D03*
%TO.P,Q13,15*%
X87300000Y-105580000D03*
%TO.P,Q13,16*%
X86650000Y-105580000D03*
%TD*%
D41*
%TO.P,Q34,A1*%
%TO.N,/Pin1*%
X165910000Y-111507000D03*
%TO.P,Q34,A3*%
%TO.N,N/C*%
X165510000Y-111507000D03*
%TO.P,Q34,B2*%
X165710000Y-111853500D03*
%TO.P,Q34,C1*%
X165910000Y-112200000D03*
%TO.P,Q34,C3*%
X165510000Y-112200000D03*
%TD*%
D42*
%TO.P,Q35,A1*%
%TO.N,/Pin1*%
X154800000Y-100325000D03*
%TO.P,Q35,A2*%
%TO.N,N/C*%
X154000000Y-100325000D03*
%TO.P,Q35,A3*%
X153200000Y-100325000D03*
%TO.P,Q35,A7*%
X150000000Y-100325000D03*
%TO.P,Q35,A8*%
X149200000Y-100325000D03*
%TO.P,Q35,A9*%
X148400000Y-100325000D03*
%TO.P,Q35,B1*%
X154800000Y-101125000D03*
%TO.P,Q35,B2*%
X154000000Y-101125000D03*
%TO.P,Q35,B3*%
X153200000Y-101125000D03*
%TO.P,Q35,B7*%
X150000000Y-101125000D03*
%TO.P,Q35,B8*%
X149200000Y-101125000D03*
%TO.P,Q35,B9*%
X148400000Y-101125000D03*
%TO.P,Q35,C1*%
X154800000Y-101925000D03*
%TO.P,Q35,C2*%
X154000000Y-101925000D03*
%TO.P,Q35,C3*%
X153200000Y-101925000D03*
%TO.P,Q35,C7*%
X150000000Y-101925000D03*
%TO.P,Q35,C8*%
X149200000Y-101925000D03*
%TO.P,Q35,C9*%
X148400000Y-101925000D03*
%TO.P,Q35,D1*%
X154800000Y-102725000D03*
%TO.P,Q35,D2*%
X154000000Y-102725000D03*
%TO.P,Q35,D3*%
X153200000Y-102725000D03*
%TO.P,Q35,D7*%
X150000000Y-102725000D03*
%TO.P,Q35,D8*%
X149200000Y-102725000D03*
%TO.P,Q35,D9*%
X148400000Y-102725000D03*
%TO.P,Q35,E1*%
X154800000Y-103525000D03*
%TO.P,Q35,E2*%
X154000000Y-103525000D03*
%TO.P,Q35,E3*%
X153200000Y-103525000D03*
%TO.P,Q35,E7*%
X150000000Y-103525000D03*
%TO.P,Q35,E8*%
X149200000Y-103525000D03*
%TO.P,Q35,E9*%
X148400000Y-103525000D03*
%TO.P,Q35,F1*%
X154800000Y-104325000D03*
%TO.P,Q35,F2*%
X154000000Y-104325000D03*
%TO.P,Q35,F3*%
X153200000Y-104325000D03*
%TO.P,Q35,F7*%
X150000000Y-104325000D03*
%TO.P,Q35,F8*%
X149200000Y-104325000D03*
%TO.P,Q35,F9*%
X148400000Y-104325000D03*
%TO.P,Q35,G1*%
X154800000Y-105125000D03*
%TO.P,Q35,G2*%
X154000000Y-105125000D03*
%TO.P,Q35,G3*%
X153200000Y-105125000D03*
%TO.P,Q35,G7*%
X150000000Y-105125000D03*
%TO.P,Q35,G8*%
X149200000Y-105125000D03*
%TO.P,Q35,G9*%
X148400000Y-105125000D03*
%TO.P,Q35,H1*%
X154800000Y-105925000D03*
%TO.P,Q35,H2*%
X154000000Y-105925000D03*
%TO.P,Q35,H3*%
X153200000Y-105925000D03*
%TO.P,Q35,H7*%
X150000000Y-105925000D03*
%TO.P,Q35,H8*%
X149200000Y-105925000D03*
%TO.P,Q35,H9*%
X148400000Y-105925000D03*
%TO.P,Q35,J1*%
X154800000Y-106725000D03*
%TO.P,Q35,J2*%
X154000000Y-106725000D03*
%TO.P,Q35,J3*%
X153200000Y-106725000D03*
%TO.P,Q35,J7*%
X150000000Y-106725000D03*
%TO.P,Q35,J8*%
X149200000Y-106725000D03*
%TO.P,Q35,J9*%
X148400000Y-106725000D03*
%TO.P,Q35,K1*%
X154800000Y-107525000D03*
%TO.P,Q35,K2*%
X154000000Y-107525000D03*
%TO.P,Q35,K3*%
X153200000Y-107525000D03*
%TO.P,Q35,K7*%
X150000000Y-107525000D03*
%TO.P,Q35,K8*%
X149200000Y-107525000D03*
%TO.P,Q35,K9*%
X148400000Y-107525000D03*
%TO.P,Q35,L1*%
X154800000Y-108325000D03*
%TO.P,Q35,L2*%
X154000000Y-108325000D03*
%TO.P,Q35,L3*%
X153200000Y-108325000D03*
%TO.P,Q35,L7*%
X150000000Y-108325000D03*
%TO.P,Q35,L8*%
X149200000Y-108325000D03*
%TO.P,Q35,L9*%
X148400000Y-108325000D03*
%TO.P,Q35,M1*%
X154800000Y-109125000D03*
%TO.P,Q35,M2*%
X154000000Y-109125000D03*
%TO.P,Q35,M3*%
X153200000Y-109125000D03*
%TO.P,Q35,M7*%
X150000000Y-109125000D03*
%TO.P,Q35,M8*%
X149200000Y-109125000D03*
%TO.P,Q35,M9*%
X148400000Y-109125000D03*
%TO.P,Q35,N1*%
X154800000Y-109925000D03*
%TO.P,Q35,N2*%
X154000000Y-109925000D03*
%TO.P,Q35,N3*%
X153200000Y-109925000D03*
%TO.P,Q35,N7*%
X150000000Y-109925000D03*
%TO.P,Q35,N8*%
X149200000Y-109925000D03*
%TO.P,Q35,N9*%
X148400000Y-109925000D03*
%TD*%
D37*
%TO.P,Q36,A1*%
%TO.N,/Pin1*%
X167430000Y-111670000D03*
%TO.P,Q36,A2*%
%TO.N,N/C*%
X167030000Y-111670000D03*
%TO.P,Q36,B1*%
X167430000Y-112070000D03*
%TO.P,Q36,B2*%
X167030000Y-112070000D03*
%TD*%
%TO.P,Q37,A1*%
%TO.N,/Pin1*%
X158370000Y-114580000D03*
%TO.P,Q37,A2*%
%TO.N,N/C*%
X157870000Y-114580000D03*
%TO.P,Q37,A3*%
X157370000Y-114580000D03*
%TO.P,Q37,A4*%
X156870000Y-114580000D03*
%TO.P,Q37,A5*%
X156370000Y-114580000D03*
%TO.P,Q37,A6*%
X155870000Y-114580000D03*
%TO.P,Q37,B1*%
X158370000Y-115080000D03*
%TO.P,Q37,B2*%
X157870000Y-115080000D03*
%TO.P,Q37,B3*%
X157370000Y-115080000D03*
%TO.P,Q37,B4*%
X156870000Y-115080000D03*
%TO.P,Q37,B5*%
X156370000Y-115080000D03*
%TO.P,Q37,B6*%
X155870000Y-115080000D03*
%TO.P,Q37,C1*%
X158370000Y-115580000D03*
%TO.P,Q37,C2*%
X157870000Y-115580000D03*
%TO.P,Q37,C5*%
X156370000Y-115580000D03*
%TO.P,Q37,C6*%
X155870000Y-115580000D03*
%TO.P,Q37,D1*%
X158370000Y-116080000D03*
%TO.P,Q37,D2*%
X157870000Y-116080000D03*
%TO.P,Q37,D5*%
X156370000Y-116080000D03*
%TO.P,Q37,D6*%
X155870000Y-116080000D03*
%TO.P,Q37,E1*%
X158370000Y-116580000D03*
%TO.P,Q37,E2*%
X157870000Y-116580000D03*
%TO.P,Q37,E3*%
X157370000Y-116580000D03*
%TO.P,Q37,E4*%
X156870000Y-116580000D03*
%TO.P,Q37,E5*%
X156370000Y-116580000D03*
%TO.P,Q37,E6*%
X155870000Y-116580000D03*
%TO.P,Q37,F1*%
X158370000Y-117080000D03*
%TO.P,Q37,F2*%
X157870000Y-117080000D03*
%TO.P,Q37,F3*%
X157370000Y-117080000D03*
%TO.P,Q37,F4*%
X156870000Y-117080000D03*
%TO.P,Q37,F5*%
X156370000Y-117080000D03*
%TO.P,Q37,F6*%
X155870000Y-117080000D03*
%TD*%
D43*
%TO.P,Q38,A1*%
%TO.N,/Pin1*%
X153715000Y-112985000D03*
%TO.P,Q38,A2*%
%TO.N,N/C*%
X152445000Y-112985000D03*
%TO.P,Q38,A3*%
X151175000Y-112985000D03*
%TO.P,Q38,A4*%
X149905000Y-112985000D03*
%TO.P,Q38,A5*%
X148635000Y-112985000D03*
%TO.P,Q38,B1*%
X153715000Y-114255000D03*
%TO.P,Q38,B2*%
X152445000Y-114255000D03*
%TO.P,Q38,B3*%
X151175000Y-114255000D03*
%TO.P,Q38,B4*%
X149905000Y-114255000D03*
%TO.P,Q38,B5*%
X148635000Y-114255000D03*
%TO.P,Q38,C1*%
X153715000Y-115525000D03*
%TO.P,Q38,C2*%
X152445000Y-115525000D03*
%TO.P,Q38,C3*%
X151175000Y-115525000D03*
%TO.P,Q38,C4*%
X149905000Y-115525000D03*
%TO.P,Q38,C5*%
X148635000Y-115525000D03*
%TO.P,Q38,D1*%
X153715000Y-116795000D03*
%TO.P,Q38,D2*%
X152445000Y-116795000D03*
%TO.P,Q38,D3*%
X151175000Y-116795000D03*
%TO.P,Q38,D4*%
X149905000Y-116795000D03*
%TO.P,Q38,D5*%
X148635000Y-116795000D03*
%TO.P,Q38,E1*%
X153715000Y-118065000D03*
%TO.P,Q38,E2*%
X152445000Y-118065000D03*
%TO.P,Q38,E3*%
X151175000Y-118065000D03*
%TO.P,Q38,E4*%
X149905000Y-118065000D03*
%TO.P,Q38,E5*%
X148635000Y-118065000D03*
%TD*%
D44*
%TO.P,Q18,1*%
%TO.N,/Pin1*%
X100000000Y-99640000D03*
%TO.P,Q18,2*%
%TO.N,N/C*%
X100000000Y-100040000D03*
%TO.P,Q18,3*%
X100000000Y-100440000D03*
%TO.P,Q18,4*%
X100000000Y-100840000D03*
%TO.P,Q18,5*%
X100000000Y-101240000D03*
%TO.P,Q18,6*%
X100000000Y-101640000D03*
D45*
%TO.P,Q18,7*%
X99500000Y-102140000D03*
%TO.P,Q18,8*%
X99100000Y-102140000D03*
%TO.P,Q18,9*%
X98700000Y-102140000D03*
%TO.P,Q18,10*%
X98300000Y-102140000D03*
%TO.P,Q18,11*%
X97900000Y-102140000D03*
%TO.P,Q18,12*%
X97500000Y-102140000D03*
D44*
%TO.P,Q18,13*%
X97000000Y-101640000D03*
%TO.P,Q18,14*%
X97000000Y-101240000D03*
%TO.P,Q18,15*%
X97000000Y-100840000D03*
%TO.P,Q18,16*%
X97000000Y-100440000D03*
%TO.P,Q18,17*%
X97000000Y-100040000D03*
%TO.P,Q18,18*%
X97000000Y-99640000D03*
D45*
%TO.P,Q18,19*%
X97500000Y-99140000D03*
%TO.P,Q18,20*%
X97900000Y-99140000D03*
%TO.P,Q18,21*%
X98300000Y-99140000D03*
%TO.P,Q18,22*%
X98700000Y-99140000D03*
%TO.P,Q18,23*%
X99100000Y-99140000D03*
%TO.P,Q18,24*%
X99500000Y-99140000D03*
D46*
%TO.P,Q18,25*%
X98935000Y-101040000D03*
X98935000Y-100240000D03*
X98065000Y-101040000D03*
X98065000Y-100240000D03*
%TD*%
D47*
%TO.P,Q21,1*%
%TO.N,/Pin1*%
X102875000Y-98875000D03*
%TO.P,Q21,2*%
%TO.N,N/C*%
X102875000Y-99675000D03*
%TO.P,Q21,3*%
X102875000Y-100475000D03*
%TO.P,Q21,4*%
X102875000Y-101275000D03*
%TO.P,Q21,5*%
X102875000Y-102075000D03*
%TO.P,Q21,6*%
X102875000Y-102875000D03*
%TO.P,Q21,7*%
X102875000Y-103675000D03*
%TO.P,Q21,8*%
X102875000Y-104475000D03*
D28*
%TO.P,Q21,9*%
X101425000Y-105925000D03*
%TO.P,Q21,10*%
X100625000Y-105925000D03*
%TO.P,Q21,11*%
X99825000Y-105925000D03*
%TO.P,Q21,12*%
X99025000Y-105925000D03*
%TO.P,Q21,13*%
X98225000Y-105925000D03*
%TO.P,Q21,14*%
X97425000Y-105925000D03*
%TO.P,Q21,15*%
X96625000Y-105925000D03*
%TO.P,Q21,16*%
X95825000Y-105925000D03*
D47*
%TO.P,Q21,17*%
X94375000Y-104475000D03*
%TO.P,Q21,18*%
X94375000Y-103675000D03*
%TO.P,Q21,19*%
X94375000Y-102875000D03*
%TO.P,Q21,20*%
X94375000Y-102075000D03*
%TO.P,Q21,21*%
X94375000Y-101275000D03*
%TO.P,Q21,22*%
X94375000Y-100475000D03*
%TO.P,Q21,23*%
X94375000Y-99675000D03*
%TO.P,Q21,24*%
X94375000Y-98875000D03*
D28*
%TO.P,Q21,25*%
X95825000Y-97425000D03*
%TO.P,Q21,26*%
X96625000Y-97425000D03*
%TO.P,Q21,27*%
X97425000Y-97425000D03*
%TO.P,Q21,28*%
X98225000Y-97425000D03*
%TO.P,Q21,29*%
X99025000Y-97425000D03*
%TO.P,Q21,30*%
X99825000Y-97425000D03*
%TO.P,Q21,31*%
X100625000Y-97425000D03*
%TO.P,Q21,32*%
X101425000Y-97425000D03*
%TD*%
D48*
%TO.P,Q20,1*%
%TO.N,/Pin1*%
X131375000Y-101950000D03*
%TO.P,Q20,2*%
%TO.N,N/C*%
X131375000Y-102450000D03*
%TO.P,Q20,3*%
X131375000Y-102950000D03*
%TO.P,Q20,4*%
X131375000Y-103450000D03*
%TO.P,Q20,5*%
X131375000Y-103950000D03*
%TO.P,Q20,6*%
X131375000Y-104450000D03*
%TO.P,Q20,7*%
X131375000Y-104950000D03*
%TO.P,Q20,8*%
X131375000Y-105450000D03*
D49*
%TO.P,Q20,9*%
X129875000Y-106950000D03*
%TO.P,Q20,10*%
X129375000Y-106950000D03*
%TO.P,Q20,11*%
X128875000Y-106950000D03*
%TO.P,Q20,12*%
X128375000Y-106950000D03*
%TO.P,Q20,13*%
X127875000Y-106950000D03*
%TO.P,Q20,14*%
X127375000Y-106950000D03*
%TO.P,Q20,15*%
X126875000Y-106950000D03*
%TO.P,Q20,16*%
X126375000Y-106950000D03*
D48*
%TO.P,Q20,17*%
X124875000Y-105450000D03*
%TO.P,Q20,18*%
X124875000Y-104950000D03*
%TO.P,Q20,19*%
X124875000Y-104450000D03*
%TO.P,Q20,20*%
X124875000Y-103950000D03*
%TO.P,Q20,21*%
X124875000Y-103450000D03*
%TO.P,Q20,22*%
X124875000Y-102950000D03*
%TO.P,Q20,23*%
X124875000Y-102450000D03*
%TO.P,Q20,24*%
X124875000Y-101950000D03*
D49*
%TO.P,Q20,25*%
X126375000Y-100450000D03*
%TO.P,Q20,26*%
X126875000Y-100450000D03*
%TO.P,Q20,27*%
X127375000Y-100450000D03*
%TO.P,Q20,28*%
X127875000Y-100450000D03*
%TO.P,Q20,29*%
X128375000Y-100450000D03*
%TO.P,Q20,30*%
X128875000Y-100450000D03*
%TO.P,Q20,31*%
X129375000Y-100450000D03*
%TO.P,Q20,32*%
X129875000Y-100450000D03*
%TD*%
D50*
%TO.P,Q32,1*%
%TO.N,/Pin1*%
X116025000Y-100150000D03*
%TO.P,Q32,2*%
%TO.N,N/C*%
X116025000Y-100650000D03*
%TO.P,Q32,3*%
X116025000Y-101150000D03*
%TO.P,Q32,4*%
X116025000Y-101650000D03*
%TO.P,Q32,5*%
X116025000Y-102150000D03*
%TO.P,Q32,6*%
X116025000Y-102650000D03*
%TO.P,Q32,7*%
X116025000Y-103150000D03*
%TO.P,Q32,8*%
X116025000Y-103650000D03*
%TO.P,Q32,9*%
X116025000Y-104150000D03*
%TO.P,Q32,10*%
X116025000Y-104650000D03*
%TO.P,Q32,11*%
X116025000Y-105150000D03*
%TO.P,Q32,12*%
X116025000Y-105650000D03*
D51*
%TO.P,Q32,13*%
X114425000Y-107250000D03*
%TO.P,Q32,14*%
X113925000Y-107250000D03*
%TO.P,Q32,15*%
X113425000Y-107250000D03*
%TO.P,Q32,16*%
X112925000Y-107250000D03*
%TO.P,Q32,17*%
X112425000Y-107250000D03*
%TO.P,Q32,18*%
X111925000Y-107250000D03*
%TO.P,Q32,19*%
X111425000Y-107250000D03*
%TO.P,Q32,20*%
X110925000Y-107250000D03*
%TO.P,Q32,21*%
X110425000Y-107250000D03*
%TO.P,Q32,22*%
X109925000Y-107250000D03*
%TO.P,Q32,23*%
X109425000Y-107250000D03*
%TO.P,Q32,24*%
X108925000Y-107250000D03*
D50*
%TO.P,Q32,25*%
X107325000Y-105650000D03*
%TO.P,Q32,26*%
X107325000Y-105150000D03*
%TO.P,Q32,27*%
X107325000Y-104650000D03*
%TO.P,Q32,28*%
X107325000Y-104150000D03*
%TO.P,Q32,29*%
X107325000Y-103650000D03*
%TO.P,Q32,30*%
X107325000Y-103150000D03*
%TO.P,Q32,31*%
X107325000Y-102650000D03*
%TO.P,Q32,32*%
X107325000Y-102150000D03*
%TO.P,Q32,33*%
X107325000Y-101650000D03*
%TO.P,Q32,34*%
X107325000Y-101150000D03*
%TO.P,Q32,35*%
X107325000Y-100650000D03*
%TO.P,Q32,36*%
X107325000Y-100150000D03*
D51*
%TO.P,Q32,37*%
X108925000Y-98550000D03*
%TO.P,Q32,38*%
X109425000Y-98550000D03*
%TO.P,Q32,39*%
X109925000Y-98550000D03*
%TO.P,Q32,40*%
X110425000Y-98550000D03*
%TO.P,Q32,41*%
X110925000Y-98550000D03*
%TO.P,Q32,42*%
X111425000Y-98550000D03*
%TO.P,Q32,43*%
X111925000Y-98550000D03*
%TO.P,Q32,44*%
X112425000Y-98550000D03*
%TO.P,Q32,45*%
X112925000Y-98550000D03*
%TO.P,Q32,46*%
X113425000Y-98550000D03*
%TO.P,Q32,47*%
X113925000Y-98550000D03*
%TO.P,Q32,48*%
X114425000Y-98550000D03*
%TD*%
D52*
%TO.P,Q30,1*%
%TO.N,/Pin1*%
X119968750Y-112593750D03*
%TO.P,Q30,2*%
%TO.N,N/C*%
X119968750Y-113093750D03*
%TO.P,Q30,3*%
X119968750Y-113593750D03*
%TO.P,Q30,4*%
X119968750Y-114093750D03*
%TO.P,Q30,5*%
X119968750Y-114593750D03*
%TO.P,Q30,6*%
X119968750Y-115093750D03*
%TO.P,Q30,7*%
X119968750Y-115593750D03*
%TO.P,Q30,8*%
X119968750Y-116093750D03*
%TO.P,Q30,9*%
X119968750Y-116593750D03*
%TO.P,Q30,10*%
X119968750Y-117093750D03*
%TO.P,Q30,11*%
X119968750Y-117593750D03*
%TO.P,Q30,12*%
X119968750Y-118093750D03*
D53*
%TO.P,Q30,13*%
X119318750Y-118743750D03*
%TO.P,Q30,14*%
X118818750Y-118743750D03*
%TO.P,Q30,15*%
X118318750Y-118743750D03*
%TO.P,Q30,16*%
X117818750Y-118743750D03*
%TO.P,Q30,17*%
X117318750Y-118743750D03*
%TO.P,Q30,18*%
X116818750Y-118743750D03*
%TO.P,Q30,19*%
X116318750Y-118743750D03*
%TO.P,Q30,20*%
X115818750Y-118743750D03*
%TO.P,Q30,21*%
X115318750Y-118743750D03*
%TO.P,Q30,22*%
X114818750Y-118743750D03*
%TO.P,Q30,23*%
X114318750Y-118743750D03*
%TO.P,Q30,24*%
X113818750Y-118743750D03*
D52*
%TO.P,Q30,25*%
X113168750Y-118093750D03*
%TO.P,Q30,26*%
X113168750Y-117593750D03*
%TO.P,Q30,27*%
X113168750Y-117093750D03*
%TO.P,Q30,28*%
X113168750Y-116593750D03*
%TO.P,Q30,29*%
X113168750Y-116093750D03*
%TO.P,Q30,30*%
X113168750Y-115593750D03*
%TO.P,Q30,31*%
X113168750Y-115093750D03*
%TO.P,Q30,32*%
X113168750Y-114593750D03*
%TO.P,Q30,33*%
X113168750Y-114093750D03*
%TO.P,Q30,34*%
X113168750Y-113593750D03*
%TO.P,Q30,35*%
X113168750Y-113093750D03*
%TO.P,Q30,36*%
X113168750Y-112593750D03*
D53*
%TO.P,Q30,37*%
X113818750Y-111943750D03*
%TO.P,Q30,38*%
X114318750Y-111943750D03*
%TO.P,Q30,39*%
X114818750Y-111943750D03*
%TO.P,Q30,40*%
X115318750Y-111943750D03*
%TO.P,Q30,41*%
X115818750Y-111943750D03*
%TO.P,Q30,42*%
X116318750Y-111943750D03*
%TO.P,Q30,43*%
X116818750Y-111943750D03*
%TO.P,Q30,44*%
X117318750Y-111943750D03*
%TO.P,Q30,45*%
X117818750Y-111943750D03*
%TO.P,Q30,46*%
X118318750Y-111943750D03*
%TO.P,Q30,47*%
X118818750Y-111943750D03*
%TO.P,Q30,48*%
X119318750Y-111943750D03*
D54*
%TO.P,Q30,49*%
X118500000Y-117275000D03*
X118500000Y-115987500D03*
X118500000Y-114700000D03*
X118500000Y-113412500D03*
X117212500Y-117275000D03*
X117212500Y-115987500D03*
X117212500Y-114700000D03*
X117212500Y-113412500D03*
X115925000Y-117275000D03*
X115925000Y-115987500D03*
X115925000Y-114700000D03*
X115925000Y-113412500D03*
X114637500Y-117275000D03*
X114637500Y-115987500D03*
X114637500Y-114700000D03*
X114637500Y-113412500D03*
%TD*%
D55*
%TO.P,Q28,1*%
%TO.N,/Pin1*%
X135590000Y-114950000D03*
%TO.P,Q28,2*%
%TO.N,N/C*%
X135590000Y-115450000D03*
%TO.P,Q28,3*%
X135590000Y-115950000D03*
%TO.P,Q28,4*%
X135590000Y-116450000D03*
%TO.P,Q28,5*%
X135590000Y-116950000D03*
D56*
%TO.P,Q28,6*%
X134625000Y-117915000D03*
%TO.P,Q28,7*%
X134125000Y-117915000D03*
%TO.P,Q28,8*%
X133625000Y-117915000D03*
%TO.P,Q28,9*%
X133125000Y-117915000D03*
%TO.P,Q28,10*%
X132625000Y-117915000D03*
D55*
%TO.P,Q28,11*%
X131660000Y-116950000D03*
%TO.P,Q28,12*%
X131660000Y-116450000D03*
%TO.P,Q28,13*%
X131660000Y-115950000D03*
%TO.P,Q28,14*%
X131660000Y-115450000D03*
%TO.P,Q28,15*%
X131660000Y-114950000D03*
D56*
%TO.P,Q28,16*%
X132625000Y-113985000D03*
%TO.P,Q28,17*%
X133125000Y-113985000D03*
%TO.P,Q28,18*%
X133625000Y-113985000D03*
%TO.P,Q28,19*%
X134125000Y-113985000D03*
%TO.P,Q28,20*%
X134625000Y-113985000D03*
D57*
%TO.P,Q28,21*%
X134250000Y-116575000D03*
X134250000Y-115325000D03*
X133000000Y-116575000D03*
X133000000Y-115325000D03*
%TD*%
D58*
%TO.P,Q29,1*%
%TO.N,/Pin1*%
X110625000Y-112600000D03*
%TO.P,Q29,2*%
%TO.N,N/C*%
X110625000Y-113100000D03*
%TO.P,Q29,3*%
X110625000Y-113600000D03*
%TO.P,Q29,4*%
X110625000Y-114100000D03*
%TO.P,Q29,5*%
X110625000Y-114600000D03*
%TO.P,Q29,6*%
X110625000Y-115100000D03*
%TO.P,Q29,7*%
X110625000Y-115600000D03*
%TO.P,Q29,8*%
X110625000Y-116100000D03*
%TO.P,Q29,9*%
X110625000Y-116600000D03*
%TO.P,Q29,10*%
X110625000Y-117100000D03*
D59*
%TO.P,Q29,11*%
X109875000Y-117850000D03*
%TO.P,Q29,12*%
X109375000Y-117850000D03*
%TO.P,Q29,13*%
X108875000Y-117850000D03*
%TO.P,Q29,14*%
X108375000Y-117850000D03*
%TO.P,Q29,15*%
X107875000Y-117850000D03*
%TO.P,Q29,16*%
X107375000Y-117850000D03*
%TO.P,Q29,17*%
X106875000Y-117850000D03*
%TO.P,Q29,18*%
X106375000Y-117850000D03*
%TO.P,Q29,19*%
X105875000Y-117850000D03*
%TO.P,Q29,20*%
X105375000Y-117850000D03*
D58*
%TO.P,Q29,21*%
X104625000Y-117100000D03*
%TO.P,Q29,22*%
X104625000Y-116600000D03*
%TO.P,Q29,23*%
X104625000Y-116100000D03*
%TO.P,Q29,24*%
X104625000Y-115600000D03*
%TO.P,Q29,25*%
X104625000Y-115100000D03*
%TO.P,Q29,26*%
X104625000Y-114600000D03*
%TO.P,Q29,27*%
X104625000Y-114100000D03*
%TO.P,Q29,28*%
X104625000Y-113600000D03*
%TO.P,Q29,29*%
X104625000Y-113100000D03*
%TO.P,Q29,30*%
X104625000Y-112600000D03*
D59*
%TO.P,Q29,31*%
X105375000Y-111850000D03*
%TO.P,Q29,32*%
X105875000Y-111850000D03*
%TO.P,Q29,33*%
X106375000Y-111850000D03*
%TO.P,Q29,34*%
X106875000Y-111850000D03*
%TO.P,Q29,35*%
X107375000Y-111850000D03*
%TO.P,Q29,36*%
X107875000Y-111850000D03*
%TO.P,Q29,37*%
X108375000Y-111850000D03*
%TO.P,Q29,38*%
X108875000Y-111850000D03*
%TO.P,Q29,39*%
X109375000Y-111850000D03*
%TO.P,Q29,40*%
X109875000Y-111850000D03*
D60*
%TO.P,Q29,41*%
X109350000Y-116575000D03*
X109350000Y-115425000D03*
X109350000Y-114275000D03*
X109350000Y-113125000D03*
X108200000Y-116575000D03*
X108200000Y-115425000D03*
X108200000Y-114275000D03*
X108200000Y-113125000D03*
X107050000Y-116575000D03*
X107050000Y-115425000D03*
X107050000Y-114275000D03*
X107050000Y-113125000D03*
X105900000Y-116575000D03*
X105900000Y-115425000D03*
X105900000Y-114275000D03*
X105900000Y-113125000D03*
%TD*%
D61*
%TO.P,Q22,1*%
%TO.N,/Pin1*%
X118375000Y-98625000D03*
%TO.P,Q22,2*%
%TO.N,N/C*%
X118375000Y-99025000D03*
%TO.P,Q22,3*%
X118375000Y-99425000D03*
%TO.P,Q22,4*%
X118375000Y-99825000D03*
%TO.P,Q22,5*%
X118375000Y-100225000D03*
%TO.P,Q22,6*%
X118375000Y-100625000D03*
%TO.P,Q22,7*%
X118375000Y-101025000D03*
%TO.P,Q22,8*%
X118375000Y-101425000D03*
%TO.P,Q22,9*%
X118375000Y-101825000D03*
%TO.P,Q22,10*%
X118375000Y-102225000D03*
%TO.P,Q22,11*%
X118375000Y-102625000D03*
%TO.P,Q22,12*%
X118375000Y-103025000D03*
%TO.P,Q22,13*%
X118375000Y-103425000D03*
%TO.P,Q22,14*%
X118375000Y-103825000D03*
%TO.P,Q22,15*%
X118375000Y-104225000D03*
%TO.P,Q22,16*%
X118375000Y-104625000D03*
%TO.P,Q22,17*%
X118375000Y-105025000D03*
%TO.P,Q22,18*%
X118375000Y-105425000D03*
%TO.P,Q22,19*%
X118375000Y-105825000D03*
%TO.P,Q22,20*%
X118375000Y-106225000D03*
%TO.P,Q22,21*%
X118375000Y-106625000D03*
%TO.P,Q22,22*%
X118375000Y-107025000D03*
%TO.P,Q22,23*%
X118375000Y-107425000D03*
%TO.P,Q22,24*%
X118375000Y-107825000D03*
%TO.P,Q22,25*%
X118375000Y-108225000D03*
D62*
%TO.P,Q22,26*%
X116475000Y-110125000D03*
%TO.P,Q22,27*%
X116075000Y-110125000D03*
%TO.P,Q22,28*%
X115675000Y-110125000D03*
%TO.P,Q22,29*%
X115275000Y-110125000D03*
%TO.P,Q22,30*%
X114875000Y-110125000D03*
%TO.P,Q22,31*%
X114475000Y-110125000D03*
%TO.P,Q22,32*%
X114075000Y-110125000D03*
%TO.P,Q22,33*%
X113675000Y-110125000D03*
%TO.P,Q22,34*%
X113275000Y-110125000D03*
%TO.P,Q22,35*%
X112875000Y-110125000D03*
%TO.P,Q22,36*%
X112475000Y-110125000D03*
%TO.P,Q22,37*%
X112075000Y-110125000D03*
%TO.P,Q22,38*%
X111675000Y-110125000D03*
%TO.P,Q22,39*%
X111275000Y-110125000D03*
%TO.P,Q22,40*%
X110875000Y-110125000D03*
%TO.P,Q22,41*%
X110475000Y-110125000D03*
%TO.P,Q22,42*%
X110075000Y-110125000D03*
%TO.P,Q22,43*%
X109675000Y-110125000D03*
%TO.P,Q22,44*%
X109275000Y-110125000D03*
%TO.P,Q22,45*%
X108875000Y-110125000D03*
%TO.P,Q22,46*%
X108475000Y-110125000D03*
%TO.P,Q22,47*%
X108075000Y-110125000D03*
%TO.P,Q22,48*%
X107675000Y-110125000D03*
%TO.P,Q22,49*%
X107275000Y-110125000D03*
%TO.P,Q22,50*%
X106875000Y-110125000D03*
D61*
%TO.P,Q22,51*%
X104975000Y-108225000D03*
%TO.P,Q22,52*%
X104975000Y-107825000D03*
%TO.P,Q22,53*%
X104975000Y-107425000D03*
%TO.P,Q22,54*%
X104975000Y-107025000D03*
%TO.P,Q22,55*%
X104975000Y-106625000D03*
%TO.P,Q22,56*%
X104975000Y-106225000D03*
%TO.P,Q22,57*%
X104975000Y-105825000D03*
%TO.P,Q22,58*%
X104975000Y-105425000D03*
%TO.P,Q22,59*%
X104975000Y-105025000D03*
%TO.P,Q22,60*%
X104975000Y-104625000D03*
%TO.P,Q22,61*%
X104975000Y-104225000D03*
%TO.P,Q22,62*%
X104975000Y-103825000D03*
%TO.P,Q22,63*%
X104975000Y-103425000D03*
%TO.P,Q22,64*%
X104975000Y-103025000D03*
%TO.P,Q22,65*%
X104975000Y-102625000D03*
%TO.P,Q22,66*%
X104975000Y-102225000D03*
%TO.P,Q22,67*%
X104975000Y-101825000D03*
%TO.P,Q22,68*%
X104975000Y-101425000D03*
%TO.P,Q22,69*%
X104975000Y-101025000D03*
%TO.P,Q22,70*%
X104975000Y-100625000D03*
%TO.P,Q22,71*%
X104975000Y-100225000D03*
%TO.P,Q22,72*%
X104975000Y-99825000D03*
%TO.P,Q22,73*%
X104975000Y-99425000D03*
%TO.P,Q22,74*%
X104975000Y-99025000D03*
%TO.P,Q22,75*%
X104975000Y-98625000D03*
D62*
%TO.P,Q22,76*%
X106875000Y-96725000D03*
%TO.P,Q22,77*%
X107275000Y-96725000D03*
%TO.P,Q22,78*%
X107675000Y-96725000D03*
%TO.P,Q22,79*%
X108075000Y-96725000D03*
%TO.P,Q22,80*%
X108475000Y-96725000D03*
%TO.P,Q22,81*%
X108875000Y-96725000D03*
%TO.P,Q22,82*%
X109275000Y-96725000D03*
%TO.P,Q22,83*%
X109675000Y-96725000D03*
%TO.P,Q22,84*%
X110075000Y-96725000D03*
%TO.P,Q22,85*%
X110475000Y-96725000D03*
%TO.P,Q22,86*%
X110875000Y-96725000D03*
%TO.P,Q22,87*%
X111275000Y-96725000D03*
%TO.P,Q22,88*%
X111675000Y-96725000D03*
%TO.P,Q22,89*%
X112075000Y-96725000D03*
%TO.P,Q22,90*%
X112475000Y-96725000D03*
%TO.P,Q22,91*%
X112875000Y-96725000D03*
%TO.P,Q22,92*%
X113275000Y-96725000D03*
%TO.P,Q22,93*%
X113675000Y-96725000D03*
%TO.P,Q22,94*%
X114075000Y-96725000D03*
%TO.P,Q22,95*%
X114475000Y-96725000D03*
%TO.P,Q22,96*%
X114875000Y-96725000D03*
%TO.P,Q22,97*%
X115275000Y-96725000D03*
%TO.P,Q22,98*%
X115675000Y-96725000D03*
%TO.P,Q22,99*%
X116075000Y-96725000D03*
%TO.P,Q22,100*%
X116475000Y-96725000D03*
%TD*%
D63*
%TO.P,Q39,A1*%
%TO.N,/Pin1*%
X146800000Y-109150000D03*
%TO.P,Q39,A2*%
%TO.N,N/C*%
X146150000Y-109150000D03*
%TO.P,Q39,A3*%
X145500000Y-109150000D03*
%TO.P,Q39,A4*%
X144850000Y-109150000D03*
%TO.P,Q39,A5*%
X144200000Y-109150000D03*
%TO.P,Q39,A6*%
X143550000Y-109150000D03*
%TO.P,Q39,A7*%
X142900000Y-109150000D03*
%TO.P,Q39,A8*%
X142250000Y-109150000D03*
%TO.P,Q39,A9*%
X141600000Y-109150000D03*
%TO.P,Q39,A10*%
X140950000Y-109150000D03*
%TO.P,Q39,A11*%
X140300000Y-109150000D03*
%TO.P,Q39,A12*%
X139650000Y-109150000D03*
%TO.P,Q39,A13*%
X139000000Y-109150000D03*
%TO.P,Q39,A14*%
X138350000Y-109150000D03*
%TO.P,Q39,A15*%
X137700000Y-109150000D03*
%TO.P,Q39,B1*%
X146800000Y-109800000D03*
%TO.P,Q39,B2*%
X146150000Y-109800000D03*
%TO.P,Q39,B3*%
X145500000Y-109800000D03*
%TO.P,Q39,B4*%
X144850000Y-109800000D03*
%TO.P,Q39,B5*%
X144200000Y-109800000D03*
%TO.P,Q39,B6*%
X143550000Y-109800000D03*
%TO.P,Q39,B7*%
X142900000Y-109800000D03*
%TO.P,Q39,B8*%
X142250000Y-109800000D03*
%TO.P,Q39,B9*%
X141600000Y-109800000D03*
%TO.P,Q39,B10*%
X140950000Y-109800000D03*
%TO.P,Q39,B11*%
X140300000Y-109800000D03*
%TO.P,Q39,B12*%
X139650000Y-109800000D03*
%TO.P,Q39,B13*%
X139000000Y-109800000D03*
%TO.P,Q39,B14*%
X138350000Y-109800000D03*
%TO.P,Q39,B15*%
X137700000Y-109800000D03*
%TO.P,Q39,C1*%
X146800000Y-110450000D03*
%TO.P,Q39,C2*%
X146150000Y-110450000D03*
%TO.P,Q39,C3*%
X145500000Y-110450000D03*
%TO.P,Q39,C4*%
X144850000Y-110450000D03*
%TO.P,Q39,C5*%
X144200000Y-110450000D03*
%TO.P,Q39,C6*%
X143550000Y-110450000D03*
%TO.P,Q39,C7*%
X142900000Y-110450000D03*
%TO.P,Q39,C8*%
X142250000Y-110450000D03*
%TO.P,Q39,C9*%
X141600000Y-110450000D03*
%TO.P,Q39,C10*%
X140950000Y-110450000D03*
%TO.P,Q39,C11*%
X140300000Y-110450000D03*
%TO.P,Q39,C12*%
X139650000Y-110450000D03*
%TO.P,Q39,C13*%
X139000000Y-110450000D03*
%TO.P,Q39,C14*%
X138350000Y-110450000D03*
%TO.P,Q39,C15*%
X137700000Y-110450000D03*
%TO.P,Q39,D1*%
X146800000Y-111100000D03*
%TO.P,Q39,D2*%
X146150000Y-111100000D03*
%TO.P,Q39,D3*%
X145500000Y-111100000D03*
%TO.P,Q39,D4*%
X144850000Y-111100000D03*
%TO.P,Q39,D5*%
X144200000Y-111100000D03*
%TO.P,Q39,D6*%
X143550000Y-111100000D03*
%TO.P,Q39,D7*%
X142900000Y-111100000D03*
%TO.P,Q39,D8*%
X142250000Y-111100000D03*
%TO.P,Q39,D9*%
X141600000Y-111100000D03*
%TO.P,Q39,D10*%
X140950000Y-111100000D03*
%TO.P,Q39,D11*%
X140300000Y-111100000D03*
%TO.P,Q39,D12*%
X139650000Y-111100000D03*
%TO.P,Q39,D13*%
X139000000Y-111100000D03*
%TO.P,Q39,D14*%
X138350000Y-111100000D03*
%TO.P,Q39,D15*%
X137700000Y-111100000D03*
%TO.P,Q39,E1*%
X146800000Y-111750000D03*
%TO.P,Q39,E2*%
X146150000Y-111750000D03*
%TO.P,Q39,E3*%
X145500000Y-111750000D03*
%TO.P,Q39,E4*%
X144850000Y-111750000D03*
%TO.P,Q39,E12*%
X139650000Y-111750000D03*
%TO.P,Q39,E13*%
X139000000Y-111750000D03*
%TO.P,Q39,E14*%
X138350000Y-111750000D03*
%TO.P,Q39,E15*%
X137700000Y-111750000D03*
%TO.P,Q39,F1*%
X146800000Y-112400000D03*
%TO.P,Q39,F2*%
X146150000Y-112400000D03*
%TO.P,Q39,F3*%
X145500000Y-112400000D03*
%TO.P,Q39,F4*%
X144850000Y-112400000D03*
%TO.P,Q39,F6*%
X143550000Y-112400000D03*
%TO.P,Q39,F7*%
X142900000Y-112400000D03*
%TO.P,Q39,F8*%
X142250000Y-112400000D03*
%TO.P,Q39,F9*%
X141600000Y-112400000D03*
%TO.P,Q39,F10*%
X140950000Y-112400000D03*
%TO.P,Q39,F12*%
X139650000Y-112400000D03*
%TO.P,Q39,F13*%
X139000000Y-112400000D03*
%TO.P,Q39,F14*%
X138350000Y-112400000D03*
%TO.P,Q39,F15*%
X137700000Y-112400000D03*
%TO.P,Q39,G1*%
X146800000Y-113050000D03*
%TO.P,Q39,G2*%
X146150000Y-113050000D03*
%TO.P,Q39,G3*%
X145500000Y-113050000D03*
%TO.P,Q39,G4*%
X144850000Y-113050000D03*
%TO.P,Q39,G6*%
X143550000Y-113050000D03*
%TO.P,Q39,G7*%
X142900000Y-113050000D03*
%TO.P,Q39,G8*%
X142250000Y-113050000D03*
%TO.P,Q39,G9*%
X141600000Y-113050000D03*
%TO.P,Q39,G10*%
X140950000Y-113050000D03*
%TO.P,Q39,G12*%
X139650000Y-113050000D03*
%TO.P,Q39,G13*%
X139000000Y-113050000D03*
%TO.P,Q39,G14*%
X138350000Y-113050000D03*
%TO.P,Q39,G15*%
X137700000Y-113050000D03*
%TO.P,Q39,H1*%
X146800000Y-113700000D03*
%TO.P,Q39,H2*%
X146150000Y-113700000D03*
%TO.P,Q39,H3*%
X145500000Y-113700000D03*
%TO.P,Q39,H4*%
X144850000Y-113700000D03*
%TO.P,Q39,H6*%
X143550000Y-113700000D03*
%TO.P,Q39,H7*%
X142900000Y-113700000D03*
%TO.P,Q39,H8*%
X142250000Y-113700000D03*
%TO.P,Q39,H9*%
X141600000Y-113700000D03*
%TO.P,Q39,H10*%
X140950000Y-113700000D03*
%TO.P,Q39,H12*%
X139650000Y-113700000D03*
%TO.P,Q39,H13*%
X139000000Y-113700000D03*
%TO.P,Q39,H14*%
X138350000Y-113700000D03*
%TO.P,Q39,H15*%
X137700000Y-113700000D03*
%TO.P,Q39,J1*%
X146800000Y-114350000D03*
%TO.P,Q39,J2*%
X146150000Y-114350000D03*
%TO.P,Q39,J3*%
X145500000Y-114350000D03*
%TO.P,Q39,J4*%
X144850000Y-114350000D03*
%TO.P,Q39,J6*%
X143550000Y-114350000D03*
%TO.P,Q39,J7*%
X142900000Y-114350000D03*
%TO.P,Q39,J8*%
X142250000Y-114350000D03*
%TO.P,Q39,J9*%
X141600000Y-114350000D03*
%TO.P,Q39,J10*%
X140950000Y-114350000D03*
%TO.P,Q39,J12*%
X139650000Y-114350000D03*
%TO.P,Q39,J13*%
X139000000Y-114350000D03*
%TO.P,Q39,J14*%
X138350000Y-114350000D03*
%TO.P,Q39,J15*%
X137700000Y-114350000D03*
%TO.P,Q39,K1*%
X146800000Y-115000000D03*
%TO.P,Q39,K2*%
X146150000Y-115000000D03*
%TO.P,Q39,K3*%
X145500000Y-115000000D03*
%TO.P,Q39,K4*%
X144850000Y-115000000D03*
%TO.P,Q39,K6*%
X143550000Y-115000000D03*
%TO.P,Q39,K7*%
X142900000Y-115000000D03*
%TO.P,Q39,K8*%
X142250000Y-115000000D03*
%TO.P,Q39,K9*%
X141600000Y-115000000D03*
%TO.P,Q39,K10*%
X140950000Y-115000000D03*
%TO.P,Q39,K12*%
X139650000Y-115000000D03*
%TO.P,Q39,K13*%
X139000000Y-115000000D03*
%TO.P,Q39,K14*%
X138350000Y-115000000D03*
%TO.P,Q39,K15*%
X137700000Y-115000000D03*
%TO.P,Q39,L1*%
X146800000Y-115650000D03*
%TO.P,Q39,L2*%
X146150000Y-115650000D03*
%TO.P,Q39,L3*%
X145500000Y-115650000D03*
%TO.P,Q39,L4*%
X144850000Y-115650000D03*
%TO.P,Q39,L12*%
X139650000Y-115650000D03*
%TO.P,Q39,L13*%
X139000000Y-115650000D03*
%TO.P,Q39,L14*%
X138350000Y-115650000D03*
%TO.P,Q39,L15*%
X137700000Y-115650000D03*
%TO.P,Q39,M1*%
X146800000Y-116300000D03*
%TO.P,Q39,M2*%
X146150000Y-116300000D03*
%TO.P,Q39,M3*%
X145500000Y-116300000D03*
%TO.P,Q39,M4*%
X144850000Y-116300000D03*
%TO.P,Q39,M5*%
X144200000Y-116300000D03*
%TO.P,Q39,M6*%
X143550000Y-116300000D03*
%TO.P,Q39,M7*%
X142900000Y-116300000D03*
%TO.P,Q39,M8*%
X142250000Y-116300000D03*
%TO.P,Q39,M9*%
X141600000Y-116300000D03*
%TO.P,Q39,M10*%
X140950000Y-116300000D03*
%TO.P,Q39,M11*%
X140300000Y-116300000D03*
%TO.P,Q39,M12*%
X139650000Y-116300000D03*
%TO.P,Q39,M13*%
X139000000Y-116300000D03*
%TO.P,Q39,M14*%
X138350000Y-116300000D03*
%TO.P,Q39,M15*%
X137700000Y-116300000D03*
%TO.P,Q39,N1*%
X146800000Y-116950000D03*
%TO.P,Q39,N2*%
X146150000Y-116950000D03*
%TO.P,Q39,N3*%
X145500000Y-116950000D03*
%TO.P,Q39,N4*%
X144850000Y-116950000D03*
%TO.P,Q39,N5*%
X144200000Y-116950000D03*
%TO.P,Q39,N6*%
X143550000Y-116950000D03*
%TO.P,Q39,N7*%
X142900000Y-116950000D03*
%TO.P,Q39,N8*%
X142250000Y-116950000D03*
%TO.P,Q39,N9*%
X141600000Y-116950000D03*
%TO.P,Q39,N10*%
X140950000Y-116950000D03*
%TO.P,Q39,N11*%
X140300000Y-116950000D03*
%TO.P,Q39,N12*%
X139650000Y-116950000D03*
%TO.P,Q39,N13*%
X139000000Y-116950000D03*
%TO.P,Q39,N14*%
X138350000Y-116950000D03*
%TO.P,Q39,N15*%
X137700000Y-116950000D03*
%TO.P,Q39,P1*%
X146800000Y-117600000D03*
%TO.P,Q39,P2*%
X146150000Y-117600000D03*
%TO.P,Q39,P3*%
X145500000Y-117600000D03*
%TO.P,Q39,P4*%
X144850000Y-117600000D03*
%TO.P,Q39,P5*%
X144200000Y-117600000D03*
%TO.P,Q39,P6*%
X143550000Y-117600000D03*
%TO.P,Q39,P7*%
X142900000Y-117600000D03*
%TO.P,Q39,P8*%
X142250000Y-117600000D03*
%TO.P,Q39,P9*%
X141600000Y-117600000D03*
%TO.P,Q39,P10*%
X140950000Y-117600000D03*
%TO.P,Q39,P11*%
X140300000Y-117600000D03*
%TO.P,Q39,P12*%
X139650000Y-117600000D03*
%TO.P,Q39,P13*%
X139000000Y-117600000D03*
%TO.P,Q39,P14*%
X138350000Y-117600000D03*
%TO.P,Q39,P15*%
X137700000Y-117600000D03*
%TO.P,Q39,R1*%
X146800000Y-118250000D03*
%TO.P,Q39,R2*%
X146150000Y-118250000D03*
%TO.P,Q39,R3*%
X145500000Y-118250000D03*
%TO.P,Q39,R4*%
X144850000Y-118250000D03*
%TO.P,Q39,R5*%
X144200000Y-118250000D03*
%TO.P,Q39,R6*%
X143550000Y-118250000D03*
%TO.P,Q39,R7*%
X142900000Y-118250000D03*
%TO.P,Q39,R8*%
X142250000Y-118250000D03*
%TO.P,Q39,R9*%
X141600000Y-118250000D03*
%TO.P,Q39,R10*%
X140950000Y-118250000D03*
%TO.P,Q39,R11*%
X140300000Y-118250000D03*
%TO.P,Q39,R12*%
X139650000Y-118250000D03*
%TO.P,Q39,R13*%
X139000000Y-118250000D03*
%TO.P,Q39,R14*%
X138350000Y-118250000D03*
%TO.P,Q39,R15*%
X137700000Y-118250000D03*
%TD*%
D64*
%TO.P,Q31,1*%
%TO.N,/Pin1*%
X102693750Y-109531250D03*
%TO.P,Q31,2*%
%TO.N,N/C*%
X102693750Y-110031250D03*
%TO.P,Q31,3*%
X102693750Y-110531250D03*
%TO.P,Q31,4*%
X102693750Y-111031250D03*
%TO.P,Q31,5*%
X102693750Y-111531250D03*
%TO.P,Q31,6*%
X102693750Y-112031250D03*
%TO.P,Q31,7*%
X102693750Y-112531250D03*
%TO.P,Q31,8*%
X102693750Y-113031250D03*
%TO.P,Q31,9*%
X102693750Y-113531250D03*
%TO.P,Q31,10*%
X102693750Y-114031250D03*
%TO.P,Q31,11*%
X102693750Y-114531250D03*
%TO.P,Q31,12*%
X102693750Y-115031250D03*
%TO.P,Q31,13*%
X102693750Y-115531250D03*
%TO.P,Q31,14*%
X102693750Y-116031250D03*
%TO.P,Q31,15*%
X102693750Y-116531250D03*
%TO.P,Q31,16*%
X102693750Y-117031250D03*
D65*
%TO.P,Q31,17*%
X101993750Y-117731250D03*
%TO.P,Q31,18*%
X101493750Y-117731250D03*
%TO.P,Q31,19*%
X100993750Y-117731250D03*
%TO.P,Q31,20*%
X100493750Y-117731250D03*
%TO.P,Q31,21*%
X99993750Y-117731250D03*
%TO.P,Q31,22*%
X99493750Y-117731250D03*
%TO.P,Q31,23*%
X98993750Y-117731250D03*
%TO.P,Q31,24*%
X98493750Y-117731250D03*
%TO.P,Q31,25*%
X97993750Y-117731250D03*
%TO.P,Q31,26*%
X97493750Y-117731250D03*
%TO.P,Q31,27*%
X96993750Y-117731250D03*
%TO.P,Q31,28*%
X96493750Y-117731250D03*
%TO.P,Q31,29*%
X95993750Y-117731250D03*
%TO.P,Q31,30*%
X95493750Y-117731250D03*
%TO.P,Q31,31*%
X94993750Y-117731250D03*
%TO.P,Q31,32*%
X94493750Y-117731250D03*
D64*
%TO.P,Q31,33*%
X93793750Y-117031250D03*
%TO.P,Q31,34*%
X93793750Y-116531250D03*
%TO.P,Q31,35*%
X93793750Y-116031250D03*
%TO.P,Q31,36*%
X93793750Y-115531250D03*
%TO.P,Q31,37*%
X93793750Y-115031250D03*
%TO.P,Q31,38*%
X93793750Y-114531250D03*
%TO.P,Q31,39*%
X93793750Y-114031250D03*
%TO.P,Q31,40*%
X93793750Y-113531250D03*
%TO.P,Q31,41*%
X93793750Y-113031250D03*
%TO.P,Q31,42*%
X93793750Y-112531250D03*
%TO.P,Q31,43*%
X93793750Y-112031250D03*
%TO.P,Q31,44*%
X93793750Y-111531250D03*
%TO.P,Q31,45*%
X93793750Y-111031250D03*
%TO.P,Q31,46*%
X93793750Y-110531250D03*
%TO.P,Q31,47*%
X93793750Y-110031250D03*
%TO.P,Q31,48*%
X93793750Y-109531250D03*
D65*
%TO.P,Q31,49*%
X94493750Y-108831250D03*
%TO.P,Q31,50*%
X94993750Y-108831250D03*
%TO.P,Q31,51*%
X95493750Y-108831250D03*
%TO.P,Q31,52*%
X95993750Y-108831250D03*
%TO.P,Q31,53*%
X96493750Y-108831250D03*
%TO.P,Q31,54*%
X96993750Y-108831250D03*
%TO.P,Q31,55*%
X97493750Y-108831250D03*
%TO.P,Q31,56*%
X97993750Y-108831250D03*
%TO.P,Q31,57*%
X98493750Y-108831250D03*
%TO.P,Q31,58*%
X98993750Y-108831250D03*
%TO.P,Q31,59*%
X99493750Y-108831250D03*
%TO.P,Q31,60*%
X99993750Y-108831250D03*
%TO.P,Q31,61*%
X100493750Y-108831250D03*
%TO.P,Q31,62*%
X100993750Y-108831250D03*
%TO.P,Q31,63*%
X101493750Y-108831250D03*
%TO.P,Q31,64*%
X101993750Y-108831250D03*
D66*
%TO.P,Q31,65*%
X101000000Y-116037500D03*
X101000000Y-114200000D03*
X101000000Y-112362500D03*
X101000000Y-110525000D03*
X99162500Y-116037500D03*
X99162500Y-114200000D03*
X99162500Y-112362500D03*
X99162500Y-110525000D03*
X97325000Y-116037500D03*
X97325000Y-114200000D03*
X97325000Y-112362500D03*
X97325000Y-110525000D03*
X95487500Y-116037500D03*
X95487500Y-114200000D03*
X95487500Y-112362500D03*
X95487500Y-110525000D03*
%TD*%
D67*
%TO.P,Q19,1*%
%TO.N,/Pin1*%
X135959000Y-98410000D03*
%TO.P,Q19,2*%
%TO.N,N/C*%
X135959000Y-98910000D03*
%TO.P,Q19,3*%
X135959000Y-99410000D03*
%TO.P,Q19,4*%
X135959000Y-99910000D03*
%TO.P,Q19,5*%
X135959000Y-100410000D03*
%TO.P,Q19,6*%
X135959000Y-100910000D03*
%TO.P,Q19,7*%
X135959000Y-101410000D03*
%TO.P,Q19,8*%
X135959000Y-101910000D03*
%TO.P,Q19,9*%
X135959000Y-102410000D03*
%TO.P,Q19,10*%
X135959000Y-102910000D03*
%TO.P,Q19,11*%
X135959000Y-103410000D03*
%TO.P,Q19,12*%
X135959000Y-103910000D03*
%TO.P,Q19,13*%
X135959000Y-104410000D03*
%TO.P,Q19,14*%
X135959000Y-104910000D03*
%TO.P,Q19,15*%
X135959000Y-105410000D03*
%TO.P,Q19,16*%
X135959000Y-105910000D03*
%TO.P,Q19,17*%
X135959000Y-106410000D03*
%TO.P,Q19,18*%
X135959000Y-106910000D03*
%TO.P,Q19,19*%
X135959000Y-107410000D03*
%TO.P,Q19,20*%
X135959000Y-107910000D03*
%TO.P,Q19,21*%
X135959000Y-108410000D03*
%TO.P,Q19,22*%
X135959000Y-108910000D03*
%TO.P,Q19,23*%
X135959000Y-109410000D03*
%TO.P,Q19,24*%
X135959000Y-109910000D03*
%TO.P,Q19,25*%
X135959000Y-110410000D03*
D68*
%TO.P,Q19,26*%
X134259000Y-112110000D03*
%TO.P,Q19,27*%
X133759000Y-112110000D03*
%TO.P,Q19,28*%
X133259000Y-112110000D03*
%TO.P,Q19,29*%
X132759000Y-112110000D03*
%TO.P,Q19,30*%
X132259000Y-112110000D03*
%TO.P,Q19,31*%
X131759000Y-112110000D03*
%TO.P,Q19,32*%
X131259000Y-112110000D03*
%TO.P,Q19,33*%
X130759000Y-112110000D03*
%TO.P,Q19,34*%
X130259000Y-112110000D03*
%TO.P,Q19,35*%
X129759000Y-112110000D03*
%TO.P,Q19,36*%
X129259000Y-112110000D03*
%TO.P,Q19,37*%
X128759000Y-112110000D03*
%TO.P,Q19,38*%
X128259000Y-112110000D03*
%TO.P,Q19,39*%
X127759000Y-112110000D03*
%TO.P,Q19,40*%
X127259000Y-112110000D03*
%TO.P,Q19,41*%
X126759000Y-112110000D03*
%TO.P,Q19,42*%
X126259000Y-112110000D03*
%TO.P,Q19,43*%
X125759000Y-112110000D03*
%TO.P,Q19,44*%
X125259000Y-112110000D03*
%TO.P,Q19,45*%
X124759000Y-112110000D03*
%TO.P,Q19,46*%
X124259000Y-112110000D03*
%TO.P,Q19,47*%
X123759000Y-112110000D03*
%TO.P,Q19,48*%
X123259000Y-112110000D03*
%TO.P,Q19,49*%
X122759000Y-112110000D03*
%TO.P,Q19,50*%
X122259000Y-112110000D03*
D67*
%TO.P,Q19,51*%
X120559000Y-110410000D03*
%TO.P,Q19,52*%
X120559000Y-109910000D03*
%TO.P,Q19,53*%
X120559000Y-109410000D03*
%TO.P,Q19,54*%
X120559000Y-108910000D03*
%TO.P,Q19,55*%
X120559000Y-108410000D03*
%TO.P,Q19,56*%
X120559000Y-107910000D03*
%TO.P,Q19,57*%
X120559000Y-107410000D03*
%TO.P,Q19,58*%
X120559000Y-106910000D03*
%TO.P,Q19,59*%
X120559000Y-106410000D03*
%TO.P,Q19,60*%
X120559000Y-105910000D03*
%TO.P,Q19,61*%
X120559000Y-105410000D03*
%TO.P,Q19,62*%
X120559000Y-104910000D03*
%TO.P,Q19,63*%
X120559000Y-104410000D03*
%TO.P,Q19,64*%
X120559000Y-103910000D03*
%TO.P,Q19,65*%
X120559000Y-103410000D03*
%TO.P,Q19,66*%
X120559000Y-102910000D03*
%TO.P,Q19,67*%
X120559000Y-102410000D03*
%TO.P,Q19,68*%
X120559000Y-101910000D03*
%TO.P,Q19,69*%
X120559000Y-101410000D03*
%TO.P,Q19,70*%
X120559000Y-100910000D03*
%TO.P,Q19,71*%
X120559000Y-100410000D03*
%TO.P,Q19,72*%
X120559000Y-99910000D03*
%TO.P,Q19,73*%
X120559000Y-99410000D03*
%TO.P,Q19,74*%
X120559000Y-98910000D03*
%TO.P,Q19,75*%
X120559000Y-98410000D03*
D68*
%TO.P,Q19,76*%
X122259000Y-96710000D03*
%TO.P,Q19,77*%
X122759000Y-96710000D03*
%TO.P,Q19,78*%
X123259000Y-96710000D03*
%TO.P,Q19,79*%
X123759000Y-96710000D03*
%TO.P,Q19,80*%
X124259000Y-96710000D03*
%TO.P,Q19,81*%
X124759000Y-96710000D03*
%TO.P,Q19,82*%
X125259000Y-96710000D03*
%TO.P,Q19,83*%
X125759000Y-96710000D03*
%TO.P,Q19,84*%
X126259000Y-96710000D03*
%TO.P,Q19,85*%
X126759000Y-96710000D03*
%TO.P,Q19,86*%
X127259000Y-96710000D03*
%TO.P,Q19,87*%
X127759000Y-96710000D03*
%TO.P,Q19,88*%
X128259000Y-96710000D03*
%TO.P,Q19,89*%
X128759000Y-96710000D03*
%TO.P,Q19,90*%
X129259000Y-96710000D03*
%TO.P,Q19,91*%
X129759000Y-96710000D03*
%TO.P,Q19,92*%
X130259000Y-96710000D03*
%TO.P,Q19,93*%
X130759000Y-96710000D03*
%TO.P,Q19,94*%
X131259000Y-96710000D03*
%TO.P,Q19,95*%
X131759000Y-96710000D03*
%TO.P,Q19,96*%
X132259000Y-96710000D03*
%TO.P,Q19,97*%
X132759000Y-96710000D03*
%TO.P,Q19,98*%
X133259000Y-96710000D03*
%TO.P,Q19,99*%
X133759000Y-96710000D03*
%TO.P,Q19,100*%
X134259000Y-96710000D03*
%TD*%
D69*
%TO.P,Q33,1*%
%TO.N,/Pin1*%
X134075000Y-100350000D03*
%TO.P,Q33,2*%
%TO.N,N/C*%
X134075000Y-100850000D03*
%TO.P,Q33,3*%
X134075000Y-101350000D03*
%TO.P,Q33,4*%
X134075000Y-101850000D03*
%TO.P,Q33,5*%
X134075000Y-102350000D03*
%TO.P,Q33,6*%
X134075000Y-102850000D03*
%TO.P,Q33,7*%
X134075000Y-103350000D03*
%TO.P,Q33,8*%
X134075000Y-103850000D03*
%TO.P,Q33,9*%
X134075000Y-104350000D03*
%TO.P,Q33,10*%
X134075000Y-104850000D03*
%TO.P,Q33,11*%
X134075000Y-105350000D03*
%TO.P,Q33,12*%
X134075000Y-105850000D03*
%TO.P,Q33,13*%
X134075000Y-106350000D03*
%TO.P,Q33,14*%
X134075000Y-106850000D03*
%TO.P,Q33,15*%
X134075000Y-107350000D03*
%TO.P,Q33,16*%
X134075000Y-107850000D03*
D70*
%TO.P,Q33,17*%
X132125000Y-109800000D03*
%TO.P,Q33,18*%
X131625000Y-109800000D03*
%TO.P,Q33,19*%
X131125000Y-109800000D03*
%TO.P,Q33,20*%
X130625000Y-109800000D03*
%TO.P,Q33,21*%
X130125000Y-109800000D03*
%TO.P,Q33,22*%
X129625000Y-109800000D03*
%TO.P,Q33,23*%
X129125000Y-109800000D03*
%TO.P,Q33,24*%
X128625000Y-109800000D03*
%TO.P,Q33,25*%
X128125000Y-109800000D03*
%TO.P,Q33,26*%
X127625000Y-109800000D03*
%TO.P,Q33,27*%
X127125000Y-109800000D03*
%TO.P,Q33,28*%
X126625000Y-109800000D03*
%TO.P,Q33,29*%
X126125000Y-109800000D03*
%TO.P,Q33,30*%
X125625000Y-109800000D03*
%TO.P,Q33,31*%
X125125000Y-109800000D03*
%TO.P,Q33,32*%
X124625000Y-109800000D03*
D69*
%TO.P,Q33,33*%
X122675000Y-107850000D03*
%TO.P,Q33,34*%
X122675000Y-107350000D03*
%TO.P,Q33,35*%
X122675000Y-106850000D03*
%TO.P,Q33,36*%
X122675000Y-106350000D03*
%TO.P,Q33,37*%
X122675000Y-105850000D03*
%TO.P,Q33,38*%
X122675000Y-105350000D03*
%TO.P,Q33,39*%
X122675000Y-104850000D03*
%TO.P,Q33,40*%
X122675000Y-104350000D03*
%TO.P,Q33,41*%
X122675000Y-103850000D03*
%TO.P,Q33,42*%
X122675000Y-103350000D03*
%TO.P,Q33,43*%
X122675000Y-102850000D03*
%TO.P,Q33,44*%
X122675000Y-102350000D03*
%TO.P,Q33,45*%
X122675000Y-101850000D03*
%TO.P,Q33,46*%
X122675000Y-101350000D03*
%TO.P,Q33,47*%
X122675000Y-100850000D03*
%TO.P,Q33,48*%
X122675000Y-100350000D03*
D70*
%TO.P,Q33,49*%
X124625000Y-98400000D03*
%TO.P,Q33,50*%
X125125000Y-98400000D03*
%TO.P,Q33,51*%
X125625000Y-98400000D03*
%TO.P,Q33,52*%
X126125000Y-98400000D03*
%TO.P,Q33,53*%
X126625000Y-98400000D03*
%TO.P,Q33,54*%
X127125000Y-98400000D03*
%TO.P,Q33,55*%
X127625000Y-98400000D03*
%TO.P,Q33,56*%
X128125000Y-98400000D03*
%TO.P,Q33,57*%
X128625000Y-98400000D03*
%TO.P,Q33,58*%
X129125000Y-98400000D03*
%TO.P,Q33,59*%
X129625000Y-98400000D03*
%TO.P,Q33,60*%
X130125000Y-98400000D03*
%TO.P,Q33,61*%
X130625000Y-98400000D03*
%TO.P,Q33,62*%
X131125000Y-98400000D03*
%TO.P,Q33,63*%
X131625000Y-98400000D03*
%TO.P,Q33,64*%
X132125000Y-98400000D03*
%TD*%
D52*
%TO.P,Q40,1*%
%TO.N,/Pin1*%
X130177500Y-114632500D03*
%TO.P,Q40,2*%
%TO.N,N/C*%
X130177500Y-115132500D03*
%TO.P,Q40,3*%
X130177500Y-115632500D03*
%TO.P,Q40,4*%
X130177500Y-116132500D03*
%TO.P,Q40,5*%
X130177500Y-116632500D03*
%TO.P,Q40,6*%
X130177500Y-117132500D03*
%TO.P,Q40,7*%
X130177500Y-117632500D03*
%TO.P,Q40,8*%
X130177500Y-118132500D03*
D53*
%TO.P,Q40,9*%
X129527500Y-118782500D03*
%TO.P,Q40,10*%
X129027500Y-118782500D03*
%TO.P,Q40,11*%
X128527500Y-118782500D03*
%TO.P,Q40,12*%
X128027500Y-118782500D03*
%TO.P,Q40,13*%
X127527500Y-118782500D03*
%TO.P,Q40,14*%
X127027500Y-118782500D03*
%TO.P,Q40,15*%
X126527500Y-118782500D03*
%TO.P,Q40,16*%
X126027500Y-118782500D03*
D52*
%TO.P,Q40,17*%
X125377500Y-118132500D03*
%TO.P,Q40,18*%
X125377500Y-117632500D03*
%TO.P,Q40,19*%
X125377500Y-117132500D03*
%TO.P,Q40,20*%
X125377500Y-116632500D03*
%TO.P,Q40,21*%
X125377500Y-116132500D03*
%TO.P,Q40,22*%
X125377500Y-115632500D03*
%TO.P,Q40,23*%
X125377500Y-115132500D03*
%TO.P,Q40,24*%
X125377500Y-114632500D03*
D53*
%TO.P,Q40,25*%
X126027500Y-113982500D03*
%TO.P,Q40,26*%
X126527500Y-113982500D03*
%TO.P,Q40,27*%
X127027500Y-113982500D03*
%TO.P,Q40,28*%
X127527500Y-113982500D03*
%TO.P,Q40,29*%
X128027500Y-113982500D03*
%TO.P,Q40,30*%
X128527500Y-113982500D03*
%TO.P,Q40,31*%
X129027500Y-113982500D03*
%TO.P,Q40,32*%
X129527500Y-113982500D03*
D71*
%TO.P,Q40,33*%
X128640000Y-117245000D03*
X128640000Y-115520000D03*
X126915000Y-117245000D03*
X126915000Y-115520000D03*
%TD*%
D52*
%TO.P,Q41,1*%
%TO.N,/Pin1*%
X123975000Y-114900000D03*
%TO.P,Q41,2*%
%TO.N,N/C*%
X123975000Y-115400000D03*
%TO.P,Q41,3*%
X123975000Y-115900000D03*
D53*
%TO.P,Q41,4*%
X123075000Y-116800000D03*
%TO.P,Q41,5*%
X122575000Y-116800000D03*
%TO.P,Q41,6*%
X122075000Y-116800000D03*
D52*
%TO.P,Q41,7*%
X121175000Y-115900000D03*
%TO.P,Q41,8*%
X121175000Y-115400000D03*
%TO.P,Q41,9*%
X121175000Y-114900000D03*
D53*
%TO.P,Q41,10*%
X122075000Y-114000000D03*
%TO.P,Q41,11*%
X122575000Y-114000000D03*
%TO.P,Q41,12*%
X123075000Y-114000000D03*
D72*
%TO.P,Q41,13*%
X122987500Y-115812500D03*
X122987500Y-114987500D03*
X122162500Y-115812500D03*
X122162500Y-114987500D03*
%TD*%
D73*
%TO.P,XT5,1*%
%TO.N,/Pin1*%
X79440000Y-109160000D03*
%TO.P,XT5,2*%
%TO.N,N/C*%
X77240000Y-109160000D03*
%TO.P,XT5,3*%
X77240000Y-107460000D03*
%TO.P,XT5,4*%
X79440000Y-107460000D03*
%TD*%
D74*
%TO.P,Q43,A1*%
%TO.N,/Pin1*%
X169580000Y-111300000D03*
%TO.P,Q43,A2*%
%TO.N,N/C*%
X169080000Y-111300000D03*
%TO.P,Q43,A3*%
X168580000Y-111300000D03*
%TO.P,Q43,B1*%
X169580000Y-111800000D03*
%TO.P,Q43,B3*%
X168580000Y-111800000D03*
%TO.P,Q43,C1*%
X169580000Y-112300000D03*
%TO.P,Q43,C2*%
X169080000Y-112300000D03*
%TO.P,Q43,C3*%
X168580000Y-112300000D03*
%TD*%
D75*
%TO.N,/Pin1*%
X135959000Y-98410000D02*
X137300000Y-98410000D01*
X155096984Y-100325000D02*
X155289183Y-100132801D01*
X110625000Y-112600000D02*
X110725000Y-112600000D01*
X155759999Y-113359999D02*
X154234999Y-113359999D01*
X135059000Y-98410000D02*
X134075000Y-99394000D01*
X147300001Y-108119999D02*
X147300001Y-99839999D01*
X76220000Y-105655000D02*
X75825000Y-106050000D01*
X118375000Y-98625000D02*
X118375000Y-98375000D01*
X103300000Y-98000000D02*
X102875000Y-98425000D01*
X75825000Y-106050000D02*
X73400000Y-106050000D01*
X81525000Y-97882498D02*
X81525000Y-99775000D01*
X84070000Y-109190000D02*
X91240000Y-109190000D01*
X81525000Y-101175000D02*
X81525000Y-99775000D01*
X158370000Y-114580000D02*
X158370000Y-114070000D01*
X85950000Y-109140000D02*
X85950000Y-101825000D01*
X134864999Y-113274999D02*
X135590000Y-114000000D01*
X166857501Y-110942499D02*
X166293000Y-111507000D01*
X86650000Y-101125000D02*
X86650000Y-99680000D01*
X123975000Y-114800000D02*
X123975000Y-114525000D01*
X87910000Y-95220000D02*
X87700000Y-95220000D01*
X132700000Y-102525000D02*
X132125000Y-101950000D01*
X87700000Y-95220000D02*
X86150000Y-95220000D01*
X111477500Y-111847500D02*
X111587500Y-111737500D01*
X81375000Y-110650000D02*
X82610000Y-110650000D01*
X114925000Y-100150000D02*
X114725000Y-100150000D01*
X80480000Y-111545000D02*
X81375000Y-110650000D01*
X76220000Y-104640000D02*
X76220000Y-105655000D01*
X132700000Y-108820000D02*
X132700000Y-102525000D01*
X103268750Y-109531250D02*
X104962500Y-111225000D01*
X125225001Y-113274999D02*
X129964999Y-113274999D01*
X87910000Y-95640000D02*
X87490000Y-96060000D01*
X94050000Y-96475000D02*
X93135000Y-95560000D01*
X130177500Y-113287500D02*
X130177500Y-113442500D01*
X87490000Y-96060000D02*
X87490000Y-98210000D01*
X87490000Y-98210000D02*
X87200000Y-98500000D01*
X131812500Y-100772500D02*
X131812500Y-100787500D01*
X90530000Y-95220000D02*
X90835000Y-95525000D01*
X164642801Y-100132801D02*
X163577199Y-100132801D01*
X84567498Y-94840000D02*
X81525000Y-97882498D01*
X130164999Y-113274999D02*
X130177500Y-113287500D01*
X118360000Y-111250000D02*
X118977501Y-110632499D01*
X131375000Y-101950000D02*
X131375000Y-101225000D01*
X116025000Y-100150000D02*
X116025000Y-99875000D01*
X90835000Y-95525000D02*
X90835000Y-95885000D01*
X147300001Y-99839999D02*
X147630001Y-99839999D01*
X81650000Y-106720000D02*
X81650000Y-107650000D01*
X167270000Y-100519998D02*
X167270000Y-101100000D01*
X83350000Y-103400000D02*
X83400000Y-103350000D01*
X146275000Y-100100000D02*
X146535001Y-99839999D01*
X73400000Y-106050000D02*
X73095000Y-105745000D01*
X118977501Y-110632499D02*
X114925000Y-106579998D01*
X93135000Y-95560000D02*
X92485000Y-95560000D01*
X94050000Y-97154998D02*
X94050000Y-96475000D01*
X156572801Y-100132801D02*
X156572801Y-99947199D01*
X95335002Y-98440000D02*
X94050000Y-97154998D01*
X100400000Y-98440000D02*
X95335002Y-98440000D01*
X81650000Y-107650000D02*
X81300000Y-108000000D01*
X110855000Y-111225000D02*
X111385000Y-111755000D01*
X155759999Y-100135601D02*
X155757199Y-100132801D01*
X134075000Y-99394000D02*
X134075000Y-100350000D01*
X114925000Y-106579998D02*
X114925000Y-100150000D01*
X79440000Y-110460000D02*
X79440000Y-109160000D01*
X82610000Y-110650000D02*
X84070000Y-109190000D01*
X158370000Y-114070000D02*
X157659999Y-113359999D01*
X102875000Y-98425000D02*
X102875000Y-98875000D01*
X146535001Y-99839999D02*
X147300001Y-99839999D01*
X156572801Y-99762801D02*
X156380000Y-99570000D01*
X74770000Y-109740000D02*
X75890000Y-109740000D01*
X167432499Y-110942499D02*
X169442499Y-110942499D01*
X73095000Y-105745000D02*
X73095000Y-104740000D01*
X78570000Y-106020000D02*
X80520000Y-106020000D01*
X82050000Y-106720000D02*
X83350000Y-105420000D01*
X111385000Y-111755000D02*
X111477500Y-111847500D01*
X91860000Y-95560000D02*
X92485000Y-95560000D01*
X147300001Y-99450001D02*
X147300001Y-99839999D01*
X111587500Y-111737500D02*
X112075000Y-111250000D01*
X131375000Y-101225000D02*
X131812500Y-100787500D01*
X119968750Y-111623748D02*
X118977501Y-110632499D01*
X104962500Y-111225000D02*
X110855000Y-111225000D01*
X129964999Y-113274999D02*
X130164999Y-113274999D01*
X156572801Y-100132801D02*
X163577199Y-100132801D01*
X91535000Y-95885000D02*
X91860000Y-95560000D01*
X163575000Y-100700000D02*
X163575000Y-100135000D01*
X111397500Y-111767500D02*
X111385000Y-111755000D01*
X165910000Y-111507000D02*
X165910000Y-111160000D01*
X134860000Y-113260000D02*
X134860000Y-110980000D01*
X166857501Y-110942499D02*
X167432499Y-110942499D01*
X80600000Y-108000000D02*
X79440000Y-109160000D01*
X86650000Y-98700000D02*
X86650000Y-99680000D01*
X88120000Y-95220000D02*
X90530000Y-95220000D01*
X130355001Y-113274999D02*
X134864999Y-113274999D01*
X91240000Y-109190000D02*
X91685000Y-109635000D01*
X168735000Y-101260000D02*
X169654400Y-101260000D01*
X83350000Y-105420000D02*
X83350000Y-105125000D01*
X85770000Y-94840000D02*
X84567498Y-94840000D01*
X130164999Y-113274999D02*
X130355001Y-113274999D01*
X77190000Y-104640000D02*
X78570000Y-106020000D01*
X169580000Y-111080000D02*
X169580000Y-111300000D01*
X167430000Y-110944998D02*
X167432499Y-110942499D01*
X79300000Y-110600000D02*
X79440000Y-110460000D01*
X100835000Y-98875000D02*
X102875000Y-98875000D01*
X165040001Y-100479999D02*
X167954999Y-100479999D01*
X135959000Y-98410000D02*
X135059000Y-98410000D01*
X110725000Y-112600000D02*
X111397500Y-111927500D01*
X132125000Y-101950000D02*
X131375000Y-101950000D01*
X83400000Y-103350000D02*
X83400000Y-103050000D01*
X146800000Y-108620000D02*
X147300001Y-108119999D01*
X154800000Y-100325000D02*
X155096984Y-100325000D01*
X81300000Y-108000000D02*
X80600000Y-108000000D01*
X100070000Y-99640000D02*
X100710000Y-99000000D01*
X155289183Y-100132801D02*
X155757199Y-100132801D01*
X88120000Y-95220000D02*
X87910000Y-95220000D01*
X106820000Y-98000000D02*
X103300000Y-98000000D01*
X91685000Y-109635000D02*
X91685000Y-110540000D01*
X130470000Y-99430000D02*
X131812500Y-100772500D01*
X147000401Y-99150401D02*
X147300001Y-99450001D01*
X118375000Y-98375000D02*
X118765001Y-97984999D01*
X165910000Y-111507000D02*
X166293000Y-111507000D01*
X117275000Y-98625000D02*
X118375000Y-98625000D01*
X123975000Y-114525000D02*
X125225001Y-113274999D01*
X155759999Y-113359999D02*
X155759999Y-100279999D01*
X155757199Y-100132801D02*
X156572801Y-100132801D01*
X76750000Y-110600000D02*
X79300000Y-110600000D01*
X81220000Y-106720000D02*
X81650000Y-106720000D01*
X112075000Y-111250000D02*
X118360000Y-111250000D01*
X146800000Y-109150000D02*
X146800000Y-108620000D01*
X85950000Y-101825000D02*
X86650000Y-101125000D01*
X100710000Y-99000000D02*
X100835000Y-98875000D01*
X134860000Y-110980000D02*
X132700000Y-108820000D01*
X155759999Y-100279999D02*
X155759999Y-100259999D01*
X75890000Y-109740000D02*
X76750000Y-110600000D01*
X111397500Y-111927500D02*
X111477500Y-111847500D01*
X165910000Y-111160000D02*
X164960000Y-110210000D01*
X153860000Y-112985000D02*
X153715000Y-112985000D01*
X154234999Y-113359999D02*
X153860000Y-112985000D01*
X156572801Y-99947199D02*
X156572801Y-99762801D01*
X111570000Y-111755000D02*
X111587500Y-111737500D01*
X131812500Y-100787500D02*
X132250000Y-100350000D01*
X90835000Y-95885000D02*
X91535000Y-95885000D01*
X138040401Y-99150401D02*
X147000401Y-99150401D01*
X85900000Y-109190000D02*
X85950000Y-109140000D01*
X163575000Y-100135000D02*
X163577199Y-100132801D01*
X118765001Y-97984999D02*
X122674997Y-97984999D01*
X132250000Y-100350000D02*
X134075000Y-100350000D01*
X87910000Y-95220000D02*
X87910000Y-95640000D01*
X156572801Y-99947199D02*
X156572801Y-100012801D01*
X81650000Y-106720000D02*
X82050000Y-106720000D01*
X122674997Y-97984999D02*
X124119998Y-99430000D01*
X124119998Y-99430000D02*
X130470000Y-99430000D01*
X116025000Y-100150000D02*
X114725000Y-100150000D01*
X116025000Y-99875000D02*
X117275000Y-98625000D01*
X164960000Y-110210000D02*
X164960000Y-100450000D01*
X135590000Y-114000000D02*
X135590000Y-114950000D01*
X147900000Y-99570000D02*
X156380000Y-99570000D01*
X102693750Y-109531250D02*
X103268750Y-109531250D01*
X108970000Y-100150000D02*
X106820000Y-98000000D01*
X167430000Y-111670000D02*
X167430000Y-110944998D01*
X130177500Y-113442500D02*
X130177500Y-114632500D01*
X76220000Y-104640000D02*
X77190000Y-104640000D01*
X147630001Y-99839999D02*
X147900000Y-99570000D01*
X80520000Y-106020000D02*
X81220000Y-106720000D01*
X137300000Y-98410000D02*
X138040401Y-99150401D01*
X87200000Y-98500000D02*
X86850000Y-98500000D01*
X100835000Y-98875000D02*
X100400000Y-98440000D01*
X169442499Y-110942499D02*
X169580000Y-111080000D01*
X155759999Y-100279999D02*
X155759999Y-100135601D01*
X86850000Y-98500000D02*
X86650000Y-98700000D01*
X114725000Y-100150000D02*
X108970000Y-100150000D01*
X157659999Y-113359999D02*
X155759999Y-113359999D01*
X119968750Y-112593750D02*
X119968750Y-111623748D01*
X164960000Y-100450000D02*
X164642801Y-100132801D01*
X83400000Y-103050000D02*
X81525000Y-101175000D01*
X83350000Y-105125000D02*
X83350000Y-103400000D01*
X80480000Y-112495000D02*
X80480000Y-111545000D01*
X167954999Y-100479999D02*
X168735000Y-101260000D01*
X86150000Y-95220000D02*
X85770000Y-94840000D01*
%TD*%
%TA.AperFunction,Conductor*%
%TO.N,/Pin1*%
G36*
X167741419Y-95277042D02*
G01*
X167809500Y-95297172D01*
X167855892Y-95350914D01*
X167866459Y-95416508D01*
X167864601Y-95433792D01*
X167864600Y-95433814D01*
X167864600Y-96078400D01*
X168720000Y-96078400D01*
X168720000Y-96586400D01*
X167864600Y-96586400D01*
X167864600Y-97230997D01*
X167871105Y-97291493D01*
X167922154Y-97428363D01*
X167989868Y-97518816D01*
X168014679Y-97585337D01*
X168015000Y-97594326D01*
X168015000Y-99029000D01*
X167994998Y-99097121D01*
X167941342Y-99143614D01*
X167889000Y-99155000D01*
X163496000Y-99155000D01*
X163427879Y-99134998D01*
X163381386Y-99081342D01*
X163370000Y-99029000D01*
X163370000Y-95395107D01*
X163390002Y-95326986D01*
X163443658Y-95280493D01*
X163496231Y-95269107D01*
X167741419Y-95277042D01*
G37*
%TD.AperFunction*%
%TD*%
%TA.AperFunction,Conductor*%
%TO.N,/Pin1*%
G36*
X83423991Y-104328427D02*
G01*
X83427111Y-104334038D01*
X83447588Y-104421691D01*
X83476681Y-104467701D01*
X83500447Y-104505286D01*
X83549571Y-104542428D01*
X83568837Y-104556995D01*
X83634826Y-104571633D01*
X83642159Y-104576770D01*
X83643713Y-104585589D01*
X83642567Y-104588650D01*
X83360276Y-105107126D01*
X83353310Y-105112753D01*
X83344405Y-105111807D01*
X83339724Y-105107126D01*
X83259427Y-104959648D01*
X83058038Y-104589764D01*
X83057093Y-104580861D01*
X83062720Y-104573895D01*
X83066638Y-104572592D01*
X83085067Y-104569925D01*
X83104993Y-104567043D01*
X83104994Y-104567042D01*
X83104998Y-104567042D01*
X83151152Y-104546105D01*
X83190012Y-104515248D01*
X83228139Y-104467702D01*
X83255000Y-104415464D01*
X83272972Y-104334174D01*
X83278104Y-104326836D01*
X83284396Y-104325000D01*
X83415718Y-104325000D01*
X83423991Y-104328427D01*
G37*
%TD.AperFunction*%
%TD*%
%TA.AperFunction,Conductor*%
%TO.N,/Pin1*%
G36*
X91758694Y-110018427D02*
G01*
X91761891Y-110024390D01*
X91778970Y-110109211D01*
X91826126Y-110195082D01*
X91826127Y-110195083D01*
X91826128Y-110195084D01*
X91887032Y-110247019D01*
X91887033Y-110247019D01*
X91887034Y-110247020D01*
X91910213Y-110252731D01*
X91939900Y-110260046D01*
X91947112Y-110265352D01*
X91948460Y-110274205D01*
X91945388Y-110279664D01*
X91693288Y-110532681D01*
X91685021Y-110536123D01*
X91676742Y-110532711D01*
X91676712Y-110532681D01*
X91427068Y-110282130D01*
X91423656Y-110273851D01*
X91427098Y-110265584D01*
X91434024Y-110262248D01*
X91446190Y-110260855D01*
X91488997Y-110243674D01*
X91489000Y-110243672D01*
X91525079Y-110215933D01*
X91525081Y-110215931D01*
X91525082Y-110215930D01*
X91563002Y-110167688D01*
X91589565Y-110113143D01*
X91608060Y-110024314D01*
X91613101Y-110016914D01*
X91619514Y-110015000D01*
X91750421Y-110015000D01*
X91758694Y-110018427D01*
G37*
%TD.AperFunction*%
%TD*%
%TA.AperFunction,Conductor*%
%TO.N,/Pin1*%
G36*
X135662608Y-114653427D02*
G01*
X135665985Y-114660620D01*
X135672918Y-114735381D01*
X135696846Y-114782667D01*
X135696847Y-114782668D01*
X135715385Y-114795334D01*
X135715383Y-114795334D01*
X135718344Y-114795895D01*
X135725835Y-114800802D01*
X135727661Y-114809568D01*
X135724467Y-114815636D01*
X135598301Y-114942643D01*
X135590039Y-114946097D01*
X135581754Y-114942698D01*
X135581699Y-114942643D01*
X135455508Y-114815611D01*
X135452109Y-114807326D01*
X135455563Y-114799064D01*
X135461613Y-114795873D01*
X135464756Y-114795274D01*
X135483359Y-114782458D01*
X135505625Y-114740722D01*
X135513915Y-114660496D01*
X135518174Y-114652620D01*
X135525553Y-114650000D01*
X135654335Y-114650000D01*
X135662608Y-114653427D01*
G37*
%TD.AperFunction*%
%TD*%
%TA.AperFunction,Conductor*%
%TO.N,/Pin1*%
G36*
X81658264Y-106727280D02*
G01*
X82131664Y-107201627D01*
X82135083Y-107209904D01*
X82131648Y-107218173D01*
X82124092Y-107221571D01*
X82063367Y-107225255D01*
X81984306Y-107240108D01*
X81913805Y-107263206D01*
X81805579Y-107326250D01*
X81744255Y-107398394D01*
X81727329Y-107461338D01*
X81721871Y-107468438D01*
X81716030Y-107470000D01*
X81585589Y-107470000D01*
X81577316Y-107466573D01*
X81573947Y-107459463D01*
X81572363Y-107443609D01*
X81572363Y-107443608D01*
X81558084Y-107402878D01*
X81532143Y-107363664D01*
X81492437Y-107324621D01*
X81441345Y-107289855D01*
X81379847Y-107260677D01*
X81379841Y-107260675D01*
X81373824Y-107258786D01*
X81308975Y-107238429D01*
X81308971Y-107238428D01*
X81308965Y-107238427D01*
X81174004Y-107222782D01*
X81166180Y-107218425D01*
X81163729Y-107209813D01*
X81167069Y-107202896D01*
X81641719Y-106727296D01*
X81649988Y-106723862D01*
X81658264Y-106727280D01*
G37*
%TD.AperFunction*%
%TD*%
%TA.AperFunction,Conductor*%
%TO.N,/Pin1*%
G36*
X73103264Y-104747280D02*
G01*
X73576664Y-105221627D01*
X73580083Y-105229904D01*
X73576648Y-105238173D01*
X73569092Y-105241571D01*
X73508367Y-105245255D01*
X73429306Y-105260108D01*
X73358805Y-105283206D01*
X73250579Y-105346250D01*
X73189255Y-105418394D01*
X73172329Y-105481338D01*
X73166871Y-105488438D01*
X73161030Y-105490000D01*
X73030589Y-105490000D01*
X73022316Y-105486573D01*
X73018947Y-105479463D01*
X73017363Y-105463609D01*
X73017363Y-105463608D01*
X73003084Y-105422878D01*
X72977143Y-105383664D01*
X72937437Y-105344621D01*
X72886345Y-105309855D01*
X72824847Y-105280677D01*
X72824841Y-105280675D01*
X72818824Y-105278786D01*
X72753975Y-105258429D01*
X72753971Y-105258428D01*
X72753965Y-105258427D01*
X72619004Y-105242782D01*
X72611180Y-105238425D01*
X72608729Y-105229813D01*
X72612069Y-105222896D01*
X73086719Y-104747296D01*
X73094988Y-104743862D01*
X73103264Y-104747280D01*
G37*
%TD.AperFunction*%
%TD*%
%TA.AperFunction,Conductor*%
%TO.N,/Pin1*%
G36*
X75569037Y-109105848D02*
G01*
X75571621Y-109112374D01*
X75585967Y-109310330D01*
X75585967Y-109310334D01*
X75628482Y-109479775D01*
X75628483Y-109479778D01*
X75684978Y-109587429D01*
X75748418Y-109645762D01*
X75811338Y-109662672D01*
X75818437Y-109668128D01*
X75820000Y-109673970D01*
X75820000Y-109804663D01*
X75816573Y-109812936D01*
X75809742Y-109816274D01*
X75785022Y-109819344D01*
X75785017Y-109819345D01*
X75746098Y-109835584D01*
X75746096Y-109835585D01*
X75710675Y-109863072D01*
X75673285Y-109909283D01*
X75641277Y-109968861D01*
X75611473Y-110051947D01*
X75611470Y-110051957D01*
X75589431Y-110148734D01*
X75589430Y-110148742D01*
X75574929Y-110264093D01*
X75570914Y-110366645D01*
X75567166Y-110374777D01*
X75558765Y-110377878D01*
X75551851Y-110375272D01*
X75051027Y-109968861D01*
X74780194Y-109749084D01*
X74775930Y-109741211D01*
X74778482Y-109732628D01*
X74780192Y-109730917D01*
X75552582Y-109104134D01*
X75561163Y-109101583D01*
X75569037Y-109105848D01*
G37*
%TD.AperFunction*%
%TD*%
%TA.AperFunction,Conductor*%
%TO.N,/Pin1*%
G36*
X102288402Y-98581690D02*
G01*
X102855029Y-98864532D01*
X102860901Y-98871293D01*
X102860272Y-98880225D01*
X102855029Y-98885468D01*
X102289485Y-99167769D01*
X102280553Y-99168398D01*
X102273792Y-99162526D01*
X102272681Y-99158976D01*
X102267043Y-99120006D01*
X102267042Y-99120004D01*
X102267042Y-99120002D01*
X102246105Y-99073848D01*
X102215248Y-99034988D01*
X102167702Y-98996861D01*
X102167701Y-98996860D01*
X102115467Y-98970001D01*
X102115465Y-98970000D01*
X102034174Y-98952028D01*
X102026836Y-98946896D01*
X102025000Y-98940604D01*
X102025000Y-98809281D01*
X102028427Y-98801008D01*
X102034036Y-98797889D01*
X102121691Y-98777412D01*
X102205284Y-98724554D01*
X102256995Y-98656163D01*
X102271756Y-98589622D01*
X102276892Y-98582290D01*
X102285711Y-98580736D01*
X102288402Y-98581690D01*
G37*
%TD.AperFunction*%
%TD*%
%TA.AperFunction,Conductor*%
%TO.N,/Pin1*%
G36*
X92444580Y-95548429D02*
G01*
X92451704Y-95553855D01*
X92452904Y-95562729D01*
X92447478Y-95569853D01*
X92444809Y-95570990D01*
X91996536Y-95699200D01*
X91987640Y-95698180D01*
X91982070Y-95691168D01*
X91982008Y-95690944D01*
X91972601Y-95654600D01*
X91937363Y-95629070D01*
X91937361Y-95629069D01*
X91937360Y-95629069D01*
X91904814Y-95625821D01*
X91897703Y-95622452D01*
X91810009Y-95534758D01*
X91806582Y-95526485D01*
X91810009Y-95518212D01*
X91815958Y-95515018D01*
X91911328Y-95495718D01*
X91967372Y-95464628D01*
X91980856Y-95435865D01*
X91987471Y-95429830D01*
X91994438Y-95429521D01*
X92444580Y-95548429D01*
G37*
%TD.AperFunction*%
%TD*%
%TA.AperFunction,Conductor*%
%TO.N,/Pin1*%
G36*
X83064659Y-105047003D02*
G01*
X83342406Y-105122050D01*
X83349498Y-105127515D01*
X83351044Y-105132885D01*
X83371896Y-105664084D01*
X83368796Y-105672485D01*
X83361465Y-105676175D01*
X83325120Y-105680111D01*
X83325118Y-105680112D01*
X83246244Y-105706365D01*
X83246240Y-105706367D01*
X83167039Y-105748736D01*
X83055900Y-105828664D01*
X83055892Y-105828671D01*
X82979507Y-105897386D01*
X82971064Y-105900372D01*
X82963409Y-105896961D01*
X82872287Y-105805839D01*
X82868860Y-105797566D01*
X82871124Y-105790649D01*
X82901847Y-105748736D01*
X82939703Y-105697093D01*
X82978096Y-105614810D01*
X83009016Y-105521194D01*
X83033321Y-105411522D01*
X83048483Y-105293503D01*
X83049908Y-105058227D01*
X83053385Y-105049976D01*
X83061679Y-105046599D01*
X83064659Y-105047003D01*
G37*
%TD.AperFunction*%
%TD*%
%TA.AperFunction,Conductor*%
%TO.N,/Pin1*%
G36*
X165943698Y-111399544D02*
G01*
X166008887Y-111415537D01*
X166059232Y-111427511D01*
X166059237Y-111427511D01*
X166059240Y-111427512D01*
X166082334Y-111428919D01*
X166121852Y-111431330D01*
X166129899Y-111435253D01*
X166132838Y-111443007D01*
X166132838Y-111570992D01*
X166129411Y-111579265D01*
X166121850Y-111582670D01*
X166059239Y-111586487D01*
X166059231Y-111586489D01*
X166008884Y-111598463D01*
X166008843Y-111598472D01*
X165943722Y-111614449D01*
X165934870Y-111613092D01*
X165929571Y-111605874D01*
X165929479Y-111605468D01*
X165925532Y-111586489D01*
X165909495Y-111509380D01*
X165909495Y-111504618D01*
X165922309Y-111443007D01*
X165929479Y-111408529D01*
X165934519Y-111401129D01*
X165943316Y-111399458D01*
X165943698Y-111399544D01*
G37*
%TD.AperFunction*%
%TD*%
%TA.AperFunction,Conductor*%
%TO.N,/Pin1*%
G36*
X83404572Y-103366034D02*
G01*
X83410051Y-103371779D01*
X83659068Y-103936091D01*
X83659273Y-103945043D01*
X83653087Y-103951518D01*
X83650190Y-103952371D01*
X83598279Y-103960571D01*
X83550269Y-103983373D01*
X83550263Y-103983376D01*
X83509876Y-104015652D01*
X83471762Y-104062373D01*
X83471760Y-104062376D01*
X83444826Y-104113072D01*
X83427075Y-104190902D01*
X83421894Y-104198206D01*
X83415668Y-104200000D01*
X83284911Y-104200000D01*
X83276638Y-104196573D01*
X83273370Y-104190225D01*
X83269870Y-104169245D01*
X83259815Y-104108956D01*
X83259813Y-104108952D01*
X83259813Y-104108950D01*
X83241614Y-104069808D01*
X83218566Y-104020235D01*
X83165017Y-103967962D01*
X83113699Y-103953784D01*
X83106638Y-103948278D01*
X83105538Y-103939391D01*
X83106348Y-103937282D01*
X83106943Y-103936091D01*
X83388880Y-103371275D01*
X83395640Y-103365405D01*
X83404572Y-103366034D01*
G37*
%TD.AperFunction*%
%TD*%
%TA.AperFunction,Conductor*%
%TO.N,/Pin1*%
G36*
X116096245Y-99903427D02*
G01*
X116099672Y-99911700D01*
X116099668Y-99911971D01*
X116099581Y-99915137D01*
X116099581Y-99915142D01*
X116099941Y-99962702D01*
X116114041Y-100007938D01*
X116120500Y-100013466D01*
X116128562Y-100020367D01*
X116128755Y-100020408D01*
X116129120Y-100020488D01*
X116136483Y-100025584D01*
X116138086Y-100034394D01*
X116134956Y-100040164D01*
X116033306Y-100142627D01*
X116025047Y-100146087D01*
X116016760Y-100142693D01*
X116016694Y-100142627D01*
X115967592Y-100093133D01*
X115912797Y-100037899D01*
X115909404Y-100029614D01*
X115912864Y-100021355D01*
X115917039Y-100018689D01*
X115931146Y-100013466D01*
X115946277Y-99985087D01*
X115950419Y-99915138D01*
X115950333Y-99912023D01*
X115953531Y-99903658D01*
X115961706Y-99900004D01*
X115962029Y-99900000D01*
X116087972Y-99900000D01*
X116096245Y-99903427D01*
G37*
%TD.AperFunction*%
%TD*%
%TA.AperFunction,Conductor*%
%TO.N,/Pin1*%
G36*
X120039995Y-112347177D02*
G01*
X120043422Y-112355450D01*
X120043418Y-112355721D01*
X120043331Y-112358887D01*
X120043331Y-112358892D01*
X120043691Y-112406452D01*
X120057791Y-112451688D01*
X120064250Y-112457216D01*
X120072312Y-112464117D01*
X120072505Y-112464158D01*
X120072870Y-112464238D01*
X120080233Y-112469334D01*
X120081836Y-112478144D01*
X120078706Y-112483914D01*
X119977056Y-112586377D01*
X119968797Y-112589837D01*
X119960510Y-112586443D01*
X119960444Y-112586377D01*
X119911342Y-112536883D01*
X119856547Y-112481649D01*
X119853154Y-112473364D01*
X119856614Y-112465105D01*
X119860789Y-112462439D01*
X119874896Y-112457216D01*
X119890027Y-112428837D01*
X119894169Y-112358888D01*
X119894083Y-112355773D01*
X119897281Y-112347408D01*
X119905456Y-112343754D01*
X119905779Y-112343750D01*
X120031722Y-112343750D01*
X120039995Y-112347177D01*
G37*
%TD.AperFunction*%
%TD*%
%TA.AperFunction,Conductor*%
%TO.N,/Pin1*%
G36*
X102901105Y-98310504D02*
G01*
X102904086Y-98312666D01*
X102995168Y-98403748D01*
X102998595Y-98412021D01*
X102998590Y-98412374D01*
X102997398Y-98451822D01*
X102997398Y-98451825D01*
X103009550Y-98482536D01*
X103009553Y-98482540D01*
X103032262Y-98511972D01*
X103032264Y-98511974D01*
X103064315Y-98537157D01*
X103106519Y-98557310D01*
X103157442Y-98570289D01*
X103190523Y-98572850D01*
X103198506Y-98576905D01*
X103201284Y-98585418D01*
X103197319Y-98593324D01*
X102883122Y-98867988D01*
X102874638Y-98870853D01*
X102866613Y-98866879D01*
X102866595Y-98866858D01*
X102725913Y-98705154D01*
X102627819Y-98592403D01*
X102624975Y-98583914D01*
X102628968Y-98575898D01*
X102633274Y-98573522D01*
X102682529Y-98558717D01*
X102729258Y-98530634D01*
X102786563Y-98477698D01*
X102834730Y-98415504D01*
X102885378Y-98315646D01*
X102892177Y-98309818D01*
X102901105Y-98310504D01*
G37*
%TD.AperFunction*%
%TD*%
%TA.AperFunction,Conductor*%
%TO.N,/Pin1*%
G36*
X167502462Y-111425829D02*
G01*
X167505852Y-111433178D01*
X167510432Y-111491038D01*
X167511160Y-111500229D01*
X167511160Y-111500230D01*
X167526503Y-111552344D01*
X167526546Y-111552496D01*
X167549221Y-111633545D01*
X167548150Y-111642435D01*
X167541106Y-111647964D01*
X167540326Y-111648154D01*
X167432372Y-111670508D01*
X167427628Y-111670508D01*
X167364828Y-111657504D01*
X167357421Y-111652471D01*
X167355500Y-111646047D01*
X167355500Y-111627144D01*
X167347150Y-111595986D01*
X167335532Y-111552625D01*
X167335780Y-111545766D01*
X167338835Y-111536972D01*
X167350479Y-111491038D01*
X167354280Y-111433333D01*
X167358243Y-111425303D01*
X167365955Y-111422402D01*
X167494189Y-111422402D01*
X167502462Y-111425829D01*
G37*
%TD.AperFunction*%
%TD*%
%TA.AperFunction,Conductor*%
%TO.N,/Pin1*%
G36*
X154032740Y-112786761D02*
G01*
X154033072Y-112787290D01*
X154070143Y-112850119D01*
X154070799Y-112851407D01*
X154098077Y-112914265D01*
X154098656Y-112915935D01*
X154127222Y-113024085D01*
X154127336Y-113024558D01*
X154136975Y-113068348D01*
X154136979Y-113068361D01*
X154175738Y-113169723D01*
X154213014Y-113225294D01*
X154261407Y-113279462D01*
X154264363Y-113287915D01*
X154260955Y-113295530D01*
X154170031Y-113386454D01*
X154161758Y-113389881D01*
X154154553Y-113387399D01*
X154088073Y-113335428D01*
X154088070Y-113335427D01*
X154088069Y-113335426D01*
X154088070Y-113335426D01*
X154021524Y-113313543D01*
X154021519Y-113313542D01*
X153957898Y-113316668D01*
X153957893Y-113316669D01*
X153892316Y-113333289D01*
X153891843Y-113333399D01*
X153766024Y-113359777D01*
X153762927Y-113360005D01*
X153655208Y-113353590D01*
X153647154Y-113349678D01*
X153644225Y-113341215D01*
X153644424Y-113339654D01*
X153645255Y-113335428D01*
X153713351Y-112989079D01*
X153718308Y-112981625D01*
X154016521Y-112783490D01*
X154025308Y-112781767D01*
X154032740Y-112786761D01*
G37*
%TD.AperFunction*%
%TD*%
%TA.AperFunction,Conductor*%
%TO.N,/Pin1*%
G36*
X146658699Y-99768598D02*
G01*
X146662489Y-99776711D01*
X146662500Y-99777229D01*
X146662500Y-99905064D01*
X146659073Y-99913337D01*
X146652697Y-99916609D01*
X146597767Y-99925633D01*
X146561968Y-99955100D01*
X146561966Y-99955103D01*
X146545175Y-99999751D01*
X146545174Y-99999758D01*
X146537493Y-100055758D01*
X146537451Y-100056043D01*
X146522337Y-100149155D01*
X146521479Y-100152033D01*
X146488496Y-100226228D01*
X146482004Y-100232395D01*
X146473052Y-100232166D01*
X146471326Y-100231218D01*
X146278070Y-100102706D01*
X146273079Y-100095271D01*
X146273065Y-100095201D01*
X146228305Y-99865470D01*
X146230086Y-99856694D01*
X146236708Y-99851944D01*
X146406260Y-99805695D01*
X146482006Y-99782531D01*
X146483457Y-99782187D01*
X146556568Y-99769784D01*
X146558002Y-99769631D01*
X146650283Y-99765540D01*
X146658699Y-99768598D01*
G37*
%TD.AperFunction*%
%TD*%
%TA.AperFunction,Conductor*%
%TO.N,/Pin1*%
G36*
X131973939Y-101813765D02*
G01*
X131978669Y-101819472D01*
X131989729Y-101848022D01*
X131989730Y-101848024D01*
X132025336Y-101867356D01*
X132025337Y-101867357D01*
X132104386Y-101874727D01*
X132112305Y-101878907D01*
X132115000Y-101886376D01*
X132115000Y-102013525D01*
X132111573Y-102021798D01*
X132104057Y-102025200D01*
X132038749Y-102029436D01*
X132038744Y-102029437D01*
X131992231Y-102049599D01*
X131979653Y-102066609D01*
X131977358Y-102078146D01*
X131972383Y-102085591D01*
X131963600Y-102087338D01*
X131963229Y-102087258D01*
X131422917Y-101961395D01*
X131415637Y-101956180D01*
X131414176Y-101947346D01*
X131419391Y-101940066D01*
X131422917Y-101938605D01*
X131965107Y-101812304D01*
X131973939Y-101813765D01*
G37*
%TD.AperFunction*%
%TD*%
%TA.AperFunction,Conductor*%
%TO.N,/Pin1*%
G36*
X135220569Y-98262310D02*
G01*
X135902559Y-98398527D01*
X135909999Y-98403507D01*
X135911739Y-98412291D01*
X135906758Y-98419732D01*
X135902558Y-98421472D01*
X135220571Y-98557688D01*
X135211787Y-98555948D01*
X135206806Y-98548507D01*
X135206805Y-98548503D01*
X135204274Y-98535244D01*
X135204273Y-98535242D01*
X135191460Y-98516643D01*
X135191458Y-98516642D01*
X135191458Y-98516641D01*
X135149722Y-98494375D01*
X135139838Y-98493353D01*
X135069497Y-98486084D01*
X135061620Y-98481825D01*
X135059000Y-98474446D01*
X135059000Y-98345665D01*
X135062427Y-98337392D01*
X135069619Y-98334015D01*
X135144381Y-98327082D01*
X135191669Y-98303152D01*
X135204334Y-98284615D01*
X135206799Y-98271608D01*
X135211706Y-98264118D01*
X135220472Y-98262292D01*
X135220569Y-98262310D01*
G37*
%TD.AperFunction*%
%TD*%
%TA.AperFunction,Conductor*%
%TO.N,/Pin1*%
G36*
X91381128Y-95690058D02*
G01*
X91387181Y-95696658D01*
X91387663Y-95698380D01*
X91395453Y-95737519D01*
X91417789Y-95768426D01*
X91443152Y-95784848D01*
X91447296Y-95787531D01*
X91484779Y-95797470D01*
X91512297Y-95796744D01*
X91520657Y-95799952D01*
X91520878Y-95800167D01*
X91608875Y-95888164D01*
X91612302Y-95896437D01*
X91608875Y-95904710D01*
X91603507Y-95907771D01*
X91567546Y-95916987D01*
X91460950Y-95962636D01*
X91402897Y-96010821D01*
X91388873Y-96048544D01*
X91382778Y-96055105D01*
X91374395Y-96055628D01*
X90867183Y-95896054D01*
X90860319Y-95890302D01*
X90859533Y-95881382D01*
X90865285Y-95874518D01*
X90866680Y-95873903D01*
X91372183Y-95689671D01*
X91381128Y-95690058D01*
G37*
%TD.AperFunction*%
%TD*%
%TA.AperFunction,Conductor*%
%TO.N,/Pin1*%
G36*
X131446798Y-101673427D02*
G01*
X131450200Y-101680943D01*
X131454436Y-101746250D01*
X131454437Y-101746255D01*
X131474599Y-101792768D01*
X131477983Y-101795270D01*
X131491608Y-101805346D01*
X131492410Y-101805505D01*
X131493622Y-101805747D01*
X131501068Y-101810721D01*
X131502815Y-101819504D01*
X131499643Y-101825466D01*
X131383303Y-101942637D01*
X131375042Y-101946093D01*
X131366756Y-101942696D01*
X131366697Y-101942637D01*
X131247602Y-101822692D01*
X131244205Y-101814406D01*
X131247661Y-101806145D01*
X131251676Y-101803539D01*
X131273023Y-101795270D01*
X131292357Y-101759662D01*
X131299727Y-101680614D01*
X131303907Y-101672695D01*
X131311376Y-101670000D01*
X131438525Y-101670000D01*
X131446798Y-101673427D01*
G37*
%TD.AperFunction*%
%TD*%
%TA.AperFunction,Conductor*%
%TO.N,/Pin1*%
G36*
X124046245Y-114653427D02*
G01*
X124049672Y-114661700D01*
X124049668Y-114661971D01*
X124049581Y-114665137D01*
X124049581Y-114665142D01*
X124049941Y-114712702D01*
X124064041Y-114757938D01*
X124070500Y-114763466D01*
X124078562Y-114770367D01*
X124078755Y-114770408D01*
X124079120Y-114770488D01*
X124086483Y-114775584D01*
X124088086Y-114784394D01*
X124084956Y-114790164D01*
X123983306Y-114892627D01*
X123975047Y-114896087D01*
X123966760Y-114892693D01*
X123966694Y-114892627D01*
X123917592Y-114843133D01*
X123862797Y-114787899D01*
X123859404Y-114779614D01*
X123862864Y-114771355D01*
X123867039Y-114768689D01*
X123881146Y-114763466D01*
X123896277Y-114735087D01*
X123900419Y-114665138D01*
X123900333Y-114662023D01*
X123903531Y-114653658D01*
X123911706Y-114650004D01*
X123912029Y-114650000D01*
X124037972Y-114650000D01*
X124046245Y-114653427D01*
G37*
%TD.AperFunction*%
%TD*%
%TA.AperFunction,Conductor*%
%TO.N,/Pin1*%
G36*
X130248745Y-114385927D02*
G01*
X130252172Y-114394200D01*
X130252168Y-114394471D01*
X130252081Y-114397637D01*
X130252081Y-114397642D01*
X130252441Y-114445202D01*
X130266541Y-114490438D01*
X130273000Y-114495966D01*
X130281062Y-114502867D01*
X130281255Y-114502908D01*
X130281620Y-114502988D01*
X130288983Y-114508084D01*
X130290586Y-114516894D01*
X130287456Y-114522664D01*
X130185806Y-114625127D01*
X130177547Y-114628587D01*
X130169260Y-114625193D01*
X130169194Y-114625127D01*
X130120092Y-114575633D01*
X130065297Y-114520399D01*
X130061904Y-114512114D01*
X130065364Y-114503855D01*
X130069539Y-114501189D01*
X130083646Y-114495966D01*
X130098777Y-114467587D01*
X130102919Y-114397638D01*
X130102833Y-114394523D01*
X130106031Y-114386158D01*
X130114206Y-114382504D01*
X130114529Y-114382500D01*
X130240472Y-114382500D01*
X130248745Y-114385927D01*
G37*
%TD.AperFunction*%
%TD*%
%TA.AperFunction,Conductor*%
%TO.N,/Pin1*%
G36*
X100195843Y-99424423D02*
G01*
X100283440Y-99512020D01*
X100286867Y-99520293D01*
X100283440Y-99528566D01*
X100281733Y-99529944D01*
X100281746Y-99529962D01*
X100281541Y-99530105D01*
X100281533Y-99530111D01*
X100271107Y-99537430D01*
X100257189Y-99547201D01*
X100255601Y-99557943D01*
X100255610Y-99557960D01*
X100256402Y-99566879D01*
X100250654Y-99573746D01*
X100248238Y-99574684D01*
X100010175Y-99637820D01*
X100001300Y-99636628D01*
X99995991Y-99629943D01*
X99973907Y-99557960D01*
X99972275Y-99552640D01*
X99973124Y-99543727D01*
X99980028Y-99538025D01*
X99981412Y-99537691D01*
X100035913Y-99528023D01*
X100094054Y-99498277D01*
X100179909Y-99423853D01*
X100188402Y-99421026D01*
X100195843Y-99424423D01*
G37*
%TD.AperFunction*%
%TD*%
%TA.AperFunction,Conductor*%
%TO.N,/Pin1*%
G36*
X115954078Y-100136190D02*
G01*
X115966160Y-100138510D01*
X115973639Y-100143435D01*
X115975444Y-100152206D01*
X115970519Y-100159685D01*
X115966160Y-100161490D01*
X115384735Y-100273130D01*
X115375964Y-100271325D01*
X115371557Y-100265703D01*
X115363466Y-100243854D01*
X115363464Y-100243852D01*
X115335087Y-100228723D01*
X115265138Y-100224581D01*
X115265137Y-100224581D01*
X115262023Y-100224667D01*
X115253658Y-100221469D01*
X115250004Y-100213294D01*
X115250000Y-100212971D01*
X115250000Y-100087028D01*
X115253427Y-100078755D01*
X115261700Y-100075328D01*
X115261971Y-100075331D01*
X115265138Y-100075419D01*
X115312700Y-100075059D01*
X115357938Y-100060958D01*
X115370367Y-100046438D01*
X115372585Y-100036173D01*
X115377682Y-100028811D01*
X115386225Y-100027155D01*
X115954078Y-100136190D01*
G37*
%TD.AperFunction*%
%TD*%
%TA.AperFunction,Conductor*%
%TO.N,/Pin1*%
G36*
X165982265Y-111287589D02*
G01*
X165985670Y-111295150D01*
X165989487Y-111357760D01*
X165989489Y-111357767D01*
X165989489Y-111357769D01*
X166001463Y-111408115D01*
X166001473Y-111408155D01*
X166017449Y-111473277D01*
X166016092Y-111482129D01*
X166008874Y-111487428D01*
X166008468Y-111487520D01*
X165912382Y-111507504D01*
X165907618Y-111507504D01*
X165832318Y-111491843D01*
X165824916Y-111486803D01*
X165823000Y-111480388D01*
X165823000Y-111465792D01*
X165822999Y-111465790D01*
X165814060Y-111432429D01*
X165813998Y-111426617D01*
X165818293Y-111409108D01*
X165818528Y-111408153D01*
X165818538Y-111408112D01*
X165830511Y-111357767D01*
X165830511Y-111357760D01*
X165830512Y-111357758D01*
X165834330Y-111295150D01*
X165838254Y-111287101D01*
X165846008Y-111284162D01*
X165973992Y-111284162D01*
X165982265Y-111287589D01*
G37*
%TD.AperFunction*%
%TD*%
%TA.AperFunction,Conductor*%
%TO.N,/Pin1*%
G36*
X86722970Y-98708427D02*
G01*
X86726303Y-98715220D01*
X86733780Y-98773856D01*
X86767537Y-98860767D01*
X86767538Y-98860768D01*
X86814744Y-98912155D01*
X86863746Y-98926667D01*
X86870705Y-98932300D01*
X86871641Y-98941206D01*
X86871631Y-98941242D01*
X86661207Y-99643590D01*
X86655550Y-99650531D01*
X86646641Y-99651440D01*
X86639700Y-99645783D01*
X86638794Y-99643598D01*
X86428821Y-98942754D01*
X86429730Y-98933847D01*
X86436671Y-98928190D01*
X86438136Y-98927852D01*
X86460894Y-98924131D01*
X86491179Y-98908028D01*
X86527131Y-98869183D01*
X86552189Y-98819873D01*
X86569649Y-98757413D01*
X86573926Y-98715510D01*
X86578176Y-98707629D01*
X86585566Y-98705000D01*
X86714697Y-98705000D01*
X86722970Y-98708427D01*
G37*
%TD.AperFunction*%
%TD*%
%TA.AperFunction,Conductor*%
%TO.N,/Pin1*%
G36*
X82984519Y-102527904D02*
G01*
X82998944Y-102541372D01*
X83024313Y-102565057D01*
X83024316Y-102565059D01*
X83024318Y-102565061D01*
X83105249Y-102625694D01*
X83166365Y-102671482D01*
X83166368Y-102671484D01*
X83286145Y-102730635D01*
X83288989Y-102732040D01*
X83374593Y-102748247D01*
X83382084Y-102753153D01*
X83384111Y-102759415D01*
X83400450Y-103341558D01*
X83397257Y-103349924D01*
X83391889Y-103353158D01*
X83114674Y-103430240D01*
X83105786Y-103429155D01*
X83100268Y-103422102D01*
X83099841Y-103419090D01*
X83099533Y-103389493D01*
X83099533Y-103389489D01*
X83095280Y-103341558D01*
X83075430Y-103117831D01*
X83022246Y-102896676D01*
X82951059Y-102734372D01*
X82876259Y-102634370D01*
X82874049Y-102625694D01*
X82877354Y-102619093D01*
X82968264Y-102528183D01*
X82976536Y-102524757D01*
X82984519Y-102527904D01*
G37*
%TD.AperFunction*%
%TD*%
%TA.AperFunction,Conductor*%
%TO.N,/Pin1*%
G36*
X133586693Y-100227917D02*
G01*
X133985136Y-100327329D01*
X134030501Y-100338648D01*
X134037699Y-100343976D01*
X134039021Y-100352832D01*
X134033693Y-100360030D01*
X134030501Y-100361352D01*
X133585165Y-100472463D01*
X133576309Y-100471141D01*
X133571361Y-100465174D01*
X133563466Y-100443854D01*
X133563464Y-100443852D01*
X133535087Y-100428723D01*
X133465138Y-100424581D01*
X133465137Y-100424581D01*
X133462023Y-100424667D01*
X133453658Y-100421469D01*
X133450004Y-100413294D01*
X133450000Y-100412971D01*
X133450000Y-100287028D01*
X133453427Y-100278755D01*
X133461700Y-100275328D01*
X133461971Y-100275331D01*
X133465138Y-100275419D01*
X133512700Y-100275059D01*
X133557938Y-100260958D01*
X133570367Y-100246438D01*
X133572449Y-100236803D01*
X133577546Y-100229441D01*
X133586356Y-100227839D01*
X133586693Y-100227917D01*
G37*
%TD.AperFunction*%
%TD*%
%TA.AperFunction,Conductor*%
%TO.N,/Pin1*%
G36*
X86660299Y-99714216D02*
G01*
X86661208Y-99716409D01*
X86871178Y-100417243D01*
X86870269Y-100426152D01*
X86863328Y-100431809D01*
X86861859Y-100432148D01*
X86848893Y-100434268D01*
X86839106Y-100435869D01*
X86839104Y-100435869D01*
X86839103Y-100435870D01*
X86839101Y-100435870D01*
X86808821Y-100451971D01*
X86772869Y-100490816D01*
X86747812Y-100540122D01*
X86730351Y-100602584D01*
X86730351Y-100602585D01*
X86730351Y-100602587D01*
X86726073Y-100644489D01*
X86721824Y-100652371D01*
X86714434Y-100655000D01*
X86585303Y-100655000D01*
X86577030Y-100651573D01*
X86573697Y-100644780D01*
X86566219Y-100586143D01*
X86532462Y-100499232D01*
X86485257Y-100447846D01*
X86485256Y-100447845D01*
X86485254Y-100447844D01*
X86485252Y-100447843D01*
X86436254Y-100433332D01*
X86429294Y-100427697D01*
X86428358Y-100418792D01*
X86428358Y-100418788D01*
X86638792Y-99716408D01*
X86644449Y-99709468D01*
X86653358Y-99708559D01*
X86660299Y-99714216D01*
G37*
%TD.AperFunction*%
%TD*%
%TA.AperFunction,Conductor*%
%TO.N,/Pin1*%
G36*
X80553991Y-111948427D02*
G01*
X80557111Y-111954038D01*
X80577588Y-112041691D01*
X80606681Y-112087701D01*
X80630447Y-112125286D01*
X80679571Y-112162428D01*
X80698837Y-112176995D01*
X80759224Y-112190391D01*
X80766559Y-112195528D01*
X80768112Y-112204347D01*
X80764977Y-112210072D01*
X80488287Y-112487685D01*
X80480019Y-112491126D01*
X80471741Y-112487713D01*
X80471713Y-112487685D01*
X80196446Y-112211501D01*
X80193033Y-112203223D01*
X80196474Y-112194955D01*
X80203056Y-112191663D01*
X80224868Y-112188507D01*
X80234993Y-112187043D01*
X80234994Y-112187042D01*
X80234998Y-112187042D01*
X80281152Y-112166105D01*
X80320012Y-112135248D01*
X80358139Y-112087702D01*
X80385000Y-112035464D01*
X80402972Y-111954174D01*
X80408104Y-111946836D01*
X80414396Y-111945000D01*
X80545718Y-111945000D01*
X80553991Y-111948427D01*
G37*
%TD.AperFunction*%
%TD*%
%TA.AperFunction,Conductor*%
%TO.N,/Pin1*%
G36*
X90861523Y-95458453D02*
G01*
X90864626Y-95463994D01*
X90874947Y-95506968D01*
X90874949Y-95506974D01*
X90920404Y-95610057D01*
X90970165Y-95667084D01*
X91004476Y-95679105D01*
X91011151Y-95685075D01*
X91011650Y-95694015D01*
X91009198Y-95698090D01*
X90843678Y-95877086D01*
X90835545Y-95880834D01*
X90827145Y-95877733D01*
X90827137Y-95877725D01*
X90730696Y-95787910D01*
X90636429Y-95700119D01*
X90632710Y-95691973D01*
X90635841Y-95683583D01*
X90641839Y-95680142D01*
X90689279Y-95669495D01*
X90721574Y-95644945D01*
X90742345Y-95614292D01*
X90753102Y-95580211D01*
X90753593Y-95554461D01*
X90757017Y-95546413D01*
X90844978Y-95458452D01*
X90853250Y-95455026D01*
X90861523Y-95458453D01*
G37*
%TD.AperFunction*%
%TD*%
%TA.AperFunction,Conductor*%
%TO.N,/Pin1*%
G36*
X76228261Y-104647282D02*
G01*
X76601632Y-105021586D01*
X76605049Y-105029864D01*
X76601612Y-105038132D01*
X76594815Y-105041457D01*
X76538637Y-105048551D01*
X76480167Y-105066496D01*
X76424611Y-105094976D01*
X76378135Y-105130487D01*
X76378134Y-105130488D01*
X76340998Y-105171136D01*
X76340997Y-105171138D01*
X76314384Y-105214154D01*
X76310119Y-105230843D01*
X76297250Y-105281197D01*
X76291881Y-105288364D01*
X76285914Y-105290000D01*
X76155996Y-105290000D01*
X76147723Y-105286573D01*
X76144319Y-105279026D01*
X76143978Y-105273546D01*
X76143977Y-105273542D01*
X76143977Y-105273536D01*
X76132927Y-105230843D01*
X76110265Y-105187145D01*
X76036536Y-105109533D01*
X76036531Y-105109530D01*
X75936912Y-105058150D01*
X75936906Y-105058148D01*
X75842741Y-105043529D01*
X75835092Y-105038874D01*
X75832975Y-105030173D01*
X75836251Y-105023707D01*
X76211718Y-104647302D01*
X76219985Y-104643866D01*
X76228261Y-104647282D01*
G37*
%TD.AperFunction*%
%TD*%
%TA.AperFunction,Conductor*%
%TO.N,/Pin1*%
G36*
X134146245Y-100103427D02*
G01*
X134149672Y-100111700D01*
X134149668Y-100111971D01*
X134149581Y-100115137D01*
X134149581Y-100115142D01*
X134149941Y-100162702D01*
X134164041Y-100207938D01*
X134170500Y-100213466D01*
X134178562Y-100220367D01*
X134178755Y-100220408D01*
X134179120Y-100220488D01*
X134186483Y-100225584D01*
X134188086Y-100234394D01*
X134184956Y-100240164D01*
X134083306Y-100342627D01*
X134075047Y-100346087D01*
X134066760Y-100342693D01*
X134066694Y-100342627D01*
X134017592Y-100293133D01*
X133962797Y-100237899D01*
X133959404Y-100229614D01*
X133962864Y-100221355D01*
X133967039Y-100218689D01*
X133981146Y-100213466D01*
X133996277Y-100185087D01*
X134000419Y-100115138D01*
X134000333Y-100112023D01*
X134003531Y-100103658D01*
X134011706Y-100100004D01*
X134012029Y-100100000D01*
X134137972Y-100100000D01*
X134146245Y-100103427D01*
G37*
%TD.AperFunction*%
%TD*%
%TA.AperFunction,Conductor*%
%TO.N,/Pin1*%
G36*
X154853800Y-100123806D02*
G01*
X154914157Y-100146252D01*
X154916508Y-100147444D01*
X154972915Y-100184597D01*
X154972942Y-100184615D01*
X155016360Y-100213390D01*
X155024105Y-100215191D01*
X155065142Y-100224738D01*
X155094800Y-100214327D01*
X155119911Y-100194339D01*
X155128516Y-100191869D01*
X155135469Y-100195221D01*
X155225193Y-100284945D01*
X155228620Y-100293218D01*
X155225193Y-100301491D01*
X155224513Y-100302120D01*
X155136664Y-100377052D01*
X155134665Y-100378426D01*
X155056688Y-100420872D01*
X154926070Y-100494323D01*
X154917179Y-100495391D01*
X154910637Y-100490671D01*
X154802032Y-100329765D01*
X154800244Y-100320990D01*
X154800261Y-100320906D01*
X154807513Y-100284945D01*
X154838261Y-100132461D01*
X154843255Y-100125030D01*
X154852043Y-100123306D01*
X154853800Y-100123806D01*
G37*
%TD.AperFunction*%
%TD*%
%TA.AperFunction,Conductor*%
%TO.N,/Pin1*%
G36*
X76668374Y-104257079D02*
G01*
X76671229Y-104263376D01*
X76678551Y-104321362D01*
X76696496Y-104379832D01*
X76724976Y-104435388D01*
X76760491Y-104481869D01*
X76801138Y-104519003D01*
X76844154Y-104545616D01*
X76911197Y-104562750D01*
X76918364Y-104568119D01*
X76920000Y-104574086D01*
X76920000Y-104704004D01*
X76916573Y-104712277D01*
X76909026Y-104715681D01*
X76903546Y-104716021D01*
X76903535Y-104716023D01*
X76860841Y-104727073D01*
X76817147Y-104749733D01*
X76817146Y-104749734D01*
X76739533Y-104823463D01*
X76739530Y-104823468D01*
X76688150Y-104923087D01*
X76688148Y-104923093D01*
X76673287Y-105018818D01*
X76668632Y-105026467D01*
X76659931Y-105028584D01*
X76653963Y-105025776D01*
X76228869Y-104648753D01*
X76224953Y-104640700D01*
X76227879Y-104632237D01*
X76228869Y-104631247D01*
X76355426Y-104519001D01*
X76651860Y-104256088D01*
X76660321Y-104253163D01*
X76668374Y-104257079D01*
G37*
%TD.AperFunction*%
%TD*%
%TA.AperFunction,Conductor*%
%TO.N,/Pin1*%
G36*
X167342462Y-100855829D02*
G01*
X167345852Y-100863178D01*
X167351160Y-100930231D01*
X167366503Y-100982344D01*
X167379654Y-101029350D01*
X167389221Y-101063545D01*
X167388150Y-101072435D01*
X167381106Y-101077964D01*
X167380326Y-101078154D01*
X167272372Y-101100508D01*
X167267628Y-101100508D01*
X167159673Y-101078154D01*
X167152266Y-101073121D01*
X167150588Y-101064325D01*
X167150774Y-101063561D01*
X167173402Y-100982680D01*
X167173614Y-100982004D01*
X167178833Y-100966977D01*
X167178835Y-100966972D01*
X167190479Y-100921038D01*
X167194280Y-100863333D01*
X167198243Y-100855303D01*
X167205955Y-100852402D01*
X167334189Y-100852402D01*
X167342462Y-100855829D01*
G37*
%TD.AperFunction*%
%TD*%
%TA.AperFunction,Conductor*%
%TO.N,/Pin1*%
G36*
X118285886Y-98613000D02*
G01*
X118288899Y-98613402D01*
X118296648Y-98617891D01*
X118298953Y-98626544D01*
X118294464Y-98634293D01*
X118288899Y-98636598D01*
X117634406Y-98723747D01*
X117625753Y-98721442D01*
X117621833Y-98716054D01*
X117617394Y-98703516D01*
X117598250Y-98694763D01*
X117547428Y-98697482D01*
X117547403Y-98697484D01*
X117538005Y-98698539D01*
X117529401Y-98696056D01*
X117525073Y-98688217D01*
X117525000Y-98686912D01*
X117525000Y-98563087D01*
X117525264Y-98562447D01*
X117525073Y-98561782D01*
X117526944Y-98558391D01*
X117528427Y-98554814D01*
X117529066Y-98554548D01*
X117529402Y-98553942D01*
X117533125Y-98552867D01*
X117536700Y-98551387D01*
X117537998Y-98551459D01*
X117547302Y-98552504D01*
X117547500Y-98552528D01*
X117565320Y-98554983D01*
X117608302Y-98552437D01*
X117620413Y-98542761D01*
X117622407Y-98535037D01*
X117627791Y-98527887D01*
X117635276Y-98526368D01*
X118285886Y-98613000D01*
G37*
%TD.AperFunction*%
%TD*%
%TA.AperFunction,Conductor*%
%TO.N,/Pin1*%
G36*
X163647323Y-100307270D02*
G01*
X163650724Y-100314770D01*
X163654458Y-100371168D01*
X163654458Y-100371171D01*
X163654459Y-100371175D01*
X163666457Y-100421540D01*
X163667356Y-100423306D01*
X163704783Y-100496866D01*
X163704791Y-100496880D01*
X163731612Y-100543509D01*
X163732566Y-100545631D01*
X163766963Y-100648447D01*
X163766338Y-100657380D01*
X163759579Y-100663255D01*
X163758206Y-100663623D01*
X163577339Y-100700522D01*
X163572661Y-100700522D01*
X163391490Y-100663562D01*
X163384069Y-100658550D01*
X163382365Y-100649759D01*
X163382645Y-100648666D01*
X163408963Y-100563415D01*
X163409880Y-100561249D01*
X163445213Y-100496872D01*
X163482931Y-100423303D01*
X163495366Y-100372334D01*
X163499262Y-100314753D01*
X163503239Y-100306730D01*
X163510935Y-100303843D01*
X163639050Y-100303843D01*
X163647323Y-100307270D01*
G37*
%TD.AperFunction*%
%TD*%
%TA.AperFunction,Conductor*%
%TO.N,/Pin1*%
G36*
X136706212Y-98264051D02*
G01*
X136711193Y-98271492D01*
X136711212Y-98271590D01*
X136713724Y-98284751D01*
X136713727Y-98284758D01*
X136726539Y-98303356D01*
X136726540Y-98303357D01*
X136726542Y-98303359D01*
X136768278Y-98325625D01*
X136848503Y-98333915D01*
X136856380Y-98338174D01*
X136859000Y-98345553D01*
X136859000Y-98474334D01*
X136855573Y-98482607D01*
X136848381Y-98485984D01*
X136773618Y-98492918D01*
X136726332Y-98516846D01*
X136726331Y-98516847D01*
X136713665Y-98535384D01*
X136711200Y-98548391D01*
X136706292Y-98555881D01*
X136697526Y-98557707D01*
X136697413Y-98557685D01*
X136015441Y-98421472D01*
X136008000Y-98416491D01*
X136006260Y-98407707D01*
X136011241Y-98400266D01*
X136015435Y-98398528D01*
X136697428Y-98262311D01*
X136706212Y-98264051D01*
G37*
%TD.AperFunction*%
%TD*%
%TA.AperFunction,Conductor*%
%TO.N,/Pin1*%
G36*
X103114864Y-109386251D02*
G01*
X103120844Y-109392916D01*
X103121300Y-109394608D01*
X103123474Y-109406001D01*
X103123477Y-109406008D01*
X103136289Y-109424606D01*
X103136290Y-109424607D01*
X103136292Y-109424609D01*
X103178028Y-109446875D01*
X103258253Y-109455165D01*
X103266130Y-109459424D01*
X103268750Y-109466803D01*
X103268750Y-109595584D01*
X103265323Y-109603857D01*
X103258131Y-109607234D01*
X103183368Y-109614168D01*
X103136082Y-109638096D01*
X103136081Y-109638097D01*
X103123415Y-109656634D01*
X103121286Y-109667870D01*
X103116379Y-109675360D01*
X103107612Y-109677186D01*
X103105905Y-109676727D01*
X102724092Y-109542286D01*
X102717427Y-109536306D01*
X102716942Y-109527364D01*
X102722922Y-109520699D01*
X102724092Y-109520214D01*
X103105924Y-109385766D01*
X103114864Y-109386251D01*
G37*
%TD.AperFunction*%
%TD*%
%TA.AperFunction,Conductor*%
%TO.N,/Pin1*%
G36*
X158442462Y-114335829D02*
G01*
X158445852Y-114343178D01*
X158451160Y-114410231D01*
X158466503Y-114462344D01*
X158479654Y-114509350D01*
X158489221Y-114543545D01*
X158488150Y-114552435D01*
X158481106Y-114557964D01*
X158480326Y-114558154D01*
X158372372Y-114580508D01*
X158367628Y-114580508D01*
X158259673Y-114558154D01*
X158252266Y-114553121D01*
X158250588Y-114544325D01*
X158250774Y-114543561D01*
X158273402Y-114462680D01*
X158273614Y-114462004D01*
X158278833Y-114446977D01*
X158278835Y-114446972D01*
X158290479Y-114401038D01*
X158294280Y-114343333D01*
X158298243Y-114335303D01*
X158305955Y-114332402D01*
X158434189Y-114332402D01*
X158442462Y-114335829D01*
G37*
%TD.AperFunction*%
%TD*%
%TA.AperFunction,Conductor*%
%TO.N,/Pin1*%
G36*
X79448264Y-109167278D02*
G01*
X79955380Y-109675239D01*
X80021937Y-109741907D01*
X80025357Y-109750183D01*
X80021923Y-109758453D01*
X80014501Y-109761843D01*
X79867239Y-109772489D01*
X79867234Y-109772490D01*
X79701957Y-109814699D01*
X79701950Y-109814702D01*
X79611734Y-109863484D01*
X79593444Y-109873374D01*
X79534235Y-109938878D01*
X79534234Y-109938879D01*
X79534234Y-109938880D01*
X79517338Y-110001355D01*
X79511870Y-110008446D01*
X79506044Y-110010000D01*
X79375381Y-110010000D01*
X79367108Y-110006573D01*
X79363764Y-109999694D01*
X79363570Y-109998084D01*
X79361059Y-109977141D01*
X79345133Y-109937767D01*
X79345130Y-109937763D01*
X79345129Y-109937761D01*
X79317771Y-109901378D01*
X79272976Y-109863493D01*
X79272975Y-109863492D01*
X79272970Y-109863488D01*
X79272963Y-109863484D01*
X79215303Y-109830629D01*
X79138936Y-109801080D01*
X79138932Y-109801078D01*
X79050437Y-109778973D01*
X79050428Y-109778971D01*
X78949698Y-109764871D01*
X78866506Y-109761177D01*
X78858393Y-109757387D01*
X78855337Y-109748970D01*
X78858744Y-109741224D01*
X79431721Y-109167292D01*
X79439990Y-109163859D01*
X79448264Y-109167278D01*
G37*
%TD.AperFunction*%
%TD*%
%TA.AperFunction,Conductor*%
%TO.N,/Pin1*%
G36*
X82680928Y-105997376D02*
G01*
X82772404Y-106088852D01*
X82775831Y-106097125D01*
X82773268Y-106104433D01*
X82711734Y-106181358D01*
X82665465Y-106261549D01*
X82665457Y-106261564D01*
X82624750Y-106353346D01*
X82568552Y-106551304D01*
X82551041Y-106734122D01*
X82546841Y-106742030D01*
X82539079Y-106744702D01*
X81657871Y-106720938D01*
X81649693Y-106717289D01*
X81646936Y-106712455D01*
X81600911Y-106551308D01*
X81510466Y-106234628D01*
X81511489Y-106225733D01*
X81518503Y-106220166D01*
X81521492Y-106219719D01*
X81899943Y-106212728D01*
X81899950Y-106212727D01*
X81899956Y-106212727D01*
X82200139Y-106185002D01*
X82216450Y-106181356D01*
X82411614Y-106137732D01*
X82563895Y-106072812D01*
X82665622Y-105996298D01*
X82674294Y-105994064D01*
X82680928Y-105997376D01*
G37*
%TD.AperFunction*%
%TD*%
%TA.AperFunction,Conductor*%
%TO.N,/Pin1*%
G36*
X118445186Y-98428427D02*
G01*
X118448613Y-98436700D01*
X118448540Y-98437996D01*
X118447853Y-98444111D01*
X118447500Y-98447261D01*
X118447464Y-98447550D01*
X118445017Y-98465316D01*
X118447563Y-98508303D01*
X118453096Y-98515228D01*
X118457239Y-98520413D01*
X118457242Y-98520413D01*
X118458746Y-98521388D01*
X118463828Y-98528761D01*
X118462208Y-98537568D01*
X118460701Y-98539441D01*
X118383314Y-98617602D01*
X118375058Y-98621070D01*
X118366768Y-98617684D01*
X118366686Y-98617602D01*
X118287976Y-98538106D01*
X118284590Y-98529816D01*
X118288058Y-98521560D01*
X118292386Y-98518845D01*
X118293773Y-98518353D01*
X118296484Y-98517394D01*
X118305236Y-98498252D01*
X118302517Y-98447415D01*
X118301460Y-98438004D01*
X118303942Y-98429402D01*
X118311781Y-98425073D01*
X118313087Y-98425000D01*
X118436913Y-98425000D01*
X118445186Y-98428427D01*
G37*
%TD.AperFunction*%
%TD*%
%TA.AperFunction,Conductor*%
%TO.N,/Pin1*%
G36*
X80634520Y-106027922D02*
G01*
X80647419Y-106039992D01*
X80708736Y-106085508D01*
X80779057Y-106123250D01*
X80787060Y-106126257D01*
X80875323Y-106159423D01*
X80875327Y-106159424D01*
X80875335Y-106159427D01*
X80983107Y-106186368D01*
X81157922Y-106211396D01*
X81157935Y-106211396D01*
X81157937Y-106211397D01*
X81210460Y-106214529D01*
X81352223Y-106222985D01*
X81772751Y-106220105D01*
X81781046Y-106223475D01*
X81784530Y-106231725D01*
X81784112Y-106234903D01*
X81652956Y-106712514D01*
X81647461Y-106719585D01*
X81642220Y-106721103D01*
X80761382Y-106762252D01*
X80752958Y-106759215D01*
X80749168Y-106751421D01*
X80739913Y-106625020D01*
X80718846Y-106517681D01*
X80688167Y-106415639D01*
X80688164Y-106415632D01*
X80688163Y-106415629D01*
X80643573Y-106319686D01*
X80606710Y-106240365D01*
X80526354Y-106134385D01*
X80524086Y-106125722D01*
X80527403Y-106119044D01*
X80618255Y-106028192D01*
X80626527Y-106024766D01*
X80634520Y-106027922D01*
G37*
%TD.AperFunction*%
%TD*%
%TA.AperFunction,Conductor*%
%TO.N,/Pin1*%
G36*
X81597982Y-98528427D02*
G01*
X81601313Y-98535207D01*
X81605980Y-98571478D01*
X81605980Y-98571480D01*
X81622463Y-98610175D01*
X81622464Y-98610176D01*
X81648853Y-98643639D01*
X81706118Y-98685084D01*
X81782490Y-98716770D01*
X81875881Y-98740000D01*
X81875883Y-98740000D01*
X81875886Y-98740001D01*
X81901054Y-98743736D01*
X81984202Y-98756080D01*
X82237276Y-98772010D01*
X82354253Y-98773225D01*
X82497185Y-98774711D01*
X82505422Y-98778223D01*
X82508762Y-98786532D01*
X82505340Y-98794679D01*
X81533277Y-99767714D01*
X81525006Y-99771145D01*
X81516731Y-99767722D01*
X81516723Y-99767714D01*
X80544611Y-98794631D01*
X80541188Y-98786356D01*
X80544619Y-98778085D01*
X80552745Y-98774663D01*
X80839656Y-98771179D01*
X81111329Y-98750346D01*
X81277151Y-98713597D01*
X81376019Y-98664948D01*
X81430688Y-98604655D01*
X81445086Y-98567362D01*
X81448799Y-98535351D01*
X81453156Y-98527529D01*
X81460421Y-98525000D01*
X81589709Y-98525000D01*
X81597982Y-98528427D01*
G37*
%TD.AperFunction*%
%TD*%
%TA.AperFunction,Conductor*%
%TO.N,/Pin1*%
G36*
X169245924Y-100851485D02*
G01*
X169356438Y-100961740D01*
X169647097Y-101251717D01*
X169650534Y-101259986D01*
X169647117Y-101268263D01*
X169647097Y-101268283D01*
X169248431Y-101666013D01*
X169240154Y-101669430D01*
X169231885Y-101665993D01*
X169228475Y-101658131D01*
X169228291Y-101652795D01*
X169228291Y-101652783D01*
X169217999Y-101583774D01*
X169198329Y-101521904D01*
X169169316Y-101465009D01*
X169133849Y-101417480D01*
X169053620Y-101354333D01*
X168988151Y-101337279D01*
X168981009Y-101331878D01*
X168979400Y-101325957D01*
X168979400Y-101195872D01*
X168982827Y-101187599D01*
X168990241Y-101184203D01*
X168998756Y-101183578D01*
X169040904Y-101171549D01*
X169083278Y-101147862D01*
X169159823Y-101069454D01*
X169211196Y-100961741D01*
X169226081Y-100858105D01*
X169230649Y-100850404D01*
X169239325Y-100848188D01*
X169245924Y-100851485D01*
G37*
%TD.AperFunction*%
%TD*%
%TA.AperFunction,Conductor*%
%TO.N,/Pin1*%
G36*
X92983670Y-95421441D02*
G01*
X92988872Y-95427400D01*
X93000364Y-95456785D01*
X93000366Y-95456787D01*
X93037374Y-95476844D01*
X93078758Y-95480847D01*
X93116927Y-95484540D01*
X93124831Y-95488748D01*
X93127500Y-95496186D01*
X93127500Y-95623692D01*
X93124073Y-95631965D01*
X93116647Y-95635361D01*
X93048976Y-95640272D01*
X93048970Y-95640274D01*
X93002256Y-95661398D01*
X92989655Y-95678798D01*
X92989655Y-95678800D01*
X92987450Y-95690023D01*
X92982493Y-95697480D01*
X92973714Y-95699247D01*
X92972769Y-95699021D01*
X92737014Y-95631965D01*
X92523565Y-95571253D01*
X92516546Y-95565694D01*
X92515513Y-95556799D01*
X92521073Y-95549779D01*
X92523564Y-95548746D01*
X92974775Y-95420408D01*
X92983670Y-95421441D01*
G37*
%TD.AperFunction*%
%TD*%
%TA.AperFunction,Conductor*%
%TO.N,/Pin1*%
G36*
X146872752Y-108856309D02*
G01*
X146876113Y-108863344D01*
X146884574Y-108942885D01*
X146907407Y-109001946D01*
X146911386Y-109010549D01*
X146911899Y-109011859D01*
X146943097Y-109108307D01*
X146942383Y-109117233D01*
X146935566Y-109123040D01*
X146934322Y-109123368D01*
X146802357Y-109150515D01*
X146797642Y-109150515D01*
X146665091Y-109123247D01*
X146657679Y-109118223D01*
X146655989Y-109109429D01*
X146656161Y-109108709D01*
X146671911Y-109050944D01*
X146672429Y-109049451D01*
X146692572Y-109001995D01*
X146692593Y-109001946D01*
X146708586Y-108964739D01*
X146708589Y-108964733D01*
X146720449Y-108918804D01*
X146724248Y-108863776D01*
X146728236Y-108855759D01*
X146735920Y-108852882D01*
X146864479Y-108852882D01*
X146872752Y-108856309D01*
G37*
%TD.AperFunction*%
%TD*%
%TA.AperFunction,Conductor*%
%TO.N,/Pin1*%
G36*
X110935725Y-112298593D02*
G01*
X111025534Y-112388402D01*
X111028961Y-112396675D01*
X111025534Y-112404948D01*
X111025243Y-112405229D01*
X111001792Y-112427112D01*
X111001775Y-112427129D01*
X110983940Y-112443907D01*
X110951804Y-112474138D01*
X110892427Y-112547970D01*
X110892424Y-112547974D01*
X110877574Y-112596643D01*
X110871881Y-112603556D01*
X110866179Y-112604926D01*
X110632721Y-112600854D01*
X110624509Y-112597284D01*
X110621765Y-112592666D01*
X110581267Y-112463860D01*
X110582054Y-112454941D01*
X110588919Y-112449191D01*
X110591374Y-112448700D01*
X110644712Y-112443908D01*
X110722921Y-112422481D01*
X110779501Y-112396675D01*
X110794189Y-112389976D01*
X110794189Y-112389975D01*
X110794195Y-112389973D01*
X110869985Y-112341068D01*
X110919802Y-112298013D01*
X110928302Y-112295197D01*
X110935725Y-112298593D01*
G37*
%TD.AperFunction*%
%TD*%
%TA.AperFunction,Conductor*%
%TO.N,/Pin1*%
G36*
X80170907Y-108337355D02*
G01*
X80262283Y-108428731D01*
X80265710Y-108437004D01*
X80263027Y-108444459D01*
X80228348Y-108486400D01*
X80228343Y-108486408D01*
X80193923Y-108546125D01*
X80161950Y-108627765D01*
X80161949Y-108627766D01*
X80138845Y-108720221D01*
X80138844Y-108720222D01*
X80122293Y-108841377D01*
X80122292Y-108841395D01*
X80116543Y-108973483D01*
X80122261Y-109136935D01*
X80138349Y-109292564D01*
X80135791Y-109301146D01*
X80127914Y-109305405D01*
X80124296Y-109305215D01*
X79445338Y-109161982D01*
X79437950Y-109156921D01*
X79436937Y-109154996D01*
X79197988Y-108575795D01*
X79198001Y-108566840D01*
X79204342Y-108560517D01*
X79208554Y-108559636D01*
X79385022Y-108555877D01*
X79584865Y-108536781D01*
X79682480Y-108527454D01*
X79682481Y-108527453D01*
X79682489Y-108527453D01*
X79900256Y-108477397D01*
X80055951Y-108410781D01*
X80155630Y-108336256D01*
X80164306Y-108334048D01*
X80170907Y-108337355D01*
G37*
%TD.AperFunction*%
%TD*%
%TA.AperFunction,Conductor*%
%TO.N,/Pin1*%
G36*
X81533269Y-99782277D02*
G01*
X81533277Y-99782285D01*
X82505388Y-100755368D01*
X82508811Y-100763643D01*
X82505380Y-100771914D01*
X82497253Y-100775336D01*
X82210354Y-100778820D01*
X82013445Y-100793920D01*
X81938671Y-100799654D01*
X81772849Y-100836403D01*
X81772847Y-100836404D01*
X81673981Y-100885051D01*
X81619312Y-100945345D01*
X81604913Y-100982638D01*
X81601201Y-101014648D01*
X81596844Y-101022471D01*
X81589579Y-101025000D01*
X81460291Y-101025000D01*
X81452018Y-101021573D01*
X81448687Y-101014793D01*
X81444019Y-100978521D01*
X81444019Y-100978519D01*
X81427536Y-100939824D01*
X81401147Y-100906361D01*
X81343882Y-100864916D01*
X81267510Y-100833230D01*
X81267506Y-100833229D01*
X81267503Y-100833228D01*
X81174113Y-100809998D01*
X81065798Y-100793920D01*
X80812719Y-100777989D01*
X80552814Y-100775288D01*
X80544577Y-100771776D01*
X80541237Y-100763467D01*
X80544658Y-100755322D01*
X81516723Y-99782284D01*
X81524994Y-99778854D01*
X81533269Y-99782277D01*
G37*
%TD.AperFunction*%
%TD*%
M02*
