%TF.GenerationSoftware,KiCad,Pcbnew,9.0.3*%
%TF.CreationDate,2025-07-16T19:26:03+02:00*%
%TF.ProjectId,PCB_Ruler,5043425f-5275-46c6-9572-2e6b69636164,rev?*%
%TF.SameCoordinates,Original*%
%TF.FileFunction,Copper,L1,Top*%
%TF.FilePolarity,Positive*%
%FSLAX46Y46*%
G04 Gerber Fmt 4.6, Leading zero omitted, Abs format (unit mm)*
G04 Created by KiCad (PCBNEW 9.0.3) date 2025-07-16 19:26:03*
%MOMM*%
%LPD*%
G01*
G04 APERTURE LIST*
G04 Aperture macros list*
%AMRoundRect*
0 Rectangle with rounded corners*
0 $1 Rounding radius*
0 $2 $3 $4 $5 $6 $7 $8 $9 X,Y pos of 4 corners*
0 Add a 4 corners polygon primitive as box body*
4,1,4,$2,$3,$4,$5,$6,$7,$8,$9,$2,$3,0*
0 Add four circle primitives for the rounded corners*
1,1,$1+$1,$2,$3*
1,1,$1+$1,$4,$5*
1,1,$1+$1,$6,$7*
1,1,$1+$1,$8,$9*
0 Add four rect primitives between the rounded corners*
20,1,$1+$1,$2,$3,$4,$5,0*
20,1,$1+$1,$4,$5,$6,$7,0*
20,1,$1+$1,$6,$7,$8,$9,0*
20,1,$1+$1,$8,$9,$2,$3,0*%
%AMOutline4P*
0 Free polygon, 4 corners , with rotation*
0 The origin of the aperture is its center*
0 number of corners: always 4*
0 $1 to $8 corner X, Y*
0 $9 Rotation angle, in degrees counterclockwise*
0 create outline with 4 corners*
4,1,4,$1,$2,$3,$4,$5,$6,$7,$8,$1,$2,$9*%
%AMFreePoly0*
4,1,6,1.000000,0.000000,0.500000,-0.750000,-0.500000,-0.750000,-0.500000,0.750000,0.500000,0.750000,1.000000,0.000000,1.000000,0.000000,$1*%
%AMFreePoly1*
4,1,6,0.500000,-0.750000,-0.650000,-0.750000,-0.150000,0.000000,-0.650000,0.750000,0.500000,0.750000,0.500000,-0.750000,0.500000,-0.750000,$1*%
%AMFreePoly2*
4,1,12,0.260000,0.029000,0.071000,-0.160000,-0.160000,-0.160000,-0.210000,-0.147000,-0.247000,-0.110000,-0.260000,-0.060000,-0.260000,0.060000,-0.247000,0.110000,-0.210000,0.147000,-0.160000,0.160000,0.260000,0.160000,0.260000,0.029000,0.260000,0.029000,$1*%
%AMFreePoly3*
4,1,12,0.210000,0.147000,0.247000,0.110000,0.260000,0.060000,0.260000,-0.060000,0.247000,-0.110000,0.210000,-0.147000,0.160000,-0.160000,-0.260000,-0.160000,-0.260000,-0.029000,-0.071000,0.160000,0.160000,0.160000,0.210000,0.147000,0.210000,0.147000,$1*%
G04 Aperture macros list end*
%TA.AperFunction,NonConductor*%
%ADD10C,0.000000*%
%TD*%
%TA.AperFunction,EtchedComponent*%
%ADD11C,0.000000*%
%TD*%
%TA.AperFunction,EtchedComponent*%
%ADD12C,0.150000*%
%TD*%
%ADD13C,0.150000*%
%TA.AperFunction,SMDPad,CuDef*%
%ADD14R,0.900000X0.500000*%
%TD*%
%TA.AperFunction,SMDPad,CuDef*%
%ADD15R,1.300000X0.700000*%
%TD*%
%TA.AperFunction,SMDPad,CuDef*%
%ADD16R,1.700000X0.900000*%
%TD*%
%TA.AperFunction,SMDPad,CuDef*%
%ADD17R,2.500000X0.900000*%
%TD*%
%TA.AperFunction,SMDPad,CuDef*%
%ADD18R,0.600000X0.400000*%
%TD*%
%TA.AperFunction,SMDPad,CuDef*%
%ADD19R,0.430000X0.280000*%
%TD*%
%TA.AperFunction,SMDPad,CuDef*%
%ADD20R,0.350000X0.350000*%
%TD*%
%TA.AperFunction,SMDPad,CuDef*%
%ADD21R,0.600000X0.450000*%
%TD*%
%TA.AperFunction,SMDPad,CuDef*%
%ADD22R,0.600000X0.700000*%
%TD*%
%TA.AperFunction,SMDPad,CuDef*%
%ADD23R,1.700000X1.300000*%
%TD*%
%TA.AperFunction,SMDPad,CuDef*%
%ADD24R,2.500000X3.300000*%
%TD*%
%TA.AperFunction,SMDPad,CuDef*%
%ADD25R,2.500000X1.800000*%
%TD*%
%TA.AperFunction,SMDPad,CuDef*%
%ADD26R,0.900000X0.800000*%
%TD*%
%TA.AperFunction,SMDPad,CuDef*%
%ADD27R,1.060000X0.650000*%
%TD*%
%TA.AperFunction,SMDPad,CuDef*%
%ADD28R,0.700000X0.450000*%
%TD*%
%TA.AperFunction,SMDPad,CuDef*%
%ADD29R,0.650000X0.400000*%
%TD*%
%TA.AperFunction,SMDPad,CuDef*%
%ADD30R,0.450000X0.300000*%
%TD*%
%TA.AperFunction,SMDPad,CuDef*%
%ADD31R,1.200000X2.200000*%
%TD*%
%TA.AperFunction,SMDPad,CuDef*%
%ADD32R,2.750000X3.050000*%
%TD*%
%TA.AperFunction,SMDPad,CuDef*%
%ADD33R,5.800000X6.400000*%
%TD*%
%TA.AperFunction,SMDPad,CuDef*%
%ADD34R,0.700000X1.150000*%
%TD*%
%TA.AperFunction,SMDPad,CuDef*%
%ADD35R,0.900000X0.600000*%
%TD*%
%TA.AperFunction,SMDPad,CuDef*%
%ADD36R,4.200000X3.300000*%
%TD*%
%TA.AperFunction,SMDPad,CuDef*%
%ADD37R,4.700000X1.550000*%
%TD*%
%TA.AperFunction,SMDPad,CuDef*%
%ADD38R,0.600000X0.900000*%
%TD*%
%TA.AperFunction,SMDPad,CuDef*%
%ADD39R,1.000000X1.500000*%
%TD*%
%TA.AperFunction,SMDPad,CuDef*%
%ADD40R,1.000000X1.800000*%
%TD*%
%TA.AperFunction,SMDPad,CuDef*%
%ADD41Outline4P,-1.100000X-0.500000X1.100000X-0.500000X0.400000X0.500000X-0.400000X0.500000X180.000000*%
%TD*%
%TA.AperFunction,SMDPad,CuDef*%
%ADD42R,2.200000X1.840000*%
%TD*%
%TA.AperFunction,SMDPad,CuDef*%
%ADD43Outline4P,-1.100000X-0.425000X1.100000X-0.425000X0.500000X0.425000X-0.500000X0.425000X0.000000*%
%TD*%
%TA.AperFunction,SMDPad,CuDef*%
%ADD44R,1.500000X2.000000*%
%TD*%
%TA.AperFunction,SMDPad,CuDef*%
%ADD45R,3.800000X2.000000*%
%TD*%
%TA.AperFunction,SMDPad,CuDef*%
%ADD46R,0.330000X0.270000*%
%TD*%
%TA.AperFunction,SMDPad,CuDef*%
%ADD47R,0.200000X0.200000*%
%TD*%
%TA.AperFunction,SMDPad,CuDef*%
%ADD48RoundRect,0.075000X-0.460000X0.075000X-0.460000X-0.075000X0.460000X-0.075000X0.460000X0.075000X0*%
%TD*%
%TA.AperFunction,SMDPad,CuDef*%
%ADD49R,0.500000X0.380000*%
%TD*%
%TA.AperFunction,SMDPad,CuDef*%
%ADD50R,0.650000X0.300000*%
%TD*%
%TA.AperFunction,ComponentPad*%
%ADD51R,0.850000X0.850000*%
%TD*%
%TA.AperFunction,ComponentPad*%
%ADD52R,1.350000X1.350000*%
%TD*%
%TA.AperFunction,ComponentPad*%
%ADD53R,1.000000X1.000000*%
%TD*%
%TA.AperFunction,ComponentPad*%
%ADD54C,3.363600*%
%TD*%
%TA.AperFunction,ComponentPad*%
%ADD55R,1.700000X1.700000*%
%TD*%
%TA.AperFunction,ComponentPad*%
%ADD56C,2.688200*%
%TD*%
%TA.AperFunction,ComponentPad*%
%ADD57C,2.152500*%
%TD*%
%TA.AperFunction,ComponentPad*%
%ADD58C,1.727700*%
%TD*%
%TA.AperFunction,ComponentPad*%
%ADD59C,1.390800*%
%TD*%
%TA.AperFunction,ComponentPad*%
%ADD60C,1.053700*%
%TD*%
%TA.AperFunction,ComponentPad*%
%ADD61C,0.861800*%
%TD*%
%TA.AperFunction,ComponentPad*%
%ADD62C,0.693800*%
%TD*%
%TA.AperFunction,ComponentPad*%
%ADD63C,0.525600*%
%TD*%
%TA.AperFunction,ComponentPad*%
%ADD64C,0.414900*%
%TD*%
%TA.AperFunction,ComponentPad*%
%ADD65C,0.331100*%
%TD*%
%TA.AperFunction,SMDPad,CuDef*%
%ADD66R,0.900000X1.200000*%
%TD*%
%TA.AperFunction,SMDPad,CuDef*%
%ADD67FreePoly0,0.000000*%
%TD*%
%TA.AperFunction,SMDPad,CuDef*%
%ADD68FreePoly1,0.000000*%
%TD*%
%TA.AperFunction,SMDPad,CuDef*%
%ADD69R,1.000000X1.000000*%
%TD*%
%TA.AperFunction,SMDPad,CuDef*%
%ADD70C,1.000000*%
%TD*%
%TA.AperFunction,SMDPad,CuDef*%
%ADD71R,2.000000X2.000000*%
%TD*%
%TA.AperFunction,SMDPad,CuDef*%
%ADD72R,3.200000X1.000000*%
%TD*%
%TA.AperFunction,SMDPad,CuDef*%
%ADD73R,1.600000X3.500000*%
%TD*%
%TA.AperFunction,SMDPad,CuDef*%
%ADD74R,2.500000X1.950000*%
%TD*%
%TA.AperFunction,SMDPad,CuDef*%
%ADD75R,1.500000X1.950000*%
%TD*%
%TA.AperFunction,SMDPad,CuDef*%
%ADD76R,2.500000X2.550000*%
%TD*%
%TA.AperFunction,SMDPad,CuDef*%
%ADD77R,2.700000X2.550000*%
%TD*%
%TA.AperFunction,SMDPad,CuDef*%
%ADD78R,1.600000X2.600000*%
%TD*%
%TA.AperFunction,SMDPad,CuDef*%
%ADD79R,2.500000X2.300000*%
%TD*%
%TA.AperFunction,SMDPad,CuDef*%
%ADD80RoundRect,0.250000X0.300000X-2.050000X0.300000X2.050000X-0.300000X2.050000X-0.300000X-2.050000X0*%
%TD*%
%TA.AperFunction,SMDPad,CuDef*%
%ADD81RoundRect,0.050000X0.275000X0.050000X-0.275000X0.050000X-0.275000X-0.050000X0.275000X-0.050000X0*%
%TD*%
%TA.AperFunction,SMDPad,CuDef*%
%ADD82RoundRect,0.075000X-0.175000X0.075000X-0.175000X-0.075000X0.175000X-0.075000X0.175000X0.075000X0*%
%TD*%
%TA.AperFunction,SMDPad,CuDef*%
%ADD83RoundRect,0.050000X-0.175000X0.050000X-0.175000X-0.050000X0.175000X-0.050000X0.175000X0.050000X0*%
%TD*%
%TA.AperFunction,SMDPad,CuDef*%
%ADD84RoundRect,0.100000X0.125000X0.050000X-0.125000X0.050000X-0.125000X-0.050000X0.125000X-0.050000X0*%
%TD*%
%TA.AperFunction,SMDPad,CuDef*%
%ADD85RoundRect,0.100000X0.100000X0.050000X-0.100000X0.050000X-0.100000X-0.050000X0.100000X-0.050000X0*%
%TD*%
%TA.AperFunction,SMDPad,CuDef*%
%ADD86RoundRect,0.070000X-0.355000X0.070000X-0.355000X-0.070000X0.355000X-0.070000X0.355000X0.070000X0*%
%TD*%
%TA.AperFunction,SMDPad,CuDef*%
%ADD87RoundRect,0.070000X-0.305000X0.070000X-0.305000X-0.070000X0.305000X-0.070000X0.305000X0.070000X0*%
%TD*%
%TA.AperFunction,SMDPad,CuDef*%
%ADD88O,1.600000X1.200000*%
%TD*%
%TA.AperFunction,SMDPad,CuDef*%
%ADD89C,1.200000*%
%TD*%
%TA.AperFunction,SMDPad,CuDef*%
%ADD90RoundRect,0.087500X-0.337500X-0.087500X0.337500X-0.087500X0.337500X0.087500X-0.337500X0.087500X0*%
%TD*%
%TA.AperFunction,SMDPad,CuDef*%
%ADD91RoundRect,0.062500X-0.312500X-0.062500X0.312500X-0.062500X0.312500X0.062500X-0.312500X0.062500X0*%
%TD*%
%TA.AperFunction,SMDPad,CuDef*%
%ADD92RoundRect,0.062500X-0.187500X-0.062500X0.187500X-0.062500X0.187500X0.062500X-0.187500X0.062500X0*%
%TD*%
%TA.AperFunction,SMDPad,CuDef*%
%ADD93RoundRect,0.060000X-0.240000X-0.060000X0.240000X-0.060000X0.240000X0.060000X-0.240000X0.060000X0*%
%TD*%
%TA.AperFunction,SMDPad,CuDef*%
%ADD94RoundRect,0.062500X-0.062500X-0.212500X0.062500X-0.212500X0.062500X0.212500X-0.062500X0.212500X0*%
%TD*%
%TA.AperFunction,SMDPad,CuDef*%
%ADD95RoundRect,0.075000X-0.350000X-0.075000X0.350000X-0.075000X0.350000X0.075000X-0.350000X0.075000X0*%
%TD*%
%TA.AperFunction,SMDPad,CuDef*%
%ADD96FreePoly2,0.000000*%
%TD*%
%TA.AperFunction,SMDPad,CuDef*%
%ADD97FreePoly3,0.000000*%
%TD*%
%TA.AperFunction,ComponentPad*%
%ADD98C,0.750000*%
%TD*%
%TA.AperFunction,Conductor*%
%ADD99C,0.200000*%
%TD*%
%TA.AperFunction,Conductor*%
%ADD100C,0.250000*%
%TD*%
%TA.AperFunction,Conductor*%
%ADD101C,0.150000*%
%TD*%
G04 APERTURE END LIST*
D10*
%TA.AperFunction,NonConductor*%
G36*
X77302000Y-105324600D02*
G01*
X69860700Y-105324600D01*
X69860700Y-104562600D01*
X77302000Y-104562600D01*
X77302000Y-105324600D01*
G37*
%TD.AperFunction*%
%TA.AperFunction,NonConductor*%
G36*
X77294201Y-102835400D02*
G01*
X69902901Y-102835400D01*
X69902901Y-102378200D01*
X77294201Y-102378200D01*
X77294201Y-102835400D01*
G37*
%TD.AperFunction*%
%TA.AperFunction,NonConductor*%
G36*
X77298662Y-106645400D02*
G01*
X69882362Y-106645400D01*
X69882362Y-105629400D01*
X77298662Y-105629400D01*
X77298662Y-106645400D01*
G37*
%TD.AperFunction*%
%TA.AperFunction,NonConductor*%
G36*
X77308127Y-101590800D02*
G01*
X69916827Y-101590800D01*
X69916827Y-101286000D01*
X77308127Y-101286000D01*
X77308127Y-101590800D01*
G37*
%TD.AperFunction*%
%TA.AperFunction,NonConductor*%
G36*
X77302147Y-104130800D02*
G01*
X69885847Y-104130800D01*
X69885847Y-103521200D01*
X77302147Y-103521200D01*
X77302147Y-104130800D01*
G37*
%TD.AperFunction*%
D11*
%TA.AperFunction,EtchedComponent*%
%TO.C,U5*%
G36*
X70400000Y-120000000D02*
G01*
X70100000Y-120000000D01*
X70100000Y-117000000D01*
X70400000Y-117000000D01*
X70400000Y-120000000D01*
G37*
%TD.AperFunction*%
%TA.AperFunction,EtchedComponent*%
G36*
X71350000Y-120000000D02*
G01*
X71150000Y-120000000D01*
X71150000Y-119000000D01*
X71350000Y-119000000D01*
X71350000Y-120000000D01*
G37*
%TD.AperFunction*%
%TA.AperFunction,EtchedComponent*%
G36*
X72350000Y-120000000D02*
G01*
X72150000Y-120000000D01*
X72150000Y-119000000D01*
X72350000Y-119000000D01*
X72350000Y-120000000D01*
G37*
%TD.AperFunction*%
%TA.AperFunction,EtchedComponent*%
G36*
X73350000Y-120000000D02*
G01*
X73150000Y-120000000D01*
X73150000Y-119000000D01*
X73350000Y-119000000D01*
X73350000Y-120000000D01*
G37*
%TD.AperFunction*%
%TA.AperFunction,EtchedComponent*%
G36*
X74350000Y-120000000D02*
G01*
X74150000Y-120000000D01*
X74150000Y-119000000D01*
X74350000Y-119000000D01*
X74350000Y-120000000D01*
G37*
%TD.AperFunction*%
%TA.AperFunction,EtchedComponent*%
G36*
X75350000Y-120000000D02*
G01*
X75150000Y-120000000D01*
X75150000Y-118000000D01*
X75350000Y-118000000D01*
X75350000Y-120000000D01*
G37*
%TD.AperFunction*%
%TA.AperFunction,EtchedComponent*%
G36*
X76350000Y-120000000D02*
G01*
X76150000Y-120000000D01*
X76150000Y-119000000D01*
X76350000Y-119000000D01*
X76350000Y-120000000D01*
G37*
%TD.AperFunction*%
%TA.AperFunction,EtchedComponent*%
G36*
X77350000Y-120000000D02*
G01*
X77150000Y-120000000D01*
X77150000Y-119000000D01*
X77350000Y-119000000D01*
X77350000Y-120000000D01*
G37*
%TD.AperFunction*%
%TA.AperFunction,EtchedComponent*%
G36*
X78350000Y-120000000D02*
G01*
X78150000Y-120000000D01*
X78150000Y-119000000D01*
X78350000Y-119000000D01*
X78350000Y-120000000D01*
G37*
%TD.AperFunction*%
%TA.AperFunction,EtchedComponent*%
G36*
X79350000Y-120000000D02*
G01*
X79150000Y-120000000D01*
X79150000Y-119000000D01*
X79350000Y-119000000D01*
X79350000Y-120000000D01*
G37*
%TD.AperFunction*%
%TA.AperFunction,EtchedComponent*%
G36*
X80400000Y-120000000D02*
G01*
X80100000Y-120000000D01*
X80100000Y-117000000D01*
X80400000Y-117000000D01*
X80400000Y-120000000D01*
G37*
%TD.AperFunction*%
%TA.AperFunction,EtchedComponent*%
%TO.C,U6*%
G36*
X80400000Y-120000000D02*
G01*
X80100000Y-120000000D01*
X80100000Y-117000000D01*
X80400000Y-117000000D01*
X80400000Y-120000000D01*
G37*
%TD.AperFunction*%
%TA.AperFunction,EtchedComponent*%
G36*
X81350000Y-120000000D02*
G01*
X81150000Y-120000000D01*
X81150000Y-119000000D01*
X81350000Y-119000000D01*
X81350000Y-120000000D01*
G37*
%TD.AperFunction*%
%TA.AperFunction,EtchedComponent*%
G36*
X82350000Y-120000000D02*
G01*
X82150000Y-120000000D01*
X82150000Y-119000000D01*
X82350000Y-119000000D01*
X82350000Y-120000000D01*
G37*
%TD.AperFunction*%
%TA.AperFunction,EtchedComponent*%
G36*
X83350000Y-120000000D02*
G01*
X83150000Y-120000000D01*
X83150000Y-119000000D01*
X83350000Y-119000000D01*
X83350000Y-120000000D01*
G37*
%TD.AperFunction*%
%TA.AperFunction,EtchedComponent*%
G36*
X84350000Y-120000000D02*
G01*
X84150000Y-120000000D01*
X84150000Y-119000000D01*
X84350000Y-119000000D01*
X84350000Y-120000000D01*
G37*
%TD.AperFunction*%
%TA.AperFunction,EtchedComponent*%
G36*
X85350000Y-120000000D02*
G01*
X85150000Y-120000000D01*
X85150000Y-118000000D01*
X85350000Y-118000000D01*
X85350000Y-120000000D01*
G37*
%TD.AperFunction*%
%TA.AperFunction,EtchedComponent*%
G36*
X86350000Y-120000000D02*
G01*
X86150000Y-120000000D01*
X86150000Y-119000000D01*
X86350000Y-119000000D01*
X86350000Y-120000000D01*
G37*
%TD.AperFunction*%
%TA.AperFunction,EtchedComponent*%
G36*
X87350000Y-120000000D02*
G01*
X87150000Y-120000000D01*
X87150000Y-119000000D01*
X87350000Y-119000000D01*
X87350000Y-120000000D01*
G37*
%TD.AperFunction*%
%TA.AperFunction,EtchedComponent*%
G36*
X88350000Y-120000000D02*
G01*
X88150000Y-120000000D01*
X88150000Y-119000000D01*
X88350000Y-119000000D01*
X88350000Y-120000000D01*
G37*
%TD.AperFunction*%
%TA.AperFunction,EtchedComponent*%
G36*
X89350000Y-120000000D02*
G01*
X89150000Y-120000000D01*
X89150000Y-119000000D01*
X89350000Y-119000000D01*
X89350000Y-120000000D01*
G37*
%TD.AperFunction*%
%TA.AperFunction,EtchedComponent*%
G36*
X90400000Y-120000000D02*
G01*
X90100000Y-120000000D01*
X90100000Y-117000000D01*
X90400000Y-117000000D01*
X90400000Y-120000000D01*
G37*
%TD.AperFunction*%
%TA.AperFunction,EtchedComponent*%
%TO.C,U7*%
G36*
X90400000Y-120000000D02*
G01*
X90100000Y-120000000D01*
X90100000Y-117000000D01*
X90400000Y-117000000D01*
X90400000Y-120000000D01*
G37*
%TD.AperFunction*%
%TA.AperFunction,EtchedComponent*%
G36*
X91350000Y-120000000D02*
G01*
X91150000Y-120000000D01*
X91150000Y-119000000D01*
X91350000Y-119000000D01*
X91350000Y-120000000D01*
G37*
%TD.AperFunction*%
%TA.AperFunction,EtchedComponent*%
G36*
X92350000Y-120000000D02*
G01*
X92150000Y-120000000D01*
X92150000Y-119000000D01*
X92350000Y-119000000D01*
X92350000Y-120000000D01*
G37*
%TD.AperFunction*%
%TA.AperFunction,EtchedComponent*%
G36*
X93350000Y-120000000D02*
G01*
X93150000Y-120000000D01*
X93150000Y-119000000D01*
X93350000Y-119000000D01*
X93350000Y-120000000D01*
G37*
%TD.AperFunction*%
%TA.AperFunction,EtchedComponent*%
G36*
X94350000Y-120000000D02*
G01*
X94150000Y-120000000D01*
X94150000Y-119000000D01*
X94350000Y-119000000D01*
X94350000Y-120000000D01*
G37*
%TD.AperFunction*%
%TA.AperFunction,EtchedComponent*%
G36*
X95350000Y-120000000D02*
G01*
X95150000Y-120000000D01*
X95150000Y-118000000D01*
X95350000Y-118000000D01*
X95350000Y-120000000D01*
G37*
%TD.AperFunction*%
%TA.AperFunction,EtchedComponent*%
G36*
X96350000Y-120000000D02*
G01*
X96150000Y-120000000D01*
X96150000Y-119000000D01*
X96350000Y-119000000D01*
X96350000Y-120000000D01*
G37*
%TD.AperFunction*%
%TA.AperFunction,EtchedComponent*%
G36*
X97350000Y-120000000D02*
G01*
X97150000Y-120000000D01*
X97150000Y-119000000D01*
X97350000Y-119000000D01*
X97350000Y-120000000D01*
G37*
%TD.AperFunction*%
%TA.AperFunction,EtchedComponent*%
G36*
X98350000Y-120000000D02*
G01*
X98150000Y-120000000D01*
X98150000Y-119000000D01*
X98350000Y-119000000D01*
X98350000Y-120000000D01*
G37*
%TD.AperFunction*%
%TA.AperFunction,EtchedComponent*%
G36*
X99350000Y-120000000D02*
G01*
X99150000Y-120000000D01*
X99150000Y-119000000D01*
X99350000Y-119000000D01*
X99350000Y-120000000D01*
G37*
%TD.AperFunction*%
%TA.AperFunction,EtchedComponent*%
G36*
X100400000Y-120000000D02*
G01*
X100100000Y-120000000D01*
X100100000Y-117000000D01*
X100400000Y-117000000D01*
X100400000Y-120000000D01*
G37*
%TD.AperFunction*%
%TA.AperFunction,EtchedComponent*%
%TO.C,U8*%
G36*
X100400000Y-120000000D02*
G01*
X100100000Y-120000000D01*
X100100000Y-117000000D01*
X100400000Y-117000000D01*
X100400000Y-120000000D01*
G37*
%TD.AperFunction*%
%TA.AperFunction,EtchedComponent*%
G36*
X101350000Y-120000000D02*
G01*
X101150000Y-120000000D01*
X101150000Y-119000000D01*
X101350000Y-119000000D01*
X101350000Y-120000000D01*
G37*
%TD.AperFunction*%
%TA.AperFunction,EtchedComponent*%
G36*
X102350000Y-120000000D02*
G01*
X102150000Y-120000000D01*
X102150000Y-119000000D01*
X102350000Y-119000000D01*
X102350000Y-120000000D01*
G37*
%TD.AperFunction*%
%TA.AperFunction,EtchedComponent*%
G36*
X103350000Y-120000000D02*
G01*
X103150000Y-120000000D01*
X103150000Y-119000000D01*
X103350000Y-119000000D01*
X103350000Y-120000000D01*
G37*
%TD.AperFunction*%
%TA.AperFunction,EtchedComponent*%
G36*
X104350000Y-120000000D02*
G01*
X104150000Y-120000000D01*
X104150000Y-119000000D01*
X104350000Y-119000000D01*
X104350000Y-120000000D01*
G37*
%TD.AperFunction*%
%TA.AperFunction,EtchedComponent*%
G36*
X105350000Y-120000000D02*
G01*
X105150000Y-120000000D01*
X105150000Y-118000000D01*
X105350000Y-118000000D01*
X105350000Y-120000000D01*
G37*
%TD.AperFunction*%
%TA.AperFunction,EtchedComponent*%
G36*
X106350000Y-120000000D02*
G01*
X106150000Y-120000000D01*
X106150000Y-119000000D01*
X106350000Y-119000000D01*
X106350000Y-120000000D01*
G37*
%TD.AperFunction*%
%TA.AperFunction,EtchedComponent*%
G36*
X107350000Y-120000000D02*
G01*
X107150000Y-120000000D01*
X107150000Y-119000000D01*
X107350000Y-119000000D01*
X107350000Y-120000000D01*
G37*
%TD.AperFunction*%
%TA.AperFunction,EtchedComponent*%
G36*
X108350000Y-120000000D02*
G01*
X108150000Y-120000000D01*
X108150000Y-119000000D01*
X108350000Y-119000000D01*
X108350000Y-120000000D01*
G37*
%TD.AperFunction*%
%TA.AperFunction,EtchedComponent*%
G36*
X109350000Y-120000000D02*
G01*
X109150000Y-120000000D01*
X109150000Y-119000000D01*
X109350000Y-119000000D01*
X109350000Y-120000000D01*
G37*
%TD.AperFunction*%
%TA.AperFunction,EtchedComponent*%
G36*
X110400000Y-120000000D02*
G01*
X110100000Y-120000000D01*
X110100000Y-117000000D01*
X110400000Y-117000000D01*
X110400000Y-120000000D01*
G37*
%TD.AperFunction*%
%TA.AperFunction,EtchedComponent*%
%TO.C,U9*%
G36*
X110400000Y-120000000D02*
G01*
X110100000Y-120000000D01*
X110100000Y-117000000D01*
X110400000Y-117000000D01*
X110400000Y-120000000D01*
G37*
%TD.AperFunction*%
%TA.AperFunction,EtchedComponent*%
G36*
X111350000Y-120000000D02*
G01*
X111150000Y-120000000D01*
X111150000Y-119000000D01*
X111350000Y-119000000D01*
X111350000Y-120000000D01*
G37*
%TD.AperFunction*%
%TA.AperFunction,EtchedComponent*%
G36*
X112350000Y-120000000D02*
G01*
X112150000Y-120000000D01*
X112150000Y-119000000D01*
X112350000Y-119000000D01*
X112350000Y-120000000D01*
G37*
%TD.AperFunction*%
%TA.AperFunction,EtchedComponent*%
G36*
X113350000Y-120000000D02*
G01*
X113150000Y-120000000D01*
X113150000Y-119000000D01*
X113350000Y-119000000D01*
X113350000Y-120000000D01*
G37*
%TD.AperFunction*%
%TA.AperFunction,EtchedComponent*%
G36*
X114350000Y-120000000D02*
G01*
X114150000Y-120000000D01*
X114150000Y-119000000D01*
X114350000Y-119000000D01*
X114350000Y-120000000D01*
G37*
%TD.AperFunction*%
%TA.AperFunction,EtchedComponent*%
G36*
X115350000Y-120000000D02*
G01*
X115150000Y-120000000D01*
X115150000Y-118000000D01*
X115350000Y-118000000D01*
X115350000Y-120000000D01*
G37*
%TD.AperFunction*%
%TA.AperFunction,EtchedComponent*%
G36*
X116350000Y-120000000D02*
G01*
X116150000Y-120000000D01*
X116150000Y-119000000D01*
X116350000Y-119000000D01*
X116350000Y-120000000D01*
G37*
%TD.AperFunction*%
%TA.AperFunction,EtchedComponent*%
G36*
X117350000Y-120000000D02*
G01*
X117150000Y-120000000D01*
X117150000Y-119000000D01*
X117350000Y-119000000D01*
X117350000Y-120000000D01*
G37*
%TD.AperFunction*%
%TA.AperFunction,EtchedComponent*%
G36*
X118350000Y-120000000D02*
G01*
X118150000Y-120000000D01*
X118150000Y-119000000D01*
X118350000Y-119000000D01*
X118350000Y-120000000D01*
G37*
%TD.AperFunction*%
%TA.AperFunction,EtchedComponent*%
G36*
X119350000Y-120000000D02*
G01*
X119150000Y-120000000D01*
X119150000Y-119000000D01*
X119350000Y-119000000D01*
X119350000Y-120000000D01*
G37*
%TD.AperFunction*%
%TA.AperFunction,EtchedComponent*%
G36*
X120400000Y-120000000D02*
G01*
X120100000Y-120000000D01*
X120100000Y-117000000D01*
X120400000Y-117000000D01*
X120400000Y-120000000D01*
G37*
%TD.AperFunction*%
%TA.AperFunction,EtchedComponent*%
%TO.C,U10*%
G36*
X120400000Y-120000000D02*
G01*
X120100000Y-120000000D01*
X120100000Y-117000000D01*
X120400000Y-117000000D01*
X120400000Y-120000000D01*
G37*
%TD.AperFunction*%
%TA.AperFunction,EtchedComponent*%
G36*
X121350000Y-120000000D02*
G01*
X121150000Y-120000000D01*
X121150000Y-119000000D01*
X121350000Y-119000000D01*
X121350000Y-120000000D01*
G37*
%TD.AperFunction*%
%TA.AperFunction,EtchedComponent*%
G36*
X122350000Y-120000000D02*
G01*
X122150000Y-120000000D01*
X122150000Y-119000000D01*
X122350000Y-119000000D01*
X122350000Y-120000000D01*
G37*
%TD.AperFunction*%
%TA.AperFunction,EtchedComponent*%
G36*
X123350000Y-120000000D02*
G01*
X123150000Y-120000000D01*
X123150000Y-119000000D01*
X123350000Y-119000000D01*
X123350000Y-120000000D01*
G37*
%TD.AperFunction*%
%TA.AperFunction,EtchedComponent*%
G36*
X124350000Y-120000000D02*
G01*
X124150000Y-120000000D01*
X124150000Y-119000000D01*
X124350000Y-119000000D01*
X124350000Y-120000000D01*
G37*
%TD.AperFunction*%
%TA.AperFunction,EtchedComponent*%
G36*
X125350000Y-120000000D02*
G01*
X125150000Y-120000000D01*
X125150000Y-118000000D01*
X125350000Y-118000000D01*
X125350000Y-120000000D01*
G37*
%TD.AperFunction*%
%TA.AperFunction,EtchedComponent*%
G36*
X126350000Y-120000000D02*
G01*
X126150000Y-120000000D01*
X126150000Y-119000000D01*
X126350000Y-119000000D01*
X126350000Y-120000000D01*
G37*
%TD.AperFunction*%
%TA.AperFunction,EtchedComponent*%
G36*
X127350000Y-120000000D02*
G01*
X127150000Y-120000000D01*
X127150000Y-119000000D01*
X127350000Y-119000000D01*
X127350000Y-120000000D01*
G37*
%TD.AperFunction*%
%TA.AperFunction,EtchedComponent*%
G36*
X128350000Y-120000000D02*
G01*
X128150000Y-120000000D01*
X128150000Y-119000000D01*
X128350000Y-119000000D01*
X128350000Y-120000000D01*
G37*
%TD.AperFunction*%
%TA.AperFunction,EtchedComponent*%
G36*
X129350000Y-120000000D02*
G01*
X129150000Y-120000000D01*
X129150000Y-119000000D01*
X129350000Y-119000000D01*
X129350000Y-120000000D01*
G37*
%TD.AperFunction*%
%TA.AperFunction,EtchedComponent*%
G36*
X130400000Y-120000000D02*
G01*
X130100000Y-120000000D01*
X130100000Y-117000000D01*
X130400000Y-117000000D01*
X130400000Y-120000000D01*
G37*
%TD.AperFunction*%
%TA.AperFunction,EtchedComponent*%
%TO.C,U11*%
G36*
X130400000Y-120000000D02*
G01*
X130100000Y-120000000D01*
X130100000Y-117000000D01*
X130400000Y-117000000D01*
X130400000Y-120000000D01*
G37*
%TD.AperFunction*%
%TA.AperFunction,EtchedComponent*%
G36*
X131350000Y-120000000D02*
G01*
X131150000Y-120000000D01*
X131150000Y-119000000D01*
X131350000Y-119000000D01*
X131350000Y-120000000D01*
G37*
%TD.AperFunction*%
%TA.AperFunction,EtchedComponent*%
G36*
X132350000Y-120000000D02*
G01*
X132150000Y-120000000D01*
X132150000Y-119000000D01*
X132350000Y-119000000D01*
X132350000Y-120000000D01*
G37*
%TD.AperFunction*%
%TA.AperFunction,EtchedComponent*%
G36*
X133350000Y-120000000D02*
G01*
X133150000Y-120000000D01*
X133150000Y-119000000D01*
X133350000Y-119000000D01*
X133350000Y-120000000D01*
G37*
%TD.AperFunction*%
%TA.AperFunction,EtchedComponent*%
G36*
X134350000Y-120000000D02*
G01*
X134150000Y-120000000D01*
X134150000Y-119000000D01*
X134350000Y-119000000D01*
X134350000Y-120000000D01*
G37*
%TD.AperFunction*%
%TA.AperFunction,EtchedComponent*%
G36*
X135350000Y-120000000D02*
G01*
X135150000Y-120000000D01*
X135150000Y-118000000D01*
X135350000Y-118000000D01*
X135350000Y-120000000D01*
G37*
%TD.AperFunction*%
%TA.AperFunction,EtchedComponent*%
G36*
X136350000Y-120000000D02*
G01*
X136150000Y-120000000D01*
X136150000Y-119000000D01*
X136350000Y-119000000D01*
X136350000Y-120000000D01*
G37*
%TD.AperFunction*%
%TA.AperFunction,EtchedComponent*%
G36*
X137350000Y-120000000D02*
G01*
X137150000Y-120000000D01*
X137150000Y-119000000D01*
X137350000Y-119000000D01*
X137350000Y-120000000D01*
G37*
%TD.AperFunction*%
%TA.AperFunction,EtchedComponent*%
G36*
X138350000Y-120000000D02*
G01*
X138150000Y-120000000D01*
X138150000Y-119000000D01*
X138350000Y-119000000D01*
X138350000Y-120000000D01*
G37*
%TD.AperFunction*%
%TA.AperFunction,EtchedComponent*%
G36*
X139350000Y-120000000D02*
G01*
X139150000Y-120000000D01*
X139150000Y-119000000D01*
X139350000Y-119000000D01*
X139350000Y-120000000D01*
G37*
%TD.AperFunction*%
%TA.AperFunction,EtchedComponent*%
G36*
X140400000Y-120000000D02*
G01*
X140100000Y-120000000D01*
X140100000Y-117000000D01*
X140400000Y-117000000D01*
X140400000Y-120000000D01*
G37*
%TD.AperFunction*%
%TA.AperFunction,EtchedComponent*%
%TO.C,U12*%
G36*
X140400000Y-120000000D02*
G01*
X140100000Y-120000000D01*
X140100000Y-117000000D01*
X140400000Y-117000000D01*
X140400000Y-120000000D01*
G37*
%TD.AperFunction*%
%TA.AperFunction,EtchedComponent*%
G36*
X141350000Y-120000000D02*
G01*
X141150000Y-120000000D01*
X141150000Y-119000000D01*
X141350000Y-119000000D01*
X141350000Y-120000000D01*
G37*
%TD.AperFunction*%
%TA.AperFunction,EtchedComponent*%
G36*
X142350000Y-120000000D02*
G01*
X142150000Y-120000000D01*
X142150000Y-119000000D01*
X142350000Y-119000000D01*
X142350000Y-120000000D01*
G37*
%TD.AperFunction*%
%TA.AperFunction,EtchedComponent*%
G36*
X143350000Y-120000000D02*
G01*
X143150000Y-120000000D01*
X143150000Y-119000000D01*
X143350000Y-119000000D01*
X143350000Y-120000000D01*
G37*
%TD.AperFunction*%
%TA.AperFunction,EtchedComponent*%
G36*
X144350000Y-120000000D02*
G01*
X144150000Y-120000000D01*
X144150000Y-119000000D01*
X144350000Y-119000000D01*
X144350000Y-120000000D01*
G37*
%TD.AperFunction*%
%TA.AperFunction,EtchedComponent*%
G36*
X145350000Y-120000000D02*
G01*
X145150000Y-120000000D01*
X145150000Y-118000000D01*
X145350000Y-118000000D01*
X145350000Y-120000000D01*
G37*
%TD.AperFunction*%
%TA.AperFunction,EtchedComponent*%
G36*
X146350000Y-120000000D02*
G01*
X146150000Y-120000000D01*
X146150000Y-119000000D01*
X146350000Y-119000000D01*
X146350000Y-120000000D01*
G37*
%TD.AperFunction*%
%TA.AperFunction,EtchedComponent*%
G36*
X147350000Y-120000000D02*
G01*
X147150000Y-120000000D01*
X147150000Y-119000000D01*
X147350000Y-119000000D01*
X147350000Y-120000000D01*
G37*
%TD.AperFunction*%
%TA.AperFunction,EtchedComponent*%
G36*
X148350000Y-120000000D02*
G01*
X148150000Y-120000000D01*
X148150000Y-119000000D01*
X148350000Y-119000000D01*
X148350000Y-120000000D01*
G37*
%TD.AperFunction*%
%TA.AperFunction,EtchedComponent*%
G36*
X149350000Y-120000000D02*
G01*
X149150000Y-120000000D01*
X149150000Y-119000000D01*
X149350000Y-119000000D01*
X149350000Y-120000000D01*
G37*
%TD.AperFunction*%
%TA.AperFunction,EtchedComponent*%
G36*
X150400000Y-120000000D02*
G01*
X150100000Y-120000000D01*
X150100000Y-117000000D01*
X150400000Y-117000000D01*
X150400000Y-120000000D01*
G37*
%TD.AperFunction*%
%TA.AperFunction,EtchedComponent*%
%TO.C,U13*%
G36*
X150400000Y-120000000D02*
G01*
X150100000Y-120000000D01*
X150100000Y-117000000D01*
X150400000Y-117000000D01*
X150400000Y-120000000D01*
G37*
%TD.AperFunction*%
%TA.AperFunction,EtchedComponent*%
G36*
X151350000Y-120000000D02*
G01*
X151150000Y-120000000D01*
X151150000Y-119000000D01*
X151350000Y-119000000D01*
X151350000Y-120000000D01*
G37*
%TD.AperFunction*%
%TA.AperFunction,EtchedComponent*%
G36*
X152350000Y-120000000D02*
G01*
X152150000Y-120000000D01*
X152150000Y-119000000D01*
X152350000Y-119000000D01*
X152350000Y-120000000D01*
G37*
%TD.AperFunction*%
%TA.AperFunction,EtchedComponent*%
G36*
X153350000Y-120000000D02*
G01*
X153150000Y-120000000D01*
X153150000Y-119000000D01*
X153350000Y-119000000D01*
X153350000Y-120000000D01*
G37*
%TD.AperFunction*%
%TA.AperFunction,EtchedComponent*%
G36*
X154350000Y-120000000D02*
G01*
X154150000Y-120000000D01*
X154150000Y-119000000D01*
X154350000Y-119000000D01*
X154350000Y-120000000D01*
G37*
%TD.AperFunction*%
%TA.AperFunction,EtchedComponent*%
G36*
X155350000Y-120000000D02*
G01*
X155150000Y-120000000D01*
X155150000Y-118000000D01*
X155350000Y-118000000D01*
X155350000Y-120000000D01*
G37*
%TD.AperFunction*%
%TA.AperFunction,EtchedComponent*%
G36*
X156350000Y-120000000D02*
G01*
X156150000Y-120000000D01*
X156150000Y-119000000D01*
X156350000Y-119000000D01*
X156350000Y-120000000D01*
G37*
%TD.AperFunction*%
%TA.AperFunction,EtchedComponent*%
G36*
X157350000Y-120000000D02*
G01*
X157150000Y-120000000D01*
X157150000Y-119000000D01*
X157350000Y-119000000D01*
X157350000Y-120000000D01*
G37*
%TD.AperFunction*%
%TA.AperFunction,EtchedComponent*%
G36*
X158350000Y-120000000D02*
G01*
X158150000Y-120000000D01*
X158150000Y-119000000D01*
X158350000Y-119000000D01*
X158350000Y-120000000D01*
G37*
%TD.AperFunction*%
%TA.AperFunction,EtchedComponent*%
G36*
X159350000Y-120000000D02*
G01*
X159150000Y-120000000D01*
X159150000Y-119000000D01*
X159350000Y-119000000D01*
X159350000Y-120000000D01*
G37*
%TD.AperFunction*%
%TA.AperFunction,EtchedComponent*%
G36*
X160400000Y-120000000D02*
G01*
X160100000Y-120000000D01*
X160100000Y-117000000D01*
X160400000Y-117000000D01*
X160400000Y-120000000D01*
G37*
%TD.AperFunction*%
%TA.AperFunction,EtchedComponent*%
%TO.C,U14*%
G36*
X160400000Y-120000000D02*
G01*
X160100000Y-120000000D01*
X160100000Y-117000000D01*
X160400000Y-117000000D01*
X160400000Y-120000000D01*
G37*
%TD.AperFunction*%
%TA.AperFunction,EtchedComponent*%
G36*
X161350000Y-120000000D02*
G01*
X161150000Y-120000000D01*
X161150000Y-119000000D01*
X161350000Y-119000000D01*
X161350000Y-120000000D01*
G37*
%TD.AperFunction*%
%TA.AperFunction,EtchedComponent*%
G36*
X162350000Y-120000000D02*
G01*
X162150000Y-120000000D01*
X162150000Y-119000000D01*
X162350000Y-119000000D01*
X162350000Y-120000000D01*
G37*
%TD.AperFunction*%
%TA.AperFunction,EtchedComponent*%
G36*
X163350000Y-120000000D02*
G01*
X163150000Y-120000000D01*
X163150000Y-119000000D01*
X163350000Y-119000000D01*
X163350000Y-120000000D01*
G37*
%TD.AperFunction*%
%TA.AperFunction,EtchedComponent*%
G36*
X164350000Y-120000000D02*
G01*
X164150000Y-120000000D01*
X164150000Y-119000000D01*
X164350000Y-119000000D01*
X164350000Y-120000000D01*
G37*
%TD.AperFunction*%
%TA.AperFunction,EtchedComponent*%
G36*
X165350000Y-120000000D02*
G01*
X165150000Y-120000000D01*
X165150000Y-118000000D01*
X165350000Y-118000000D01*
X165350000Y-120000000D01*
G37*
%TD.AperFunction*%
%TA.AperFunction,EtchedComponent*%
G36*
X166350000Y-120000000D02*
G01*
X166150000Y-120000000D01*
X166150000Y-119000000D01*
X166350000Y-119000000D01*
X166350000Y-120000000D01*
G37*
%TD.AperFunction*%
%TA.AperFunction,EtchedComponent*%
G36*
X167350000Y-120000000D02*
G01*
X167150000Y-120000000D01*
X167150000Y-119000000D01*
X167350000Y-119000000D01*
X167350000Y-120000000D01*
G37*
%TD.AperFunction*%
%TA.AperFunction,EtchedComponent*%
G36*
X168350000Y-120000000D02*
G01*
X168150000Y-120000000D01*
X168150000Y-119000000D01*
X168350000Y-119000000D01*
X168350000Y-120000000D01*
G37*
%TD.AperFunction*%
%TA.AperFunction,EtchedComponent*%
G36*
X169350000Y-120000000D02*
G01*
X169150000Y-120000000D01*
X169150000Y-119000000D01*
X169350000Y-119000000D01*
X169350000Y-120000000D01*
G37*
%TD.AperFunction*%
%TA.AperFunction,EtchedComponent*%
G36*
X170400000Y-120000000D02*
G01*
X170100000Y-120000000D01*
X170100000Y-117000000D01*
X170400000Y-117000000D01*
X170400000Y-120000000D01*
G37*
%TD.AperFunction*%
%TA.AperFunction,EtchedComponent*%
%TO.C,U20*%
G36*
X70400000Y-96500000D02*
G01*
X70100000Y-96500000D01*
X70100000Y-93000000D01*
X70400000Y-93000000D01*
X70400000Y-96500000D01*
G37*
%TD.AperFunction*%
%TA.AperFunction,EtchedComponent*%
G36*
X72963000Y-94500000D02*
G01*
X72663000Y-94500000D01*
X72663000Y-93000000D01*
X72963000Y-93000000D01*
X72963000Y-94500000D01*
G37*
%TD.AperFunction*%
%TA.AperFunction,EtchedComponent*%
G36*
X75480000Y-94500000D02*
G01*
X75180000Y-94500000D01*
X75180000Y-93000000D01*
X75480000Y-93000000D01*
X75480000Y-94500000D01*
G37*
%TD.AperFunction*%
%TA.AperFunction,EtchedComponent*%
G36*
X78043000Y-94500000D02*
G01*
X77743000Y-94500000D01*
X77743000Y-93000000D01*
X78043000Y-93000000D01*
X78043000Y-94500000D01*
G37*
%TD.AperFunction*%
%TA.AperFunction,EtchedComponent*%
G36*
X80560000Y-94500000D02*
G01*
X80260000Y-94500000D01*
X80260000Y-93000000D01*
X80560000Y-93000000D01*
X80560000Y-94500000D01*
G37*
%TD.AperFunction*%
%TA.AperFunction,EtchedComponent*%
G36*
X83100000Y-95500000D02*
G01*
X82800000Y-95500000D01*
X82800000Y-93000000D01*
X83100000Y-93000000D01*
X83100000Y-95500000D01*
G37*
%TD.AperFunction*%
%TA.AperFunction,EtchedComponent*%
G36*
X85663000Y-94500000D02*
G01*
X85363000Y-94500000D01*
X85363000Y-93000000D01*
X85663000Y-93000000D01*
X85663000Y-94500000D01*
G37*
%TD.AperFunction*%
%TA.AperFunction,EtchedComponent*%
G36*
X88180000Y-94500000D02*
G01*
X87880000Y-94500000D01*
X87880000Y-93000000D01*
X88180000Y-93000000D01*
X88180000Y-94500000D01*
G37*
%TD.AperFunction*%
%TA.AperFunction,EtchedComponent*%
G36*
X90743000Y-94500000D02*
G01*
X90443000Y-94500000D01*
X90443000Y-93000000D01*
X90743000Y-93000000D01*
X90743000Y-94500000D01*
G37*
%TD.AperFunction*%
%TA.AperFunction,EtchedComponent*%
G36*
X93260000Y-94500000D02*
G01*
X92960000Y-94500000D01*
X92960000Y-93000000D01*
X93260000Y-93000000D01*
X93260000Y-94500000D01*
G37*
%TD.AperFunction*%
%TA.AperFunction,EtchedComponent*%
%TO.C,U21*%
G36*
X95800000Y-96500000D02*
G01*
X95500000Y-96500000D01*
X95500000Y-93000000D01*
X95800000Y-93000000D01*
X95800000Y-96500000D01*
G37*
%TD.AperFunction*%
%TA.AperFunction,EtchedComponent*%
G36*
X98363000Y-94500000D02*
G01*
X98063000Y-94500000D01*
X98063000Y-93000000D01*
X98363000Y-93000000D01*
X98363000Y-94500000D01*
G37*
%TD.AperFunction*%
%TA.AperFunction,EtchedComponent*%
G36*
X100880000Y-94500000D02*
G01*
X100580000Y-94500000D01*
X100580000Y-93000000D01*
X100880000Y-93000000D01*
X100880000Y-94500000D01*
G37*
%TD.AperFunction*%
%TA.AperFunction,EtchedComponent*%
G36*
X103443000Y-94500000D02*
G01*
X103143000Y-94500000D01*
X103143000Y-93000000D01*
X103443000Y-93000000D01*
X103443000Y-94500000D01*
G37*
%TD.AperFunction*%
%TA.AperFunction,EtchedComponent*%
G36*
X105960000Y-94500000D02*
G01*
X105660000Y-94500000D01*
X105660000Y-93000000D01*
X105960000Y-93000000D01*
X105960000Y-94500000D01*
G37*
%TD.AperFunction*%
%TA.AperFunction,EtchedComponent*%
G36*
X108500000Y-95500000D02*
G01*
X108200000Y-95500000D01*
X108200000Y-93000000D01*
X108500000Y-93000000D01*
X108500000Y-95500000D01*
G37*
%TD.AperFunction*%
%TA.AperFunction,EtchedComponent*%
G36*
X111063000Y-94500000D02*
G01*
X110763000Y-94500000D01*
X110763000Y-93000000D01*
X111063000Y-93000000D01*
X111063000Y-94500000D01*
G37*
%TD.AperFunction*%
%TA.AperFunction,EtchedComponent*%
G36*
X113580000Y-94500000D02*
G01*
X113280000Y-94500000D01*
X113280000Y-93000000D01*
X113580000Y-93000000D01*
X113580000Y-94500000D01*
G37*
%TD.AperFunction*%
%TA.AperFunction,EtchedComponent*%
G36*
X116143000Y-94500000D02*
G01*
X115843000Y-94500000D01*
X115843000Y-93000000D01*
X116143000Y-93000000D01*
X116143000Y-94500000D01*
G37*
%TD.AperFunction*%
%TA.AperFunction,EtchedComponent*%
G36*
X118660000Y-94500000D02*
G01*
X118360000Y-94500000D01*
X118360000Y-93000000D01*
X118660000Y-93000000D01*
X118660000Y-94500000D01*
G37*
%TD.AperFunction*%
%TA.AperFunction,EtchedComponent*%
%TO.C,U22*%
G36*
X121200000Y-96500000D02*
G01*
X120900000Y-96500000D01*
X120900000Y-93000000D01*
X121200000Y-93000000D01*
X121200000Y-96500000D01*
G37*
%TD.AperFunction*%
%TA.AperFunction,EtchedComponent*%
G36*
X123763000Y-94500000D02*
G01*
X123463000Y-94500000D01*
X123463000Y-93000000D01*
X123763000Y-93000000D01*
X123763000Y-94500000D01*
G37*
%TD.AperFunction*%
%TA.AperFunction,EtchedComponent*%
G36*
X126280000Y-94500000D02*
G01*
X125980000Y-94500000D01*
X125980000Y-93000000D01*
X126280000Y-93000000D01*
X126280000Y-94500000D01*
G37*
%TD.AperFunction*%
%TA.AperFunction,EtchedComponent*%
G36*
X128843000Y-94500000D02*
G01*
X128543000Y-94500000D01*
X128543000Y-93000000D01*
X128843000Y-93000000D01*
X128843000Y-94500000D01*
G37*
%TD.AperFunction*%
%TA.AperFunction,EtchedComponent*%
G36*
X131360000Y-94500000D02*
G01*
X131060000Y-94500000D01*
X131060000Y-93000000D01*
X131360000Y-93000000D01*
X131360000Y-94500000D01*
G37*
%TD.AperFunction*%
%TA.AperFunction,EtchedComponent*%
G36*
X133900000Y-95500000D02*
G01*
X133600000Y-95500000D01*
X133600000Y-93000000D01*
X133900000Y-93000000D01*
X133900000Y-95500000D01*
G37*
%TD.AperFunction*%
%TA.AperFunction,EtchedComponent*%
G36*
X136463000Y-94500000D02*
G01*
X136163000Y-94500000D01*
X136163000Y-93000000D01*
X136463000Y-93000000D01*
X136463000Y-94500000D01*
G37*
%TD.AperFunction*%
%TA.AperFunction,EtchedComponent*%
G36*
X138980000Y-94500000D02*
G01*
X138680000Y-94500000D01*
X138680000Y-93000000D01*
X138980000Y-93000000D01*
X138980000Y-94500000D01*
G37*
%TD.AperFunction*%
%TA.AperFunction,EtchedComponent*%
G36*
X141543000Y-94500000D02*
G01*
X141243000Y-94500000D01*
X141243000Y-93000000D01*
X141543000Y-93000000D01*
X141543000Y-94500000D01*
G37*
%TD.AperFunction*%
%TA.AperFunction,EtchedComponent*%
G36*
X144060000Y-94500000D02*
G01*
X143760000Y-94500000D01*
X143760000Y-93000000D01*
X144060000Y-93000000D01*
X144060000Y-94500000D01*
G37*
%TD.AperFunction*%
%TA.AperFunction,EtchedComponent*%
%TO.C,U15*%
G36*
X146600000Y-96500000D02*
G01*
X146300000Y-96500000D01*
X146300000Y-93000000D01*
X146600000Y-93000000D01*
X146600000Y-96500000D01*
G37*
%TD.AperFunction*%
%TA.AperFunction,EtchedComponent*%
G36*
X149163000Y-94500000D02*
G01*
X148863000Y-94500000D01*
X148863000Y-93000000D01*
X149163000Y-93000000D01*
X149163000Y-94500000D01*
G37*
%TD.AperFunction*%
%TA.AperFunction,EtchedComponent*%
G36*
X151680000Y-94500000D02*
G01*
X151380000Y-94500000D01*
X151380000Y-93000000D01*
X151680000Y-93000000D01*
X151680000Y-94500000D01*
G37*
%TD.AperFunction*%
%TA.AperFunction,EtchedComponent*%
G36*
X154243000Y-94500000D02*
G01*
X153943000Y-94500000D01*
X153943000Y-93000000D01*
X154243000Y-93000000D01*
X154243000Y-94500000D01*
G37*
%TD.AperFunction*%
%TA.AperFunction,EtchedComponent*%
G36*
X156760000Y-94500000D02*
G01*
X156460000Y-94500000D01*
X156460000Y-93000000D01*
X156760000Y-93000000D01*
X156760000Y-94500000D01*
G37*
%TD.AperFunction*%
%TA.AperFunction,EtchedComponent*%
G36*
X159300000Y-95500000D02*
G01*
X159000000Y-95500000D01*
X159000000Y-93000000D01*
X159300000Y-93000000D01*
X159300000Y-95500000D01*
G37*
%TD.AperFunction*%
%TA.AperFunction,EtchedComponent*%
G36*
X161863000Y-94500000D02*
G01*
X161563000Y-94500000D01*
X161563000Y-93000000D01*
X161863000Y-93000000D01*
X161863000Y-94500000D01*
G37*
%TD.AperFunction*%
%TA.AperFunction,EtchedComponent*%
G36*
X164380000Y-94500000D02*
G01*
X164080000Y-94500000D01*
X164080000Y-93000000D01*
X164380000Y-93000000D01*
X164380000Y-94500000D01*
G37*
%TD.AperFunction*%
%TA.AperFunction,EtchedComponent*%
G36*
X166943000Y-94500000D02*
G01*
X166643000Y-94500000D01*
X166643000Y-93000000D01*
X166943000Y-93000000D01*
X166943000Y-94500000D01*
G37*
%TD.AperFunction*%
%TA.AperFunction,EtchedComponent*%
G36*
X169460000Y-94500000D02*
G01*
X169160000Y-94500000D01*
X169160000Y-93000000D01*
X169460000Y-93000000D01*
X169460000Y-94500000D01*
G37*
%TD.AperFunction*%
D12*
%TO.C,REF\u002A\u002A*%
X163225000Y-96250000D02*
X162975000Y-96250000D01*
X163225000Y-96250000D02*
X164975000Y-96250000D01*
X163225000Y-97250000D02*
X163225000Y-96250000D01*
X164975000Y-95700000D02*
X162975000Y-95175000D01*
X164975000Y-97250000D02*
X164975000Y-96250000D01*
X165225000Y-96250000D02*
X164975000Y-96250000D01*
X165975000Y-95700000D02*
X167975000Y-95175000D01*
X165975000Y-96250000D02*
X165725000Y-96250000D01*
X165975000Y-96250000D02*
X167725000Y-96250000D01*
X165975000Y-97250000D02*
X165975000Y-96250000D01*
X167725000Y-97250000D02*
X167725000Y-96250000D01*
X167975000Y-96250000D02*
X167725000Y-96250000D01*
D13*
X164975000Y-97250000D02*
X164974990Y-97254135D01*
X164974960Y-97258258D01*
X164974910Y-97262370D01*
X164974841Y-97266470D01*
X164974751Y-97270559D01*
X164974642Y-97274637D01*
X164974513Y-97278704D01*
X164974365Y-97282759D01*
X164974197Y-97286804D01*
X164974009Y-97290836D01*
X164973802Y-97294858D01*
X164973575Y-97298869D01*
X164973330Y-97302869D01*
X164973064Y-97306857D01*
X164972780Y-97310835D01*
X164972476Y-97314801D01*
X164972153Y-97318757D01*
X164971811Y-97322702D01*
X164971450Y-97326636D01*
X164971070Y-97330559D01*
X164970671Y-97334471D01*
X164970253Y-97338372D01*
X164969815Y-97342263D01*
X164969359Y-97346142D01*
X164968885Y-97350012D01*
X164968391Y-97353870D01*
X164967878Y-97357718D01*
X164967347Y-97361555D01*
X164966797Y-97365382D01*
X164966229Y-97369197D01*
X164965642Y-97373003D01*
X164965036Y-97376797D01*
X164964412Y-97380582D01*
X164963769Y-97384356D01*
X164963108Y-97388120D01*
X164962428Y-97391872D01*
X164961730Y-97395616D01*
X164961014Y-97399347D01*
X164960279Y-97403070D01*
X164959526Y-97406781D01*
X164958754Y-97410483D01*
X164957964Y-97414174D01*
X164957156Y-97417855D01*
X164956330Y-97421525D01*
X164955486Y-97425187D01*
X164954623Y-97428836D01*
X164953743Y-97432477D01*
X164952844Y-97436107D01*
X164951927Y-97439728D01*
X164950993Y-97443337D01*
X164949069Y-97450527D01*
X164947073Y-97457677D01*
X164945006Y-97464787D01*
X164942867Y-97471857D01*
X164940656Y-97478888D01*
X164938375Y-97485880D01*
X164936022Y-97492832D01*
X164933598Y-97499745D01*
X164931103Y-97506619D01*
X164928537Y-97513455D01*
X164925901Y-97520251D01*
X164923194Y-97527009D01*
X164920416Y-97533729D01*
X164917568Y-97540410D01*
X164914650Y-97547053D01*
X164911661Y-97553657D01*
X164908601Y-97560223D01*
X164905472Y-97566751D01*
X164902272Y-97573241D01*
X164899002Y-97579693D01*
X164895661Y-97586107D01*
X164892251Y-97592483D01*
X164888770Y-97598821D01*
X164885219Y-97605120D01*
X164881597Y-97611382D01*
X164877906Y-97617606D01*
X164874144Y-97623791D01*
X164870312Y-97629939D01*
X164866410Y-97636048D01*
X164862437Y-97642119D01*
X164858394Y-97648152D01*
X164854280Y-97654147D01*
X164850096Y-97660103D01*
X164845841Y-97666020D01*
X164841516Y-97671899D01*
X164837121Y-97677738D01*
X164832654Y-97683539D01*
X164828117Y-97689301D01*
X164823509Y-97695024D01*
X164818831Y-97700707D01*
X164814081Y-97706350D01*
X164809261Y-97711953D01*
X164804370Y-97717517D01*
X164799408Y-97723040D01*
X164794375Y-97728523D01*
X164789270Y-97733965D01*
X164784095Y-97739366D01*
X164778849Y-97744725D01*
X164773531Y-97750043D01*
X164768143Y-97755320D01*
X164762683Y-97760554D01*
X164757152Y-97765745D01*
X164751550Y-97770894D01*
X164745877Y-97775999D01*
X164740133Y-97781061D01*
X164734318Y-97786080D01*
X164728432Y-97791053D01*
X164722475Y-97795983D01*
X164716447Y-97800867D01*
X164710348Y-97805705D01*
X164704178Y-97810498D01*
X164697938Y-97815245D01*
X164691627Y-97819944D01*
X164685246Y-97824597D01*
X164678795Y-97829202D01*
X164672273Y-97833758D01*
X164665682Y-97838266D01*
X164659021Y-97842725D01*
X164652291Y-97847134D01*
X164645491Y-97851493D01*
X164638622Y-97855801D01*
X164631685Y-97860058D01*
X164624679Y-97864263D01*
X164617605Y-97868416D01*
X164610463Y-97872516D01*
X164603254Y-97876563D01*
X164595978Y-97880555D01*
X164588635Y-97884493D01*
X164581226Y-97888376D01*
X164573751Y-97892203D01*
X164566211Y-97895973D01*
X164558606Y-97899687D01*
X164550937Y-97903343D01*
X164543204Y-97906941D01*
X164535408Y-97910480D01*
X164527549Y-97913960D01*
X164519629Y-97917379D01*
X164511647Y-97920738D01*
X164503605Y-97924036D01*
X164495503Y-97927272D01*
X164487342Y-97930445D01*
X164479122Y-97933556D01*
X164470845Y-97936602D01*
X164462512Y-97939584D01*
X164454123Y-97942502D01*
X164445679Y-97945353D01*
X164437181Y-97948139D01*
X164428630Y-97950858D01*
X164420027Y-97953509D01*
X164411373Y-97956092D01*
X164402669Y-97958607D01*
X164393917Y-97961053D01*
X164385116Y-97963429D01*
X164376270Y-97965734D01*
X164367377Y-97967969D01*
X164358441Y-97970133D01*
X164349462Y-97972225D01*
X164340441Y-97974244D01*
X164331380Y-97976190D01*
X164322279Y-97978063D01*
X164313141Y-97979862D01*
X164303967Y-97981587D01*
X164294757Y-97983237D01*
X164285515Y-97984812D01*
X164276240Y-97986311D01*
X164266934Y-97987734D01*
X164257599Y-97989081D01*
X164248237Y-97990350D01*
X164238848Y-97991543D01*
X164229435Y-97992658D01*
X164219999Y-97993695D01*
X164210542Y-97994655D01*
X164201065Y-97995535D01*
X164191569Y-97996338D01*
X164182057Y-97997061D01*
X164172531Y-97997705D01*
X164162991Y-97998270D01*
X164153439Y-97998755D01*
X164143878Y-97999161D01*
X164134309Y-97999487D01*
X164124733Y-97999734D01*
X164115152Y-97999900D01*
X164105569Y-97999986D01*
X164095984Y-97999993D01*
X164091191Y-97999966D01*
X164086399Y-97999919D01*
X164081608Y-97999853D01*
X164076817Y-97999766D01*
X164072027Y-97999659D01*
X164067238Y-97999532D01*
X164062451Y-97999386D01*
X164057665Y-97999219D01*
X164052881Y-97999033D01*
X164048099Y-97998826D01*
X164043319Y-97998600D01*
X164038542Y-97998353D01*
X164033767Y-97998087D01*
X164028995Y-97997801D01*
X164024227Y-97997495D01*
X164019461Y-97997169D01*
X164014699Y-97996823D01*
X164009940Y-97996458D01*
X164005187Y-97996072D01*
X164000436Y-97995667D01*
X163995691Y-97995243D01*
X163990948Y-97994798D01*
X163986212Y-97994334D01*
X163981480Y-97993851D01*
X163976754Y-97993348D01*
X163972032Y-97992825D01*
X163967317Y-97992282D01*
X163962606Y-97991721D01*
X163957903Y-97991139D01*
X163953203Y-97990539D01*
X163948513Y-97989919D01*
X163943827Y-97989279D01*
X163939149Y-97988621D01*
X163934476Y-97987943D01*
X163929813Y-97987246D01*
X163925155Y-97986529D01*
X163920507Y-97985794D01*
X163915863Y-97985040D01*
X163911230Y-97984267D01*
X163906603Y-97983474D01*
X163901986Y-97982663D01*
X163897375Y-97981833D01*
X163892776Y-97980984D01*
X163888182Y-97980116D01*
X163883600Y-97979230D01*
X163879024Y-97978325D01*
X163874461Y-97977402D01*
X163869904Y-97976459D01*
X163865360Y-97975499D01*
X163860822Y-97974520D01*
X163856297Y-97973523D01*
X163851780Y-97972507D01*
X163847276Y-97971474D01*
X163842779Y-97970422D01*
X163838296Y-97969352D01*
X163833820Y-97968264D01*
X163829359Y-97967159D01*
X163824905Y-97966034D01*
X163820467Y-97964893D01*
X163816035Y-97963733D01*
X163811620Y-97962557D01*
X163807211Y-97961362D01*
X163802819Y-97960150D01*
X163798435Y-97958920D01*
X163794067Y-97957674D01*
X163789707Y-97956409D01*
X163785363Y-97955128D01*
X163781028Y-97953828D01*
X163776710Y-97952513D01*
X163772400Y-97951179D01*
X163768108Y-97949830D01*
X163763824Y-97948463D01*
X163759558Y-97947080D01*
X163755300Y-97945678D01*
X163751061Y-97944262D01*
X163746831Y-97942828D01*
X163742619Y-97941378D01*
X163738415Y-97939911D01*
X163734231Y-97938429D01*
X163730056Y-97936929D01*
X163725900Y-97935414D01*
X163721753Y-97933882D01*
X163717625Y-97932335D01*
X163713507Y-97930771D01*
X163709408Y-97929192D01*
X163705319Y-97927596D01*
X163701250Y-97925986D01*
X163697191Y-97924358D01*
X163693152Y-97922716D01*
X163689122Y-97921058D01*
X163685113Y-97919385D01*
X163681114Y-97917696D01*
X163677135Y-97915993D01*
X163673167Y-97914273D01*
X163669219Y-97912539D01*
X163665282Y-97910789D01*
X163661365Y-97909026D01*
X163657460Y-97907246D01*
X163653575Y-97905453D01*
X163649700Y-97903643D01*
X163645847Y-97901821D01*
X163642005Y-97899982D01*
X163638184Y-97898130D01*
X163634374Y-97896262D01*
X163630585Y-97894382D01*
X163626808Y-97892486D01*
X163623052Y-97890577D01*
X163619307Y-97888652D01*
X163615585Y-97886716D01*
X163611873Y-97884762D01*
X163608183Y-97882798D01*
X163604505Y-97880817D01*
X163600848Y-97878825D01*
X163597204Y-97876817D01*
X163593581Y-97874798D01*
X163589970Y-97872762D01*
X163586381Y-97870716D01*
X163582804Y-97868653D01*
X163579249Y-97866581D01*
X163575705Y-97864492D01*
X163572185Y-97862392D01*
X163568676Y-97860277D01*
X163565189Y-97858152D01*
X163561715Y-97856010D01*
X163558263Y-97853859D01*
X163554823Y-97851692D01*
X163551406Y-97849515D01*
X163548001Y-97847323D01*
X163544618Y-97845121D01*
X163541248Y-97842903D01*
X163537900Y-97840676D01*
X163534565Y-97838433D01*
X163531252Y-97836181D01*
X163527952Y-97833914D01*
X163524674Y-97831637D01*
X163521409Y-97829346D01*
X163518167Y-97827045D01*
X163514937Y-97824729D01*
X163511730Y-97822404D01*
X163508536Y-97820064D01*
X163505364Y-97817716D01*
X163502205Y-97815352D01*
X163499068Y-97812980D01*
X163495945Y-97810593D01*
X163492844Y-97808198D01*
X163489756Y-97805787D01*
X163486691Y-97803369D01*
X163483639Y-97800935D01*
X163480609Y-97798494D01*
X163477593Y-97796038D01*
X163474599Y-97793574D01*
X163471618Y-97791095D01*
X163468659Y-97788609D01*
X163465714Y-97786107D01*
X163462792Y-97783599D01*
X163459883Y-97781075D01*
X163456995Y-97778544D01*
X163454122Y-97775999D01*
X163451271Y-97773446D01*
X163448433Y-97770879D01*
X163445618Y-97768305D01*
X163442816Y-97765716D01*
X163440036Y-97763120D01*
X163437271Y-97760510D01*
X163434527Y-97757892D01*
X163431797Y-97755261D01*
X163429088Y-97752623D01*
X163426394Y-97749970D01*
X163423722Y-97747310D01*
X163421064Y-97744637D01*
X163418427Y-97741957D01*
X163415804Y-97739262D01*
X163413204Y-97736561D01*
X163410617Y-97733846D01*
X163408052Y-97731124D01*
X163405501Y-97728389D01*
X163402972Y-97725647D01*
X163400457Y-97722891D01*
X163397963Y-97720128D01*
X163395484Y-97717352D01*
X163393026Y-97714570D01*
X163390582Y-97711773D01*
X163388160Y-97708971D01*
X163385752Y-97706154D01*
X163383365Y-97703332D01*
X163380993Y-97700495D01*
X163378642Y-97697653D01*
X163376306Y-97694797D01*
X163373991Y-97691934D01*
X163371690Y-97689059D01*
X163369410Y-97686177D01*
X163367145Y-97683281D01*
X163364901Y-97680380D01*
X163362671Y-97677465D01*
X163360463Y-97674544D01*
X163358269Y-97671610D01*
X163356095Y-97668669D01*
X163353937Y-97665715D01*
X163351799Y-97662756D01*
X163349677Y-97659783D01*
X163347574Y-97656803D01*
X163345487Y-97653811D01*
X163343420Y-97650813D01*
X163341369Y-97647801D01*
X163339337Y-97644784D01*
X163337321Y-97641753D01*
X163335325Y-97638716D01*
X163333344Y-97635667D01*
X163331383Y-97632611D01*
X163329438Y-97629542D01*
X163327512Y-97626467D01*
X163325603Y-97623380D01*
X163323712Y-97620286D01*
X163321838Y-97617179D01*
X163319983Y-97614066D01*
X163318144Y-97610940D01*
X163316324Y-97607808D01*
X163314521Y-97604664D01*
X163312736Y-97601513D01*
X163310968Y-97598349D01*
X163309219Y-97595179D01*
X163307486Y-97591997D01*
X163305772Y-97588808D01*
X163304075Y-97585606D01*
X163302396Y-97582398D01*
X163300734Y-97579178D01*
X163299091Y-97575951D01*
X163297464Y-97572712D01*
X163295856Y-97569466D01*
X163294264Y-97566208D01*
X163292692Y-97562943D01*
X163291135Y-97559666D01*
X163289598Y-97556382D01*
X163288077Y-97553086D01*
X163286575Y-97549783D01*
X163285090Y-97546467D01*
X163283623Y-97543145D01*
X163282173Y-97539811D01*
X163280742Y-97536470D01*
X163279327Y-97533117D01*
X163277931Y-97529756D01*
X163276552Y-97526384D01*
X163275191Y-97523004D01*
X163273848Y-97519613D01*
X163272523Y-97516214D01*
X163271214Y-97512803D01*
X163269925Y-97509385D01*
X163268652Y-97505955D01*
X163267398Y-97502517D01*
X163266161Y-97499068D01*
X163264942Y-97495611D01*
X163263741Y-97492143D01*
X163262558Y-97488666D01*
X163261393Y-97485178D01*
X163260245Y-97481682D01*
X163259115Y-97478175D01*
X163258004Y-97474659D01*
X163256910Y-97471132D01*
X163255834Y-97467597D01*
X163254776Y-97464050D01*
X163253736Y-97460495D01*
X163252714Y-97456928D01*
X163251710Y-97453354D01*
X163250724Y-97449767D01*
X163249756Y-97446172D01*
X163248806Y-97442566D01*
X163247875Y-97438952D01*
X163246961Y-97435325D01*
X163246065Y-97431691D01*
X163245188Y-97428044D01*
X163244329Y-97424389D01*
X163243487Y-97420723D01*
X163242665Y-97417048D01*
X163241860Y-97413361D01*
X163241074Y-97409665D01*
X163240306Y-97405958D01*
X163239556Y-97402242D01*
X163238825Y-97398515D01*
X163238112Y-97394778D01*
X163237418Y-97391030D01*
X163236742Y-97387273D01*
X163236084Y-97383504D01*
X163235445Y-97379726D01*
X163234825Y-97375937D01*
X163234223Y-97372138D01*
X163233640Y-97368328D01*
X163233075Y-97364508D01*
X163232529Y-97360676D01*
X163232002Y-97356836D01*
X163231494Y-97352983D01*
X163231004Y-97349121D01*
X163230534Y-97345247D01*
X163230082Y-97341364D01*
X163229649Y-97337469D01*
X163229235Y-97333564D01*
X163228840Y-97329648D01*
X163228464Y-97325721D01*
X163228107Y-97321783D01*
X163227770Y-97317835D01*
X163227451Y-97313876D01*
X163227152Y-97309906D01*
X163226872Y-97305924D01*
X163226611Y-97301933D01*
X163226370Y-97297929D01*
X163226148Y-97293916D01*
X163225945Y-97289890D01*
X163225762Y-97285854D01*
X163225599Y-97281807D01*
X163225455Y-97277748D01*
X163225331Y-97273679D01*
X163225226Y-97269598D01*
X163225141Y-97265506D01*
X163225076Y-97261402D01*
X163225031Y-97257288D01*
X163225000Y-97250000D01*
X165975000Y-98500000D02*
X165971743Y-98503243D01*
X165968486Y-98506457D01*
X165965230Y-98509644D01*
X165961973Y-98512802D01*
X165958716Y-98515933D01*
X165955460Y-98519035D01*
X165952203Y-98522111D01*
X165948947Y-98525159D01*
X165945690Y-98528179D01*
X165942434Y-98531172D01*
X165939177Y-98534139D01*
X165935921Y-98537078D01*
X165932664Y-98539990D01*
X165929408Y-98542875D01*
X165926151Y-98545734D01*
X165922894Y-98548567D01*
X165919638Y-98551373D01*
X165916381Y-98554152D01*
X165913125Y-98556906D01*
X165909868Y-98559633D01*
X165906611Y-98562334D01*
X165903355Y-98565009D01*
X165900098Y-98567659D01*
X165896841Y-98570283D01*
X165893584Y-98572881D01*
X165890327Y-98575454D01*
X165887070Y-98578002D01*
X165883813Y-98580524D01*
X165880555Y-98583021D01*
X165877298Y-98585493D01*
X165874040Y-98587941D01*
X165870783Y-98590363D01*
X165867525Y-98592761D01*
X165864267Y-98595133D01*
X165861008Y-98597482D01*
X165857750Y-98599805D01*
X165854491Y-98602106D01*
X165851233Y-98604380D01*
X165847973Y-98606632D01*
X165844714Y-98608859D01*
X165841454Y-98611063D01*
X165838195Y-98613241D01*
X165834934Y-98615397D01*
X165831674Y-98617529D01*
X165828412Y-98619637D01*
X165825152Y-98621722D01*
X165821889Y-98623783D01*
X165818628Y-98625821D01*
X165815364Y-98627836D01*
X165812102Y-98629827D01*
X165808838Y-98631796D01*
X165805575Y-98633741D01*
X165802310Y-98635664D01*
X165799046Y-98637563D01*
X165795780Y-98639440D01*
X165792515Y-98641294D01*
X165789247Y-98643126D01*
X165785981Y-98644934D01*
X165782712Y-98646722D01*
X165779445Y-98648485D01*
X165776175Y-98650228D01*
X165772906Y-98651947D01*
X165766365Y-98655320D01*
X165759820Y-98658604D01*
X165753273Y-98661802D01*
X165746721Y-98664912D01*
X165740166Y-98667936D01*
X165733608Y-98670874D01*
X165727045Y-98673727D01*
X165720478Y-98676494D01*
X165713906Y-98679177D01*
X165707330Y-98681776D01*
X165700749Y-98684291D01*
X165694162Y-98686723D01*
X165687570Y-98689072D01*
X165680973Y-98691339D01*
X165674369Y-98693523D01*
X165667759Y-98695625D01*
X165661143Y-98697646D01*
X165654520Y-98699586D01*
X165647890Y-98701445D01*
X165641253Y-98703223D01*
X165634609Y-98704920D01*
X165627957Y-98706537D01*
X165621297Y-98708075D01*
X165614628Y-98709532D01*
X165607951Y-98710910D01*
X165601266Y-98712208D01*
X165594571Y-98713427D01*
X165587867Y-98714566D01*
X165581153Y-98715627D01*
X165574430Y-98716608D01*
X165567696Y-98717510D01*
X165560953Y-98718334D01*
X165554198Y-98719078D01*
X165547433Y-98719744D01*
X165540657Y-98720330D01*
X165533869Y-98720838D01*
X165527070Y-98721266D01*
X165520259Y-98721616D01*
X165513436Y-98721886D01*
X165506601Y-98722077D01*
X165499754Y-98722189D01*
X165492893Y-98722222D01*
X165486020Y-98722175D01*
X165479134Y-98722048D01*
X165472235Y-98721841D01*
X165465322Y-98721555D01*
X165458396Y-98721188D01*
X165451456Y-98720741D01*
X165444502Y-98720213D01*
X165437534Y-98719604D01*
X165430552Y-98718914D01*
X165423555Y-98718143D01*
X165416545Y-98717290D01*
X165409520Y-98716355D01*
X165402481Y-98715338D01*
X165395427Y-98714238D01*
X165388358Y-98713056D01*
X165381275Y-98711791D01*
X165374178Y-98710442D01*
X165367066Y-98709010D01*
X165359940Y-98707493D01*
X165352799Y-98705893D01*
X165345644Y-98704207D01*
X165338476Y-98702437D01*
X165331293Y-98700581D01*
X165324096Y-98698640D01*
X165316886Y-98696613D01*
X165309663Y-98694500D01*
X165302427Y-98692300D01*
X165295179Y-98690013D01*
X165287918Y-98687639D01*
X165280645Y-98685178D01*
X165273361Y-98682629D01*
X165266066Y-98679992D01*
X165258762Y-98677268D01*
X165251447Y-98674455D01*
X165244124Y-98671554D01*
X165236792Y-98668564D01*
X165229453Y-98665485D01*
X165222108Y-98662319D01*
X165214758Y-98659063D01*
X165207403Y-98655719D01*
X165200044Y-98652287D01*
X165192684Y-98648766D01*
X165185323Y-98645157D01*
X165177964Y-98641461D01*
X165170606Y-98637678D01*
X165163253Y-98633808D01*
X165155907Y-98629852D01*
X165148568Y-98625811D01*
X165141241Y-98621686D01*
X165133926Y-98617478D01*
X165126627Y-98613188D01*
X165119348Y-98608818D01*
X165112090Y-98604370D01*
X165104858Y-98599845D01*
X165097656Y-98595247D01*
X165090487Y-98590577D01*
X165083358Y-98585839D01*
X165076274Y-98581037D01*
X165069239Y-98576174D01*
X165062262Y-98571257D01*
X165055350Y-98566290D01*
X165048512Y-98561281D01*
X165041758Y-98556237D01*
X165035098Y-98551169D01*
X165028548Y-98546086D01*
X165022122Y-98541003D01*
X165015840Y-98535937D01*
X165009725Y-98530908D01*
X165003805Y-98525943D01*
X164998117Y-98521076D01*
X164992710Y-98516353D01*
X164987651Y-98511839D01*
X164983042Y-98507634D01*
X164979052Y-98503908D01*
X164976030Y-98501012D01*
X164975000Y-98500000D01*
X167725000Y-97250000D02*
X167724990Y-97254135D01*
X167724960Y-97258258D01*
X167724910Y-97262370D01*
X167724841Y-97266470D01*
X167724751Y-97270559D01*
X167724642Y-97274637D01*
X167724513Y-97278704D01*
X167724365Y-97282759D01*
X167724197Y-97286804D01*
X167724009Y-97290836D01*
X167723802Y-97294858D01*
X167723575Y-97298869D01*
X167723330Y-97302869D01*
X167723064Y-97306857D01*
X167722780Y-97310835D01*
X167722476Y-97314801D01*
X167722153Y-97318757D01*
X167721811Y-97322702D01*
X167721450Y-97326636D01*
X167721070Y-97330559D01*
X167720671Y-97334471D01*
X167720253Y-97338372D01*
X167719815Y-97342263D01*
X167719359Y-97346142D01*
X167718885Y-97350012D01*
X167718391Y-97353870D01*
X167717878Y-97357718D01*
X167717347Y-97361555D01*
X167716797Y-97365382D01*
X167716229Y-97369197D01*
X167715642Y-97373003D01*
X167715036Y-97376797D01*
X167714412Y-97380582D01*
X167713769Y-97384356D01*
X167713108Y-97388120D01*
X167712428Y-97391872D01*
X167711730Y-97395616D01*
X167711014Y-97399347D01*
X167710279Y-97403070D01*
X167709526Y-97406781D01*
X167708754Y-97410483D01*
X167707964Y-97414174D01*
X167707156Y-97417855D01*
X167706330Y-97421525D01*
X167705486Y-97425187D01*
X167704623Y-97428836D01*
X167703743Y-97432477D01*
X167702844Y-97436107D01*
X167701927Y-97439728D01*
X167700993Y-97443337D01*
X167699069Y-97450527D01*
X167697073Y-97457677D01*
X167695006Y-97464787D01*
X167692867Y-97471857D01*
X167690656Y-97478888D01*
X167688375Y-97485880D01*
X167686022Y-97492832D01*
X167683598Y-97499745D01*
X167681103Y-97506619D01*
X167678537Y-97513455D01*
X167675901Y-97520251D01*
X167673194Y-97527009D01*
X167670416Y-97533729D01*
X167667568Y-97540410D01*
X167664650Y-97547053D01*
X167661661Y-97553657D01*
X167658601Y-97560223D01*
X167655472Y-97566751D01*
X167652272Y-97573241D01*
X167649002Y-97579693D01*
X167645661Y-97586107D01*
X167642251Y-97592483D01*
X167638770Y-97598821D01*
X167635219Y-97605120D01*
X167631597Y-97611382D01*
X167627906Y-97617606D01*
X167624144Y-97623791D01*
X167620312Y-97629939D01*
X167616410Y-97636048D01*
X167612437Y-97642119D01*
X167608394Y-97648152D01*
X167604280Y-97654147D01*
X167600096Y-97660103D01*
X167595841Y-97666020D01*
X167591516Y-97671899D01*
X167587121Y-97677738D01*
X167582654Y-97683539D01*
X167578117Y-97689301D01*
X167573509Y-97695024D01*
X167568831Y-97700707D01*
X167564081Y-97706350D01*
X167559261Y-97711953D01*
X167554370Y-97717517D01*
X167549408Y-97723040D01*
X167544375Y-97728523D01*
X167539270Y-97733965D01*
X167534095Y-97739366D01*
X167528849Y-97744725D01*
X167523531Y-97750043D01*
X167518143Y-97755320D01*
X167512683Y-97760554D01*
X167507152Y-97765745D01*
X167501550Y-97770894D01*
X167495877Y-97775999D01*
X167490133Y-97781061D01*
X167484318Y-97786080D01*
X167478432Y-97791053D01*
X167472475Y-97795983D01*
X167466447Y-97800867D01*
X167460348Y-97805705D01*
X167454178Y-97810498D01*
X167447938Y-97815245D01*
X167441627Y-97819944D01*
X167435246Y-97824597D01*
X167428795Y-97829202D01*
X167422273Y-97833758D01*
X167415682Y-97838266D01*
X167409021Y-97842725D01*
X167402291Y-97847134D01*
X167395491Y-97851493D01*
X167388622Y-97855801D01*
X167381685Y-97860058D01*
X167374679Y-97864263D01*
X167367605Y-97868416D01*
X167360463Y-97872516D01*
X167353254Y-97876563D01*
X167345978Y-97880555D01*
X167338635Y-97884493D01*
X167331226Y-97888376D01*
X167323751Y-97892203D01*
X167316211Y-97895973D01*
X167308606Y-97899687D01*
X167300937Y-97903343D01*
X167293204Y-97906941D01*
X167285408Y-97910480D01*
X167277549Y-97913960D01*
X167269629Y-97917379D01*
X167261647Y-97920738D01*
X167253605Y-97924036D01*
X167245503Y-97927272D01*
X167237342Y-97930445D01*
X167229122Y-97933556D01*
X167220845Y-97936602D01*
X167212512Y-97939584D01*
X167204123Y-97942502D01*
X167195679Y-97945353D01*
X167187181Y-97948139D01*
X167178630Y-97950858D01*
X167170027Y-97953509D01*
X167161373Y-97956092D01*
X167152669Y-97958607D01*
X167143917Y-97961053D01*
X167135116Y-97963429D01*
X167126270Y-97965734D01*
X167117377Y-97967969D01*
X167108441Y-97970133D01*
X167099462Y-97972225D01*
X167090441Y-97974244D01*
X167081380Y-97976190D01*
X167072279Y-97978063D01*
X167063141Y-97979862D01*
X167053967Y-97981587D01*
X167044757Y-97983237D01*
X167035515Y-97984812D01*
X167026240Y-97986311D01*
X167016934Y-97987734D01*
X167007599Y-97989081D01*
X166998237Y-97990350D01*
X166988848Y-97991543D01*
X166979435Y-97992658D01*
X166969999Y-97993695D01*
X166960542Y-97994655D01*
X166951065Y-97995535D01*
X166941569Y-97996338D01*
X166932057Y-97997061D01*
X166922531Y-97997705D01*
X166912991Y-97998270D01*
X166903439Y-97998755D01*
X166893878Y-97999161D01*
X166884309Y-97999487D01*
X166874733Y-97999734D01*
X166865152Y-97999900D01*
X166855569Y-97999986D01*
X166845984Y-97999993D01*
X166841191Y-97999966D01*
X166836399Y-97999919D01*
X166831608Y-97999853D01*
X166826817Y-97999766D01*
X166822027Y-97999659D01*
X166817238Y-97999532D01*
X166812451Y-97999386D01*
X166807665Y-97999219D01*
X166802881Y-97999033D01*
X166798099Y-97998826D01*
X166793319Y-97998600D01*
X166788542Y-97998353D01*
X166783767Y-97998087D01*
X166778995Y-97997801D01*
X166774227Y-97997495D01*
X166769461Y-97997169D01*
X166764699Y-97996823D01*
X166759940Y-97996458D01*
X166755187Y-97996072D01*
X166750436Y-97995667D01*
X166745691Y-97995243D01*
X166740948Y-97994798D01*
X166736212Y-97994334D01*
X166731480Y-97993851D01*
X166726754Y-97993348D01*
X166722032Y-97992825D01*
X166717317Y-97992282D01*
X166712606Y-97991721D01*
X166707903Y-97991139D01*
X166703203Y-97990539D01*
X166698513Y-97989919D01*
X166693827Y-97989279D01*
X166689149Y-97988621D01*
X166684476Y-97987943D01*
X166679813Y-97987246D01*
X166675155Y-97986529D01*
X166670507Y-97985794D01*
X166665863Y-97985040D01*
X166661230Y-97984267D01*
X166656603Y-97983474D01*
X166651986Y-97982663D01*
X166647375Y-97981833D01*
X166642776Y-97980984D01*
X166638182Y-97980116D01*
X166633600Y-97979230D01*
X166629024Y-97978325D01*
X166624461Y-97977402D01*
X166619904Y-97976459D01*
X166615360Y-97975499D01*
X166610822Y-97974520D01*
X166606297Y-97973523D01*
X166601780Y-97972507D01*
X166597276Y-97971474D01*
X166592779Y-97970422D01*
X166588296Y-97969352D01*
X166583820Y-97968264D01*
X166579359Y-97967159D01*
X166574905Y-97966034D01*
X166570467Y-97964893D01*
X166566035Y-97963733D01*
X166561620Y-97962557D01*
X166557211Y-97961362D01*
X166552819Y-97960150D01*
X166548435Y-97958920D01*
X166544067Y-97957674D01*
X166539707Y-97956409D01*
X166535363Y-97955128D01*
X166531028Y-97953828D01*
X166526710Y-97952513D01*
X166522400Y-97951179D01*
X166518108Y-97949830D01*
X166513824Y-97948463D01*
X166509558Y-97947080D01*
X166505300Y-97945678D01*
X166501061Y-97944262D01*
X166496831Y-97942828D01*
X166492619Y-97941378D01*
X166488415Y-97939911D01*
X166484231Y-97938429D01*
X166480056Y-97936929D01*
X166475900Y-97935414D01*
X166471753Y-97933882D01*
X166467625Y-97932335D01*
X166463507Y-97930771D01*
X166459408Y-97929192D01*
X166455319Y-97927596D01*
X166451250Y-97925986D01*
X166447191Y-97924358D01*
X166443152Y-97922716D01*
X166439122Y-97921058D01*
X166435113Y-97919385D01*
X166431114Y-97917696D01*
X166427135Y-97915993D01*
X166423167Y-97914273D01*
X166419219Y-97912539D01*
X166415282Y-97910789D01*
X166411365Y-97909026D01*
X166407460Y-97907246D01*
X166403575Y-97905453D01*
X166399700Y-97903643D01*
X166395847Y-97901821D01*
X166392005Y-97899982D01*
X166388184Y-97898130D01*
X166384374Y-97896262D01*
X166380585Y-97894382D01*
X166376808Y-97892486D01*
X166373052Y-97890577D01*
X166369307Y-97888652D01*
X166365585Y-97886716D01*
X166361873Y-97884762D01*
X166358183Y-97882798D01*
X166354505Y-97880817D01*
X166350848Y-97878825D01*
X166347204Y-97876817D01*
X166343581Y-97874798D01*
X166339970Y-97872762D01*
X166336381Y-97870716D01*
X166332804Y-97868653D01*
X166329249Y-97866581D01*
X166325705Y-97864492D01*
X166322185Y-97862392D01*
X166318676Y-97860277D01*
X166315189Y-97858152D01*
X166311715Y-97856010D01*
X166308263Y-97853859D01*
X166304823Y-97851692D01*
X166301406Y-97849515D01*
X166298001Y-97847323D01*
X166294618Y-97845121D01*
X166291248Y-97842903D01*
X166287900Y-97840676D01*
X166284565Y-97838433D01*
X166281252Y-97836181D01*
X166277952Y-97833914D01*
X166274674Y-97831637D01*
X166271409Y-97829346D01*
X166268167Y-97827045D01*
X166264937Y-97824729D01*
X166261730Y-97822404D01*
X166258536Y-97820064D01*
X166255364Y-97817716D01*
X166252205Y-97815352D01*
X166249068Y-97812980D01*
X166245945Y-97810593D01*
X166242844Y-97808198D01*
X166239756Y-97805787D01*
X166236691Y-97803369D01*
X166233639Y-97800935D01*
X166230609Y-97798494D01*
X166227593Y-97796038D01*
X166224599Y-97793574D01*
X166221618Y-97791095D01*
X166218659Y-97788609D01*
X166215714Y-97786107D01*
X166212792Y-97783599D01*
X166209883Y-97781075D01*
X166206995Y-97778544D01*
X166204122Y-97775999D01*
X166201271Y-97773446D01*
X166198433Y-97770879D01*
X166195618Y-97768305D01*
X166192816Y-97765716D01*
X166190036Y-97763120D01*
X166187271Y-97760510D01*
X166184527Y-97757892D01*
X166181797Y-97755261D01*
X166179088Y-97752623D01*
X166176394Y-97749970D01*
X166173722Y-97747310D01*
X166171064Y-97744637D01*
X166168427Y-97741957D01*
X166165804Y-97739262D01*
X166163204Y-97736561D01*
X166160617Y-97733846D01*
X166158052Y-97731124D01*
X166155501Y-97728389D01*
X166152972Y-97725647D01*
X166150457Y-97722891D01*
X166147963Y-97720128D01*
X166145484Y-97717352D01*
X166143026Y-97714570D01*
X166140582Y-97711773D01*
X166138160Y-97708971D01*
X166135752Y-97706154D01*
X166133365Y-97703332D01*
X166130993Y-97700495D01*
X166128642Y-97697653D01*
X166126306Y-97694797D01*
X166123991Y-97691934D01*
X166121690Y-97689059D01*
X166119410Y-97686177D01*
X166117145Y-97683281D01*
X166114901Y-97680380D01*
X166112671Y-97677465D01*
X166110463Y-97674544D01*
X166108269Y-97671610D01*
X166106095Y-97668669D01*
X166103937Y-97665715D01*
X166101799Y-97662756D01*
X166099677Y-97659783D01*
X166097574Y-97656803D01*
X166095487Y-97653811D01*
X166093420Y-97650813D01*
X166091369Y-97647801D01*
X166089337Y-97644784D01*
X166087321Y-97641753D01*
X166085325Y-97638716D01*
X166083344Y-97635667D01*
X166081383Y-97632611D01*
X166079438Y-97629542D01*
X166077512Y-97626467D01*
X166075603Y-97623380D01*
X166073712Y-97620286D01*
X166071838Y-97617179D01*
X166069983Y-97614066D01*
X166068144Y-97610940D01*
X166066324Y-97607808D01*
X166064521Y-97604664D01*
X166062736Y-97601513D01*
X166060968Y-97598349D01*
X166059219Y-97595179D01*
X166057486Y-97591997D01*
X166055772Y-97588808D01*
X166054075Y-97585606D01*
X166052396Y-97582398D01*
X166050734Y-97579178D01*
X166049091Y-97575951D01*
X166047464Y-97572712D01*
X166045856Y-97569466D01*
X166044264Y-97566208D01*
X166042692Y-97562943D01*
X166041135Y-97559666D01*
X166039598Y-97556382D01*
X166038077Y-97553086D01*
X166036575Y-97549783D01*
X166035090Y-97546467D01*
X166033623Y-97543145D01*
X166032173Y-97539811D01*
X166030742Y-97536470D01*
X166029327Y-97533117D01*
X166027931Y-97529756D01*
X166026552Y-97526384D01*
X166025191Y-97523004D01*
X166023848Y-97519613D01*
X166022523Y-97516214D01*
X166021214Y-97512803D01*
X166019925Y-97509385D01*
X166018652Y-97505955D01*
X166017398Y-97502517D01*
X166016161Y-97499068D01*
X166014942Y-97495611D01*
X166013741Y-97492143D01*
X166012558Y-97488666D01*
X166011393Y-97485178D01*
X166010245Y-97481682D01*
X166009115Y-97478175D01*
X166008004Y-97474659D01*
X166006910Y-97471132D01*
X166005834Y-97467597D01*
X166004776Y-97464050D01*
X166003736Y-97460495D01*
X166002714Y-97456928D01*
X166001710Y-97453354D01*
X166000724Y-97449767D01*
X165999756Y-97446172D01*
X165998806Y-97442566D01*
X165997875Y-97438952D01*
X165996961Y-97435325D01*
X165996065Y-97431691D01*
X165995188Y-97428044D01*
X165994329Y-97424389D01*
X165993487Y-97420723D01*
X165992665Y-97417048D01*
X165991860Y-97413361D01*
X165991074Y-97409665D01*
X165990306Y-97405958D01*
X165989556Y-97402242D01*
X165988825Y-97398515D01*
X165988112Y-97394778D01*
X165987418Y-97391030D01*
X165986742Y-97387273D01*
X165986084Y-97383504D01*
X165985445Y-97379726D01*
X165984825Y-97375937D01*
X165984223Y-97372138D01*
X165983640Y-97368328D01*
X165983075Y-97364508D01*
X165982529Y-97360676D01*
X165982002Y-97356836D01*
X165981494Y-97352983D01*
X165981004Y-97349121D01*
X165980534Y-97345247D01*
X165980082Y-97341364D01*
X165979649Y-97337469D01*
X165979235Y-97333564D01*
X165978840Y-97329648D01*
X165978464Y-97325721D01*
X165978107Y-97321783D01*
X165977770Y-97317835D01*
X165977451Y-97313876D01*
X165977152Y-97309906D01*
X165976872Y-97305925D01*
X165976611Y-97301933D01*
X165976370Y-97297929D01*
X165976148Y-97293916D01*
X165975945Y-97289890D01*
X165975762Y-97285854D01*
X165975599Y-97281807D01*
X165975455Y-97277748D01*
X165975331Y-97273679D01*
X165975226Y-97269598D01*
X165975141Y-97265506D01*
X165975076Y-97261402D01*
X165975031Y-97257288D01*
X165975000Y-97250000D01*
%TD*%
D14*
%TO.P,R7,1*%
%TO.N,/Pin1*%
X87630000Y-109883800D03*
%TO.P,R7,2*%
%TO.N,N/C*%
X87630000Y-111383800D03*
%TD*%
D15*
%TO.P,R8,1*%
%TO.N,/Pin1*%
X89408000Y-109991800D03*
%TO.P,R8,2*%
%TO.N,N/C*%
X89408000Y-111891800D03*
%TD*%
D16*
%TO.P,R9,1*%
%TO.N,/Pin1*%
X91520000Y-110650000D03*
%TO.P,R9,2*%
%TO.N,N/C*%
X91520000Y-113550000D03*
%TD*%
D17*
%TO.P,R10,1*%
%TO.N,/Pin1*%
X94280000Y-110650000D03*
%TO.P,R10,2*%
%TO.N,N/C*%
X94280000Y-113550000D03*
%TD*%
D14*
%TO.P,R6,1*%
%TO.N,/Pin1*%
X87620000Y-112440000D03*
%TO.P,R6,2*%
%TO.N,N/C*%
X87620000Y-113940000D03*
%TD*%
D18*
%TO.P,R4,1*%
%TO.N,/Pin1*%
X86106000Y-112719000D03*
%TO.P,R4,2*%
%TO.N,N/C*%
X86106000Y-113619000D03*
%TD*%
%TO.P,R5,1*%
%TO.N,/Pin1*%
X86106000Y-109848800D03*
%TO.P,R5,2*%
%TO.N,N/C*%
X86106000Y-110748800D03*
%TD*%
D19*
%TO.P,R1,1*%
%TO.N,/Pin1*%
X84709000Y-109828400D03*
%TO.P,R1,2*%
%TO.N,N/C*%
X84709000Y-110348400D03*
%TD*%
%TO.P,R2,1*%
%TO.N,/Pin1*%
X84709000Y-111454000D03*
%TO.P,R2,2*%
%TO.N,N/C*%
X84709000Y-111974000D03*
%TD*%
%TO.P,R3,1*%
%TO.N,/Pin1*%
X84734400Y-112940000D03*
%TO.P,R3,2*%
%TO.N,N/C*%
X84734400Y-113460000D03*
%TD*%
D20*
%TO.P,D1,1*%
%TO.N,/Pin1*%
X120080000Y-96265000D03*
%TO.P,D1,2*%
%TO.N,N/C*%
X120080000Y-97715000D03*
%TD*%
D21*
%TO.P,D3,1*%
%TO.N,/Pin1*%
X111400000Y-98650000D03*
%TO.P,D3,2*%
%TO.N,N/C*%
X113500000Y-98650000D03*
%TD*%
D22*
%TO.P,D4,1*%
%TO.N,/Pin1*%
X111400000Y-96940000D03*
%TO.P,D4,2*%
%TO.N,N/C*%
X112800000Y-96940000D03*
%TD*%
D23*
%TO.P,D8,1*%
%TO.N,/Pin1*%
X119450000Y-105760000D03*
%TO.P,D8,2*%
%TO.N,N/C*%
X119450000Y-109260000D03*
%TD*%
D24*
%TO.P,D7,1*%
%TO.N,/Pin1*%
X112950000Y-113575000D03*
%TO.P,D7,2*%
%TO.N,N/C*%
X119750000Y-113575000D03*
%TD*%
D25*
%TO.P,D5,1*%
%TO.N,/Pin1*%
X112340000Y-103770000D03*
%TO.P,D5,2*%
%TO.N,N/C*%
X116340000Y-103770000D03*
%TD*%
D26*
%TO.P,Q1,1*%
%TO.N,/Pin1*%
X124070000Y-96110000D03*
%TO.P,Q1,2*%
%TO.N,N/C*%
X124070000Y-98010000D03*
%TO.P,Q1,3*%
X126070000Y-97060000D03*
%TD*%
D27*
%TO.P,Q2,1*%
%TO.N,/Pin1*%
X123770000Y-101160000D03*
%TO.P,Q2,2*%
%TO.N,N/C*%
X123770000Y-102110000D03*
%TO.P,Q2,3*%
X123770000Y-103060000D03*
%TO.P,Q2,4*%
X125970000Y-103060000D03*
%TO.P,Q2,5*%
X125970000Y-101160000D03*
%TD*%
D28*
%TO.P,Q3,1*%
%TO.N,/Pin1*%
X124410000Y-106180000D03*
%TO.P,Q3,2*%
%TO.N,N/C*%
X124410000Y-107480000D03*
%TO.P,Q3,3*%
X126410000Y-106830000D03*
%TD*%
D29*
%TO.P,Q4,1*%
%TO.N,/Pin1*%
X124390000Y-110480000D03*
%TO.P,Q4,2*%
%TO.N,N/C*%
X124390000Y-111130000D03*
%TO.P,Q4,3*%
X124390000Y-111780000D03*
%TO.P,Q4,4*%
X126290000Y-111780000D03*
%TO.P,Q4,5*%
X126290000Y-110480000D03*
%TD*%
D30*
%TO.P,Q5,1*%
%TO.N,/Pin1*%
X129720000Y-110960000D03*
%TO.P,Q5,2*%
%TO.N,N/C*%
X129720000Y-111460000D03*
%TO.P,Q5,3*%
X129720000Y-111960000D03*
%TO.P,Q5,4*%
X131120000Y-111960000D03*
%TO.P,Q5,5*%
X131120000Y-110960000D03*
%TD*%
D31*
%TO.P,Q6,1*%
%TO.N,/Pin1*%
X133870000Y-107250000D03*
D32*
%TO.P,Q6,2*%
%TO.N,N/C*%
X134625000Y-102625000D03*
X137675000Y-102625000D03*
D33*
X136150000Y-100950000D03*
D32*
X134625000Y-99275000D03*
X137675000Y-99275000D03*
D31*
%TO.P,Q6,3*%
X138430000Y-107250000D03*
%TD*%
D34*
%TO.P,Q8,1*%
%TO.N,/Pin1*%
X127820000Y-102410000D03*
%TO.P,Q8,2*%
%TO.N,N/C*%
X129090000Y-102410000D03*
%TO.P,Q8,3*%
X130370000Y-102410000D03*
%TO.P,Q8,4*%
X131640000Y-102410000D03*
D35*
%TO.P,Q8,5*%
X128580000Y-100240000D03*
X129730000Y-100240000D03*
X130880000Y-100240000D03*
X128580000Y-99390000D03*
X129730000Y-99390000D03*
X130880000Y-99390000D03*
D36*
X129730000Y-99140000D03*
D35*
X128580000Y-98540000D03*
X129730000Y-98540000D03*
X130880000Y-98540000D03*
D37*
X129730000Y-96940000D03*
D38*
X127850000Y-96690000D03*
X129130000Y-96690000D03*
X130330000Y-96690000D03*
X131610000Y-96690000D03*
%TD*%
D39*
%TO.P,Q10,1*%
%TO.N,/Pin1*%
X128460000Y-108280000D03*
D40*
%TO.P,Q10,2*%
%TO.N,N/C*%
X129960000Y-108133500D03*
D41*
X129960000Y-106876200D03*
D42*
X129960000Y-105466500D03*
D43*
X129960000Y-104133000D03*
D39*
%TO.P,Q10,3*%
X131460000Y-108280000D03*
%TD*%
D44*
%TO.P,Q9,1*%
%TO.N,/Pin1*%
X133980000Y-116390000D03*
%TO.P,Q9,2*%
%TO.N,N/C*%
X136280000Y-116390000D03*
%TO.P,Q9,3*%
X138580000Y-116390000D03*
D45*
%TO.P,Q9,4*%
X136280000Y-110090000D03*
%TD*%
D46*
%TO.P,Q11,1*%
%TO.N,/Pin1*%
X152360000Y-111300000D03*
%TO.P,Q11,3*%
%TO.N,N/C*%
X152360000Y-112300000D03*
%TO.P,Q11,5*%
X153040000Y-111800000D03*
%TD*%
D47*
%TO.P,Q12,1*%
%TO.N,/Pin1*%
X152450000Y-114250000D03*
%TO.P,Q12,3*%
%TO.N,N/C*%
X152450000Y-114950000D03*
%TO.P,Q12,5*%
X153350000Y-114600000D03*
%TD*%
D48*
%TO.P,Q15,1*%
%TO.N,/Pin1*%
X155185000Y-114140000D03*
%TO.P,Q15,5*%
%TO.N,N/C*%
X155185000Y-116140000D03*
%TO.P,Q15,7*%
X156415000Y-115640000D03*
%TO.P,Q15,8*%
X156415000Y-114640000D03*
%TD*%
D49*
%TO.P,Q16,1*%
%TO.N,/Pin1*%
X128360000Y-114170000D03*
D50*
%TO.P,Q16,2*%
%TO.N,N/C*%
X128280000Y-114710000D03*
D49*
%TO.P,Q16,3*%
X128360000Y-115250000D03*
%TO.P,Q16,4*%
X130060000Y-115250000D03*
%TO.P,Q16,5*%
X130060000Y-114170000D03*
%TD*%
D51*
%TO.P,U1,1*%
%TO.N,/Pin1*%
X169654400Y-101260000D03*
%TD*%
D52*
%TO.P,U3,1*%
%TO.N,/Pin1*%
X169400400Y-98288200D03*
%TD*%
D53*
%TO.P,U2,1*%
%TO.N,/Pin1*%
X169578200Y-99888400D03*
%TD*%
D54*
%TO.P,H1,1*%
%TO.N,N/C*%
X161130000Y-98176000D03*
%TD*%
D55*
%TO.P,U4,1*%
%TO.N,/Pin1*%
X169222600Y-96332400D03*
%TD*%
D56*
%TO.P,H2,1*%
%TO.N,N/C*%
X157520000Y-98176000D03*
%TD*%
D57*
%TO.P,H3,1*%
%TO.N,N/C*%
X154550000Y-98176000D03*
%TD*%
D58*
%TO.P,H4,1*%
%TO.N,N/C*%
X152090000Y-98176000D03*
%TD*%
D59*
%TO.P,H5,1*%
%TO.N,N/C*%
X150020000Y-98180000D03*
%TD*%
D60*
%TO.P,H6,1*%
%TO.N,N/C*%
X148280000Y-98176000D03*
%TD*%
D61*
%TO.P,H7,1*%
%TO.N,N/C*%
X146820000Y-98210000D03*
%TD*%
D62*
%TO.P,H8,1*%
%TO.N,N/C*%
X145570000Y-98176000D03*
%TD*%
D63*
%TO.P,H9,1*%
%TO.N,N/C*%
X144460000Y-98176000D03*
%TD*%
D64*
%TO.P,H10,1*%
%TO.N,N/C*%
X143470000Y-98176000D03*
%TD*%
D65*
%TO.P,H11,1*%
%TO.N,N/C*%
X142600000Y-98176000D03*
%TD*%
D66*
%TO.P,D2,1*%
%TO.N,/Pin1*%
X111540000Y-100810000D03*
%TO.P,D2,2*%
%TO.N,N/C*%
X114840000Y-100810000D03*
%TD*%
D67*
%TO.P,JP1,1*%
%TO.N,/Pin1*%
X134834621Y-96002162D03*
D68*
%TO.P,JP1,2*%
X136284621Y-96002162D03*
%TD*%
D69*
%TO.P,TP1,1*%
%TO.N,/Pin1*%
X138267642Y-96002162D03*
%TD*%
D70*
%TO.P,TP2,1*%
%TO.N,/Pin1*%
X140820662Y-98622162D03*
%TD*%
D71*
%TO.P,TP3,1*%
%TO.N,/Pin1*%
X140825662Y-96002162D03*
%TD*%
D72*
%TO.P,R12,1*%
%TO.N,/Pin1*%
X97770000Y-111530000D03*
%TO.P,R12,2*%
%TO.N,N/C*%
X97770000Y-117730000D03*
%TD*%
D73*
%TO.P,C2,1*%
%TO.N,/Pin1*%
X107980000Y-110550000D03*
%TO.P,C2,2*%
%TO.N,N/C*%
X107980000Y-115950000D03*
%TD*%
D74*
%TO.P,C3,1*%
%TO.N,/Pin1*%
X100220000Y-107115000D03*
%TO.P,C3,2*%
%TO.N,N/C*%
X100220000Y-104065000D03*
%TD*%
D75*
%TO.P,C4,1*%
%TO.N,/Pin1*%
X97220000Y-106865000D03*
%TO.P,C4,2*%
%TO.N,N/C*%
X97220000Y-104115000D03*
%TD*%
D76*
%TO.P,C5,1*%
%TO.N,/Pin1*%
X103880000Y-106810000D03*
%TO.P,C5,2*%
%TO.N,N/C*%
X103880000Y-101760000D03*
%TD*%
D77*
%TO.P,C6,1*%
%TO.N,/Pin1*%
X108280000Y-106795000D03*
%TO.P,C6,2*%
%TO.N,N/C*%
X108280000Y-100445000D03*
%TD*%
D78*
%TO.P,C1,1*%
%TO.N,/Pin1*%
X102110000Y-111300000D03*
%TO.P,C1,2*%
%TO.N,N/C*%
X102110000Y-114900000D03*
%TD*%
D79*
%TO.P,D6,1*%
%TO.N,/Pin1*%
X112340000Y-107830000D03*
%TO.P,D6,2*%
%TO.N,N/C*%
X116640000Y-107830000D03*
%TD*%
D26*
%TO.P,Q42,1*%
%TO.N,/Pin1*%
X123340000Y-114600000D03*
%TO.P,Q42,2*%
%TO.N,N/C*%
X123340000Y-116500000D03*
%TO.P,Q42,3*%
X125740000Y-115550000D03*
%TD*%
D80*
%TO.P,REF\u002A\u002A,1*%
%TO.N,/Pin1*%
X143060000Y-113750000D03*
%TO.P,REF\u002A\u002A,3*%
%TO.N,N/C*%
X148140000Y-113750000D03*
%TD*%
D81*
%TO.P,USON8,1*%
%TO.N,/Pin1*%
X157353334Y-103500000D03*
%TO.P,USON8,3*%
%TO.N,N/C*%
X157353334Y-102700000D03*
%TO.P,USON8,5*%
X155903334Y-102300000D03*
%TO.P,USON8,7*%
X155903334Y-103100000D03*
%TD*%
D82*
%TO.P,X1,1*%
%TO.N,/Pin1*%
X158800000Y-105200000D03*
%TO.P,X1,2*%
%TO.N,N/C*%
X158800000Y-105900000D03*
%TD*%
D83*
%TO.P,X2SON8,1*%
%TO.N,/Pin1*%
X164525000Y-102575000D03*
%TO.P,X2SON8,3*%
%TO.N,N/C*%
X164525000Y-103275000D03*
%TO.P,X2SON8,5*%
X165275000Y-103625000D03*
%TO.P,X2SON8,7*%
X165275000Y-102925000D03*
%TD*%
D84*
%TO.P,USON6,1*%
%TO.N,/Pin1*%
X159306667Y-103300000D03*
D85*
%TO.P,USON6,3*%
%TO.N,N/C*%
X159331667Y-102300000D03*
%TO.P,USON6,5*%
X158731667Y-102800000D03*
%TD*%
D86*
%TO.P,WSON6,1*%
%TO.N,/Pin1*%
X158702500Y-115057500D03*
D87*
%TO.P,WSON6,3*%
%TO.N,N/C*%
X158652500Y-116057500D03*
%TO.P,WSON6,5*%
X159802500Y-115557500D03*
%TD*%
D81*
%TO.P,USON6-12,1*%
%TO.N,/Pin1*%
X154400000Y-104300000D03*
%TO.P,USON6-12,3*%
%TO.N,N/C*%
X154400000Y-103500000D03*
%TO.P,USON6-12,5*%
X154400000Y-102700000D03*
%TO.P,USON6-12,7*%
X152950000Y-102300000D03*
%TO.P,USON6-12,9*%
X152950000Y-103100000D03*
%TO.P,USON6-12,11*%
X152950000Y-103900000D03*
%TD*%
D88*
%TO.P,TO5,1*%
%TO.N,/Pin1*%
X142680000Y-105675000D03*
D89*
%TO.P,TO5,2*%
%TO.N,N/C*%
X143237670Y-103958667D03*
%TO.P,TO5,3*%
X144697670Y-102897915D03*
%TO.P,TO5,4*%
X146502330Y-102897915D03*
%TO.P,TO5,5*%
X147962330Y-103958667D03*
%TO.P,TO5,6*%
X148520000Y-105675000D03*
%TO.P,TO5,7*%
X147962330Y-107391333D03*
%TO.P,TO5,8*%
X146502330Y-108452085D03*
%TO.P,TO5,9*%
X144697670Y-108452085D03*
%TO.P,TO5,10*%
X143237670Y-107391333D03*
%TD*%
D90*
%TO.P,VSON8,1*%
%TO.N,/Pin1*%
X152850000Y-107425000D03*
%TO.P,VSON8,3*%
%TO.N,N/C*%
X152850000Y-108725000D03*
%TO.P,VSON8,5*%
X155750000Y-109375000D03*
%TO.P,VSON8,7*%
X155750000Y-108075000D03*
%TD*%
D91*
%TO.P,WSON10,1*%
%TO.N,/Pin1*%
X164345000Y-114057500D03*
%TO.P,WSON10,3*%
%TO.N,N/C*%
X164345000Y-115057500D03*
%TO.P,WSON10,5*%
X164345000Y-116057500D03*
%TO.P,WSON10,7*%
X166345000Y-115557500D03*
%TO.P,WSON10,9*%
X166345000Y-114557500D03*
%TD*%
D92*
%TO.P,WSON8,1*%
%TO.N,/Pin1*%
X161102500Y-114557500D03*
%TO.P,WSON8,3*%
%TO.N,N/C*%
X161102500Y-115557500D03*
%TO.P,WSON8,5*%
X163002500Y-116057500D03*
%TO.P,WSON8,7*%
X163002500Y-115057500D03*
%TD*%
%TO.P,WSON12,1*%
%TO.N,/Pin1*%
X167650000Y-113557500D03*
%TO.P,WSON12,3*%
%TO.N,N/C*%
X167650000Y-114557500D03*
%TO.P,WSON12,5*%
X167650000Y-115557500D03*
%TO.P,WSON12,7*%
X169550000Y-116057500D03*
%TO.P,WSON12,9*%
X169550000Y-115057500D03*
%TO.P,WSON12,11*%
X169550000Y-114057500D03*
%TD*%
D93*
%TO.P,VSON10,1*%
%TO.N,/Pin1*%
X157000000Y-107400000D03*
%TO.P,VSON10,3*%
%TO.N,N/C*%
X157000000Y-108400000D03*
%TO.P,VSON10,5*%
X157000000Y-109400000D03*
%TO.P,VSON10,7*%
X159800000Y-108900000D03*
%TO.P,VSON10,9*%
X159800000Y-107900000D03*
%TD*%
D94*
%TO.P,X2SON4,1*%
%TO.N,/Pin1*%
X160650000Y-101825000D03*
%TO.P,X2SON4,3*%
%TO.N,N/C*%
X161150000Y-103375000D03*
%TD*%
D95*
%TO.P,VSON14,1*%
%TO.N,/Pin1*%
X161050000Y-105750000D03*
%TO.P,VSON14,3*%
%TO.N,N/C*%
X161050000Y-107050000D03*
%TO.P,VSON14,5*%
X161050000Y-108350000D03*
%TO.P,VSON14,7*%
X161050000Y-109650000D03*
%TO.P,VSON14,9*%
X163950000Y-109000000D03*
%TO.P,VSON14,11*%
X163950000Y-107700000D03*
%TO.P,VSON14,13*%
X163950000Y-106400000D03*
%TD*%
D96*
%TO.P,X2,1*%
%TO.N,/Pin1*%
X162520000Y-102600000D03*
D97*
%TO.P,X2,4*%
%TO.N,N/C*%
X163300000Y-103080000D03*
%TD*%
D98*
%TO.P,REF\u002A\u002A,*%
%TO.N,*%
X163550000Y-96575000D03*
X166300000Y-96575000D03*
%TD*%
D99*
%TO.N,*%
X77250000Y-99175000D02*
X70000000Y-99175000D01*
D100*
X77225000Y-100325000D02*
X70000000Y-100325000D01*
D101*
X77275000Y-98075000D02*
X69975000Y-98075000D01*
D100*
%TO.N,/Pin1*%
X169578200Y-98466000D02*
X169400400Y-98288200D01*
X169654400Y-99964600D02*
X169578200Y-99888400D01*
X169400400Y-96510200D02*
X169222600Y-96332400D01*
D101*
X128080000Y-113300000D02*
X132040000Y-113300000D01*
X111400000Y-98650000D02*
X111400000Y-97800000D01*
X87341000Y-112719000D02*
X87620000Y-112440000D01*
X111540000Y-99615000D02*
X111540000Y-100810000D01*
D100*
X169222600Y-96332400D02*
X169222600Y-98110400D01*
D101*
X154400000Y-105200000D02*
X157000000Y-105200000D01*
X128705000Y-101300000D02*
X127820000Y-102185000D01*
X123770000Y-101160000D02*
X123770000Y-99845000D01*
X151300000Y-113800000D02*
X151725000Y-114225000D01*
X122300000Y-103110000D02*
X122300000Y-101675000D01*
X120080000Y-96820000D02*
X119100000Y-97800000D01*
X84709000Y-111164000D02*
X85344000Y-110529000D01*
X85344000Y-111724000D02*
X85344000Y-112719000D01*
X140803500Y-95980000D02*
X140825662Y-96002162D01*
X112340000Y-107830000D02*
X112340000Y-105720000D01*
X151700000Y-105200000D02*
X151700000Y-109700000D01*
X110350000Y-106975000D02*
X110350000Y-107625000D01*
D100*
X169578200Y-101183800D02*
X169654400Y-101260000D01*
D101*
X161102500Y-112702500D02*
X161102500Y-114557500D01*
X162520000Y-102205000D02*
X162725000Y-102000000D01*
X152449000Y-114225000D02*
X152450000Y-114224000D01*
X143100000Y-110100000D02*
X151300000Y-110100000D01*
D100*
X169222600Y-98110400D02*
X169400400Y-98288200D01*
D101*
X158702500Y-112500000D02*
X158702500Y-115057500D01*
X128460000Y-108280000D02*
X126630000Y-108280000D01*
X85344000Y-109828400D02*
X85344000Y-110529000D01*
X133530000Y-115940000D02*
X133980000Y-116390000D01*
X141500000Y-106855000D02*
X142680000Y-105675000D01*
X128460000Y-108035000D02*
X128460000Y-108280000D01*
X110170000Y-106795000D02*
X110350000Y-106975000D01*
X91520000Y-110650000D02*
X89566200Y-110650000D01*
X162725000Y-102000000D02*
X163800000Y-102000000D01*
X125650000Y-102200000D02*
X127610000Y-102200000D01*
X133870000Y-107250000D02*
X133680000Y-107440000D01*
X112360000Y-105700000D02*
X112340000Y-105720000D01*
X143060000Y-113750000D02*
X143100000Y-113710000D01*
X151700000Y-101300000D02*
X151700000Y-105200000D01*
X84709000Y-109828400D02*
X85344000Y-109828400D01*
X155185000Y-113485000D02*
X155185000Y-114140000D01*
X99970000Y-106865000D02*
X100220000Y-107115000D01*
X103880000Y-106810000D02*
X108265000Y-106810000D01*
X111400000Y-98650000D02*
X111400000Y-99475000D01*
X125145000Y-110480000D02*
X125875000Y-109750000D01*
X151725000Y-114225000D02*
X152449000Y-114225000D01*
X85344000Y-112719000D02*
X86106000Y-112719000D01*
X142400000Y-110100000D02*
X141500000Y-109200000D01*
X108280000Y-110250000D02*
X107980000Y-110550000D01*
X111400000Y-97800000D02*
X111400000Y-96940000D01*
X94280000Y-110650000D02*
X91520000Y-110650000D01*
X127250000Y-109750000D02*
X128460000Y-108540000D01*
X154400000Y-104300000D02*
X154400000Y-105200000D01*
X122300000Y-101675000D02*
X122815000Y-101160000D01*
X124390000Y-110480000D02*
X125145000Y-110480000D01*
X133500000Y-95975000D02*
X132675000Y-96800000D01*
X151300000Y-110100000D02*
X151300000Y-113000000D01*
X128460000Y-108540000D02*
X128460000Y-108280000D01*
X124530000Y-106180000D02*
X124410000Y-106180000D01*
X138220000Y-96000000D02*
X138240000Y-95980000D01*
X97770000Y-111530000D02*
X94405000Y-111530000D01*
X127630000Y-114170000D02*
X128360000Y-114170000D01*
X112875000Y-108250000D02*
X112415000Y-107790000D01*
X154700000Y-113000000D02*
X155200000Y-112500000D01*
X164349000Y-102549000D02*
X164525000Y-102549000D01*
X140820662Y-98622162D02*
X140820662Y-96007162D01*
X94405000Y-111530000D02*
X94280000Y-111405000D01*
X124400000Y-114600000D02*
X124830000Y-114170000D01*
X167650000Y-113050000D02*
X167650000Y-113557500D01*
X113580000Y-113610000D02*
X112875000Y-112905000D01*
X94280000Y-111405000D02*
X94280000Y-110650000D01*
X125875000Y-109750000D02*
X127250000Y-109750000D01*
X119450000Y-105760000D02*
X119390000Y-105700000D01*
X102110000Y-111300000D02*
X107230000Y-111300000D01*
X136300000Y-95975000D02*
X138195000Y-95975000D01*
X151700000Y-109700000D02*
X151300000Y-110100000D01*
X89566200Y-110650000D02*
X89408000Y-110491800D01*
X151300000Y-113000000D02*
X151300000Y-113800000D01*
X157353334Y-105146666D02*
X157300000Y-105200000D01*
X132040000Y-113300000D02*
X133020000Y-114280000D01*
X160650000Y-101825000D02*
X160650000Y-100850000D01*
X119450000Y-105760000D02*
X119650000Y-105760000D01*
X138240000Y-95980000D02*
X140803500Y-95980000D01*
X154700000Y-113000000D02*
X155185000Y-113485000D01*
X152200000Y-100800000D02*
X151700000Y-101300000D01*
X126630000Y-108280000D02*
X124530000Y-106180000D01*
X110350000Y-107625000D02*
X110550000Y-107825000D01*
X157353334Y-103500000D02*
X157353334Y-105146666D01*
X155200000Y-112500000D02*
X161100000Y-112500000D01*
X122240000Y-96860000D02*
X122990000Y-96110000D01*
X127820000Y-102410000D02*
X127820000Y-107395000D01*
X151300000Y-111300000D02*
X152360000Y-111300000D01*
X97220000Y-106865000D02*
X99970000Y-106865000D01*
X86085600Y-109828400D02*
X86106000Y-109848800D01*
X128460000Y-110960000D02*
X129720000Y-110960000D01*
X161100000Y-112500000D02*
X161100000Y-112700000D01*
X108280000Y-106795000D02*
X110170000Y-106795000D01*
X132675000Y-100825000D02*
X132200000Y-101300000D01*
X84709000Y-111164000D02*
X84709000Y-111454000D01*
X107230000Y-111300000D02*
X107980000Y-110550000D01*
X119390000Y-105700000D02*
X112360000Y-105700000D01*
X97770000Y-109780000D02*
X97220000Y-109230000D01*
X143100000Y-110100000D02*
X142400000Y-110100000D01*
X162755000Y-101260000D02*
X162295000Y-100800000D01*
X123340000Y-114600000D02*
X124400000Y-114600000D01*
X162295000Y-100800000D02*
X160700000Y-100800000D01*
X111400000Y-99475000D02*
X111540000Y-99615000D01*
X133680000Y-107440000D02*
X133680000Y-112695000D01*
X108280000Y-106795000D02*
X108280000Y-110250000D01*
X127630000Y-113750000D02*
X127630000Y-114170000D01*
X151700000Y-105200000D02*
X152800000Y-105200000D01*
X124610000Y-101160000D02*
X125650000Y-102200000D01*
X89408000Y-110491800D02*
X89408000Y-109991800D01*
X161050000Y-105400000D02*
X161050000Y-105750000D01*
X85074000Y-111454000D02*
X85344000Y-111724000D01*
X110847500Y-107830000D02*
X112340000Y-107830000D01*
X123770000Y-99845000D02*
X122240000Y-98315000D01*
X151300000Y-113000000D02*
X154700000Y-113000000D01*
X128950000Y-110970000D02*
X128950000Y-113270000D01*
X86106000Y-109848800D02*
X86107200Y-109850000D01*
X162755000Y-101260000D02*
X162755000Y-101985000D01*
X162520000Y-102600000D02*
X162520000Y-102205000D01*
D100*
X169578200Y-99888400D02*
X169578200Y-101183800D01*
D101*
X140820662Y-96007162D02*
X140825662Y-96002162D01*
X164345000Y-112545000D02*
X164345000Y-114057500D01*
X143100000Y-113710000D02*
X143100000Y-110100000D01*
X132200000Y-101300000D02*
X128705000Y-101300000D01*
X132675000Y-96800000D02*
X132675000Y-100825000D01*
X87638800Y-109875000D02*
X89291200Y-109875000D01*
X133020000Y-114280000D02*
X134070000Y-114280000D01*
X97220000Y-109230000D02*
X97220000Y-106865000D01*
X122990000Y-96110000D02*
X124070000Y-96110000D01*
X112340000Y-105720000D02*
X112340000Y-103770000D01*
X119100000Y-97800000D02*
X111400000Y-97800000D01*
X163800000Y-102000000D02*
X164349000Y-102549000D01*
X87596200Y-109850000D02*
X87630000Y-109883800D01*
X160650000Y-100850000D02*
X160700000Y-100800000D01*
X127630000Y-113750000D02*
X128080000Y-113300000D01*
X127250000Y-109750000D02*
X128460000Y-110960000D01*
X122815000Y-101160000D02*
X123770000Y-101160000D01*
X124830000Y-114170000D02*
X127630000Y-114170000D01*
X133680000Y-112695000D02*
X132557500Y-113817500D01*
X167100000Y-112500000D02*
X167650000Y-113050000D01*
X119650000Y-105760000D02*
X122300000Y-103110000D01*
X84709000Y-111454000D02*
X85074000Y-111454000D01*
X111540000Y-101720000D02*
X111540000Y-100810000D01*
X97770000Y-111530000D02*
X97770000Y-109780000D01*
X134850000Y-95975000D02*
X133500000Y-95975000D01*
X85344000Y-109828400D02*
X86085600Y-109828400D01*
X108265000Y-106810000D02*
X108280000Y-106795000D01*
D100*
X169400400Y-99710600D02*
X169578200Y-99888400D01*
D101*
X152800000Y-105200000D02*
X152800000Y-107375000D01*
X152800000Y-105200000D02*
X154400000Y-105200000D01*
X157000000Y-105200000D02*
X157000000Y-107400000D01*
X110842500Y-107825000D02*
X110847500Y-107830000D01*
X84955400Y-112719000D02*
X85344000Y-112719000D01*
X87630000Y-109883800D02*
X87638800Y-109875000D01*
X141500000Y-109200000D02*
X141500000Y-106855000D01*
X122240000Y-98315000D02*
X122240000Y-96860000D01*
X110550000Y-107825000D02*
X110842500Y-107825000D01*
X164300000Y-112500000D02*
X167100000Y-112500000D01*
X127820000Y-102185000D02*
X127820000Y-102410000D01*
X159450000Y-103300000D02*
X159450000Y-105193333D01*
X127610000Y-102200000D02*
X127820000Y-102410000D01*
X169654400Y-101260000D02*
X162755000Y-101260000D01*
X157000000Y-105200000D02*
X157300000Y-105200000D01*
X86106000Y-112719000D02*
X87341000Y-112719000D01*
X128460000Y-108280000D02*
X128460000Y-108530000D01*
X112340000Y-102520000D02*
X111540000Y-101720000D01*
X100250000Y-107120000D02*
X103570000Y-107120000D01*
X134070000Y-114280000D02*
X134600000Y-113750000D01*
X164300000Y-112500000D02*
X164345000Y-112545000D01*
X127820000Y-107395000D02*
X128460000Y-108035000D01*
X112340000Y-103770000D02*
X112340000Y-102520000D01*
X152800000Y-107375000D02*
X152850000Y-107425000D01*
D100*
X169400400Y-98288200D02*
X169400400Y-99710600D01*
D101*
X133530000Y-114280000D02*
X133530000Y-115940000D01*
X157300000Y-105200000D02*
X160850000Y-105200000D01*
X161100000Y-112700000D02*
X161102500Y-112702500D01*
X161100000Y-112500000D02*
X164300000Y-112500000D01*
X89291200Y-109875000D02*
X89408000Y-109991800D01*
X160850000Y-105200000D02*
X161050000Y-105400000D01*
X160700000Y-100800000D02*
X152200000Y-100800000D01*
X120080000Y-96265000D02*
X120080000Y-96820000D01*
X138195000Y-95975000D02*
X138220000Y-96000000D01*
X103570000Y-107120000D02*
X103880000Y-106810000D01*
X112875000Y-112905000D02*
X112875000Y-108250000D01*
X86107200Y-109850000D02*
X87596200Y-109850000D01*
X123770000Y-101160000D02*
X124610000Y-101160000D01*
X134600000Y-113750000D02*
X143060000Y-113750000D01*
X84734400Y-112940000D02*
X84955400Y-112719000D01*
%TD*%
%TA.AperFunction,Conductor*%
%TO.N,/Pin1*%
G36*
X102380000Y-107195000D02*
G01*
X102421787Y-107199913D01*
X102458670Y-107214304D01*
X102518767Y-107269201D01*
X102567687Y-107368870D01*
X102604939Y-107536091D01*
X102626240Y-107808707D01*
X102630000Y-108085000D01*
X103881000Y-106810000D01*
X102630000Y-106047263D01*
X102630010Y-106089634D01*
X102626228Y-106457469D01*
X102616995Y-106619584D01*
X102598954Y-106761592D01*
X102569169Y-106879316D01*
X102524705Y-106968577D01*
X102462627Y-107025198D01*
X102424066Y-107039962D01*
X102380000Y-107045000D01*
X102380000Y-107195000D01*
G37*
%TD.AperFunction*%
%TD*%
%TA.AperFunction,Conductor*%
%TO.N,/Pin1*%
G36*
X160575000Y-101425000D02*
G01*
X160575681Y-101447147D01*
X160572724Y-101529876D01*
X160558855Y-101566360D01*
X160529758Y-101588582D01*
X160650000Y-101826000D01*
X160770242Y-101588582D01*
X160737287Y-101559878D01*
X160723887Y-101501316D01*
X160724319Y-101447147D01*
X160725000Y-101425000D01*
X160575000Y-101425000D01*
G37*
%TD.AperFunction*%
%TD*%
%TA.AperFunction,Conductor*%
%TO.N,/Pin1*%
G36*
X155110000Y-113840000D02*
G01*
X155100625Y-113930722D01*
X155078359Y-113972458D01*
X155059756Y-113985274D01*
X155035000Y-113990000D01*
X155185000Y-114141000D01*
X155335000Y-113990000D01*
X155310385Y-113985334D01*
X155291848Y-113972669D01*
X155267918Y-113925381D01*
X155260000Y-113840000D01*
X155110000Y-113840000D01*
G37*
%TD.AperFunction*%
%TD*%
%TA.AperFunction,Conductor*%
%TO.N,/Pin1*%
G36*
X112415000Y-104920000D02*
G01*
X112419911Y-104879268D01*
X112434289Y-104843103D01*
X112489673Y-104783169D01*
X112590919Y-104733500D01*
X112760530Y-104695147D01*
X113033031Y-104673177D01*
X113240000Y-104670000D01*
X112340000Y-103769000D01*
X111440000Y-104670000D01*
X111722709Y-104676557D01*
X111964549Y-104702453D01*
X112065513Y-104725973D01*
X112148536Y-104758095D01*
X112197311Y-104788397D01*
X112233669Y-104824676D01*
X112253605Y-104859525D01*
X112263766Y-104899088D01*
X112265000Y-104920000D01*
X112415000Y-104920000D01*
G37*
%TD.AperFunction*%
%TD*%
%TA.AperFunction,Conductor*%
%TO.N,/Pin1*%
G36*
X127846257Y-109259809D02*
G01*
X127957387Y-109176090D01*
X128127839Y-109098587D01*
X128232674Y-109067514D01*
X128344285Y-109045052D01*
X128536466Y-109030000D01*
X128460707Y-108279293D01*
X127960000Y-108119061D01*
X127957064Y-108382233D01*
X127938941Y-108623686D01*
X127916512Y-108766435D01*
X127884067Y-108895195D01*
X127849965Y-108986865D01*
X127807845Y-109067435D01*
X127740191Y-109153743D01*
X127846257Y-109259809D01*
G37*
%TD.AperFunction*%
%TD*%
%TA.AperFunction,Conductor*%
%TO.N,/Pin1*%
G36*
X164270000Y-113807500D02*
G01*
X164270419Y-113822638D01*
X164266277Y-113892587D01*
X164251146Y-113920966D01*
X164220000Y-113932500D01*
X164345000Y-114058500D01*
X164470000Y-113932500D01*
X164448562Y-113927867D01*
X164434042Y-113915438D01*
X164419941Y-113870200D01*
X164419581Y-113822638D01*
X164420000Y-113807500D01*
X164270000Y-113807500D01*
G37*
%TD.AperFunction*%
%TD*%
%TA.AperFunction,Conductor*%
%TO.N,/Pin1*%
G36*
X127920000Y-114245000D02*
G01*
X127982688Y-114251323D01*
X128054048Y-114275585D01*
X128085720Y-114299335D01*
X128105688Y-114332153D01*
X128110000Y-114360000D01*
X128361000Y-114170000D01*
X128110000Y-113980000D01*
X128105294Y-114009015D01*
X128092356Y-114032909D01*
X128042555Y-114070182D01*
X127958916Y-114092434D01*
X127920000Y-114095000D01*
X127920000Y-114245000D01*
G37*
%TD.AperFunction*%
%TD*%
%TA.AperFunction,Conductor*%
%TO.N,/Pin1*%
G36*
X85064000Y-111379000D02*
G01*
X85056693Y-111379035D01*
X84974338Y-111371357D01*
X84938730Y-111352023D01*
X84924000Y-111314000D01*
X84708000Y-111454000D01*
X84924000Y-111594000D01*
X84928654Y-111570608D01*
X84941232Y-111553600D01*
X84987745Y-111533437D01*
X85056693Y-111528965D01*
X85064000Y-111529000D01*
X85064000Y-111379000D01*
G37*
%TD.AperFunction*%
%TD*%
%TA.AperFunction,Conductor*%
%TO.N,/Pin1*%
G36*
X152060000Y-111375000D02*
G01*
X152070278Y-111374894D01*
X152148442Y-111381486D01*
X152181438Y-111399389D01*
X152195000Y-111435000D01*
X152361000Y-111300000D01*
X152195000Y-111165000D01*
X152190353Y-111187758D01*
X152177822Y-111203965D01*
X152131719Y-111222165D01*
X152070278Y-111225106D01*
X152060000Y-111225000D01*
X152060000Y-111375000D01*
G37*
%TD.AperFunction*%
%TD*%
%TA.AperFunction,Conductor*%
%TO.N,/Pin1*%
G36*
X118350000Y-105775000D02*
G01*
X118387282Y-105779905D01*
X118421774Y-105794240D01*
X118484732Y-105852339D01*
X118540633Y-105959675D01*
X118583090Y-106129949D01*
X118600000Y-106364588D01*
X119451000Y-105760000D01*
X118600000Y-105110000D01*
X118595138Y-105216723D01*
X118581101Y-105314734D01*
X118558978Y-105401518D01*
X118529473Y-105476461D01*
X118496438Y-105533624D01*
X118458440Y-105578049D01*
X118421827Y-105605339D01*
X118382344Y-105621162D01*
X118350000Y-105625000D01*
X118350000Y-105775000D01*
G37*
%TD.AperFunction*%
%TD*%
%TA.AperFunction,Conductor*%
%TO.N,/Pin1*%
G36*
X86930000Y-109925000D02*
G01*
X87033252Y-109945770D01*
X87088692Y-109972077D01*
X87136761Y-110009734D01*
X87162521Y-110044313D01*
X87177453Y-110085312D01*
X87180000Y-110112344D01*
X87631000Y-109883800D01*
X87180000Y-109633800D01*
X87162059Y-109688409D01*
X87109033Y-109732214D01*
X87015129Y-109765044D01*
X86930000Y-109775000D01*
X86930000Y-109925000D01*
G37*
%TD.AperFunction*%
%TD*%
%TA.AperFunction,Conductor*%
%TO.N,/Pin1*%
G36*
X139017642Y-95905000D02*
G01*
X138945537Y-95885729D01*
X138871331Y-95823880D01*
X138836685Y-95775004D01*
X138807554Y-95716339D01*
X138785217Y-95648104D01*
X138771467Y-95571723D01*
X138767642Y-95502162D01*
X138266642Y-96002162D01*
X138767642Y-96487594D01*
X138786101Y-96325091D01*
X138808337Y-96252871D01*
X138837540Y-96190208D01*
X138872148Y-96138509D01*
X138911096Y-96098316D01*
X138950048Y-96072209D01*
X138990651Y-96057753D01*
X139017642Y-96055000D01*
X139017642Y-95905000D01*
G37*
%TD.AperFunction*%
%TD*%
%TA.AperFunction,Conductor*%
%TO.N,/Pin1*%
G36*
X85606000Y-112794000D02*
G01*
X85664246Y-112799861D01*
X85732280Y-112820885D01*
X85770587Y-112844916D01*
X85797186Y-112878795D01*
X85806000Y-112919000D01*
X86107000Y-112719000D01*
X85806000Y-112519000D01*
X85788293Y-112574102D01*
X85737990Y-112614355D01*
X85653302Y-112640019D01*
X85606000Y-112644000D01*
X85606000Y-112794000D01*
G37*
%TD.AperFunction*%
%TD*%
%TA.AperFunction,Conductor*%
%TO.N,/Pin1*%
G36*
X140745662Y-97881769D02*
G01*
X140740841Y-97955331D01*
X140727093Y-98012985D01*
X140681382Y-98089825D01*
X140593422Y-98161361D01*
X140501434Y-98232316D01*
X140453141Y-98281262D01*
X140404927Y-98344377D01*
X140820662Y-98623162D01*
X141236397Y-98344377D01*
X141144785Y-98236773D01*
X141047902Y-98161361D01*
X140987480Y-98116210D01*
X140939219Y-98063419D01*
X140907238Y-97989701D01*
X140895662Y-97881769D01*
X140745662Y-97881769D01*
G37*
%TD.AperFunction*%
%TD*%
%TA.AperFunction,Conductor*%
%TO.N,/Pin1*%
G36*
X168979400Y-101335000D02*
G01*
X169053620Y-101354333D01*
X169133849Y-101417480D01*
X169169316Y-101465009D01*
X169198329Y-101521904D01*
X169217999Y-101583774D01*
X169228291Y-101652783D01*
X169229400Y-101685000D01*
X169655400Y-101260000D01*
X169229400Y-100835000D01*
X169211196Y-100961741D01*
X169159823Y-101069454D01*
X169083278Y-101147862D01*
X169040904Y-101171549D01*
X168998756Y-101183578D01*
X168979400Y-101185000D01*
X168979400Y-101335000D01*
G37*
%TD.AperFunction*%
%TD*%
%TA.AperFunction,Conductor*%
%TO.N,/Pin1*%
G36*
X169525400Y-99213200D02*
G01*
X169530339Y-99174329D01*
X169544914Y-99138105D01*
X169603499Y-99072847D01*
X169710113Y-99016624D01*
X169877190Y-98976275D01*
X170075400Y-98963200D01*
X169400400Y-98287200D01*
X168725400Y-98963200D01*
X168850290Y-98968098D01*
X168961402Y-98982380D01*
X169052376Y-99003849D01*
X169129168Y-99032577D01*
X169185073Y-99064015D01*
X169228172Y-99100486D01*
X169254862Y-99136281D01*
X169270738Y-99175408D01*
X169275400Y-99213200D01*
X169525400Y-99213200D01*
G37*
%TD.AperFunction*%
%TD*%
%TA.AperFunction,Conductor*%
%TO.N,/Pin1*%
G36*
X103160000Y-111225000D02*
G01*
X103120837Y-111220092D01*
X103085614Y-111205734D01*
X103025259Y-111149409D01*
X102973693Y-111045548D01*
X102933353Y-110873403D01*
X102911529Y-110607994D01*
X102910000Y-110500000D01*
X102109000Y-111300000D01*
X102910000Y-112100000D01*
X102915364Y-111904709D01*
X102932908Y-111729542D01*
X102955018Y-111617133D01*
X102985878Y-111522660D01*
X103016057Y-111464148D01*
X103052313Y-111419266D01*
X103086345Y-111393853D01*
X103124824Y-111378925D01*
X103160000Y-111375000D01*
X103160000Y-111225000D01*
G37*
%TD.AperFunction*%
%TD*%
%TA.AperFunction,Conductor*%
%TO.N,/Pin1*%
G36*
X97295000Y-108090000D02*
G01*
X97299907Y-108051577D01*
X97314255Y-108016718D01*
X97371158Y-107955739D01*
X97476360Y-107902824D01*
X97648800Y-107861502D01*
X97906446Y-107840695D01*
X97970000Y-107840000D01*
X97220000Y-106864000D01*
X96470000Y-107840000D01*
X96637353Y-107845146D01*
X96789043Y-107861170D01*
X96898729Y-107883161D01*
X96991656Y-107913618D01*
X97051806Y-107944243D01*
X97098185Y-107980792D01*
X97124772Y-108015036D01*
X97140587Y-108053491D01*
X97145000Y-108090000D01*
X97295000Y-108090000D01*
G37*
%TD.AperFunction*%
%TD*%
%TA.AperFunction,Conductor*%
%TO.N,/Pin1*%
G36*
X169275400Y-99138400D02*
G01*
X169269518Y-99199697D01*
X169248345Y-99270598D01*
X169222236Y-99316743D01*
X169184731Y-99355073D01*
X169148489Y-99375513D01*
X169104318Y-99386816D01*
X169078200Y-99388400D01*
X169578200Y-99889400D01*
X169973409Y-99388400D01*
X169878033Y-99383585D01*
X169793276Y-99369877D01*
X169719476Y-99348379D01*
X169657000Y-99320201D01*
X169607296Y-99287330D01*
X169569032Y-99250185D01*
X169543607Y-99211941D01*
X169529044Y-99171655D01*
X169525400Y-99138400D01*
X169275400Y-99138400D01*
G37*
%TD.AperFunction*%
%TD*%
%TA.AperFunction,Conductor*%
%TO.N,/Pin1*%
G36*
X127745000Y-107342990D02*
G01*
X127823118Y-107482639D01*
X127887868Y-107679874D01*
X127935007Y-107949451D01*
X127958541Y-108307020D01*
X127960000Y-108435324D01*
X128460000Y-108281000D01*
X128552891Y-107530000D01*
X128400007Y-107526114D01*
X128257891Y-107511085D01*
X128150496Y-107489228D01*
X128055829Y-107458223D01*
X127989159Y-107425406D01*
X127934043Y-107385616D01*
X127895000Y-107342990D01*
X127745000Y-107342990D01*
G37*
%TD.AperFunction*%
%TD*%
%TA.AperFunction,Conductor*%
%TO.N,/Pin1*%
G36*
X127710000Y-108355000D02*
G01*
X127781607Y-108374256D01*
X127853748Y-108435578D01*
X127916794Y-108543808D01*
X127939893Y-108614313D01*
X127954745Y-108693369D01*
X127960000Y-108780000D01*
X128461000Y-108280000D01*
X127960000Y-107780000D01*
X127941571Y-107938975D01*
X127919324Y-108009844D01*
X127890143Y-108071348D01*
X127855381Y-108122434D01*
X127816336Y-108162143D01*
X127777121Y-108188084D01*
X127736393Y-108202363D01*
X127710000Y-108205000D01*
X127710000Y-108355000D01*
G37*
%TD.AperFunction*%
%TD*%
%TA.AperFunction,Conductor*%
%TO.N,/Pin1*%
G36*
X86606000Y-109775000D02*
G01*
X86548045Y-109769156D01*
X86480319Y-109748245D01*
X86441829Y-109724193D01*
X86415014Y-109690258D01*
X86406000Y-109649520D01*
X86105000Y-109848800D01*
X86406000Y-110048800D01*
X86423706Y-109994108D01*
X86474039Y-109954228D01*
X86558935Y-109928876D01*
X86606000Y-109925000D01*
X86606000Y-109775000D01*
G37*
%TD.AperFunction*%
%TD*%
%TA.AperFunction,Conductor*%
%TO.N,/Pin1*%
G36*
X94355000Y-111350000D02*
G01*
X94374297Y-111276970D01*
X94436828Y-111199793D01*
X94485126Y-111164623D01*
X94543019Y-111135414D01*
X94608057Y-111114325D01*
X94680714Y-111102245D01*
X94730000Y-111100000D01*
X94280000Y-110649000D01*
X93830000Y-111100000D01*
X93966999Y-111118267D01*
X94082881Y-111169646D01*
X94129536Y-111205472D01*
X94165712Y-111245214D01*
X94190279Y-111286413D01*
X94203167Y-111328049D01*
X94205000Y-111350000D01*
X94355000Y-111350000D01*
G37*
%TD.AperFunction*%
%TD*%
%TA.AperFunction,Conductor*%
%TO.N,/Pin1*%
G36*
X124967132Y-106511066D02*
G01*
X124870483Y-106402783D01*
X124821391Y-106334015D01*
X124782416Y-106261561D01*
X124765562Y-106211678D01*
X124760000Y-106163714D01*
X124409293Y-106179293D01*
X124334242Y-106405000D01*
X124487652Y-106423206D01*
X124652381Y-106479427D01*
X124804443Y-106568540D01*
X124861066Y-106617132D01*
X124967132Y-106511066D01*
G37*
%TD.AperFunction*%
%TD*%
%TA.AperFunction,Conductor*%
%TO.N,/Pin1*%
G36*
X136934621Y-95900000D02*
G01*
X136929743Y-95900009D01*
X136840559Y-95891584D01*
X136801063Y-95871125D01*
X136784621Y-95831127D01*
X136283621Y-96002162D01*
X136784621Y-96131389D01*
X136789288Y-96105513D01*
X136801958Y-96085790D01*
X136848978Y-96059713D01*
X136934621Y-96050000D01*
X136934621Y-95900000D01*
G37*
%TD.AperFunction*%
%TD*%
%TA.AperFunction,Conductor*%
%TO.N,/Pin1*%
G36*
X101720000Y-107045000D02*
G01*
X101678035Y-107040087D01*
X101641027Y-107025693D01*
X101580876Y-106970869D01*
X101532049Y-106871453D01*
X101494960Y-106704659D01*
X101473799Y-106432271D01*
X101470000Y-106144161D01*
X100219000Y-107115000D01*
X101470000Y-108090000D01*
X101480698Y-107674228D01*
X101500480Y-107500418D01*
X101535583Y-107359017D01*
X101563532Y-107296685D01*
X101598380Y-107248079D01*
X101631499Y-107220085D01*
X101669827Y-107202212D01*
X101720000Y-107195000D01*
X101720000Y-107045000D01*
G37*
%TD.AperFunction*%
%TD*%
%TA.AperFunction,Conductor*%
%TO.N,/Pin1*%
G36*
X133455000Y-115140000D02*
G01*
X133435000Y-115230464D01*
X133408139Y-115282702D01*
X133370012Y-115330248D01*
X133331152Y-115361105D01*
X133284998Y-115382042D01*
X133230000Y-115390000D01*
X133980000Y-116391000D01*
X134416975Y-115390000D01*
X134149585Y-115383720D01*
X133918571Y-115359759D01*
X133814153Y-115336598D01*
X133727957Y-115304720D01*
X133677139Y-115274562D01*
X133638996Y-115238367D01*
X133617924Y-115203788D01*
X133606729Y-115164516D01*
X133605000Y-115140000D01*
X133455000Y-115140000D01*
G37*
%TD.AperFunction*%
%TD*%
%TA.AperFunction,Conductor*%
%TO.N,/Pin1*%
G36*
X110835000Y-107900000D02*
G01*
X110877600Y-107905750D01*
X110915189Y-107920888D01*
X110976476Y-107977133D01*
X111026178Y-108077745D01*
X111063954Y-108244985D01*
X111085756Y-108516229D01*
X111090000Y-108825851D01*
X112341000Y-107830000D01*
X111090000Y-106825841D01*
X111087818Y-107066105D01*
X111077544Y-107284586D01*
X111053584Y-107471751D01*
X111010348Y-107618062D01*
X110981045Y-107671067D01*
X110945368Y-107711359D01*
X110911086Y-107734087D01*
X110871804Y-107747059D01*
X110835000Y-107750000D01*
X110835000Y-107900000D01*
G37*
%TD.AperFunction*%
%TD*%
%TA.AperFunction,Conductor*%
%TO.N,/Pin1*%
G36*
X127895000Y-103235000D02*
G01*
X127914570Y-103154004D01*
X127941485Y-103106740D01*
X127979315Y-103062436D01*
X128022710Y-103028007D01*
X128074410Y-103002002D01*
X128170000Y-102985000D01*
X127820000Y-102409000D01*
X127470000Y-102985000D01*
X127568387Y-103003066D01*
X127652150Y-103054536D01*
X127715838Y-103134688D01*
X127735969Y-103181581D01*
X127744662Y-103225425D01*
X127745000Y-103235000D01*
X127895000Y-103235000D01*
G37*
%TD.AperFunction*%
%TD*%
%TA.AperFunction,Conductor*%
%TO.N,/Pin1*%
G36*
X134184621Y-96050000D02*
G01*
X134275620Y-96061372D01*
X134317183Y-96085684D01*
X134329926Y-96105442D01*
X134334621Y-96131389D01*
X134835621Y-96002162D01*
X134334621Y-95831127D01*
X134329955Y-95854545D01*
X134317296Y-95871954D01*
X134269698Y-95893821D01*
X134189499Y-95900009D01*
X134184621Y-95900000D01*
X134184621Y-96050000D01*
G37*
%TD.AperFunction*%
%TD*%
%TA.AperFunction,Conductor*%
%TO.N,/Pin1*%
G36*
X140895662Y-97252162D02*
G01*
X140900576Y-97209784D01*
X140914975Y-97172479D01*
X140969637Y-97112179D01*
X141068482Y-97063537D01*
X141234263Y-97026801D01*
X141505901Y-97005982D01*
X141821669Y-97002162D01*
X140825662Y-96001162D01*
X139825662Y-97002162D01*
X140097411Y-97004864D01*
X140338995Y-97018782D01*
X140536329Y-97052629D01*
X140614001Y-97079750D01*
X140675329Y-97115122D01*
X140709061Y-97147135D01*
X140732236Y-97184667D01*
X140745662Y-97252162D01*
X140895662Y-97252162D01*
G37*
%TD.AperFunction*%
%TD*%
%TA.AperFunction,Conductor*%
%TO.N,/Pin1*%
G36*
X111325000Y-98200000D02*
G01*
X111319649Y-98252413D01*
X111302189Y-98314873D01*
X111277131Y-98364183D01*
X111241179Y-98403028D01*
X111210894Y-98419131D01*
X111175000Y-98425000D01*
X111400000Y-98651000D01*
X111625000Y-98425000D01*
X111564744Y-98407155D01*
X111517538Y-98355768D01*
X111483781Y-98268855D01*
X111475000Y-98200000D01*
X111325000Y-98200000D01*
G37*
%TD.AperFunction*%
%TD*%
%TA.AperFunction,Conductor*%
%TO.N,/Pin1*%
G36*
X111615000Y-101660000D02*
G01*
X111634297Y-101586970D01*
X111696828Y-101509793D01*
X111745126Y-101474623D01*
X111803019Y-101445414D01*
X111868057Y-101424325D01*
X111940714Y-101412245D01*
X111990000Y-101410000D01*
X111540000Y-100809000D01*
X111090000Y-101410000D01*
X111226999Y-101428267D01*
X111342881Y-101479646D01*
X111389536Y-101515472D01*
X111425712Y-101555214D01*
X111450279Y-101596413D01*
X111463167Y-101638049D01*
X111465000Y-101660000D01*
X111615000Y-101660000D01*
G37*
%TD.AperFunction*%
%TD*%
%TA.AperFunction,Conductor*%
%TO.N,/Pin1*%
G36*
X164180888Y-102486954D02*
G01*
X164229622Y-102516943D01*
X164278264Y-102545178D01*
X164294460Y-102560630D01*
X164300000Y-102577211D01*
X164525707Y-102575707D01*
X164547261Y-102475000D01*
X164444479Y-102469938D01*
X164351579Y-102431774D01*
X164286954Y-102380888D01*
X164180888Y-102486954D01*
G37*
%TD.AperFunction*%
%TD*%
%TA.AperFunction,Conductor*%
%TO.N,/Pin1*%
G36*
X169703200Y-100638400D02*
G01*
X169723200Y-100558388D01*
X169749148Y-100517965D01*
X169785734Y-100480269D01*
X169832362Y-100447290D01*
X169889389Y-100420169D01*
X169954555Y-100400975D01*
X170029482Y-100390212D01*
X170078200Y-100388400D01*
X169578200Y-99887400D01*
X169078200Y-100388400D01*
X169156273Y-100393183D01*
X169225244Y-100406667D01*
X169286491Y-100428158D01*
X169338175Y-100456024D01*
X169381480Y-100489979D01*
X169414605Y-100527695D01*
X169437942Y-100568538D01*
X169450641Y-100610064D01*
X169453200Y-100638400D01*
X169703200Y-100638400D01*
G37*
%TD.AperFunction*%
%TD*%
%TA.AperFunction,Conductor*%
%TO.N,/Pin1*%
G36*
X142680443Y-105677796D02*
G01*
X142684248Y-105682623D01*
X142926252Y-106251876D01*
X142926335Y-106260830D01*
X142920062Y-106267220D01*
X142914528Y-106268114D01*
X142750203Y-106254630D01*
X142750192Y-106254629D01*
X142485900Y-106257464D01*
X142485892Y-106257464D01*
X142287586Y-106289515D01*
X142145172Y-106343097D01*
X142145169Y-106343099D01*
X142055358Y-106407951D01*
X142046645Y-106410016D01*
X142040236Y-106406738D01*
X141948925Y-106315427D01*
X141945498Y-106307154D01*
X141948363Y-106299484D01*
X141956119Y-106290549D01*
X141956119Y-106290548D01*
X141973169Y-106260830D01*
X141980405Y-106248218D01*
X141996428Y-106197119D01*
X142003876Y-106135976D01*
X142001296Y-106068841D01*
X141965476Y-105927535D01*
X141965475Y-105927533D01*
X141965475Y-105927532D01*
X141931593Y-105865456D01*
X141899553Y-105806756D01*
X141898598Y-105797855D01*
X141904219Y-105790883D01*
X141908093Y-105789582D01*
X142671756Y-105675628D01*
X142680443Y-105677796D01*
G37*
%TD.AperFunction*%
%TD*%
%TA.AperFunction,Conductor*%
%TO.N,/Pin1*%
G36*
X95920000Y-111605000D02*
G01*
X95991607Y-111624256D01*
X96063748Y-111685578D01*
X96126794Y-111793808D01*
X96149893Y-111864313D01*
X96164745Y-111943369D01*
X96170000Y-112030000D01*
X97771000Y-111530000D01*
X96170000Y-111030000D01*
X96151571Y-111188975D01*
X96129324Y-111259844D01*
X96100143Y-111321348D01*
X96065381Y-111372434D01*
X96026336Y-111412143D01*
X95987121Y-111438084D01*
X95946393Y-111452363D01*
X95920000Y-111455000D01*
X95920000Y-111605000D01*
G37*
%TD.AperFunction*%
%TD*%
%TA.AperFunction,Conductor*%
%TO.N,/Pin1*%
G36*
X159525000Y-103596353D02*
G01*
X159516383Y-103530558D01*
X159505532Y-103448856D01*
X159507720Y-103415913D01*
X159519499Y-103395085D01*
X159306667Y-103299000D01*
X159212937Y-103450000D01*
X159256320Y-103454018D01*
X159292190Y-103466264D01*
X159345643Y-103511153D01*
X159373224Y-103576170D01*
X159375000Y-103596353D01*
X159525000Y-103596353D01*
G37*
%TD.AperFunction*%
%TD*%
%TA.AperFunction,Conductor*%
%TO.N,/Pin1*%
G36*
X86606000Y-112644000D02*
G01*
X86547754Y-112638139D01*
X86479720Y-112617115D01*
X86441413Y-112593084D01*
X86414814Y-112559205D01*
X86406000Y-112519000D01*
X86105000Y-112719000D01*
X86406000Y-112919000D01*
X86423707Y-112863898D01*
X86474010Y-112823645D01*
X86558698Y-112797981D01*
X86606000Y-112794000D01*
X86606000Y-112644000D01*
G37*
%TD.AperFunction*%
%TD*%
%TA.AperFunction,Conductor*%
%TO.N,/Pin1*%
G36*
X160975000Y-105450000D02*
G01*
X160965625Y-105540722D01*
X160943359Y-105582458D01*
X160924756Y-105595274D01*
X160900000Y-105600000D01*
X161050000Y-105751000D01*
X161200000Y-105600000D01*
X161175385Y-105595334D01*
X161156848Y-105582669D01*
X161132918Y-105535381D01*
X161125000Y-105450000D01*
X160975000Y-105450000D01*
G37*
%TD.AperFunction*%
%TD*%
%TA.AperFunction,Conductor*%
%TO.N,/Pin1*%
G36*
X169097600Y-97363200D02*
G01*
X169077582Y-97443424D01*
X169051613Y-97484002D01*
X169014977Y-97521846D01*
X168968434Y-97554821D01*
X168911509Y-97581896D01*
X168846634Y-97600938D01*
X168772043Y-97611515D01*
X168725400Y-97613200D01*
X169400400Y-98289200D01*
X169957932Y-97613200D01*
X169811250Y-97608215D01*
X169681188Y-97593317D01*
X169581229Y-97571861D01*
X169497241Y-97542726D01*
X169439544Y-97512052D01*
X169395128Y-97475937D01*
X169368476Y-97441068D01*
X169352478Y-97402335D01*
X169347600Y-97363200D01*
X169097600Y-97363200D01*
G37*
%TD.AperFunction*%
%TD*%
%TA.AperFunction,Conductor*%
%TO.N,/Pin1*%
G36*
X92780000Y-110725000D02*
G01*
X92853030Y-110744297D01*
X92930207Y-110806828D01*
X92965377Y-110855126D01*
X92994586Y-110913019D01*
X93015675Y-110978057D01*
X93027755Y-111050714D01*
X93030000Y-111100000D01*
X94281000Y-110650000D01*
X93030000Y-110200000D01*
X93011733Y-110336999D01*
X92960354Y-110452881D01*
X92924528Y-110499536D01*
X92884786Y-110535712D01*
X92843587Y-110560279D01*
X92801951Y-110573167D01*
X92780000Y-110575000D01*
X92780000Y-110725000D01*
G37*
%TD.AperFunction*%
%TD*%
%TA.AperFunction,Conductor*%
%TO.N,/Pin1*%
G36*
X137517642Y-96050000D02*
G01*
X137589091Y-96069252D01*
X137660434Y-96130356D01*
X137723124Y-96238789D01*
X137746489Y-96310177D01*
X137761748Y-96390282D01*
X137767642Y-96484368D01*
X138268642Y-96002162D01*
X137767642Y-95502162D01*
X137749307Y-95648941D01*
X137697912Y-95772340D01*
X137662584Y-95821099D01*
X137623175Y-95858962D01*
X137582938Y-95884218D01*
X137541736Y-95897794D01*
X137517642Y-95900000D01*
X137517642Y-96050000D01*
G37*
%TD.AperFunction*%
%TD*%
%TA.AperFunction,Conductor*%
%TO.N,/Pin1*%
G36*
X108355000Y-108320000D02*
G01*
X108359914Y-108277638D01*
X108374312Y-108240345D01*
X108428981Y-108180052D01*
X108527849Y-108131403D01*
X108693671Y-108094654D01*
X108965344Y-108073821D01*
X109280000Y-108070000D01*
X108280000Y-106794000D01*
X107280000Y-108070000D01*
X107567724Y-108072990D01*
X107820798Y-108088920D01*
X107929119Y-108105000D01*
X108022510Y-108128230D01*
X108098882Y-108159916D01*
X108156147Y-108201361D01*
X108182536Y-108234824D01*
X108199019Y-108273521D01*
X108205000Y-108320000D01*
X108355000Y-108320000D01*
G37*
%TD.AperFunction*%
%TD*%
%TA.AperFunction,Conductor*%
%TO.N,/Pin1*%
G36*
X87132012Y-112794000D02*
G01*
X87341004Y-112750335D01*
X87523223Y-112709364D01*
X87687304Y-112690000D01*
X87621000Y-112440000D01*
X87170000Y-112409494D01*
X87198689Y-112457809D01*
X87213882Y-112501215D01*
X87217669Y-112539433D01*
X87212134Y-112572183D01*
X87178400Y-112622806D01*
X87132012Y-112644000D01*
X87132012Y-112794000D01*
G37*
%TD.AperFunction*%
%TD*%
%TA.AperFunction,Conductor*%
%TO.N,/Pin1*%
G36*
X89531743Y-110509477D02*
G01*
X89534517Y-110454897D01*
X89578390Y-110401501D01*
X89670625Y-110358326D01*
X89803848Y-110341800D01*
X89407293Y-109991093D01*
X89098402Y-110341800D01*
X89187355Y-110359950D01*
X89280692Y-110416522D01*
X89370141Y-110511963D01*
X89425677Y-110615543D01*
X89531743Y-110509477D01*
G37*
%TD.AperFunction*%
%TD*%
%TA.AperFunction,Conductor*%
%TO.N,/Pin1*%
G36*
X106930000Y-111375000D02*
G01*
X107019306Y-111394238D01*
X107112430Y-111455137D01*
X107211500Y-111568110D01*
X107312916Y-111744698D01*
X107394697Y-111951196D01*
X107981000Y-110550000D01*
X107180000Y-110138791D01*
X107180427Y-110287889D01*
X107178026Y-110651751D01*
X107169271Y-110810895D01*
X107151482Y-110949723D01*
X107121659Y-111064391D01*
X107076803Y-111151056D01*
X107013917Y-111205873D01*
X106974775Y-111220138D01*
X106930000Y-111225000D01*
X106930000Y-111375000D01*
G37*
%TD.AperFunction*%
%TD*%
%TA.AperFunction,Conductor*%
%TO.N,/Pin1*%
G36*
X85064000Y-109753400D02*
G01*
X85056693Y-109753435D01*
X84974338Y-109745757D01*
X84938730Y-109726423D01*
X84924000Y-109688400D01*
X84708000Y-109828400D01*
X84924000Y-109968400D01*
X84928654Y-109945008D01*
X84941232Y-109928000D01*
X84987745Y-109907837D01*
X85056693Y-109903365D01*
X85064000Y-109903400D01*
X85064000Y-109753400D01*
G37*
%TD.AperFunction*%
%TD*%
%TA.AperFunction,Conductor*%
%TO.N,/Pin1*%
G36*
X120155000Y-96615000D02*
G01*
X120163043Y-96539793D01*
X120176520Y-96498074D01*
X120199343Y-96463292D01*
X120223540Y-96446311D01*
X120255000Y-96440000D01*
X120080000Y-96264000D01*
X119905000Y-96440000D01*
X119932445Y-96444692D01*
X119954452Y-96457540D01*
X119987008Y-96506500D01*
X120003971Y-96588331D01*
X120005000Y-96615000D01*
X120155000Y-96615000D01*
G37*
%TD.AperFunction*%
%TD*%
%TA.AperFunction,Conductor*%
%TO.N,/Pin1*%
G36*
X139575662Y-96055000D02*
G01*
X139618099Y-96059914D01*
X139655447Y-96074313D01*
X139715770Y-96128953D01*
X139764390Y-96227719D01*
X139801078Y-96393355D01*
X139821847Y-96664864D01*
X139825662Y-96984585D01*
X140826662Y-96002162D01*
X139825662Y-95002162D01*
X139823544Y-95232988D01*
X139813719Y-95443234D01*
X139790978Y-95624189D01*
X139750115Y-95767141D01*
X139721177Y-95821769D01*
X139685721Y-95863561D01*
X139651672Y-95887301D01*
X139612539Y-95901262D01*
X139575662Y-95905000D01*
X139575662Y-96055000D01*
G37*
%TD.AperFunction*%
%TD*%
%TA.AperFunction,Conductor*%
%TO.N,/Pin1*%
G36*
X105380000Y-106735000D02*
G01*
X105337638Y-106730086D01*
X105300345Y-106715688D01*
X105240052Y-106661019D01*
X105191403Y-106562151D01*
X105154654Y-106396329D01*
X105133821Y-106124656D01*
X105130000Y-105810000D01*
X103879000Y-106810000D01*
X105130000Y-107810000D01*
X105132990Y-107522276D01*
X105148920Y-107269202D01*
X105165000Y-107160881D01*
X105188230Y-107067490D01*
X105219916Y-106991118D01*
X105261361Y-106933853D01*
X105294824Y-106907464D01*
X105333521Y-106890981D01*
X105380000Y-106885000D01*
X105380000Y-106735000D01*
G37*
%TD.AperFunction*%
%TD*%
%TA.AperFunction,Conductor*%
%TO.N,/Pin1*%
G36*
X88330000Y-109800000D02*
G01*
X88277922Y-109794795D01*
X88215460Y-109778357D01*
X88159439Y-109752675D01*
X88112976Y-109715799D01*
X88091229Y-109683841D01*
X88080610Y-109645984D01*
X88080000Y-109633800D01*
X87629000Y-109883800D01*
X88080000Y-110128157D01*
X88097964Y-110062149D01*
X88150186Y-110007678D01*
X88238510Y-109965670D01*
X88330000Y-109950000D01*
X88330000Y-109800000D01*
G37*
%TD.AperFunction*%
%TD*%
%TA.AperFunction,Conductor*%
%TO.N,/Pin1*%
G36*
X128293743Y-101605191D02*
G01*
X128159526Y-101710141D01*
X128070329Y-101760553D01*
X127973289Y-101801646D01*
X127891272Y-101824582D01*
X127809575Y-101834752D01*
X127795430Y-101835000D01*
X127819293Y-102410707D01*
X128170000Y-102520154D01*
X128174960Y-102374833D01*
X128189678Y-102235126D01*
X128213115Y-102107099D01*
X128245326Y-101989123D01*
X128282257Y-101892061D01*
X128326166Y-101807136D01*
X128399809Y-101711257D01*
X128293743Y-101605191D01*
G37*
%TD.AperFunction*%
%TD*%
%TA.AperFunction,Conductor*%
%TO.N,/Pin1*%
G36*
X112265000Y-102620000D02*
G01*
X112260089Y-102660732D01*
X112245711Y-102696897D01*
X112190327Y-102756831D01*
X112089081Y-102806500D01*
X111919470Y-102844853D01*
X111646969Y-102866823D01*
X111440000Y-102870000D01*
X112340000Y-103771000D01*
X113240000Y-102870000D01*
X112957291Y-102863443D01*
X112715451Y-102837547D01*
X112614487Y-102814027D01*
X112531464Y-102781905D01*
X112482689Y-102751603D01*
X112446331Y-102715324D01*
X112426395Y-102680475D01*
X112416234Y-102640912D01*
X112415000Y-102620000D01*
X112265000Y-102620000D01*
G37*
%TD.AperFunction*%
%TD*%
%TA.AperFunction,Conductor*%
%TO.N,/Pin1*%
G36*
X109880000Y-106720000D02*
G01*
X109837638Y-106715086D01*
X109800345Y-106700688D01*
X109740052Y-106646019D01*
X109691403Y-106547151D01*
X109654654Y-106381329D01*
X109633821Y-106109656D01*
X109630000Y-105795000D01*
X108279000Y-106795000D01*
X109630000Y-107795000D01*
X109632990Y-107507276D01*
X109648920Y-107254202D01*
X109665000Y-107145881D01*
X109688230Y-107052490D01*
X109719916Y-106976118D01*
X109761361Y-106918853D01*
X109794824Y-106892464D01*
X109833521Y-106875981D01*
X109880000Y-106870000D01*
X109880000Y-106720000D01*
G37*
%TD.AperFunction*%
%TD*%
%TA.AperFunction,Conductor*%
%TO.N,/Pin1*%
G36*
X157428334Y-103700000D02*
G01*
X157425817Y-103677585D01*
X157423098Y-103626748D01*
X157431850Y-103607606D01*
X157453334Y-103600000D01*
X157353334Y-103499000D01*
X157253334Y-103600000D01*
X157271095Y-103604587D01*
X157280771Y-103616698D01*
X157283317Y-103659680D01*
X157280851Y-103677585D01*
X157278334Y-103700000D01*
X157428334Y-103700000D01*
G37*
%TD.AperFunction*%
%TD*%
%TA.AperFunction,Conductor*%
%TO.N,/Pin1*%
G36*
X106680000Y-106885000D02*
G01*
X106722324Y-106889914D01*
X106759589Y-106904312D01*
X106819868Y-106958995D01*
X106868532Y-107057914D01*
X106905312Y-107223830D01*
X106926177Y-107495582D01*
X106930000Y-107807701D01*
X108281000Y-106795000D01*
X106930000Y-105807613D01*
X106926841Y-106103901D01*
X106909725Y-106362947D01*
X106892353Y-106472800D01*
X106867196Y-106566495D01*
X106832822Y-106641751D01*
X106787799Y-106696286D01*
X106753426Y-106718926D01*
X106713929Y-106731922D01*
X106680000Y-106735000D01*
X106680000Y-106885000D01*
G37*
%TD.AperFunction*%
%TD*%
%TA.AperFunction,Conductor*%
%TO.N,/Pin1*%
G36*
X123695000Y-100585000D02*
G01*
X123675263Y-100669990D01*
X123648307Y-100719703D01*
X123610247Y-100765788D01*
X123568938Y-100798818D01*
X123519804Y-100822667D01*
X123445000Y-100835000D01*
X123770000Y-101161000D01*
X124095000Y-100835000D01*
X124005373Y-100816968D01*
X123929361Y-100765403D01*
X123870994Y-100683680D01*
X123852405Y-100634837D01*
X123845107Y-100590440D01*
X123845000Y-100585000D01*
X123695000Y-100585000D01*
G37*
%TD.AperFunction*%
%TD*%
%TA.AperFunction,Conductor*%
%TO.N,/Pin1*%
G36*
X161027500Y-114307500D02*
G01*
X161027919Y-114322638D01*
X161023777Y-114392587D01*
X161008646Y-114420966D01*
X160977500Y-114432500D01*
X161102500Y-114558500D01*
X161227500Y-114432500D01*
X161206062Y-114427867D01*
X161191542Y-114415438D01*
X161177441Y-114370200D01*
X161177081Y-114322638D01*
X161177500Y-114307500D01*
X161027500Y-114307500D01*
G37*
%TD.AperFunction*%
%TD*%
%TA.AperFunction,Conductor*%
%TO.N,/Pin1*%
G36*
X169453200Y-100585000D02*
G01*
X169447732Y-100638007D01*
X169429452Y-100698427D01*
X169403186Y-100746659D01*
X169365068Y-100788713D01*
X169327016Y-100813595D01*
X169280486Y-100829751D01*
X169229400Y-100835000D01*
X169654400Y-101261000D01*
X170034072Y-100835000D01*
X169965337Y-100830230D01*
X169904984Y-100816838D01*
X169805995Y-100767665D01*
X169737673Y-100694861D01*
X169705026Y-100609522D01*
X169703200Y-100585000D01*
X169453200Y-100585000D01*
G37*
%TD.AperFunction*%
%TD*%
%TA.AperFunction,Conductor*%
%TO.N,/Pin1*%
G36*
X124915000Y-110405000D02*
G01*
X124856754Y-110399139D01*
X124788720Y-110378115D01*
X124750413Y-110354084D01*
X124723814Y-110320205D01*
X124715000Y-110280000D01*
X124389000Y-110480000D01*
X124715000Y-110680000D01*
X124732707Y-110624898D01*
X124783010Y-110584645D01*
X124867698Y-110558981D01*
X124915000Y-110555000D01*
X124915000Y-110405000D01*
G37*
%TD.AperFunction*%
%TD*%
%TA.AperFunction,Conductor*%
%TO.N,/Pin1*%
G36*
X158627500Y-114777500D02*
G01*
X158627535Y-114784807D01*
X158619857Y-114867162D01*
X158600523Y-114902770D01*
X158562500Y-114917500D01*
X158702500Y-115058500D01*
X158842500Y-114917500D01*
X158819108Y-114912846D01*
X158802100Y-114900268D01*
X158781937Y-114853755D01*
X158777465Y-114784807D01*
X158777500Y-114777500D01*
X158627500Y-114777500D01*
G37*
%TD.AperFunction*%
%TD*%
%TA.AperFunction,Conductor*%
%TO.N,/Pin1*%
G36*
X88508000Y-109950000D02*
G01*
X88585054Y-109969425D01*
X88629214Y-109996146D01*
X88670905Y-110033502D01*
X88706291Y-110079223D01*
X88734263Y-110133819D01*
X88751046Y-110190204D01*
X88757927Y-110252979D01*
X88758000Y-110260337D01*
X89409000Y-109991800D01*
X88758000Y-109641800D01*
X88740050Y-109701598D01*
X88687456Y-109750277D01*
X88596389Y-109787412D01*
X88508000Y-109800000D01*
X88508000Y-109950000D01*
G37*
%TD.AperFunction*%
%TD*%
%TA.AperFunction,Conductor*%
%TO.N,/Pin1*%
G36*
X152250000Y-114300000D02*
G01*
X152267294Y-114298845D01*
X152320821Y-114299838D01*
X152341642Y-114311863D01*
X152350000Y-114338207D01*
X152451000Y-114250000D01*
X152457192Y-114150000D01*
X152404396Y-114166241D01*
X152308075Y-114157191D01*
X152250000Y-114150000D01*
X152250000Y-114300000D01*
G37*
%TD.AperFunction*%
%TD*%
%TA.AperFunction,Conductor*%
%TO.N,/Pin1*%
G36*
X122990000Y-101235000D02*
G01*
X123074990Y-101254737D01*
X123124703Y-101281693D01*
X123170788Y-101319753D01*
X123203818Y-101361062D01*
X123227667Y-101410196D01*
X123240000Y-101485000D01*
X123771000Y-101160000D01*
X123240000Y-100835000D01*
X123221968Y-100924627D01*
X123170403Y-101000639D01*
X123088680Y-101059006D01*
X123039837Y-101077595D01*
X122995440Y-101084893D01*
X122990000Y-101085000D01*
X122990000Y-101235000D01*
G37*
%TD.AperFunction*%
%TD*%
%TA.AperFunction,Conductor*%
%TO.N,/Pin1*%
G36*
X120423743Y-104880191D02*
G01*
X120313379Y-104963321D01*
X120161386Y-105028201D01*
X119950926Y-105075162D01*
X119651693Y-105102585D01*
X119220975Y-105110000D01*
X119449293Y-105760707D01*
X120300000Y-105910173D01*
X120305202Y-105716853D01*
X120321616Y-105534596D01*
X120344918Y-105393026D01*
X120377678Y-105264182D01*
X120413057Y-105167373D01*
X120456050Y-105082487D01*
X120529809Y-104986257D01*
X120423743Y-104880191D01*
G37*
%TD.AperFunction*%
%TD*%
%TA.AperFunction,Conductor*%
%TO.N,/Pin1*%
G36*
X92620000Y-110575000D02*
G01*
X92546970Y-110555703D01*
X92469793Y-110493172D01*
X92434623Y-110444874D01*
X92405414Y-110386981D01*
X92384325Y-110321943D01*
X92372245Y-110249286D01*
X92370000Y-110200000D01*
X91519000Y-110650000D01*
X92370000Y-111100000D01*
X92388267Y-110963001D01*
X92439646Y-110847119D01*
X92475472Y-110800464D01*
X92515214Y-110764288D01*
X92556413Y-110739721D01*
X92598049Y-110726833D01*
X92620000Y-110725000D01*
X92620000Y-110575000D01*
G37*
%TD.AperFunction*%
%TD*%
%TA.AperFunction,Conductor*%
%TO.N,/Pin1*%
G36*
X156925000Y-107160000D02*
G01*
X156925676Y-107177100D01*
X156922851Y-107243056D01*
X156909061Y-107269361D01*
X156880000Y-107280000D01*
X157000000Y-107401000D01*
X157120000Y-107280000D01*
X157099251Y-107275375D01*
X157085621Y-107263002D01*
X157073666Y-107218213D01*
X157074324Y-107177100D01*
X157075000Y-107160000D01*
X156925000Y-107160000D01*
G37*
%TD.AperFunction*%
%TD*%
%TA.AperFunction,Conductor*%
%TO.N,/Pin1*%
G36*
X97695000Y-110780000D02*
G01*
X97675744Y-110851607D01*
X97614422Y-110923748D01*
X97506192Y-110986794D01*
X97435687Y-111009893D01*
X97356631Y-111024745D01*
X97270000Y-111030000D01*
X97770000Y-111531000D01*
X98270000Y-111030000D01*
X98111025Y-111011571D01*
X98040156Y-110989324D01*
X97978652Y-110960143D01*
X97927566Y-110925381D01*
X97887857Y-110886336D01*
X97861916Y-110847121D01*
X97847637Y-110806393D01*
X97845000Y-110780000D01*
X97695000Y-110780000D01*
G37*
%TD.AperFunction*%
%TD*%
%TA.AperFunction,Conductor*%
%TO.N,/Pin1*%
G36*
X169347600Y-97432400D02*
G01*
X169352528Y-97391722D01*
X169367020Y-97355306D01*
X169423111Y-97294403D01*
X169525853Y-97243520D01*
X169697225Y-97204394D01*
X169968059Y-97183683D01*
X170072600Y-97182400D01*
X169222600Y-96331400D01*
X168372600Y-97182400D01*
X168576647Y-97187764D01*
X168754167Y-97205308D01*
X168863759Y-97226977D01*
X168954661Y-97257090D01*
X169010999Y-97286763D01*
X169054033Y-97322400D01*
X169078847Y-97356517D01*
X169093505Y-97395165D01*
X169097600Y-97432400D01*
X169347600Y-97432400D01*
G37*
%TD.AperFunction*%
%TD*%
%TA.AperFunction,Conductor*%
%TO.N,/Pin1*%
G36*
X167575000Y-113307500D02*
G01*
X167575419Y-113322638D01*
X167571277Y-113392587D01*
X167556146Y-113420966D01*
X167525000Y-113432500D01*
X167650000Y-113558500D01*
X167775000Y-113432500D01*
X167753562Y-113427867D01*
X167739042Y-113415438D01*
X167724941Y-113370200D01*
X167724581Y-113322638D01*
X167725000Y-113307500D01*
X167575000Y-113307500D01*
G37*
%TD.AperFunction*%
%TD*%
%TA.AperFunction,Conductor*%
%TO.N,/Pin1*%
G36*
X84980849Y-112644000D02*
G01*
X84978107Y-112646087D01*
X84839391Y-112742544D01*
X84757419Y-112783264D01*
X84679983Y-112800000D01*
X84733400Y-112940000D01*
X84949400Y-112934794D01*
X84936729Y-112902541D01*
X84934500Y-112873300D01*
X84954284Y-112821342D01*
X84980849Y-112794000D01*
X84980849Y-112644000D01*
G37*
%TD.AperFunction*%
%TD*%
%TA.AperFunction,Conductor*%
%TO.N,/Pin1*%
G36*
X111475000Y-97540000D02*
G01*
X111495000Y-97449536D01*
X111521861Y-97397298D01*
X111559988Y-97349752D01*
X111598848Y-97318895D01*
X111645002Y-97297958D01*
X111700000Y-97290000D01*
X111400000Y-96939000D01*
X111100000Y-97290000D01*
X111181163Y-97308005D01*
X111249554Y-97359716D01*
X111302412Y-97443309D01*
X111325000Y-97540000D01*
X111475000Y-97540000D01*
G37*
%TD.AperFunction*%
%TD*%
%TA.AperFunction,Conductor*%
%TO.N,/Pin1*%
G36*
X133755000Y-108600000D02*
G01*
X133774237Y-108528524D01*
X133832718Y-108464763D01*
X133940550Y-108407895D01*
X134109407Y-108365372D01*
X134321064Y-108350000D01*
X133870000Y-107249000D01*
X133270000Y-108350000D01*
X133390794Y-108368171D01*
X133493644Y-108419547D01*
X133569273Y-108496720D01*
X133592363Y-108539869D01*
X133603819Y-108582340D01*
X133605000Y-108600000D01*
X133755000Y-108600000D01*
G37*
%TD.AperFunction*%
%TD*%
%TA.AperFunction,Conductor*%
%TO.N,/Pin1*%
G36*
X85606000Y-109903400D02*
G01*
X85659787Y-109909027D01*
X85722932Y-109928413D01*
X85763852Y-109952821D01*
X85793732Y-109987579D01*
X85806000Y-110036709D01*
X86107000Y-109848800D01*
X85806000Y-109648800D01*
X85801289Y-109675289D01*
X85788309Y-109697006D01*
X85737368Y-109730953D01*
X85648688Y-109751120D01*
X85606000Y-109753400D01*
X85606000Y-109903400D01*
G37*
%TD.AperFunction*%
%TD*%
%TA.AperFunction,Conductor*%
%TO.N,/Pin1*%
G36*
X143172227Y-111203427D02*
G01*
X143175635Y-111211029D01*
X143176061Y-111218457D01*
X143187567Y-111266133D01*
X143187572Y-111266146D01*
X143211101Y-111315105D01*
X143211110Y-111315120D01*
X143246254Y-111363844D01*
X143246257Y-111363847D01*
X143292075Y-111409905D01*
X143292077Y-111409906D01*
X143292079Y-111409908D01*
X143404950Y-111482531D01*
X143404951Y-111482531D01*
X143404954Y-111482533D01*
X143526547Y-111520065D01*
X143533440Y-111525779D01*
X143534536Y-111533693D01*
X143071441Y-113697541D01*
X143066359Y-113704913D01*
X143057551Y-113706533D01*
X143050179Y-113701451D01*
X143048559Y-113697541D01*
X142585699Y-111534794D01*
X142587319Y-111525986D01*
X142594691Y-111520904D01*
X142594720Y-111520897D01*
X142677260Y-111504206D01*
X142677267Y-111504203D01*
X142677270Y-111504203D01*
X142695377Y-111498259D01*
X142759540Y-111477200D01*
X142832860Y-111442981D01*
X142943730Y-111362526D01*
X143005751Y-111278811D01*
X143022820Y-111208923D01*
X143028112Y-111201700D01*
X143034186Y-111200000D01*
X143163954Y-111200000D01*
X143172227Y-111203427D01*
G37*
%TD.AperFunction*%
%TD*%
%TA.AperFunction,Conductor*%
%TO.N,/Pin1*%
G36*
X154475000Y-104500000D02*
G01*
X154472483Y-104477585D01*
X154469764Y-104426748D01*
X154478516Y-104407606D01*
X154500000Y-104400000D01*
X154400000Y-104299000D01*
X154300000Y-104400000D01*
X154317761Y-104404587D01*
X154327437Y-104416698D01*
X154329983Y-104459680D01*
X154327517Y-104477585D01*
X154325000Y-104500000D01*
X154475000Y-104500000D01*
G37*
%TD.AperFunction*%
%TD*%
%TA.AperFunction,Conductor*%
%TO.N,/Pin1*%
G36*
X112800000Y-111675000D02*
G01*
X112795086Y-111717212D01*
X112780690Y-111754398D01*
X112725964Y-111814634D01*
X112626892Y-111863344D01*
X112460702Y-111900218D01*
X112188729Y-111921176D01*
X111884085Y-111925000D01*
X112950000Y-113576000D01*
X113885642Y-111925000D01*
X113553345Y-111921000D01*
X113270732Y-111898000D01*
X113156151Y-111874218D01*
X113063706Y-111839499D01*
X112996632Y-111791779D01*
X112958168Y-111728997D01*
X112950000Y-111675000D01*
X112800000Y-111675000D01*
G37*
%TD.AperFunction*%
%TD*%
%TA.AperFunction,Conductor*%
%TO.N,/Pin1*%
G36*
X112265000Y-106430000D02*
G01*
X112260086Y-106472362D01*
X112245688Y-106509655D01*
X112191019Y-106569948D01*
X112092151Y-106618597D01*
X111926329Y-106655346D01*
X111654656Y-106676179D01*
X111340000Y-106680000D01*
X112340000Y-107831000D01*
X113340000Y-106680000D01*
X113052276Y-106677010D01*
X112799202Y-106661080D01*
X112690881Y-106645000D01*
X112597490Y-106621770D01*
X112521118Y-106590084D01*
X112463853Y-106548639D01*
X112437464Y-106515176D01*
X112420981Y-106476479D01*
X112415000Y-106430000D01*
X112265000Y-106430000D01*
G37*
%TD.AperFunction*%
%TD*%
%TA.AperFunction,Conductor*%
%TO.N,/Pin1*%
G36*
X84634000Y-111174000D02*
G01*
X84634035Y-111181307D01*
X84626357Y-111263662D01*
X84607023Y-111299270D01*
X84569000Y-111314000D01*
X84709000Y-111455000D01*
X84849000Y-111314000D01*
X84825608Y-111309346D01*
X84808600Y-111296768D01*
X84788437Y-111250255D01*
X84783965Y-111181307D01*
X84784000Y-111174000D01*
X84634000Y-111174000D01*
G37*
%TD.AperFunction*%
%TD*%
%TA.AperFunction,Conductor*%
%TO.N,/Pin1*%
G36*
X142528621Y-113218587D02*
G01*
X143052703Y-113741719D01*
X143056137Y-113749989D01*
X143052718Y-113758266D01*
X143052703Y-113758281D01*
X142528174Y-114281858D01*
X142519897Y-114285277D01*
X142511627Y-114281843D01*
X142508236Y-114274381D01*
X142501190Y-114172038D01*
X142501188Y-114172026D01*
X142486601Y-114115309D01*
X142460359Y-114013271D01*
X142399403Y-113904445D01*
X142331069Y-113844239D01*
X142331066Y-113844238D01*
X142331065Y-113844237D01*
X142331067Y-113844237D01*
X142268643Y-113827338D01*
X142261552Y-113821869D01*
X142260000Y-113816045D01*
X142260000Y-113685463D01*
X142263427Y-113677190D01*
X142270398Y-113673836D01*
X142283959Y-113672318D01*
X142289989Y-113671644D01*
X142289989Y-113671643D01*
X142289997Y-113671643D01*
X142322350Y-113659276D01*
X142329971Y-113656364D01*
X142329971Y-113656363D01*
X142329973Y-113656363D01*
X142367608Y-113629509D01*
X142406047Y-113586898D01*
X142439824Y-113532101D01*
X142469167Y-113463026D01*
X142491346Y-113383264D01*
X142505168Y-113295518D01*
X142508670Y-113226275D01*
X142512510Y-113218187D01*
X142520946Y-113215183D01*
X142528621Y-113218587D01*
G37*
%TD.AperFunction*%
%TD*%
%TA.AperFunction,Conductor*%
%TO.N,/Pin1*%
G36*
X123370000Y-96185000D02*
G01*
X123445846Y-96204384D01*
X123488862Y-96230997D01*
X123529509Y-96268131D01*
X123565024Y-96314612D01*
X123593504Y-96370169D01*
X123611448Y-96428637D01*
X123619673Y-96493767D01*
X123620000Y-96510000D01*
X124071000Y-96110000D01*
X123620000Y-95710000D01*
X123601850Y-95826911D01*
X123550467Y-95926536D01*
X123472855Y-96000265D01*
X123429157Y-96022927D01*
X123386464Y-96033977D01*
X123370000Y-96035000D01*
X123370000Y-96185000D01*
G37*
%TD.AperFunction*%
%TD*%
%TA.AperFunction,Conductor*%
%TO.N,/Pin1*%
G36*
X111475000Y-99100000D02*
G01*
X111480351Y-99047587D01*
X111497811Y-98985127D01*
X111522869Y-98935817D01*
X111558821Y-98896972D01*
X111589106Y-98880869D01*
X111625000Y-98875000D01*
X111400000Y-98649000D01*
X111175000Y-98875000D01*
X111235256Y-98892845D01*
X111282462Y-98944232D01*
X111316219Y-99031145D01*
X111325000Y-99100000D01*
X111475000Y-99100000D01*
G37*
%TD.AperFunction*%
%TD*%
%TA.AperFunction,Conductor*%
%TO.N,/Pin1*%
G36*
X111465000Y-99960000D02*
G01*
X111445703Y-100033030D01*
X111383172Y-100110207D01*
X111334874Y-100145377D01*
X111276981Y-100174586D01*
X111211943Y-100195675D01*
X111139286Y-100207755D01*
X111090000Y-100210000D01*
X111540000Y-100811000D01*
X111990000Y-100210000D01*
X111853001Y-100191733D01*
X111737119Y-100140354D01*
X111690464Y-100104528D01*
X111654288Y-100064786D01*
X111629721Y-100023587D01*
X111616833Y-99981951D01*
X111615000Y-99960000D01*
X111465000Y-99960000D01*
G37*
%TD.AperFunction*%
%TD*%
%TA.AperFunction,Conductor*%
%TO.N,/Pin1*%
G36*
X124550000Y-101085000D02*
G01*
X124465010Y-101065263D01*
X124415297Y-101038307D01*
X124369212Y-101000247D01*
X124336182Y-100958938D01*
X124312333Y-100909804D01*
X124300000Y-100835000D01*
X123769000Y-101160000D01*
X124300000Y-101485000D01*
X124318032Y-101395373D01*
X124369597Y-101319361D01*
X124451320Y-101260994D01*
X124500163Y-101242405D01*
X124544560Y-101235107D01*
X124550000Y-101235000D01*
X124550000Y-101085000D01*
G37*
%TD.AperFunction*%
%TD*%
%TA.AperFunction,Conductor*%
%TO.N,/Pin1*%
G36*
X112950000Y-109230000D02*
G01*
X112954906Y-109191441D01*
X112969248Y-109155911D01*
X113026974Y-109091494D01*
X113133797Y-109033410D01*
X113306505Y-108985752D01*
X113557072Y-108958248D01*
X113590000Y-108956962D01*
X112340000Y-107829000D01*
X111709101Y-108980000D01*
X111863232Y-108979529D01*
X112227088Y-108981829D01*
X112386179Y-108990550D01*
X112524937Y-109008322D01*
X112639529Y-109038150D01*
X112726125Y-109083036D01*
X112780893Y-109145985D01*
X112795143Y-109185171D01*
X112800000Y-109230000D01*
X112950000Y-109230000D01*
G37*
%TD.AperFunction*%
%TD*%
%TA.AperFunction,Conductor*%
%TO.N,/Pin1*%
G36*
X108205000Y-108550000D02*
G01*
X108200090Y-108589880D01*
X108185724Y-108625511D01*
X108129868Y-108685551D01*
X108027242Y-108736113D01*
X107856031Y-108775506D01*
X107586083Y-108797645D01*
X107433578Y-108800000D01*
X107980000Y-110551000D01*
X108780000Y-108800000D01*
X108621025Y-108781571D01*
X108550156Y-108759324D01*
X108488652Y-108730143D01*
X108437566Y-108695381D01*
X108397857Y-108656336D01*
X108371916Y-108617121D01*
X108357637Y-108576393D01*
X108355000Y-108550000D01*
X108205000Y-108550000D01*
G37*
%TD.AperFunction*%
%TD*%
%TA.AperFunction,Conductor*%
%TO.N,/Pin1*%
G36*
X90420000Y-110725000D02*
G01*
X90493030Y-110744297D01*
X90570207Y-110806828D01*
X90605377Y-110855126D01*
X90634586Y-110913019D01*
X90655675Y-110978057D01*
X90667755Y-111050714D01*
X90670000Y-111100000D01*
X91521000Y-110650000D01*
X90670000Y-110200000D01*
X90651733Y-110336999D01*
X90600354Y-110452881D01*
X90564528Y-110499536D01*
X90524786Y-110535712D01*
X90483587Y-110560279D01*
X90441951Y-110573167D01*
X90420000Y-110575000D01*
X90420000Y-110725000D01*
G37*
%TD.AperFunction*%
%TD*%
%TA.AperFunction,Conductor*%
%TO.N,/Pin1*%
G36*
X124040000Y-114525000D02*
G01*
X123964154Y-114505616D01*
X123921138Y-114479003D01*
X123880491Y-114441869D01*
X123844976Y-114395388D01*
X123816496Y-114339831D01*
X123798552Y-114281363D01*
X123790327Y-114216233D01*
X123790000Y-114200000D01*
X123339000Y-114600000D01*
X123790000Y-115000000D01*
X123808150Y-114883089D01*
X123859533Y-114783464D01*
X123937145Y-114709735D01*
X123980843Y-114687073D01*
X124023536Y-114676023D01*
X124040000Y-114675000D01*
X124040000Y-114525000D01*
G37*
%TD.AperFunction*%
%TD*%
%TA.AperFunction,Conductor*%
%TO.N,/Pin1*%
G36*
X98220000Y-106790000D02*
G01*
X98181577Y-106785093D01*
X98146718Y-106770745D01*
X98085739Y-106713842D01*
X98032824Y-106608640D01*
X97991502Y-106436200D01*
X97970695Y-106178554D01*
X97970000Y-106115000D01*
X97219000Y-106865000D01*
X97970000Y-107615000D01*
X97975146Y-107447647D01*
X97991170Y-107295957D01*
X98013161Y-107186271D01*
X98043618Y-107093344D01*
X98074243Y-107033194D01*
X98110792Y-106986815D01*
X98145036Y-106960228D01*
X98183491Y-106944413D01*
X98220000Y-106940000D01*
X98220000Y-106790000D01*
G37*
%TD.AperFunction*%
%TD*%
%TA.AperFunction,Conductor*%
%TO.N,/Pin1*%
G36*
X152725000Y-107075000D02*
G01*
X152715051Y-107180418D01*
X152692196Y-107229375D01*
X152673261Y-107244440D01*
X152648162Y-107250000D01*
X152850000Y-107426000D01*
X153001695Y-107250000D01*
X152969206Y-107245304D01*
X152942439Y-107232431D01*
X152901231Y-107184102D01*
X152877393Y-107106796D01*
X152875000Y-107075000D01*
X152725000Y-107075000D01*
G37*
%TD.AperFunction*%
%TD*%
%TA.AperFunction,Conductor*%
%TO.N,/Pin1*%
G36*
X129345000Y-111035000D02*
G01*
X129435722Y-111044375D01*
X129477458Y-111066641D01*
X129490274Y-111085244D01*
X129495000Y-111110000D01*
X129721000Y-110960000D01*
X129495000Y-110810000D01*
X129490334Y-110834615D01*
X129477669Y-110853152D01*
X129430381Y-110877082D01*
X129345000Y-110885000D01*
X129345000Y-111035000D01*
G37*
%TD.AperFunction*%
%TD*%
%TA.AperFunction,Conductor*%
%TO.N,/Pin1*%
G36*
X98720000Y-106940000D02*
G01*
X98762857Y-106944915D01*
X98800513Y-106959319D01*
X98861025Y-107013808D01*
X98909505Y-107112017D01*
X98945877Y-107276605D01*
X98966284Y-107547050D01*
X98970000Y-107895069D01*
X100221000Y-107115000D01*
X98970000Y-106140000D01*
X98964927Y-106295523D01*
X98949419Y-106437014D01*
X98927438Y-106544180D01*
X98897161Y-106635306D01*
X98866241Y-106695757D01*
X98829507Y-106742455D01*
X98795059Y-106769425D01*
X98756547Y-106785492D01*
X98720000Y-106790000D01*
X98720000Y-106940000D01*
G37*
%TD.AperFunction*%
%TD*%
%TA.AperFunction,Conductor*%
%TO.N,/Pin1*%
G36*
X127220000Y-102275000D02*
G01*
X127292722Y-102294288D01*
X127368988Y-102356619D01*
X127404023Y-102405113D01*
X127433237Y-102463265D01*
X127454725Y-102529272D01*
X127467325Y-102603052D01*
X127470000Y-102658105D01*
X127821000Y-102410000D01*
X127470000Y-101916603D01*
X127452011Y-101992295D01*
X127400162Y-102055699D01*
X127315110Y-102104794D01*
X127220000Y-102125000D01*
X127220000Y-102275000D01*
G37*
%TD.AperFunction*%
%TD*%
M02*
